<?xml version="1.0" standalone="no"?><!DOCTYPE svg PUBLIC "-//W3C//DTD SVG 1.1//EN" "http://www.w3.org/Graphics/SVG/1.1/DTD/svg11.dtd"><svg height="1024" node-id="1" sillyvg="true" template-height="1024" template-width="1024" version="1.1" viewBox="0 0 1024 1024" width="1024" xmlns="http://www.w3.org/2000/svg" xmlns:xlink="http://www.w3.org/1999/xlink"><defs node-id="69"><clipPath id="master_svg0_30_366" node-id="3"><path d="M 0.00 0.00 L 1024.00 0.00 L 1024.00 1024.00 L 0.00 1024.00 Z" fill="#000000" fill-rule="nonzero" node-id="72" stroke="none" target-height="1024" target-width="1024" target-x="0" target-y="0"></path></clipPath></defs><g node-id="233"><g clip-path="url(#master_svg0_30_366)" group-id="1" id="sillyvg_g_1" node-id="78"><path d="M 930.70 253.82 C 923.70 257.43 913.24 263.90 912.33 264.60 C 906.15 269.44 900.62 275.37 897.23 282.54 C 894.51 288.33 893.90 294.09 894.51 299.81 C 894.60 300.77 894.74 301.72 894.92 302.67 C 893.52 302.51 892.10 302.72 890.81 303.29 L 856.75 318.16 C 855.44 318.71 854.31 319.62 853.48 320.77 C 852.91 320.01 852.31 319.28 851.69 318.57 C 847.90 314.21 843.27 310.71 837.14 308.78 C 829.60 306.37 821.49 306.40 813.73 307.65 C 813.14 307.76 809.51 308.71 805.15 310.01 C 801.29 311.14 796.82 312.50 793.34 313.78 C 789.86 315.05 786.00 313.23 784.76 309.74 C 776.63 286.85 754.77 219.38 745.28 179.15 C 734.38 132.88 772.27 84.26 774.66 83.69 C 775.05 83.43 775.51 83.30 775.97 83.32 C 777.25 83.41 778.77 83.57 780.56 83.76 C 798.70 85.84 842.56 94.15 864.65 127.05 C 887.67 161.37 922.29 223.28 933.55 244.78 C 935.29 248.06 934.01 252.14 930.70 253.82 Z" fill="#fd8a02" fill-rule="nonzero" group-id="1,2" node-id="82" stroke="none" target-height="237.46713" target-width="200.90912" target-x="734.3843" target-y="83.30121"></path><path d="M 930.70 253.82 C 923.70 257.43 913.24 263.90 912.33 264.60 C 906.15 269.44 900.62 275.37 897.23 282.54 C 894.51 288.33 893.90 294.09 894.51 299.81 C 894.60 300.77 894.74 301.72 894.92 302.67 C 893.52 302.51 892.10 302.72 890.81 303.29 L 856.75 318.16 C 855.44 318.71 854.31 319.62 853.48 320.77 C 852.91 320.01 852.31 319.28 851.69 318.57 C 847.90 314.21 843.27 310.71 837.14 308.78 C 829.60 306.37 821.49 306.40 813.73 307.65 C 813.14 307.76 809.51 308.71 805.15 310.01 C 803.38 300.15 805.72 281.72 834.59 258.36 C 840.09 253.93 846.51 249.32 854.07 244.56 C 855.73 243.52 857.31 242.38 858.81 241.13 C 905.33 202.87 812.93 112.93 780.56 83.76 C 798.70 85.84 842.56 94.15 864.65 127.05 C 887.67 161.37 922.29 223.28 933.55 244.78 C 935.29 248.06 934.01 252.13 930.70 253.82 Z" fill="#000e3f" fill-opacity="0.15" fill-rule="nonzero" group-id="1,3" node-id="87" stroke="none" target-height="237.012" target-width="154.73297" target-x="780.56006" target-y="83.75592"></path><path d="M 894.51 299.81 L 851.70 318.57 L 834.60 258.36 L 807.22 161.86 C 806.76 160.23 808.98 159.26 809.86 160.71 L 858.81 241.13 L 894.51 299.81 Z" fill="#ffcf00" fill-rule="nonzero" group-id="1,4" node-id="92" stroke="none" target-height="159.31003" target-width="87.75195" target-x="806.7582" target-y="159.26001"></path><path d="M 894.51 299.81 L 851.70 318.57 L 834.60 258.36 C 840.08 253.94 846.51 249.32 854.07 244.56 C 855.72 243.52 857.31 242.37 858.81 241.13 L 894.51 299.81 Z" fill="#fd8a02" fill-opacity="0.5" fill-rule="nonzero" group-id="1,5" node-id="97" stroke="none" target-height="77.441986" target-width="59.906006" target-x="834.604" target-y="241.12799"></path><path d="M 992.74 559.05 L 975.01 566.80 C 966.18 570.65 958.64 569.32 951.97 564.28 C 934.44 551.22 922.48 513.20 907.47 477.21 C 884.20 421.37 895.48 415.28 887.70 391.28 C 884.43 381.18 875.96 373.53 870.71 364.06 C 867.90 358.96 865.11 353.24 863.22 347.38 C 865.23 348.20 867.48 348.17 869.47 347.29 L 903.52 332.42 C 905.55 331.54 907.12 329.86 907.88 327.79 C 910.42 332.28 912.37 337.16 914.01 341.88 C 914.32 342.86 914.64 343.81 914.96 344.75 C 918.37 355.01 918.21 366.43 923.41 375.71 C 935.71 397.73 947.83 393.60 972.94 448.63 C 995.35 497.69 1024.55 545.18 992.74 559.05 Z" fill="#fc09b2" fill-rule="nonzero" group-id="1,6" node-id="102" stroke="none" target-height="242.86798" target-width="161.32397" target-x="863.22217" target-y="327.78595"></path><path d="M 907.88 327.79 C 907.12 329.86 905.55 331.53 903.52 332.42 L 869.47 347.29 C 867.49 348.17 865.23 348.20 863.22 347.38 C 861.20 346.60 859.57 345.05 858.71 343.06 L 852.53 328.90 C 851.35 326.22 851.72 323.11 853.48 320.77 C 854.31 319.62 855.45 318.71 856.75 318.16 L 890.81 303.29 C 892.10 302.72 893.52 302.51 894.92 302.68 C 897.85 302.96 900.40 304.81 901.57 307.51 L 907.75 321.68 C 908.63 323.70 908.63 325.88 907.88 327.79 Z" fill="#018100" fill-rule="nonzero" group-id="1,7" node-id="107" stroke="none" target-height="45.690247" target-width="57.27899" target-x="851.35095" target-y="302.5092"></path><path d="M 777.69 125.46 C 776.19 136.71 775.94 147.90 776.69 159.03 C 777.49 170.16 779.16 181.20 781.69 192.07 C 784.12 202.96 787.39 213.68 791.10 224.24 C 794.86 234.79 799.18 245.14 803.81 255.42 L 803.82 255.45 C 805.05 258.17 803.96 261.38 801.34 262.81 C 798.71 264.23 795.43 263.39 793.81 260.88 C 787.41 250.89 782.22 240.16 777.98 229.08 C 773.72 217.99 770.53 206.49 768.35 194.78 C 766.29 183.05 765.24 171.09 765.80 159.14 C 766.33 147.21 768.37 135.26 772.64 124.15 C 773.13 122.91 774.45 122.23 775.74 122.56 C 777.03 122.88 777.87 124.12 777.70 125.43 L 777.69 125.46 Z M 908.10 419.32 C 914.76 433.96 920.59 448.87 926.38 463.75 L 934.90 486.08 C 937.75 493.49 940.49 500.97 943.50 508.06 L 943.54 508.17 C 944.32 510.01 943.53 512.14 941.75 513.04 C 939.96 513.94 937.78 513.30 936.77 511.57 C 932.54 504.37 929.24 496.99 926.22 489.49 C 923.18 482.02 920.45 474.44 917.85 466.84 C 912.77 451.58 908.17 436.19 904.79 420.41 C 904.60 419.53 905.10 418.65 905.95 418.38 C 906.81 418.10 907.73 418.51 908.10 419.32 Z" fill="#ffffff" fill-opacity="0.5" fill-rule="nonzero" group-id="1,8,31" node-id="114" stroke="none" target-height="391.70856" target-width="179.07855" target-x="765.2422" target-y="122.23003"></path><path d="M 992.74 559.06 L 975.01 566.80 C 966.19 570.65 958.65 569.31 951.97 564.27 C 981.23 519.64 946.48 438.83 919.78 397.94 C 900.79 368.83 906.97 350.99 914.01 341.88 C 914.34 342.85 914.66 343.80 914.97 344.75 C 918.36 355.01 918.21 366.42 923.40 375.70 C 935.72 397.72 947.84 393.60 972.95 448.63 C 995.36 497.70 1024.55 545.17 992.74 559.06 Z" fill="#000e3f" fill-opacity="0.25" fill-rule="nonzero" group-id="1,9" node-id="120" stroke="none" target-height="228.77197" target-width="123.76837" target-x="900.78595" target-y="341.87604"></path><path d="M 986.93 467.65 C 983.64 460.77 980.29 453.78 977.08 446.74 C 960.72 410.89 949.54 399.42 940.56 390.20 C 935.71 385.23 931.53 380.93 927.37 373.49 C 924.59 368.53 923.50 362.66 922.35 356.44 C 921.55 352.13 920.72 347.68 919.28 343.33 C 917.71 338.56 915.72 333.10 913.04 327.85 C 913.01 327.50 912.93 327.16 912.82 326.83 C 913.18 324.47 912.87 322.05 911.91 319.86 L 905.72 305.69 C 904.42 302.72 902.02 300.36 899.02 299.10 C 898.49 293.76 899.24 288.97 901.34 284.49 C 904.08 278.69 908.72 273.20 915.05 268.26 C 916.08 267.52 926.02 261.36 932.79 257.86 C 935.46 256.48 937.47 254.09 938.36 251.22 C 939.26 248.39 938.98 245.31 937.59 242.69 C 926.96 222.40 891.96 159.59 868.43 124.53 C 843.17 86.92 791.57 80.03 776.23 78.80 C 774.82 78.73 773.43 79.09 772.24 79.84 L 772.33 79.98 C 763.63 86.50 730.27 135.23 740.87 180.21 C 750.63 221.61 772.87 289.80 780.49 311.25 C 781.47 314.06 783.54 316.36 786.22 317.63 C 788.95 318.93 792.02 319.08 794.89 318.05 C 802.06 315.47 813.34 312.37 814.46 312.13 C 822.50 310.83 829.67 311.16 835.77 313.10 C 840.48 314.60 844.50 317.31 848.07 321.35 C 846.96 324.40 847.06 327.76 848.35 330.73 L 854.54 344.89 C 855.58 347.28 857.34 349.28 859.57 350.63 C 861.23 355.41 863.56 360.53 866.74 366.27 C 868.95 370.26 871.65 373.88 874.25 377.37 C 878.04 382.46 881.62 387.27 883.38 392.68 C 886.00 400.79 886.31 406.79 886.66 413.73 C 887.31 426.58 888.13 442.58 903.28 478.95 C 906.26 486.12 909.13 493.37 911.95 500.49 C 925.43 534.56 937.07 563.98 955.73 571.67 C 958.78 572.93 961.93 573.56 965.16 573.56 C 968.95 573.56 972.85 572.69 976.83 570.96 L 994.55 563.21 C 1001.91 560.00 1006.91 554.97 1009.41 548.24 C 1016.46 529.31 1002.78 500.74 986.93 467.65 Z M 838.53 304.45 C 831.07 302.07 822.49 301.64 812.95 303.18 C 811.33 303.47 799.27 306.83 791.83 309.50 C 791.27 309.70 790.67 309.68 790.13 309.43 C 789.63 309.19 789.24 308.75 789.06 308.22 C 781.48 286.89 759.39 219.17 749.71 178.13 C 740.01 136.98 771.21 93.74 776.64 87.94 C 791.98 89.30 838.42 96.13 860.89 129.59 C 884.22 164.36 918.98 226.74 929.55 246.91 C 929.88 247.55 929.81 248.13 929.70 248.50 C 929.52 249.06 929.13 249.53 928.61 249.79 C 921.70 253.36 910.85 260.04 909.54 261.03 C 902.00 266.92 896.47 273.51 893.12 280.62 C 890.46 286.29 889.46 292.28 889.93 298.82 C 889.62 298.93 889.29 298.99 888.98 299.12 L 854.92 313.99 C 854.60 314.13 854.34 314.33 854.04 314.49 C 849.55 309.67 844.48 306.33 838.53 304.45 Z M 856.68 327.10 C 856.14 325.83 856.36 324.36 857.26 323.32 C 857.32 323.23 857.42 323.16 857.47 323.07 C 857.78 322.77 858.14 322.50 858.56 322.31 L 892.52 307.49 C 893.52 308.21 894.78 308.48 896.00 308.25 C 896.16 308.21 896.29 308.11 896.45 308.06 C 896.84 308.40 897.18 308.81 897.40 309.32 L 903.59 323.49 C 903.87 324.13 903.89 324.80 903.80 325.45 L 864.18 342.74 C 863.62 342.36 863.14 341.89 862.87 341.26 L 856.68 327.10 Z M 1000.91 545.08 C 999.27 549.47 996.01 552.68 990.92 554.90 L 973.20 562.64 C 968.11 564.86 963.53 565.07 959.20 563.29 C 944.10 557.06 932.59 527.96 920.40 497.15 C 917.56 489.99 914.67 482.68 911.66 475.47 C 897.12 440.55 896.35 425.43 895.73 413.27 C 895.36 406.01 895.02 399.14 892.02 389.89 C 889.80 383.05 885.60 377.41 881.54 371.96 C 879.00 368.55 876.60 365.33 874.69 361.87 C 872.39 357.72 870.59 353.97 869.19 350.46 L 906.13 334.34 C 907.98 338.35 909.44 342.49 910.66 346.18 C 911.90 349.95 912.64 353.91 913.42 358.10 C 914.66 364.77 915.94 371.66 919.44 377.92 C 924.18 386.41 928.98 391.33 934.06 396.54 C 942.55 405.26 953.11 416.10 968.82 450.52 C 972.05 457.60 975.43 464.65 978.74 471.57 C 993.07 501.49 1006.61 529.76 1000.91 545.08 Z" fill="#000e3f" fill-rule="nonzero" group-id="1,10" node-id="125" stroke="none" target-height="494.83014" target-width="286.1938" target-x="730.2681" target-y="78.72974"></path><path d="M 878.58 705.66 C 882.73 702.18 887.00 698.88 891.73 696.23 C 894.73 694.54 896.41 694.96 898.58 697.62 C 903.67 703.88 908.09 713.62 909.27 717.03 C 909.77 718.47 910.82 718.66 911.86 717.57 C 924.34 704.39 982.63 656.95 1000.67 655.20 C 1003.84 654.90 1005.32 655.87 1006.46 658.86 C 1008.01 662.94 1008.23 667.22 1008.07 671.50 C 1006.73 708.37 979.71 757.71 980.33 757.85 C 980.55 757.89 980.83 758.00 980.99 757.91 C 985.99 755.18 991.41 753.53 996.73 751.63 C 1001.02 750.10 1005.48 749.31 1009.94 748.52 C 1012.20 748.12 1014.45 748.35 1016.67 748.92 C 1018.31 749.34 1019.33 750.34 1019.42 752.08 C 1020.30 768.97 1005.99 792.70 995.24 805.28 C 962.24 843.91 900.35 878.52 850.57 874.70 C 847.69 874.47 844.83 873.95 841.97 873.58 C 839.88 873.30 838.60 872.11 837.82 870.19 C 828.13 846.45 825.77 787.30 854.93 735.34 C 860.70 725.07 872.89 710.43 878.58 705.66 Z" fill="#91d728" fill-rule="nonzero" group-id="1,11" node-id="130" stroke="none" target-height="223.62622" target-width="194.52765" target-x="825.7722" target-y="654.89777"></path><path d="M 930.80 855.20 C 903.07 869.15 879.66 874.43 859.77 874.98 C 851.81 875.20 844.42 874.24 841.38 873.44 C 839.14 872.85 838.58 872.01 839.37 869.92 C 841.29 864.87 843.60 859.97 846.28 855.28 C 854.02 841.72 875.57 829.96 890.14 824.00 C 909.70 816.00 921.11 812.38 932.89 802.13 C 937.12 798.45 938.28 796.65 940.25 795.12 C 942.91 793.05 951.47 780.66 955.42 767.20 C 962.02 744.73 963.30 741.29 967.94 733.34 C 974.87 721.48 976.03 720.15 978.40 717.24 C 986.15 707.70 988.93 704.51 997.93 697.99 C 1000.27 696.30 1004.46 693.83 1003.81 696.60 C 994.93 734.89 976.40 760.32 981.55 757.70 C 989.77 753.52 1018.35 742.84 1019.41 751.93 C 1020.96 765.22 1009.06 787.10 1000.54 798.25 C 998.72 800.63 957.36 841.83 930.80 855.20 Z" fill="#018100" fill-opacity="0.5" fill-rule="nonzero" group-id="1,12" node-id="135" stroke="none" target-height="181.37573" target-width="182.38611" target-x="838.5761" target-y="693.8259"></path><path d="M 990.26 681.47 C 985.15 699.43 976.28 716.43 964.99 731.42 C 959.42 739.00 953.14 745.98 946.65 752.70 C 940.13 759.40 933.06 765.55 926.43 771.60 C 912.87 783.66 900.27 795.83 889.50 810.03 C 878.44 824.27 868.05 839.01 858.35 854.21 C 857.38 855.72 855.42 856.23 853.84 855.38 C 852.26 854.53 851.61 852.61 852.33 850.97 C 859.90 834.08 869.06 817.95 879.69 802.80 C 884.85 795.16 890.95 787.67 897.30 780.83 C 903.72 773.99 910.53 767.65 917.33 761.47 C 931.23 749.42 944.14 737.64 955.61 723.99 C 966.96 710.42 976.79 695.57 984.23 679.26 C 984.91 677.69 986.69 676.93 988.29 677.52 C 989.89 678.10 990.75 679.84 990.26 681.47 Z" fill="#018100" fill-rule="nonzero" group-id="1,13" node-id="140" stroke="none" target-height="179.29303" target-width="139.14575" target-x="851.6059" target-y="676.9324"></path><path d="M 858.41 879.54 C 855.66 879.54 852.94 879.43 850.23 879.23 C 833.44 877.93 831.42 867.61 829.28 856.67 C 827.19 845.98 826.39 834.43 826.82 821.36 C 828.34 775.30 848.61 715.25 889.51 692.27 C 894.39 689.52 898.50 690.34 902.10 694.75 C 907.42 701.29 910.10 707.34 911.74 711.31 C 928.21 695.68 981.09 652.53 1000.24 650.69 C 1005.41 650.17 1008.83 652.33 1010.70 657.24 C 1012.67 662.42 1012.75 667.67 1012.61 671.67 C 1011.55 700.67 996.75 733.07 989.14 749.43 C 995.64 747.07 1002.33 745.27 1009.14 744.05 C 1011.86 743.57 1014.69 743.73 1017.80 744.52 C 1021.46 745.47 1023.77 748.20 1023.95 751.85 C 1025.00 771.83 1007.89 797.47 998.70 808.23 C 968.29 843.82 910.04 879.53 858.41 879.54 Z M 894.53 699.89 C 894.39 699.96 894.20 700.05 893.96 700.18 L 893.96 700.19 C 857.80 720.50 837.38 776.67 835.90 821.66 C 835.49 834.04 836.24 844.92 838.20 854.94 C 840.44 866.41 841.42 869.44 850.92 870.17 C 888.68 873.08 950.83 850.28 991.79 802.33 C 1003.30 788.86 1015.13 767.27 1014.91 753.18 C 1013.32 752.83 1011.96 752.78 1010.72 752.99 C 997.59 755.32 987.22 759.68 983.16 761.90 C 981.44 762.83 979.04 762.60 977.60 761.26 C 974.83 758.65 975.67 756.83 980.38 746.73 C 987.57 731.30 1002.52 699.18 1003.53 671.34 C 1003.70 666.61 1003.31 663.36 1002.21 660.48 C 1002.11 660.20 1001.99 659.92 1001.84 659.66 C 1001.75 659.69 1001.50 659.69 1001.11 659.73 C 985.87 661.20 929.29 705.77 915.15 720.69 C 913.09 722.87 911.01 723.02 909.64 722.76 C 906.35 722.14 905.19 719.30 903.72 715.71 C 902.23 712.05 899.97 706.53 895.05 700.49 C 894.89 700.28 894.72 700.08 894.53 699.89 Z M 891.73 696.23 L 891.78 696.23 L 891.73 696.23 Z" fill="#000e3f" fill-rule="nonzero" group-id="1,14" node-id="145" stroke="none" target-height="229.36383" target-width="198.61041" target-x="826.3881" target-y="650.17206"></path><path d="M 490.55 581.69 C 490.33 587.45 489.37 587.98 487.80 593.16 C 485.20 601.67 490.63 602.37 489.74 609.21 C 488.66 617.37 481.25 621.26 474.09 621.42 C 455.11 621.91 442.00 613.10 445.02 617.12 C 447.55 620.49 449.68 624.12 451.57 627.89 C 453.79 632.41 455.85 636.96 456.60 642.02 C 458.84 651.76 456.16 661.94 446.20 662.31 C 444.04 662.38 439.11 660.95 437.32 660.54 C 426.49 658.13 422.52 665.51 416.91 667.85 C 408.03 671.56 401.46 664.12 399.30 654.91 C 397.26 646.18 398.43 633.83 400.70 625.16 C 400.75 624.96 400.59 624.69 400.52 624.48 C 398.32 625.18 391.15 634.73 374.76 640.83 C 366.54 643.88 356.34 640.88 355.03 631.26 C 354.29 625.90 356.94 624.51 348.79 615.78 C 343.25 609.84 342.53 601.47 348.41 596.03 C 357.61 587.54 370.84 589.11 375.44 588.15 C 378.55 587.50 362.32 584.08 353.52 569.58 C 350.80 565.11 351.92 559.44 357.41 557.06 C 358.99 556.38 360.49 555.56 362.07 554.88 C 367.98 552.32 364.33 543.73 367.94 536.03 C 373.13 524.98 389.64 524.14 402.75 543.91 C 410.30 555.28 409.19 555.52 409.95 555.63 C 410.57 555.72 410.39 555.17 410.43 554.87 C 414.07 517.00 433.07 511.74 443.41 523.42 C 445.90 526.23 446.85 529.83 448.69 532.99 C 451.63 538.02 456.40 536.38 461.13 537.75 C 466.25 539.23 468.30 543.48 467.49 548.61 C 465.17 563.24 450.20 574.39 455.20 572.75 C 464.64 569.67 468.30 567.60 478.67 568.94 C 484.07 569.63 490.81 574.68 490.55 581.69 Z" fill="#ffffff" fill-rule="nonzero" group-id="1,15" node-id="150" stroke="none" target-height="159.8201" target-width="148.28455" target-x="342.52612" target-y="511.738"></path><path d="M 623.60 411.46 C 622.71 406.89 620.74 402.61 617.86 398.95 L 596.99 372.46 L 464.96 204.85 C 458.19 196.26 447.19 192.18 436.47 194.27 L 250.17 230.39 C 239.44 232.48 230.77 240.38 227.70 250.87 L 158.45 488.06 C 157.13 492.53 156.91 497.24 157.79 501.82 L 203.13 735.56 L 582.01 662.07 L 668.94 645.20 L 623.60 411.46 Z M 320.05 661.37 C 319.78 662.87 319.30 664.32 318.94 665.82 C 318.64 666.89 317.94 667.48 316.87 667.75 C 303.82 671.27 272.76 668.61 247.51 649.97 C 242.52 646.27 235.66 638.94 233.55 635.65 C 232.01 633.24 230.58 630.79 229.49 628.16 C 228.81 626.50 229.13 625.61 230.67 624.66 C 234.28 622.44 239.66 620.76 241.52 620.35 C 242.29 620.19 242.47 619.67 241.95 619.03 C 235.91 611.65 214.94 578.08 215.21 568.52 C 215.25 566.84 215.87 566.16 217.50 565.75 C 219.73 565.18 221.98 565.36 224.22 565.73 C 243.22 568.84 266.95 585.89 267.51 585.89 C 267.56 585.79 267.63 585.64 267.58 585.55 C 266.49 582.75 265.99 579.82 265.33 576.92 C 264.84 574.58 264.72 572.20 264.59 569.81 C 264.52 568.59 264.79 567.43 265.24 566.32 C 265.56 565.48 266.15 565.02 267.06 565.09 C 275.96 565.73 287.43 574.76 293.28 581.21 C 311.31 601.00 325.34 635.62 320.05 661.37 Z M 489.75 609.20 C 488.66 617.37 481.26 621.25 474.08 621.41 C 455.11 621.91 442.01 613.10 445.03 617.12 C 447.55 620.48 449.68 624.11 451.56 627.88 C 453.79 632.42 455.85 636.96 456.60 642.02 C 458.85 651.76 456.17 661.93 446.21 662.30 C 444.05 662.36 439.12 660.96 437.33 660.53 C 426.50 658.12 422.53 665.50 416.92 667.84 C 408.04 671.56 401.46 664.11 399.30 654.92 C 397.26 646.18 398.42 633.83 400.71 625.16 C 400.76 624.95 400.60 624.70 400.53 624.47 C 398.33 625.18 391.15 634.74 374.76 640.82 C 366.54 643.86 356.35 640.89 355.03 631.26 C 354.28 625.90 356.94 624.50 348.79 615.78 C 343.25 609.83 342.52 601.48 348.40 596.03 C 357.60 587.54 370.83 589.10 375.44 588.15 C 378.55 587.49 362.32 584.09 353.51 569.58 C 350.81 565.11 351.92 559.43 357.42 557.05 C 358.98 556.37 360.48 555.55 362.07 554.87 C 367.97 552.33 364.32 543.72 367.95 536.03 C 373.13 524.97 389.63 524.13 402.75 543.90 C 410.29 555.28 409.18 555.53 409.95 555.62 C 410.56 555.71 410.38 555.16 410.42 554.87 C 414.06 517.00 433.06 511.73 443.41 523.42 C 445.88 526.22 446.84 529.83 448.68 532.98 C 451.63 538.02 456.39 536.37 461.12 537.75 C 466.25 539.23 468.29 543.47 467.47 548.60 C 465.16 563.22 450.20 574.39 455.19 572.76 C 464.63 569.67 468.29 567.60 478.66 568.94 C 484.07 569.63 490.81 574.69 490.54 581.68 C 490.31 587.45 489.36 587.97 487.79 593.17 C 485.21 601.66 490.63 602.36 489.75 609.20 Z M 454.67 486.74 L 342.61 508.47 C 305.24 515.71 269.08 491.30 261.84 453.94 L 246.42 374.50 C 244.52 364.65 250.94 355.11 260.79 353.21 L 472.52 312.14 C 482.37 310.23 491.90 316.68 493.81 326.51 L 509.22 405.94 C 516.47 443.33 492.04 479.48 454.67 486.74 Z M 603.35 563.93 C 602.62 567.77 599.01 577.12 595.77 582.41 C 590.86 590.40 584.94 597.23 578.70 602.98 C 564.01 616.44 547.50 623.70 538.10 624.84 C 537.01 625.00 536.13 624.70 535.47 623.82 C 534.56 622.57 533.59 621.39 532.75 620.14 C 518.22 598.21 518.31 560.86 527.62 535.76 C 530.66 527.58 537.92 514.91 545.91 511.01 C 546.73 510.60 547.46 510.81 548.07 511.44 C 548.91 512.33 549.57 513.30 549.96 514.46 C 550.75 516.71 551.55 518.96 551.93 521.34 C 552.43 524.27 553.07 527.17 553.09 530.17 C 553.09 530.28 553.20 530.40 553.27 530.47 C 553.52 530.42 558.95 521.97 566.71 512.96 C 572.25 506.51 578.99 499.77 585.89 495.57 C 587.85 494.39 589.87 493.39 592.14 493.07 C 593.80 492.85 594.64 493.26 595.29 494.80 C 599.13 503.56 592.23 542.54 589.35 551.67 C 589.12 552.42 589.48 552.85 590.28 552.71 C 592.16 552.39 597.77 551.92 601.95 552.67 C 603.74 552.96 604.35 553.64 604.33 555.46 C 604.33 558.30 603.89 561.11 603.35 563.93 Z" fill="#018100" fill-rule="nonzero" group-id="1,16" node-id="155" stroke="none" target-height="543.3782" target-width="512.0269" target-x="156.909" target-y="192.17938"></path><path d="M 434.72 194.60 L 425.87 196.32 C 418.47 178.44 402.44 151.03 357.98 121.49 C 333.93 105.65 307.56 92.10 280.51 82.21 C 209.74 56.33 198.99 92.13 214.30 124.69 C 226.56 151.42 278.08 184.65 273.45 225.88 L 264.29 227.66 C 267.49 190.17 215.78 163.46 199.72 132.14 C 186.15 106.16 186.52 77.00 213.14 60.64 C 244.34 46.38 283.44 61.95 314.37 77.18 C 366.07 102.74 417.93 140.51 434.72 194.60 Z M 813.07 692.11 C 809.01 704.43 762.24 666.34 759.04 662.93 C 729.75 631.76 728.60 590.26 734.68 548.04 C 739.89 511.62 779.32 413.29 750.91 400.54 C 745.83 398.27 739.72 398.52 739.49 398.56 C 692.14 406.06 701.13 458.95 640.74 499.82 L 638.95 490.55 C 684.72 452.01 680.36 407.63 720.27 386.78 C 733.02 380.24 747.49 380.29 758.00 384.65 C 774.30 391.39 778.91 408.71 779.23 426.28 C 778.11 476.36 759.18 497.23 751.73 550.46 C 746.62 586.56 741.56 614.71 760.34 645.18 C 782.97 681.25 815.21 685.68 813.07 692.11 Z M 171.64 573.15 L 173.13 580.86 C 160.27 584.03 134.53 593.21 122.47 626.55 C 119.26 638.62 117.69 641.59 118.56 662.76 C 119.11 676.60 120.17 689.81 116.31 704.02 C 109.34 730.02 86.21 753.29 56.01 746.12 C 20.19 737.19 -8.74 681.54 22.19 624.82 C 37.08 597.74 58.50 578.95 66.81 569.94 C 90.68 544.31 98.27 518.35 96.30 496.74 C 94.12 470.34 77.32 451.58 77.19 451.61 C 76.20 450.57 70.80 443.62 60.28 435.99 C 36.50 418.77 15.86 418.84 16.90 413.23 C 18.30 405.63 47.59 418.13 50.61 419.51 C 119.53 450.77 126.78 528.59 79.22 581.80 C 51.06 613.35 15.31 647.15 31.31 696.91 C 36.98 716.00 53.83 729.41 64.26 729.88 L 66.06 730.13 C 80.88 731.56 102.02 716.06 104.01 682.21 C 105.22 660.91 100.08 631.54 121.04 603.82 C 136.80 583.00 157.62 575.04 171.64 573.15 Z M 686.51 889.25 L 278.07 968.46 C 277.32 968.60 276.57 968.71 275.85 968.80 C 275.60 968.85 275.35 968.85 275.10 968.87 C 274.98 968.89 274.89 968.92 274.78 968.92 C 274.62 968.92 274.46 968.94 274.30 968.94 C 274.19 968.96 274.08 968.96 273.96 968.96 C 273.78 968.98 273.58 968.98 273.40 968.98 C 272.49 969.03 271.60 969.01 270.72 968.94 C 270.42 968.92 270.10 968.92 269.81 968.87 C 269.34 968.84 268.87 968.79 268.40 968.71 C 268.18 968.69 267.96 968.66 267.74 968.62 C 267.47 968.58 267.20 968.51 266.92 968.46 C 266.88 968.46 266.86 968.46 266.83 968.44 C 266.59 968.40 266.35 968.35 266.11 968.28 C 265.56 968.17 265.01 968.03 264.47 967.87 C 263.83 967.69 263.19 967.49 262.57 967.26 C 262.50 967.26 262.45 967.22 262.41 967.19 C 261.84 967.00 261.29 966.77 260.75 966.51 C 260.13 966.27 259.53 965.98 258.96 965.65 C 258.40 965.39 257.86 965.10 257.34 964.77 C 255.52 963.65 253.82 962.34 252.28 960.86 C 251.98 960.60 251.70 960.32 251.44 960.02 C 250.53 959.10 249.70 958.12 248.94 957.07 C 248.76 956.82 248.56 956.55 248.40 956.28 C 247.30 954.71 246.37 953.03 245.65 951.26 C 245.40 950.74 245.18 950.20 245.01 949.65 C 244.82 949.13 244.64 948.61 244.49 948.08 C 244.37 947.68 244.27 947.28 244.17 946.88 C 244.04 946.38 243.92 945.86 243.81 945.36 L 211.57 779.02 L 574.92 708.55 L 677.36 688.68 L 709.62 855.00 C 712.71 870.84 702.35 886.17 686.51 889.25 Z M 498.78 352.15 L 509.21 405.95 C 516.46 443.32 492.05 479.49 454.67 486.74 L 342.61 508.47 C 305.24 515.72 269.08 491.30 261.83 453.93 L 251.39 400.13 L 498.78 352.15 Z M 604.33 555.46 C 604.33 558.30 603.89 561.11 603.35 563.93 C 602.62 567.77 599.01 577.12 595.77 582.41 C 590.86 590.40 584.94 597.23 578.70 602.98 C 564.01 616.44 547.50 623.70 538.10 624.84 C 537.01 625.00 536.13 624.70 535.47 623.82 C 534.56 622.57 533.59 621.39 532.75 620.14 C 518.22 598.21 518.31 560.86 527.62 535.76 C 530.66 527.58 537.92 514.91 545.91 511.01 C 546.73 510.60 547.46 510.81 548.07 511.44 C 548.91 512.33 549.57 513.30 549.96 514.46 C 550.75 516.71 551.55 518.96 551.93 521.34 C 552.43 524.27 553.07 527.17 553.09 530.17 C 553.09 530.28 553.20 530.40 553.27 530.47 C 553.52 530.42 558.95 521.97 566.71 512.96 C 572.25 506.51 578.99 499.77 585.89 495.57 C 587.85 494.39 589.87 493.39 592.14 493.07 C 593.80 492.85 594.64 493.26 595.29 494.80 C 599.13 503.56 592.23 542.54 589.35 551.67 C 589.12 552.42 589.48 552.85 590.28 552.71 C 592.16 552.39 597.77 551.92 601.95 552.67 C 603.74 552.96 604.35 553.65 604.33 555.46 Z M 320.06 661.38 C 319.77 662.87 319.31 664.32 318.92 665.81 C 318.65 666.88 317.93 667.48 316.87 667.75 C 303.82 671.26 272.76 668.61 247.52 649.96 C 242.52 646.26 235.67 638.94 233.55 635.65 C 232.02 633.24 230.57 630.80 229.48 628.16 C 228.81 626.49 229.13 625.62 230.68 624.67 C 234.27 622.42 239.65 620.76 241.52 620.35 C 242.30 620.20 242.47 619.65 241.96 619.04 C 235.90 611.66 214.93 578.07 215.21 568.52 C 215.25 566.84 215.86 566.15 217.49 565.74 C 219.72 565.19 221.97 565.35 224.22 565.73 C 243.27 568.83 267.09 585.97 267.51 585.89 C 267.56 585.79 267.62 585.64 267.58 585.55 C 266.49 582.76 265.99 579.83 265.33 576.92 C 264.83 574.57 264.71 572.19 264.58 569.81 C 264.52 568.59 264.78 567.43 265.24 566.30 C 265.56 565.48 266.14 565.02 267.06 565.09 C 275.95 565.73 287.41 574.77 293.29 581.21 C 311.31 601.01 325.33 635.61 320.06 661.38 Z" fill="#91d728" fill-rule="nonzero" group-id="1,17" node-id="160" stroke="none" target-height="922.64813" target-width="823.9458" target-x="-8.740081" target-y="46.382046"></path><path d="M 578.70 602.98 C 574.31 576.64 567.48 547.76 566.71 512.96 C 572.25 506.51 578.99 499.77 585.89 495.57 C 587.84 494.39 589.87 493.39 592.14 493.07 C 593.79 492.85 594.63 493.26 595.29 494.80 C 599.13 503.56 592.23 542.54 589.34 551.67 C 589.12 552.42 589.48 552.85 590.28 552.71 C 592.16 552.39 597.77 551.92 601.94 552.67 C 603.74 552.96 604.35 553.64 604.33 555.46 C 604.33 558.30 603.90 561.11 603.35 563.93 C 602.63 567.76 599.02 577.12 595.77 582.41 C 590.86 590.40 584.94 597.23 578.70 602.98 Z" fill="#000e3f" fill-opacity="0.25" fill-rule="nonzero" group-id="1,18,32" node-id="167" stroke="none" target-height="110.12814" target-width="37.64209" target-x="566.708" target-y="492.848"></path><path d="M 203.14 735.56 L 668.93 645.20 L 677.36 688.66 L 211.57 779.02 L 203.14 735.56 Z" fill="#ffcf00" fill-rule="nonzero" group-id="1,19" node-id="173" stroke="none" target-height="133.81567" target-width="474.22565" target-x="203.13673" target-y="645.2015"></path><path d="M 493.81 326.52 L 498.78 352.15 L 251.39 400.13 L 246.42 374.50 C 244.51 364.65 250.95 355.12 260.80 353.21 L 472.52 312.15 C 482.37 310.23 491.90 316.67 493.81 326.52 Z" fill="#ffcf00" fill-rule="nonzero" group-id="1,20" node-id="178" stroke="none" target-height="89.89432" target-width="254.2671" target-x="244.51302" target-y="310.23373"></path><path d="M 316.87 474.54 C 306.26 472.07 302.63 464.35 305.90 457.70 C 315.52 438.17 357.64 437.95 354.02 458.13 C 352.26 467.94 333.79 478.48 316.87 474.54 Z M 465.87 445.65 C 474.79 439.39 475.27 430.87 469.74 425.93 C 453.52 411.41 414.37 426.94 425.27 444.31 C 430.57 452.75 451.65 455.63 465.87 445.65 Z M 394.72 607.46 C 389.57 610.96 384.03 612.96 378.62 614.87 C 373.13 616.66 367.85 618.24 362.10 619.45 L 362.01 619.47 C 361.00 619.68 359.96 619.21 359.46 618.30 C 358.95 617.39 359.10 616.26 359.81 615.51 C 364.28 610.82 370.08 608.20 375.76 606.25 C 381.53 604.44 387.35 603.28 393.48 603.36 C 394.72 603.37 395.71 604.38 395.70 605.62 C 395.69 606.35 395.32 607.04 394.72 607.46 Z M 477.92 596.33 C 472.33 598.41 466.68 599.06 461.01 599.38 C 455.34 599.56 449.66 599.39 443.92 597.78 C 442.91 597.50 442.21 596.61 442.17 595.57 C 442.13 594.53 442.76 593.59 443.74 593.23 C 449.34 591.19 454.99 590.58 460.66 590.31 C 466.33 590.20 472.02 590.41 477.76 592.05 C 478.69 592.32 479.35 593.16 479.39 594.13 C 479.43 595.10 478.84 595.99 477.92 596.33 Z M 425.52 621.03 C 428.50 625.92 430.31 631.12 431.53 636.66 C 432.61 642.17 433.07 648.17 431.18 653.92 C 430.86 654.89 429.95 655.55 428.93 655.56 C 427.91 655.57 426.99 654.93 426.65 653.96 L 426.63 653.88 C 424.85 648.63 423.73 643.69 422.63 638.46 C 421.68 633.23 420.72 627.79 421.33 621.96 C 421.44 620.99 422.14 620.20 423.09 619.99 C 424.04 619.78 425.02 620.20 425.52 621.03 Z M 375.47 555.13 C 381.11 556.99 385.80 560.32 390.08 563.96 C 394.28 567.71 398.11 571.80 400.93 576.91 C 401.42 577.81 401.29 578.94 400.58 579.69 C 399.88 580.45 398.77 580.67 397.83 580.25 C 392.52 577.81 388.22 574.34 384.09 570.77 C 380.04 567.08 376.20 563.31 372.92 558.57 C 372.20 557.55 372.44 556.14 373.46 555.42 C 374.06 555.00 374.82 554.92 375.47 555.13 Z M 445.63 544.91 C 444.26 550.43 442.02 555.21 439.69 559.99 C 437.23 564.71 434.71 569.35 431.03 573.69 C 430.18 574.70 428.67 574.84 427.65 573.99 C 427.07 573.50 426.76 572.77 426.79 572.01 C 427.13 566.19 429.10 560.87 431.61 555.86 C 434.24 550.92 437.46 546.22 442.03 542.58 C 443.01 541.80 444.43 541.97 445.21 542.94 C 445.66 543.51 445.79 544.26 445.63 544.91 Z" fill="#fc09b2" fill-rule="nonzero" group-id="1,21" node-id="183" stroke="none" target-height="244.16476" target-width="176.80063" target-x="302.6281" target-y="411.40598"></path><path d="M 250.68 269.88 C 239.09 328.31 216.49 416.92 196.82 478.24 C 194.61 485.12 184.25 482.29 185.83 475.23 C 200.19 412.26 225.99 324.31 245.65 268.50 C 246.72 265.45 251.31 266.72 250.68 269.88 Z" fill="#ffffff" fill-opacity="0.5" fill-rule="nonzero" group-id="1,22" node-id="188" stroke="none" target-height="219.67624" target-width="67.06596" target-x="184.24799" target-y="265.4481"></path><path d="M 432.32 604.03 C 428.85 611.62 418.46 615.90 409.82 610.54 C 404.07 606.94 401.07 600.09 402.02 593.55 C 403.60 582.75 417.67 576.75 426.56 582.43 C 433.52 586.74 435.65 596.71 432.32 604.03 Z" fill="#fd8a02" fill-rule="nonzero" group-id="1,23" node-id="193" stroke="none" target-height="39.150024" target-width="34.578003" target-x="401.074" target-y="576.7538"></path><path d="M 588.78 508.83 C 583.32 516.59 578.78 524.67 575.72 533.34 C 572.73 542.05 570.67 551.17 568.72 560.60 C 567.64 565.32 566.52 570.07 565.14 574.83 C 564.41 577.21 563.64 579.59 562.68 582.01 C 561.69 584.59 560.44 586.74 559.33 588.84 C 557.01 593.11 554.67 597.38 552.00 601.58 C 550.62 603.65 549.05 605.70 547.64 607.54 C 546.26 609.41 544.94 611.33 543.68 613.29 C 543.05 614.27 541.77 614.62 540.72 614.09 C 539.67 613.56 539.20 612.32 539.62 611.23 C 540.50 608.93 541.54 606.61 542.78 604.43 C 544.00 602.24 545.10 600.28 546.11 598.17 C 548.22 594.03 550.17 589.69 552.07 585.31 C 553.00 583.06 554.01 580.94 554.67 579.00 C 555.39 576.92 556.02 574.69 556.60 572.44 C 557.79 567.86 558.88 563.26 559.86 558.63 C 561.94 549.28 564.25 539.57 568.38 530.38 C 570.45 525.80 572.93 521.41 575.78 517.26 C 578.75 513.23 581.93 509.40 585.54 506.03 C 586.40 505.21 587.76 505.24 588.58 506.11 C 589.29 506.86 589.35 508.01 588.78 508.83 Z M 228.45 575.29 C 233.06 577.06 237.44 579.42 241.70 582.06 C 245.90 584.84 249.84 587.98 253.47 591.46 C 260.73 598.44 266.51 606.58 271.94 614.48 C 274.57 618.40 277.30 622.27 280.12 626.07 C 281.50 627.93 282.91 629.77 284.36 631.43 C 285.70 632.98 287.43 634.57 289.13 636.31 C 292.53 639.66 295.96 642.96 299.47 646.01 C 301.19 647.59 302.94 648.99 304.89 650.57 C 306.84 652.14 308.67 653.85 310.37 655.69 C 311.18 656.55 311.20 657.88 310.43 658.77 C 309.65 659.66 308.33 659.81 307.37 659.12 C 305.47 657.77 303.53 656.49 301.55 655.27 C 299.56 654.09 297.34 652.78 295.28 651.37 C 291.23 648.47 287.46 645.39 283.72 642.29 C 281.90 640.76 279.94 639.23 278.06 637.21 C 276.26 635.32 274.65 633.40 273.09 631.47 C 270.03 627.57 267.22 623.58 264.45 619.61 C 259.11 611.59 253.79 603.91 247.76 596.94 C 241.69 590.04 234.45 584.25 226.49 579.09 C 225.49 578.45 225.20 577.11 225.85 576.12 C 226.42 575.26 227.50 574.92 228.45 575.29 Z M 591.00 738.77 C 586.54 749.66 581.48 760.20 576.21 770.64 C 570.97 781.09 565.38 791.34 559.72 801.55 C 553.95 811.70 548.09 821.81 541.89 831.71 C 535.72 841.64 529.34 851.44 522.35 860.90 C 521.32 862.32 519.40 862.73 517.88 861.88 C 516.36 861.02 515.72 859.16 516.40 857.55 C 520.88 846.67 525.97 836.13 531.27 825.72 C 536.54 815.29 542.16 805.05 547.86 794.86 C 553.67 784.73 559.55 774.64 565.79 764.76 C 571.99 754.85 578.40 745.06 585.41 735.61 C 586.38 734.30 588.18 733.92 589.60 734.72 C 591.02 735.52 591.62 737.26 591.00 738.77 Z M 638.37 753.51 C 634.79 762.85 630.60 771.84 626.20 780.72 C 621.85 789.62 617.13 798.31 612.35 806.97 C 607.45 815.57 602.47 824.12 597.15 832.47 C 591.86 840.84 586.35 849.09 580.24 857.00 C 579.19 858.36 577.30 858.75 575.80 857.90 C 574.31 857.06 573.66 855.24 574.28 853.64 C 577.89 844.32 582.10 835.34 586.53 826.48 C 590.92 817.60 595.66 808.92 600.48 800.28 C 605.42 791.71 610.42 783.18 615.78 774.84 C 621.10 766.49 626.64 758.25 632.77 750.36 C 633.76 749.09 635.53 748.74 636.93 749.53 C 638.33 750.31 638.94 752.01 638.37 753.51 Z M 361.45 783.29 C 356.99 794.18 351.92 804.73 346.65 815.16 C 341.42 825.61 335.82 835.86 330.16 846.07 C 324.39 856.22 318.54 866.33 312.33 876.23 C 306.17 886.16 299.78 895.97 292.79 905.43 C 291.77 906.84 289.84 907.26 288.32 906.40 C 286.80 905.54 286.17 903.68 286.84 902.07 C 291.33 891.19 296.41 880.66 301.72 870.25 C 306.98 859.81 312.61 849.58 318.30 839.39 C 324.12 829.26 330.00 819.17 336.23 809.28 C 342.43 799.37 348.84 789.58 355.85 780.13 C 356.83 778.83 358.62 778.46 360.03 779.26 C 361.45 780.05 362.06 781.78 361.45 783.29 Z M 408.81 798.04 C 405.23 807.37 401.04 816.37 396.65 825.24 C 392.29 834.14 387.57 842.84 382.79 851.49 C 377.89 860.09 372.92 868.64 367.59 876.99 C 362.30 885.36 356.80 893.61 350.68 901.52 C 349.64 902.88 347.75 903.27 346.25 902.42 C 344.75 901.58 344.10 899.76 344.73 898.16 C 348.34 888.84 352.55 879.86 356.98 871.00 C 361.37 862.12 366.11 853.44 370.93 844.80 C 375.86 836.23 380.87 827.70 386.23 819.37 C 391.55 811.01 397.08 802.78 403.22 794.88 C 404.20 793.61 405.97 793.25 407.38 794.04 C 408.78 794.83 409.39 796.53 408.81 798.04 Z" fill="#018100" fill-rule="nonzero" group-id="1,24" node-id="198" stroke="none" target-height="402.04666" target-width="413.73822" target-x="225.20439" target-y="505.20975"></path><path d="M 686.51 889.25 L 278.07 968.46 C 276.98 968.66 275.88 968.81 274.78 968.92 C 274.62 968.92 274.46 968.94 274.30 968.94 C 274.19 968.96 274.08 968.96 273.96 968.96 C 273.78 968.98 273.58 968.98 273.40 968.98 C 272.49 969.03 271.60 969.01 270.72 968.94 C 270.42 968.92 270.10 968.92 269.81 968.87 C 269.34 968.84 268.87 968.79 268.40 968.71 C 267.90 968.64 267.40 968.58 266.92 968.46 C 266.88 968.46 266.86 968.46 266.83 968.44 C 266.59 968.40 266.35 968.35 266.11 968.28 C 265.56 968.17 265.01 968.03 264.47 967.87 C 283.34 931.28 323.07 916.29 427.45 870.32 C 508.16 834.79 557.17 778.61 574.93 708.55 L 677.36 688.68 L 709.62 855.00 C 712.71 870.84 702.35 886.17 686.51 889.25 Z M 582.01 662.07 C 582.56 653.15 582.65 644.02 582.31 634.74 C 581.92 624.43 580.51 613.92 578.70 602.98 C 574.31 576.64 567.48 547.77 566.71 512.96 C 565.85 474.78 572.23 429.44 596.99 372.46 L 617.86 398.95 C 620.74 402.60 622.71 406.89 623.60 411.46 L 668.94 645.20 L 582.01 662.07 Z M 668.93 645.21 L 677.36 688.67 L 574.93 708.54 C 578.71 693.66 581.06 678.14 582.01 662.07 L 668.93 645.21 Z" fill="#000e3f" fill-opacity="0.25" fill-rule="nonzero" group-id="1,25,33" node-id="205" stroke="none" target-height="596.572" target-width="448.23404" target-x="264.47208" target-y="372.45804"></path><path d="M 404.89 405.79 C 402.44 406.29 400.85 408.69 401.34 411.15 C 403.47 421.64 399.66 434.60 388.43 437.96 C 382.71 439.68 378.04 437.87 375.13 436.05 C 369.46 432.51 365.04 425.63 363.87 418.51 C 363.46 416.04 361.12 414.31 358.65 414.77 C 356.18 415.18 354.50 417.51 354.91 419.99 C 356.51 429.71 362.42 438.82 370.32 443.76 C 374.57 446.41 379.12 447.75 383.77 447.75 C 386.18 447.75 388.61 447.39 391.03 446.66 C 407.43 441.76 413.17 423.77 410.24 409.34 C 409.75 406.88 407.35 405.29 404.89 405.79 Z" fill="#000e3f" fill-rule="nonzero" group-id="1,26" node-id="211" stroke="none" target-height="42.45511" target-width="58.667786" target-x="354.5002" target-y="405.29077"></path><path d="M 498.27 325.65 L 498.27 325.65 C 495.88 313.36 483.94 305.29 471.66 307.69 L 259.93 348.76 C 254.01 349.88 248.79 353.34 245.44 358.34 C 242.05 363.32 240.80 369.45 241.97 375.36 L 257.37 454.80 C 264.17 489.86 295.01 514.28 329.47 514.28 C 334.09 514.28 338.78 513.84 343.48 512.93 L 455.54 491.19 C 495.31 483.48 521.39 444.85 513.67 405.08 L 498.27 325.65 Z M 453.81 482.28 L 341.75 504.02 C 306.92 510.77 273.04 487.92 266.29 453.07 L 250.88 373.63 C 250.18 370.09 250.93 366.41 252.96 363.42 C 254.98 360.42 258.11 358.35 261.66 357.67 L 473.39 316.60 C 480.77 315.19 487.91 320.00 489.35 327.38 L 489.35 327.38 L 504.75 406.81 C 511.51 441.67 488.66 475.52 453.81 482.28 Z" fill="#000e3f" fill-rule="nonzero" group-id="1,27" node-id="216" stroke="none" target-height="208.99432" target-width="280.5824" target-x="240.80333" target-y="305.28802"></path><path d="M 321.33 406.23 C 313.09 407.56 306.59 417.29 308.98 424.71 C 310.00 433.21 318.99 438.64 326.80 437.38 C 336.36 435.83 341.44 426.48 339.91 418.93 C 338.05 409.66 329.71 404.87 321.33 406.23 Z M 436.13 384.02 C 427.61 385.70 421.95 393.98 423.75 403.02 C 425.27 410.66 434.00 417.16 442.41 414.86 C 449.78 414.15 456.53 404.84 454.65 396.23 C 452.83 387.88 444.41 382.39 436.13 384.02 Z" fill="#000e3f" fill-rule="nonzero" group-id="1,28" node-id="221" stroke="none" target-height="56.256012" target-width="149.93814" target-x="306.594" target-y="382.38782"></path><path d="M 808.34 676.36 C 798.20 670.75 781.22 661.37 768.06 640.35 C 751.85 614.09 755.29 589.94 760.05 556.52 L 760.73 551.72 C 763.94 528.75 769.36 512.03 774.60 495.86 C 781.32 475.13 787.67 455.54 788.33 426.48 L 788.33 426.28 L 788.33 426.09 C 787.79 400.19 778.76 383.42 761.48 376.25 C 755.58 373.80 748.79 372.50 741.87 372.50 C 732.93 372.50 724.03 374.64 716.12 378.69 C 692.96 390.78 683.20 409.61 672.86 429.54 C 665.48 443.78 657.89 458.41 644.71 472.59 L 632.52 409.74 C 631.34 403.77 628.77 398.16 625.02 393.37 L 472.09 199.22 C 464.61 189.67 453.04 184.26 440.92 184.65 C 424.17 139.90 383.00 101.02 318.43 69.02 C 296.53 58.26 267.92 45.93 240.66 45.93 C 229.25 45.93 218.73 48.09 209.37 52.37 L 208.86 52.61 L 208.38 52.90 C 180.23 70.24 173.82 102.22 191.66 136.35 C 198.38 149.46 210.43 161.48 222.07 173.11 C 237.84 188.86 252.84 203.84 255.05 220.21 L 248.47 221.48 C 234.30 224.24 223.01 234.53 219.00 248.35 L 149.71 485.52 C 148.03 491.22 147.73 497.45 148.87 503.50 L 161.01 566.06 C 148.38 569.44 129.39 577.78 113.82 598.32 C 95.11 623.07 95.13 648.47 95.14 668.87 C 95.14 673.46 95.15 677.79 94.92 681.70 C 93.37 708.60 77.94 721.13 68.01 721.13 C 67.69 721.13 67.37 721.12 67.06 721.09 L 65.38 720.88 L 65.04 720.84 L 64.69 720.82 C 58.68 720.54 44.74 710.26 40.00 694.34 C 26.80 653.22 53.49 623.74 79.30 595.23 C 81.54 592.77 83.76 590.31 85.97 587.83 C 112.40 558.31 123.81 519.93 116.50 485.19 C 109.64 452.58 87.57 426.32 54.35 411.24 C 53.49 410.85 33.25 401.72 21.65 401.72 C 12.91 401.72 8.85 406.82 7.97 411.59 C 6.08 421.75 16.00 425.22 23.97 428.01 C 31.98 430.82 42.95 434.65 54.93 443.34 C 63.20 449.33 67.91 454.77 69.69 456.82 C 70.12 457.32 70.44 457.68 70.64 457.89 L 70.89 458.15 C 72.38 459.89 85.48 475.89 87.26 497.49 C 88.66 512.99 85.09 537.00 60.16 563.74 C 58.66 565.37 56.67 567.38 54.36 569.70 C 44.09 580.06 26.90 597.39 14.21 620.45 C -2.25 650.65 -4.52 684.25 7.97 712.68 C 17.50 734.36 34.63 750.15 53.80 754.92 C 58.26 755.98 62.66 756.50 66.97 756.50 C 97.69 756.50 118.62 730.51 125.06 706.35 C 128.91 692.18 128.35 679.05 127.80 666.35 L 127.64 662.43 C 126.92 644.73 127.84 641.35 130.31 632.31 L 131.13 629.30 C 137.72 611.38 149.48 599.05 166.15 592.55 L 234.92 947.07 C 238.37 965.03 254.15 978.07 272.45 978.07 C 274.90 978.07 277.38 977.83 279.80 977.36 L 688.21 898.18 C 708.91 894.14 722.52 874.00 718.55 853.27 L 650.79 503.87 C 678.08 483.94 691.01 461.67 701.52 443.57 C 712.90 423.97 720.45 410.97 740.44 407.62 L 740.54 407.62 C 742.38 407.62 745.23 407.93 747.21 408.82 C 748.92 409.59 754.29 414.09 750.98 439.52 C 748.46 458.78 741.90 482.65 736.12 503.71 C 731.35 521.03 727.24 536.00 725.71 546.77 C 720.21 584.65 718.27 632.82 752.42 669.14 C 752.77 669.51 791.43 703.63 809.17 703.63 C 815.14 703.63 819.93 700.31 821.69 694.95 C 824.84 685.48 815.69 680.42 808.34 676.36 Z M 278.07 968.45 C 276.22 968.81 274.34 968.99 272.45 968.99 C 258.74 968.99 246.52 959.30 243.84 945.34 L 203.79 738.89 L 432.22 694.59 L 477.83 929.72 L 278.07 968.45 Z M 686.49 889.26 L 486.74 927.99 L 441.14 692.86 L 669.58 648.56 L 669.60 648.55 L 709.64 854.98 C 712.68 870.87 702.33 886.18 686.49 889.26 Z M 813.07 692.11 C 812.51 693.82 811.14 694.55 809.18 694.55 C 796.93 694.55 761.82 665.85 759.04 662.92 C 729.75 631.77 728.57 590.27 734.70 548.05 C 739.88 511.63 779.34 413.29 750.91 400.53 C 747.01 398.79 742.53 398.54 740.54 398.54 C 739.94 398.54 739.57 398.57 739.52 398.58 C 692.16 406.07 701.15 458.97 640.76 499.83 L 667.88 639.65 L 667.85 639.65 L 202.06 729.99 L 173.14 580.87 C 160.25 584.01 134.55 593.23 122.47 626.55 C 119.24 638.63 117.70 641.58 118.56 662.78 C 119.11 676.59 120.15 689.80 116.29 704.01 C 110.22 726.78 91.73 747.42 66.97 747.42 C 63.44 747.42 59.77 747.00 56.00 746.10 C 20.17 737.20 -8.75 681.54 22.17 624.83 C 37.06 597.77 58.49 578.97 66.80 569.93 C 90.69 544.32 98.27 518.35 96.32 496.74 C 94.14 470.41 77.38 451.61 77.20 451.61 C 76.20 450.56 70.80 443.62 60.27 435.99 C 36.52 418.78 15.86 418.83 16.90 413.24 C 17.23 411.48 19.03 410.80 21.66 410.80 C 30.41 410.80 48.29 418.46 50.60 419.51 C 119.52 450.79 126.78 528.61 79.20 581.78 C 51.05 613.34 15.32 647.16 31.30 696.93 C 36.97 716.00 53.82 729.39 64.26 729.89 L 66.08 730.12 C 66.71 730.18 67.35 730.21 68.01 730.21 C 82.65 730.21 102.12 714.60 103.99 682.22 C 105.22 660.92 100.09 631.55 121.06 603.80 C 136.82 583.01 157.61 575.02 171.64 573.16 L 157.80 501.83 C 156.93 497.24 157.12 492.52 158.43 488.07 L 227.72 250.88 C 230.78 240.37 239.45 232.47 250.19 230.40 L 264.27 227.67 C 267.49 190.17 215.78 163.47 199.70 132.15 C 186.13 106.17 186.54 77.02 213.14 60.63 C 221.82 56.67 231.11 55.01 240.66 55.01 C 265.45 55.01 292.04 66.18 314.40 77.16 C 366.07 102.77 417.87 140.50 434.72 194.58 L 436.45 194.26 C 447.18 192.16 458.19 196.24 464.96 204.84 L 617.88 398.99 C 620.75 402.64 622.71 406.92 623.60 411.47 L 638.95 490.57 C 684.72 452.02 680.36 407.61 720.27 386.77 C 726.96 383.36 734.36 381.58 741.87 381.58 C 747.71 381.58 753.26 382.67 758.00 384.64 C 774.30 391.41 778.89 408.70 779.25 426.28 C 778.11 476.36 759.18 497.24 751.73 550.46 C 746.65 586.55 741.56 614.71 760.36 645.17 C 782.97 681.27 815.21 685.67 813.07 692.11 Z" fill="#000e3f" fill-rule="nonzero" group-id="1,29" node-id="226" stroke="none" target-height="932.148" target-width="833.58636" target-x="-8.749973" target-y="45.92584"></path><path d="M 273.44 225.90 L 425.86 196.30 C 418.46 178.45 402.43 151.03 357.98 121.47 C 333.92 105.67 307.54 92.09 280.52 82.20 C 263.53 75.98 250.00 73.33 239.45 73.33 C 206.08 73.33 202.65 99.96 214.28 124.70 C 226.58 151.44 278.07 184.63 273.44 225.90 Z M 243.91 148.75 C 234.81 138.54 226.21 128.91 222.53 120.90 C 216.69 108.47 215.69 96.67 219.89 90.05 C 223.11 84.98 229.69 82.41 239.45 82.41 C 249.54 82.41 262.31 85.21 277.41 90.73 C 302.87 100.05 329.01 113.31 353.00 129.06 C 381.31 147.89 400.94 167.79 412.65 189.61 L 282.52 214.89 C 279.88 189.07 260.17 166.97 243.91 148.75 Z" fill="#000e3f" fill-rule="nonzero" group-id="1,30" node-id="231" stroke="none" target-height="152.57399" target-width="223.21443" target-x="202.65001" target-y="73.32794"></path></g></g></svg>