<?xml version="1.0" standalone="no"?><!DOCTYPE svg PUBLIC "-//W3C//DTD SVG 1.1//EN" "http://www.w3.org/Graphics/SVG/1.1/DTD/svg11.dtd"><svg t="1778899829941" class="icon" viewBox="0 0 1024 1024" version="1.1" xmlns="http://www.w3.org/2000/svg" p-id="3865" xmlns:xlink="http://www.w3.org/1999/xlink" width="200" height="200"><path d="M636.6208 120.0128s-16.5376 121.5488 81.4592 188.6208 91.8528 169.984 91.8528 244.0704c0 67.072-22.3744 127.1296-42.5472 181.2992-9.6768 25.9584 5.12 64.4096 25.6 103.168 29.3888 55.04-20.48 189.44-168.5504 104.9088-33.536 54.1696-112.64 52.4288-112.64 52.4288s-79.104 1.7408-112.64-52.4288c-147.9168 84.2752-197.9392-49.8688-168.5504-104.9088 20.736-38.7584 35.4816-77.2096 25.6-103.168-20.1728-54.1696-42.5472-114.2272-42.5472-181.2992 0-74.0864-6.1952-176.9984 91.8528-244.0704s81.8688-188.6208 81.8688-188.6208" fill="#A06056" p-id="3866"></path><path d="M809.9328 552.96c0-74.0864 6.1952-176.9984-91.8528-244.0704s-81.4592-188.6208-81.4592-188.6208h-96.9216s-16.5888 121.5488 81.4592 188.6208 91.8528 169.984 91.8528 244.0704c0 67.072-22.3744 127.1296-42.5472 181.2992-8.2944 22.2208 1.3312 53.6064 17.3056 86.528a49.5104 49.5104 0 0 1 4.8128 26.6752c-2.4064 22.9376-14.1824 50.3808-58.6752 39.424a27.6992 27.6992 0 0 0-17.6128 1.2288c-72.8064 31.6928-130.7648 37.9904-190.976-2.6624a26.9824 26.9824 0 0 0-22.4256-3.5328c-71.68 20.48-136.4992-8.0896-166.656-54.9376-1.7408 3.4816-3.5328 6.9632-5.4272 10.24-29.3888 55.04 20.48 189.44 168.5504 104.9088 33.536 54.1696 112.64 52.4288 112.64 52.4288s79.104 1.7408 112.64-52.4288a220.16 220.16 0 0 0 54.9888 22.9888h0.512c3.2768 0.768 6.4512 1.4336 9.6256 1.9968h0.8192c3.072 0.512 6.0416 0.9216 9.0112 1.2288h0.8192c2.9184 0.256 5.8368 0.4608 8.6528 0.512h9.0112a93.3376 93.3376 0 0 0 16.0768-2.5088c2.4576-0.6144 4.8128-1.3312 7.1168-2.1504h0.512c2.2016-0.8192 4.4032-1.6896 6.5024-2.6624l0.5632-0.256c2.0992-0.9728 4.096-1.9968 6.0928-3.1232l0.4608-0.256c1.9968-1.1776 3.8912-2.3552 5.7344-3.6864a85.3504 85.3504 0 0 0 10.6496-8.9088c1.5872-1.536 3.072-3.1744 4.5568-4.864l0.3584-0.4096c1.3824-1.5872 2.6624-3.2768 3.9424-5.12a3.8912 3.8912 0 0 0 0.4096-0.5632q1.8432-2.5088 3.5328-5.12l0.3584-0.5632c1.1264-1.792 2.2016-3.6352 3.1744-5.4784v-0.4608c1.024-1.9456 1.9968-3.8912 2.8672-5.888 0.9216-2.048 1.792-4.1472 2.56-6.1952 0.768-1.9968 1.4336-4.0448 2.048-6.0416a2.8672 2.8672 0 0 1 0-0.6144c0.5632-1.9456 1.0752-3.8912 1.536-5.888a4.2496 4.2496 0 0 0 0-0.768c0.4608-1.9456 0.8192-3.8912 1.1776-5.8368v-0.8192c0.3072-1.9456 0.5632-3.8912 0.8192-5.8368v-0.7168c0-1.9968 0.3584-3.9936 0.4608-5.9392v-0.4096-5.9904c0-1.9456 0-3.8912-0.3072-5.7856a2.9184 2.9184 0 0 1 0-0.6656c0-1.792-0.4096-3.584-0.6656-5.12a4.5056 4.5056 0 0 1 0-0.8192c-0.3072-1.7408-0.6144-3.4304-1.024-5.12a4.8128 4.8128 0 0 0 0-0.8192 48.4352 48.4352 0 0 0-1.3312-5.12 4.5056 4.5056 0 0 0-0.256-0.768c-0.512-1.5872-1.0752-3.1744-1.6896-4.6592v-0.512c-0.7168-1.5872-1.4336-3.1232-2.2016-4.608l-3.7888-7.168-3.072-6.144c0-0.3072-0.3584-0.6656-0.512-1.024a262.6048 262.6048 0 0 1-16.6912-41.3184c-5.12-17.9712-6.656-34.3552-1.7408-47.5136 21.248-54.784 43.6224-114.8416 43.6224-181.6576z" fill="#7C4946" p-id="3867"></path><path d="M387.3792 120.0128a227.9936 227.9936 0 0 1-19.7632 116.4288h288.768a227.9936 227.9936 0 0 1-19.7632-116.4288z" fill="#FFFFFF" p-id="3868"></path><path d="M559.4624 236.4416h96.9216c-0.6656-1.3824-1.28-2.816-1.9456-4.1984l-0.9728-2.304c-0.6656-1.4336-1.2288-2.8672-1.8432-4.3008l-0.3072-0.8192c-1.2288-3.0208-2.304-5.9904-3.328-8.96l-0.6144-1.6896c-0.512-1.536-0.9728-3.0208-1.4336-4.5568 0-0.3072 0-0.6656-0.3584-1.024-0.9216-3.072-1.792-6.0928-2.56-9.0624v-0.8192c-0.4096-1.5872-0.768-3.1232-1.1264-4.6592v-0.9728c-1.0752-4.7616-1.9968-9.3696-2.7136-13.8752v-0.8704c-0.7168-4.5056-1.28-8.8064-1.7408-12.9536v-0.768c-0.4096-4.1472-0.7168-8.0384-0.9216-11.7248v-0.6656V148.48v-6.3488a2.9184 2.9184 0 0 1 0-0.6656v-3.7376-5.2224-2.048a5.888 5.888 0 0 1 0-0.9728v-2.816-0.9216-1.1776-0.9216-0.8704a12.8 12.8 0 0 0 0-1.28v-0.3584-1.1264h-96.8192a227.9936 227.9936 0 0 0 19.7632 116.4288z" fill="#E1BDFC" p-id="3869"></path><path d="M785.0496 384.512c-199.0144 56.32-440.0128 33.8944-553.9328 18.0736-19.2512 51.2-17.0496 105.7792-17.0496 150.1184a336.4352 336.4352 0 0 0 6.8608 66.0992c231.5264 54.1184 471.04 13.1584 584.5504-13.1072a332.3392 332.3392 0 0 0 4.4544-52.992c0-49.6128 2.7136-112.128-24.8832-168.192z" fill="#EA7373" p-id="3870"></path><path d="M785.0496 384.512c-199.0144 56.32-440.0128 33.8944-553.9328 18.0736-19.2512 51.2-17.0496 105.7792-17.0496 150.1184a336.4352 336.4352 0 0 0 6.8608 66.0992c231.5264 54.1184 471.04 13.1584 584.5504-13.1072a332.3392 332.3392 0 0 0 4.4544-52.992c0-49.6128 2.7136-112.128-24.8832-168.192z" fill="#EA7373" p-id="3871"></path><path d="M809.9328 513.4848v-0.256c-0.512-40.96-4.1984-86.7328-24.8832-128.7168a836.2496 836.2496 0 0 1-88.4736 19.6608c18.5856 50.688 16.4352 104.6528 16.4352 148.48a344.2688 344.2688 0 0 1-8.192 72.7552c39.4752-6.4 73.6768-13.5168 100.6592-19.7632 0.6656-4.1472 1.28-8.3968 1.792-12.5952v-0.512c0.4608-3.8912 0.8704-7.8336 1.2288-11.776a15.36 15.36 0 0 0 0-1.5872c0.3584-3.6352 0.5632-7.2704 0.768-10.9568v-2.3552q0.3072-6.5024 0.3072-13.2096v-8.7552c0.4096-9.728 0.512-19.9168 0.3584-30.4128z" fill="#E55353" p-id="3872"></path><path d="M467.7632 655.7696a1097.1136 1097.1136 0 0 1-249.1904-27.0336 10.24 10.24 0 0 1-7.7312-7.9872A348.16 348.16 0 0 1 203.8272 552.96v-12.288c0-41.5232-0.4096-93.184 17.7152-141.4144a10.24 10.24 0 0 1 11.008-6.5536c283.9552 39.3728 466.3296 5.7856 549.7856-17.7664a10.24 10.24 0 0 1 11.9808 5.12c26.4192 53.6576 26.1632 112.64 25.9584 160.4608v12.2368a334.336 334.336 0 0 1-4.608 54.6304 10.24 10.24 0 0 1-7.7824 8.3456 1540.3008 1540.3008 0 0 1-340.1216 40.0384z m-238.0288-45.4656c220.6208 49.8688 446.72 14.2336 566.6816-13.0048a314.0096 314.0096 0 0 0 3.2768-44.5952v-12.288c0-45.3632 0.4096-96.4608-20.48-143.7184-191.8464 51.8144-417.6896 33.792-541.44 17.2032-14.08 42.3936-13.8752 87.04-13.7216 126.4128v12.3904a316.8768 316.8768 0 0 0 5.6832 57.6z" fill="#3C122C" p-id="3873"></path><path d="M512.9728 1009.92h-1.9456c-10.7008 0-78.0288-1.8944-116.224-47.9232-83.9168 42.9056-131.84 15.36-153.6-5.5296-37.2736-36.2496-41.5744-93.9008-24.1152-126.5152 22.9376-42.9568 31.3344-73.4208 24.9344-90.624-20.48-54.784-43.52-116.8384-43.52-186.624v-12.3904C198.2976 465.92 197.888 363.9296 297.2672 295.936c88.7296-60.7232 75.52-169.2672 74.9056-174.08a15.36 15.36 0 0 1 30.72-4.096c0.7168 5.12 16.5888 131.7376-88.064 203.3664-86.1696 58.9824-85.76 147.7632-85.4528 219.0848v12.4928c0 64.256 22.0672 123.5456 41.5232 175.8208 10.24 26.9824 1.8432 62.6688-26.5728 115.8656-11.9808 22.4768-7.3728 64.9728 18.432 90.0608 28.3136 27.5456 74.0864 25.6 128.9216-5.7344a15.36 15.36 0 0 1 20.48 5.12c28.416 46.08 98.56 45.2096 99.2768 45.1584h0.6656c0.6144 0 70.8096 0.7168 99.2256-45.1584a15.36 15.36 0 0 1 20.48-5.12c54.8352 31.2832 100.608 33.28 128.9216 5.7344 25.6-25.088 30.4128-67.584 18.432-90.0608-28.416-53.1968-36.6592-88.9344-26.624-115.7632 19.5072-52.3776 41.5744-111.6672 41.5744-175.9232v-12.4928c0.3072-71.3216 0.7168-160.1024-85.1968-218.88-104.6528-71.68-88.7808-198.0416-88.0128-203.3664a15.36 15.36 0 1 1 30.4128 4.1472c-0.6144 4.7104-13.7728 113.152 74.9056 173.824 99.8912 67.9936 99.4816 169.984 99.1232 244.3776v12.3904c0 69.7856-23.0912 131.84-43.4688 186.5216-6.4512 17.2544 1.9456 47.7696 24.8832 90.7264 17.4592 32.6144 13.1584 90.2656-24.1152 126.5152-21.5552 20.992-69.4784 48.4352-153.6 5.5296-38.0416 46.0288-105.3696 47.9232-116.0704 47.9232z" fill="#3C122C" p-id="3874"></path><path d="M364.3904 478.72c-29.5936 0-56.832-1.8432-58.5728-1.9456a10.24 10.24 0 0 1 1.4336-20.48c0.6144 0 62.464 4.1984 99.6864 0a10.24 10.24 0 1 1 2.2528 20.48 425.5744 425.5744 0 0 1-44.8 1.9456z" fill="#FFFFFF" p-id="3875"></path><path d="M328.704 562.2784a10.24 10.24 0 0 1-2.56-20.1728c39.424-10.24 47.104-68.0448 47.2064-68.608a10.24 10.24 0 0 1 20.48 2.4576c-0.3584 2.9696-9.4208 72.3968-62.464 86.016a10.496 10.496 0 0 1-2.6624 0.3072zM465.2032 550.8608h-1.536l-40.96-3.1232a19.5072 19.5072 0 0 1-15.36-29.2352L430.08 479.3344a19.712 19.712 0 0 1 17.2544-9.7792l38.4512 0.6144a19.5072 19.5072 0 0 1 17.2544 28.0576l-20.1216 41.6256a19.4048 19.4048 0 0 1-17.7152 11.008zM425.8816 527.36l38.7072 2.9696 19.2512-39.68-36.4032-0.6144z" fill="#FFFFFF" p-id="3876"></path><path d="M322.56 534.6304h-33.7408a10.24 10.24 0 0 1-8.7552-15.36l17.2032-28.416a10.24 10.24 0 0 1 8.7552-5.12h39.5264a10.24 10.24 0 0 1 9.3696 14.3872c-3.072 6.8608-14.2848 29.5936-29.2352 34.048a10.8544 10.8544 0 0 1-3.1232 0.4608z m-15.7696-20.48h13.7728a30.2592 30.2592 0 0 0 7.2704-7.8848H311.808zM589.7728 478.72c-29.5936 0-56.832-1.8432-58.5728-1.9456a10.24 10.24 0 0 1 1.3824-20.48c0.6656 0 62.464 4.1984 99.7376 0a10.24 10.24 0 1 1 2.2528 20.48 425.5744 425.5744 0 0 1-44.8 1.9456z" fill="#FFFFFF" p-id="3877"></path><path d="M546.5088 568.832a10.24 10.24 0 0 1-2.7136-20.1216c44.3904-12.2368 54.8352-74.9568 54.9376-75.5712a10.24 10.24 0 0 1 20.48 3.1744c-0.4608 3.1232-12.4928 76.3392-69.6832 92.16a10.24 10.24 0 0 1-3.0208 0.3584z" fill="#FFFFFF" p-id="3878"></path><path d="M550.3488 534.6304h-33.9456a10.24 10.24 0 0 1-8.9088-5.12 10.24 10.24 0 0 1 0-10.24l17.2032-28.416a10.24 10.24 0 0 1 8.7552-5.12h39.5264a10.24 10.24 0 0 1 9.3696 14.3872c-3.072 6.8608-14.2848 29.5936-29.2352 34.048a10.8544 10.8544 0 0 1-2.7648 0.4608z m-15.7696-20.48h13.7728a29.3888 29.3888 0 0 0 7.2192-7.8848h-16.1792zM655.36 508.7232a10.24 10.24 0 0 1-9.4208-14.2336 321.2288 321.2288 0 0 0 13.9776-42.3424 10.24 10.24 0 0 1 9.5744-7.7824 307.5072 307.5072 0 0 0 53.6064-9.5232 10.24 10.24 0 0 1 5.376 19.7632 352.6144 352.6144 0 0 1-50.5344 9.728c-2.304 8.3456-5.12 16.128-7.168 22.4768a431.7184 431.7184 0 0 0 57.4976-8.5504 10.24 10.24 0 1 1 5.12 19.7632c-24.7296 6.656-75.3152 10.24-77.4656 10.6496z" fill="#FFFFFF" p-id="3879"></path><path d="M688.0768 561.5616h-1.024a10.24 10.24 0 0 1-9.1648-11.1616c2.6112-26.0096 6.7072-68.7104 6.8608-74.1376a10.24 10.24 0 0 1 20.48-2.2528c0 1.6896 0.6656 3.9424-6.8096 78.3872a10.24 10.24 0 0 1-10.3424 9.1648zM645.5296 557.2608a10.24 10.24 0 0 1-5.6832-1.6896 10.24 10.24 0 0 1-2.8672-14.2336l12.0832-18.0224a10.24 10.24 0 1 1 16.9984 11.3664l-12.032 18.2784a10.24 10.24 0 0 1-8.4992 4.3008zM731.0848 551.68a10.24 10.24 0 0 1-7.68-3.4816l-15.36-17.6128a10.24 10.24 0 0 1 15.36-13.5168l15.36 17.6128a10.24 10.24 0 0 1-7.68 16.9984z" fill="#FFFFFF" p-id="3880"></path><path d="M629.76 607.7952a238.2848 238.2848 0 0 1-93.2864-17.8688c-42.9056-19.0976-60.0064-16.6912-123.4944-7.6288-9.7792 1.3824-20.48 2.9184-32.8192 4.5568-49.408 6.656-81.3568-7.6288-99.4304-20.8384a92.8256 92.8256 0 0 1-27.9552-31.1296 5.12 5.12 0 1 1 9.216-4.4544c1.2288 2.5088 29.5424 58.0608 116.7872 46.08 12.1856-1.6384 22.9888-3.1744 32.768-4.5568 64.1024-9.1648 83.456-11.8784 129.0752 8.3968 56.0128 24.8832 167.0144 30.3616 227.584-36.9152a5.12 5.12 0 1 1 7.6288 6.8096c-37.7344 42.2912-94.1056 57.5488-146.0736 57.5488z" fill="#FFFFFF" p-id="3881"></path><path d="M467.7632 655.7696a1097.1136 1097.1136 0 0 1-249.1904-27.0336 10.24 10.24 0 0 1-7.7312-7.9872A348.16 348.16 0 0 1 203.8272 552.96v-12.288c0-41.5232-0.4096-93.184 17.7152-141.4144a10.24 10.24 0 0 1 11.008-6.5536c283.9552 39.3728 466.3296 5.7856 549.7856-17.7664a10.24 10.24 0 0 1 11.9808 5.12c26.4192 53.6576 26.1632 112.64 25.9584 160.4608v12.2368a334.336 334.336 0 0 1-4.608 54.6304 10.24 10.24 0 0 1-7.7824 8.3456 1540.3008 1540.3008 0 0 1-340.1216 40.0384z m-238.0288-45.4656c220.6208 49.8688 446.72 14.2336 566.6816-13.0048a314.0096 314.0096 0 0 0 3.2768-44.5952v-12.288c0-45.3632 0.4096-96.4608-20.48-143.7184-191.8464 51.8144-417.6896 33.792-541.44 17.2032-14.08 42.3936-13.8752 87.04-13.7216 126.4128v12.3904a316.8768 316.8768 0 0 0 5.6832 57.6z" fill="#3C122C" p-id="3882"></path><path d="M512.9728 1009.92h-1.9456c-10.7008 0-78.0288-1.8944-116.224-47.9232-83.9168 42.9056-131.84 15.36-153.6-5.5296-37.2736-36.2496-41.5744-93.9008-24.1152-126.5152 22.9376-42.9568 31.3344-73.4208 24.9344-90.624-20.48-54.784-43.52-116.8384-43.52-186.624v-12.3904C198.2976 465.92 197.888 363.9296 297.2672 295.936c88.7296-60.7232 75.52-169.2672 74.9056-174.08a15.36 15.36 0 0 1 30.72-4.096c0.7168 5.12 16.5888 131.7376-88.064 203.3664-86.1696 58.9824-85.76 147.7632-85.4528 219.0848v12.4928c0 64.256 22.0672 123.5456 41.5232 175.8208 10.24 26.9824 1.8432 62.6688-26.5728 115.8656-11.9808 22.4768-7.3728 64.9728 18.432 90.0608 28.3136 27.5456 74.0864 25.6 128.9216-5.7344a15.36 15.36 0 0 1 20.48 5.12c28.416 46.08 98.56 45.2096 99.2768 45.1584h0.6656c0.6144 0 70.8096 0.7168 99.2256-45.1584a15.36 15.36 0 0 1 20.48-5.12c54.8352 31.2832 100.608 33.28 128.9216 5.7344 25.6-25.088 30.4128-67.584 18.432-90.0608-28.416-53.1968-36.6592-88.9344-26.624-115.7632 19.5072-52.3776 41.5744-111.6672 41.5744-175.9232v-12.4928c0.3072-71.3216 0.7168-160.1024-85.1968-218.88-104.6528-71.68-88.7808-198.0416-88.0128-203.3664a15.36 15.36 0 1 1 30.4128 4.1472c-0.6144 4.7104-13.7728 113.152 74.9056 173.824 99.8912 67.9936 99.4816 169.984 99.1232 244.3776v12.3904c0 69.7856-23.0912 131.84-43.4688 186.5216-6.4512 17.2544 1.9456 47.7696 24.8832 90.7264 17.4592 32.6144 13.1584 90.2656-24.1152 126.5152-21.5552 20.992-69.4784 48.4352-153.6 5.5296-38.0416 46.0288-105.3696 47.9232-116.0704 47.9232z" fill="#3C122C" p-id="3883"></path><path d="M655.36 508.7232a10.24 10.24 0 0 1-9.4208-14.2336 321.2288 321.2288 0 0 0 13.9776-42.3424 10.24 10.24 0 0 1 9.5744-7.7824 307.5072 307.5072 0 0 0 53.6064-9.5232 10.24 10.24 0 0 1 5.376 19.7632 352.6144 352.6144 0 0 1-50.5344 9.728c-2.304 8.3456-5.12 16.128-7.168 22.4768a431.7184 431.7184 0 0 0 57.4976-8.5504 10.24 10.24 0 1 1 5.12 19.7632c-24.7296 6.656-75.3152 10.24-77.4656 10.6496zM731.0848 551.68a10.24 10.24 0 0 1-7.68-3.4816l-15.36-17.6128a10.24 10.24 0 0 1 15.36-13.5168l15.36 17.6128a10.24 10.24 0 0 1-7.68 16.9984zM335.4624 390.2976a15.36 15.36 0 0 1-13.3632-22.8864c19.2-34.0992 42.752-47.6672 43.7248-48.2304a15.36 15.36 0 0 1 15.36 26.6752 102.912 102.912 0 0 0-32.1536 36.608 15.36 15.36 0 0 1-13.568 7.8336zM324.4032 747.008a15.36 15.36 0 0 1-14.9504-11.9808L302.08 702.6688a15.36 15.36 0 0 1 30.0032-6.7072l7.2192 32.3584a15.36 15.36 0 0 1-11.6224 18.3296 15.36 15.36 0 0 1-3.2768 0.3584z" fill="#FFFFFF" p-id="3884"></path><path d="M574.9248 784.6912a10.24 10.24 0 0 1-10.24-10.24v-35.84a10.24 10.24 0 0 1 20.48 0v35.84a10.24 10.24 0 0 1-10.24 10.24zM691.5072 897.7408a10.24 10.24 0 0 1-10.24-10.24v-35.84a10.24 10.24 0 0 1 20.48 0v35.84a10.24 10.24 0 0 1-10.24 10.24zM469.1456 300.032a10.24 10.24 0 0 1-10.24-10.24v-35.84a10.24 10.24 0 0 1 20.48 0v35.84a10.24 10.24 0 0 1-10.24 10.24zM582.656 367.2064a10.24 10.24 0 0 1-10.24-10.24v-35.84a10.24 10.24 0 0 1 20.48 0v35.84a10.24 10.24 0 0 1-10.24 10.24zM387.7376 857.8048a10.24 10.24 0 0 1-10.24-10.24v-35.84a10.24 10.24 0 0 1 20.48 0v35.84a10.24 10.24 0 0 1-10.24 10.24z" fill="#3C122C" p-id="3885"></path><path d="M368.2304 42.3936m28.0576 0l224.512 0q28.0576 0 28.0576 28.0576l0 60.5184q0 28.0576-28.0576 28.0576l-224.512 0q-28.0576 0-28.0576-28.0576l0-60.5184q0-28.0576 28.0576-28.0576Z" fill="#EA7373" p-id="3886"></path><path d="M553.6256 42.3936h85.1968v116.6336h-85.1968z" fill="#E55353" p-id="3887"></path><path d="M620.8512 174.3872H396.288a43.4688 43.4688 0 0 1-43.4176-43.4176V70.4512a43.4688 43.4688 0 0 1 43.4176-43.4176h224.5632a43.4176 43.4176 0 0 1 43.3664 43.4176v60.5184a43.4176 43.4176 0 0 1-43.3664 43.4176zM396.288 57.7536a12.6976 12.6976 0 0 0-12.6976 12.6976v60.5184a12.6976 12.6976 0 0 0 12.6976 12.6976h224.5632a12.6976 12.6976 0 0 0 12.6464-12.6976V70.4512a12.6976 12.6976 0 0 0-12.6464-12.6976z" fill="#3C122C" p-id="3888"></path><path d="M421.2224 127.5392a15.36 15.36 0 0 1-15.36-15.36v-22.6816a15.36 15.36 0 0 1 30.72 0v22.6816a15.36 15.36 0 0 1-15.36 15.36z" fill="#FFFFFF" p-id="3889"></path></svg>