<?xml version="1.0" standalone="no"?><!DOCTYPE svg PUBLIC "-//W3C//DTD SVG 1.1//EN" "http://www.w3.org/Graphics/SVG/1.1/DTD/svg11.dtd"><svg t="1778899823648" class="icon" viewBox="0 0 1024 1024" version="1.1" xmlns="http://www.w3.org/2000/svg" p-id="3681" xmlns:xlink="http://www.w3.org/1999/xlink" width="200" height="200"><path d="M505.0368 110.08m-71.424 0a71.424 71.424 0 1 0 142.848 0 71.424 71.424 0 1 0-142.848 0Z" fill="#E8C2D8" p-id="3682"></path><path d="M505.0368 38.656a71.0144 71.0144 0 0 0-27.8528 5.632 71.424 71.424 0 0 1 13.1072 135.68 73.472 73.472 0 0 0 14.7456 1.536 71.424 71.424 0 1 0 0-142.848z" fill="#D392D8" p-id="3683"></path><path d="M505.0368 196.864a87.04 87.04 0 1 1 87.04-87.04 87.04 87.04 0 0 1-87.04 87.04z m0-142.848a56.32 56.32 0 1 0 56.32 56.32 56.32 56.32 0 0 0-56.32-56.32z" fill="#3C122C" p-id="3684"></path><path d="M279.0912 280.064s8.192-58.3168 35.84-65.9968c5.632-22.4256 57.7024-76.8 72.3968-81.92s66.56-36.5056 143.36-33.3824 131.328 52.3264 131.328 52.3264 53.5552 25.6 53.0432 52.4288c20.48 16.9472 48.2816 53.0944 42.8032 76.8z" fill="#E8C2D8" p-id="3685"></path><path d="M715.0592 203.52c0.512-26.6752-53.0432-52.4288-53.0432-52.4288s-54.272-49.408-131.4304-52.5312a265.728 265.728 0 0 0-48.0256 2.5088 231.4752 231.4752 0 0 1 107.8784 50.0224s53.5552 25.6 53.0432 52.4288c20.48 16.9472 48.2816 53.0944 42.8032 76.8h71.68c5.376-23.7056-22.5792-59.8528-42.9056-76.8z" fill="#D392D8" p-id="3686"></path><path d="M262.5024 288.512a15.36 15.36 0 0 1-15.36-15.36 47.4112 47.4112 0 0 1 14.4896-34.5088c32.8704-32.4608 116.0192-31.4368 204.032-30.3616 14.592 0 29.0304 0.3584 42.9568 0.3584A894.6688 894.6688 0 0 0 701.44 186.8288a15.36 15.36 0 0 1 7.4752 29.7984 908.2368 908.2368 0 0 1-200.3456 22.7328c-14.08 0-28.6208 0-43.3664-0.3584-70.4512-0.8704-158.0032-1.9456-182.016 21.504a16.7424 16.7424 0 0 0-5.12 12.6464 15.36 15.36 0 0 1-15.5648 15.36z" fill="#3C122C" p-id="3687"></path><path d="M311.1424 243.6608a15.36 15.36 0 0 1-14.6432-10.5984c-4.864-15.36-0.8192-33.6896 10.8544-49.7664 18.7904-25.6 53.4016-40.6528 94.9248-40.6528 195.2768 2.7648 236.1344-12.6976 237.824-13.312a15.36 15.36 0 0 1 20.3776 7.5264 15.36 15.36 0 0 1-7.6288 20.48c-4.1984 1.9456-46.592 18.8928-250.5728 16.0256-44.6464 0-63.744 19.5584-69.8368 28.0064s-7.9872 17.6128-6.5024 22.2208a15.36 15.36 0 0 1-14.592 20.0704z" fill="#3C122C" p-id="3688"></path><path d="M759.6544 288.512a16.128 16.128 0 0 1-4.096-0.5632 15.36 15.36 0 0 1-10.752-18.8928c8.2432-29.9008-31.6416-49.4592-36.1984-51.6096a15.36 15.36 0 0 1-8.3968-10.24c-6.0416-24.064-16.4864-39.3216-51.8656-46.08a15.36 15.36 0 0 1-10.24-7.5776c-15.36-27.0848-66.56-41.6768-141.568-39.936a183.8592 183.8592 0 0 0-89.7024 23.6032c-17.152 10.24-22.4256 18.2272-21.8112 21.1968a15.36 15.36 0 0 1-30.0544 6.3488c-4.0448-19.2 8.1408-37.3248 36.1984-53.9648a214.528 214.528 0 0 1 104.448-28.0064c59.4944-1.3312 135.0144 6.3488 165.2224 49.5616 35.84 8.6016 56.9856 27.5968 67.2256 60.5184 29.2352 15.8208 56.9344 46.08 46.3872 84.3264a15.36 15.36 0 0 1-14.7968 11.3152z" fill="#3C122C" p-id="3689"></path><path d="M691.8656 987.2896H332.1344c-44.8512 0-81.5104-29.3888-82.6368-66.2528L230.912 296.96c-0.4096-13.0048 12.3392-23.7568 28.16-23.7568h505.856c15.8208 0 28.5696 10.752 28.16 23.7568l-18.5856 624.128c-1.1264 36.8128-37.7856 66.2016-82.6368 66.2016z" fill="#FFFFFF" p-id="3690"></path><path d="M764.928 273.152h-40.96L706.56 862.3616c-1.0752 36.9152-37.7344 66.304-82.5856 66.304h-359.936a103.6288 103.6288 0 0 1-13.9264-1.024c5.12 33.6896 39.8848 59.648 81.92 59.648h359.7312c44.8512 0 81.5104-29.3888 82.6368-66.2528L793.088 296.96c0.512-13.056-12.3392-23.808-28.16-23.808z" fill="#E1BDFC" p-id="3691"></path><path d="M691.8656 1002.6496H332.1344a107.52 107.52 0 0 1-67.328-22.6816 77.6704 77.6704 0 0 1-30.72-58.4704L215.552 297.3696a35.84 35.84 0 0 1 10.24-26.1632 46.08 46.08 0 0 1 33.0752-13.4144h505.856a46.08 46.08 0 0 1 33.28 13.568 35.84 35.84 0 0 1 10.24 26.1632L789.8112 921.6a77.6704 77.6704 0 0 1-30.72 58.4704 107.52 107.52 0 0 1-67.2256 22.5792zM259.072 288.512a15.6672 15.6672 0 0 0-11.008 4.0448 5.7344 5.7344 0 0 0-1.8432 3.8912l18.6368 624.128c0.8704 28.3136 31.0272 51.2 67.2768 51.2h359.7312c36.2496 0 66.56-23.04 67.2768-51.2l18.6368-624.128a5.7344 5.7344 0 0 0-1.8432-3.8912 15.6672 15.6672 0 0 0-11.008-4.0448z" fill="#3C122C" p-id="3692"></path><path d="M657.2032 921.6H366.7968c-22.6816 0-41.2672-14.8992-41.8304-33.5872L308.992 346.0096h406.016l-15.9744 542.208c-0.5632 18.688-19.1488 33.3824-41.8304 33.3824z" fill="#E8C2D8" p-id="3693"></path><path d="M643.584 346.0096l-14.3872 487.8848c-0.5632 18.6368-19.0976 33.536-41.8304 33.536H324.352l0.6144 20.7872c0.5632 18.688 19.1488 33.5872 41.8304 33.5872h290.4064c22.6816 0 41.2672-14.8992 41.8304-33.5872l15.9744-542.208z" fill="#D392D8" p-id="3694"></path><path d="M317.0816 620.0832l7.8848 268.1344c0.5632 18.688 19.1488 33.5872 41.8304 33.5872h290.4064c22.6816 0 41.2672-14.8992 41.8304-33.5872l7.8848-268.1344z" fill="#D392D8" p-id="3695"></path><path d="M635.4944 620.0832l-6.2976 213.8112c-0.5632 18.6368-19.0976 33.536-41.8304 33.536H324.352l0.6144 20.7872c0.5632 18.688 19.1488 33.5872 41.8304 33.5872h290.4064c22.6816 0 41.2672-14.8992 41.8304-33.5872l7.8848-268.1344z" fill="#C668B9" p-id="3696"></path><path d="M657.2032 931.84H366.7968c-28.4672 0-51.2-19.0976-52.0704-43.52L298.8032 346.3168a10.24 10.24 0 0 1 2.8672-7.424 10.24 10.24 0 0 1 7.3728-3.1232h405.9648a10.24 10.24 0 0 1 7.3216 3.1232 10.24 10.24 0 0 1 2.8672 7.424l-15.9232 542.208c-0.768 24.4224-23.6032 43.3152-52.0704 43.3152z m-337.92-575.7952l15.6672 531.712c0.4096 13.0048 14.592 23.6032 31.5904 23.6032h290.4064c16.9984 0 31.1808-10.5984 31.5904-23.6544l15.6672-531.6608z" fill="#3C122C" p-id="3697"></path><path d="M456.6016 763.392a44.2368 44.2368 0 1 1 44.2368-44.2368 44.288 44.288 0 0 1-44.2368 44.2368z m0-67.9936a23.7568 23.7568 0 1 0 23.7568 23.7568 23.7568 23.7568 0 0 0-23.7568-23.7568zM706.9184 630.3232H317.0816a10.24 10.24 0 1 1 0-20.48h389.8368a10.24 10.24 0 0 1 0 20.48zM651.264 506.88a10.24 10.24 0 0 1-10.24-10.24v-30.72a10.24 10.24 0 1 1 20.48 0v30.72a10.24 10.24 0 0 1-10.24 10.24zM505.0368 542.72a10.24 10.24 0 0 1-10.24-10.24v-30.72a10.24 10.24 0 0 1 20.48 0v30.72a10.24 10.24 0 0 1-10.24 10.24zM613.3248 795.392a10.24 10.24 0 0 1-10.24-10.24v-30.72a10.24 10.24 0 0 1 20.48 0v30.72a10.24 10.24 0 0 1-10.24 10.24zM456.6016 435.2a10.24 10.24 0 0 1-10.24-10.24v-30.72a10.24 10.24 0 0 1 20.48 0v30.72a10.24 10.24 0 0 1-10.24 10.24zM408.32 848.5888a10.24 10.24 0 0 1-10.24-10.24v-30.976a10.24 10.24 0 0 1 20.48 0v30.976a10.24 10.24 0 0 1-10.24 10.24z" fill="#3C122C" p-id="3698"></path><path d="M372.2752 535.9104a15.36 15.36 0 0 1-15.36-15.36V440.0128a15.36 15.36 0 0 1 30.72 0v80.5376a15.36 15.36 0 0 1-15.36 15.36z" fill="#FFFFFF" p-id="3699"></path></svg>