<svg xmlns="http://www.w3.org/2000/svg" fill="none" viewBox="0 0 1024 1024" height="1024" width="1024">
<rect fill="white" height="1024" width="1024"></rect>
<path fill="#FEFEFE" d="M623.961 203.344C634.309 203.717 645.205 205.677 653.396 212.496C659.511 217.043 662.098 224.471 663.862 231.604C668.683 234.23 674.895 235.876 677.501 241.207C679.461 244.578 677.893 249.007 674.562 250.829C668.898 254.063 662.235 254.592 655.905 255.415C641.266 255.846 626.607 256.395 611.967 256.767L612.732 254.808C618.866 240.482 622.648 225.137 623.471 209.557C623.628 207.46 623.785 205.402 623.961 203.344Z"></path>
<path fill="#FEFEFE" d="M562.503 334.472C584.335 327.73 608.302 326.006 630.232 333.374C623.059 336.706 616.063 340.39 609.38 344.643C606.009 347.249 601.58 346.191 597.661 346.504C592.076 346.348 586.608 347.935 581.062 347.994C568.539 345.662 556.075 350.738 545.492 357.009C524.19 370.413 512.47 393.46 497.067 412.489C478.194 435.948 452.62 456.917 421.871 460.974C431.141 435.399 448.21 413.43 467.141 394.244C493.814 367.474 526.149 345.583 562.503 334.472Z"></path>
<path fill="#FEFEFE" d="M670.094 336.412C698.099 331.983 727.593 339.645 750.111 356.852C776.783 376.312 792.794 408.021 796.792 440.396C798.438 451.626 796.028 463.443 800.731 474.143C792.324 475.574 783.544 477.298 776.998 483.217C776.117 483.903 774.372 485.255 773.49 485.941C775.979 497.974 789.952 503.089 801.005 502.05C795.675 517.63 781.29 530.858 764.28 531.113C754.775 531.779 745.976 527.605 736.745 526.508C731.728 527.409 732.336 533.798 734.197 537.267C694.121 545.576 650.575 540.402 615.221 519.08C620.473 497.954 622.805 476.22 624.216 454.546C625.843 434.85 627.195 414.821 633.564 395.969C634.348 393.303 635.759 389.678 632.839 387.796C627.626 384.7 622.903 390.403 617.906 391.461C599.778 394.558 586.217 409.569 578.887 425.659C566.58 452.468 566.364 482.472 562.484 511.163C558.251 538.149 547.021 564.919 527.326 584.281C520.388 549.398 526.013 513.495 535.263 479.611C545.846 443.453 562.288 408.041 588.686 380.663C610.4 358.126 638.659 340.625 670.094 336.412ZM696.531 422.386C692.67 423.346 685.478 425.384 687.869 430.735C689.182 434.595 693.925 432.322 696.649 431.558C706.702 427.756 717.5 430.303 727.064 434.203C731.317 435.379 732.884 428.089 729.278 426.501C719.558 420.759 707.388 419.466 696.531 422.386ZM656.062 451.469C654.69 459.739 660.374 467.029 666.939 471.301C678.188 478.592 692.161 480.767 705.35 479.258C709.72 478.631 714.717 478.278 717.618 474.476C723.027 473.163 728.71 471.752 733.257 468.44C737.823 464.521 732.571 456.29 727.142 459.033C710.661 464.658 692.063 462.051 677.345 452.978C671.956 449.862 667.644 445.237 662.294 442.121C657.022 440.984 653.926 447.157 656.062 451.469ZM662.804 490.272C658.727 491.644 654.906 494.858 654.396 499.365C654.259 504.049 656.768 508.38 660.236 511.398C671.427 521.373 687.732 525.43 702.293 521.824C707.643 520.57 713.62 516.082 712.542 509.928C711.072 502.618 704.644 497.66 698.373 494.427C687.516 489.018 674.562 486.646 662.804 490.272Z"></path>
<path fill="#FEFEFE" d="M405.919 521.373C438.157 499.091 478.175 489.096 517.154 492.114C516.743 494.387 516.351 496.7 515.959 499.032C515.586 498.13 514.803 496.308 514.411 495.406C508.943 509.282 505.572 523.842 503.024 538.501C494.029 537.835 485.073 536.581 476.039 536.777C454.658 537.247 433.492 544.498 416.188 557.041C412.954 558.981 411.641 562.528 410.936 566.056C420.343 564.449 429.357 560.96 438.901 560.078C463.359 557.687 489.404 559.569 511.216 571.817C511.491 576.031 512.412 580.264 512.177 584.516C507.003 598.47 514.744 615.912 528.305 621.928C538.535 626.945 550.666 625.652 560.935 621.399C576.927 646.699 583.159 678.055 577.495 707.51L576.3 707.334C573.007 706.766 569.695 706.374 566.383 706.491C539.907 707.706 513.705 712.351 488.15 719.308C472.433 723.247 457.656 732.419 448.877 746.274C442.938 755.132 440.9 765.735 438.862 776.004C408.76 765.48 383.519 742.845 368.527 714.82C367.547 712.958 366.861 711.018 366.469 709C368.742 702.062 373.681 696.34 376.013 689.402C379.109 681.798 379.462 673.528 379.168 665.454C380.344 653.088 379.658 640.173 373.936 628.924C368.213 616.931 357.787 607.798 345.911 602.154C355.455 569.113 377.64 540.598 405.919 521.373ZM393.455 611.032C390.378 617.891 389.398 626.22 393.376 632.942C396.492 638.194 402.587 640.075 407.898 642.27C408.76 651.089 411.896 660.692 420.46 664.847C428.025 669.609 437.196 667.159 444.918 664.18C454.442 669.178 465.378 672.156 476.078 669.53C483.427 667.669 492.128 664.984 495.519 657.537C500.32 653.049 502.241 646.503 503.358 640.252C496.205 646.111 488.013 652.5 478.116 651.324C470.453 651.207 465.436 644.935 460.38 640.095C460.086 635.431 459.459 630.806 458.617 626.239C459.714 618.283 458.127 609.425 452.032 603.761C441.978 593.551 421.734 596.471 416.619 610.346C422.518 607.641 428.28 603.702 435.041 603.839C445.035 603.467 454.129 612.874 452.894 622.967C452.816 629.983 447.975 635.313 443.977 640.565C441.41 641.526 439.254 643.309 436.844 644.583C431.768 644.348 428.397 639.272 427.456 634.745C426.085 627.18 431.082 620.772 433.101 613.873L435.178 611.875C426.79 613.031 419.755 618.792 416.305 626.396C413.699 625.946 410.132 626.612 408.976 623.594C402.489 615.245 403.626 602.527 411.641 595.609C421.107 586.417 435.629 587.064 447.25 591.14C442.566 584.007 433.316 582.263 425.379 582.811C410.093 584.124 397.315 596.491 393.455 611.032Z"></path>
<path fill="#FEFEFE" d="M580.552 612.502C593.016 598.254 602.345 581.792 610.889 565.017C642.049 580.93 679.637 586.848 713.188 574.992C716.187 611.6 703.39 648.287 681.362 677.271C673.797 677.605 666.213 677.781 658.707 678.702C663.901 655.479 662.627 630.433 653.337 608.406C650.006 601.194 646.165 593.727 639.913 588.632C636.013 585.829 630.33 591.14 633.466 595.079C646.87 615.99 651.652 641.663 648.712 666.179C634.739 670.569 620.276 673.136 605.774 675.057C603.952 665.101 602.306 655.028 598.582 645.563C594.29 633.687 587.255 623.123 580.552 612.502Z"></path>
<path fill="#FEFEFE" d="M291.391 627.082C303.267 612.776 324.922 607.779 341.698 616.029C356.69 622.751 366.116 638.997 365.783 655.263C359.59 663.847 354.73 674.626 344.206 678.741C326.529 687.345 303.13 679.133 294.742 661.378C289.078 650.776 291.293 638.508 291.391 627.082Z"></path>
<path fill="#FEFEFE" d="M594.369 711.861C622.57 699.691 652.985 690.911 683.969 692.068C689.142 692.655 694.885 692.518 699.51 695.125C703.155 705.492 704.703 717.133 700.587 727.617C696.433 739.983 686.595 749.371 675.757 756.112C671.485 757.935 666.899 758.758 662.411 759.895C660.785 748.175 654.749 737.024 644.872 730.302C628.841 719.014 608.597 716.819 589.548 715.859C590.841 714.154 592.252 712.488 594.369 711.861Z"></path>
<path fill="#FEFEFE" d="M493.5 743.707C530.049 734.672 567.912 728.029 605.657 731.753C615.906 732.87 626.038 735.535 635.131 740.532C636.229 751.487 634.837 763.167 627.782 772.065C618.885 778.159 609.478 783.823 598.915 786.43C572.4 793.426 544.708 795.111 517.389 793.857C504.22 793.132 490.541 791.329 478.998 784.529C472.315 780.511 467.749 774.064 463.026 768.067C469.356 756.347 480.37 746.784 493.5 743.707Z"></path>
<path fill="#FEFEFE" d="M243.201 761.031C258.232 759.797 272.793 754.878 285.884 747.509C308.01 765.225 338.797 771.869 366.097 763.951C366.449 764.147 367.135 764.578 367.488 764.794C390.339 788.095 419.99 805.439 452.502 810.535C460.498 811.025 466.455 816.943 473.863 819.275C489.796 824.821 506.924 822.273 523.445 822.509C518.683 829.525 514.92 837.128 511.667 844.967C502.201 839.265 491.148 837.305 480.35 839.774C473.942 832.425 466.299 825.468 456.461 823.371C443.86 819.843 430.514 823.685 420.049 831.014C415.58 817.492 404.939 806.321 391.593 801.304C369.311 792.23 342.795 798.874 325.314 814.787C315.241 790.937 286.491 782.569 262.68 785.763C261.642 785.803 259.584 785.92 258.565 785.959C249.981 778.395 242.123 770.027 234.146 761.815C237.165 761.521 240.183 761.306 243.201 761.031Z"></path>
<path fill="#FDFEFD" d="M670.818 161.151C679.637 158.172 687.417 169.069 682.616 176.712C678.951 183.532 667.722 183.1 664.684 176.026C661.548 170.538 664.508 162.562 670.818 161.151Z"></path>
<path fill="#FDFEFD" d="M712.032 194.624C718.578 190.273 728.298 195.603 728.102 203.442C728.572 211.321 718.558 217.239 712.032 212.497C705.545 208.793 705.565 198.308 712.032 194.624Z"></path>
<path fill="#FDFEFD" d="M792.088 288.378C798.634 285.066 807.119 290.201 807.296 297.491C807.845 305.761 797.046 311.68 790.481 306.428C784.112 302.195 785.111 291.396 792.088 288.378Z"></path>
<path fill="#FDFEFD" d="M373.524 367.141C374.915 358.89 376.601 350.698 378.815 342.644C380.246 350.738 381.657 358.851 383.695 366.847C388.496 363.927 393.298 361.007 398.178 358.224C395.12 363.064 391.789 367.768 389.555 373.079C397.021 374.431 404.508 375.764 411.915 377.39C404.664 379.977 396.963 380.898 389.476 382.662C392.357 387.698 395.258 392.696 398.06 397.791C393.141 394.636 388.3 391.422 383.46 388.188C381.912 396.047 380.52 403.925 378.756 411.745C375.993 404.16 375.405 396.027 373.328 388.247C368.742 391.657 363.98 394.812 358.924 397.497C361.785 392.402 364.764 387.365 367.566 382.27C359.825 380.8 351.947 379.82 344.363 377.645C351.888 375.705 359.531 374.353 367.116 372.589C364.274 367.787 361.432 363.006 358.689 358.185C363.745 360.987 368.664 364.025 373.524 367.141Z"></path>
<path fill="#FDFEFD" d="M847.137 527.938C852.252 524.313 860.581 528.075 860.268 534.621C861.189 541.323 852.331 546.262 847.137 541.892C842.355 538.736 842.512 531.133 847.137 527.938Z"></path>
<path fill="#FDFEFD" d="M227.856 822.391C230.874 820.882 233.833 819.275 237.067 818.315C241.025 817.472 242.339 822.019 244.318 824.39C241.829 828.192 239.085 834.933 233.284 832.817C228.228 831.857 227.915 826.506 227.856 822.391Z"></path>
<path fill="#FDFEFD" d="M356.846 824.919C363.823 820.529 374.229 826.213 373.916 834.581C375.209 843.262 364.528 850.082 357.062 845.732C348.909 842.028 348.85 828.878 356.846 824.919Z"></path>
<path fill="#FCFCF9" d="M282.65 584.36C288.647 583.125 291.685 591.238 286.041 594.158C279.436 596.275 276.026 586.378 282.65 584.36Z"></path>
<path fill="#FDFDFB" d="M269.011 572.738C273.106 571.288 279.28 572.68 279.632 577.814C280.73 585.183 271.362 586.927 266.326 589.475C261.25 592.375 252.333 590.592 252.313 583.713C253.391 575.717 262.779 574.698 269.011 572.738Z"></path>
<path fill="#FDFDFB" d="M198.421 625.691C202.536 624.025 207.847 625.573 208.102 630.629C206.22 638.684 197.696 642.956 190.17 644.171C184.075 645.543 179.881 637.018 184.31 632.903C188.328 629.414 193.384 627.278 198.421 625.691Z"></path>
<path fill="#FDFDFC" d="M447.956 175.693C449.327 171.107 450.836 166.56 452.522 162.072C453.992 166.521 455.363 171.009 456.696 175.497C461.125 176.868 465.437 178.593 469.493 180.827C465.319 182.277 461.027 183.355 456.716 184.355C455.167 189.548 453.658 194.761 452.169 199.974C450.778 194.781 449.327 189.626 447.858 184.453C446.701 184.198 444.389 183.649 443.252 183.394C439.705 182.473 436.177 181.513 432.65 180.572C437.745 178.946 442.86 177.319 447.956 175.693Z"></path>
<path fill="#FCFDFD" d="M622.648 185.726C637.15 185.726 653.769 186.158 664.685 197.171C670.446 202.404 670.701 210.674 673.935 217.278C680.03 220.277 687.222 221.649 692.023 226.842C695.766 230.37 696.746 235.622 697.393 240.502C696.335 244.382 694.728 248.086 692.768 251.633C693.121 246.93 694.159 241.579 691.122 237.523C686.477 230.918 678.56 228.155 671.309 225.49C669.584 217.925 667.056 210.047 660.843 204.952C650.653 195.956 636.425 194.624 623.432 194.545C623.236 191.567 622.981 188.646 622.648 185.726Z"></path>
<path fill="#FCFDFD" d="M776.449 268.467C781.505 264.979 789.168 269.839 787.698 275.993C787.404 281.264 780.722 284.184 776.41 281.402C771.844 278.775 771.766 271.015 776.449 268.467Z"></path>
<path fill="#FCFDFD" d="M854.977 447.549C857.956 445.041 863.09 447.04 863.659 450.901C865.129 455.624 858.191 459.621 854.742 456.329C851.763 454.291 852.018 449.431 854.977 447.549Z"></path>
<path fill="#FCFDFD" d="M854.741 493.878C857.818 492.78 861.757 494.113 862.443 497.621C864.364 502.54 857.367 507.537 853.409 504.049C849.842 501.462 850.371 495.21 854.741 493.878Z"></path>
<path fill="#FCFDFD" d="M845.198 511.81C850.94 507.165 857.877 516.297 852.194 520.629C846.766 525.743 839.789 516.278 845.198 511.81Z"></path>
<path fill="#FCFDFD" d="M737.372 829.407C742.468 829.211 746.152 833.954 749.425 837.285C754.03 841.479 748.935 849.71 743.114 847.613C738.391 845.693 734.629 841.793 731.728 837.716C729.455 833.875 733.433 829.525 737.372 829.407Z"></path>
<path fill="#FCFDFD" d="M580.788 851.18C588.49 848.417 596.623 855.981 594.761 863.859C593.467 872.698 580.494 875.736 575.516 868.269C570.832 862.605 573.948 853.277 580.788 851.18Z"></path>
<path fill="#FDFEFC" d="M323.061 308.348C324.354 302.645 324.981 296.668 327.588 291.377C329.116 297.04 330.233 302.802 331.213 308.603C335.054 306.212 338.974 303.939 342.972 301.802C340.738 305.526 338.464 309.21 336.171 312.914C341.992 313.933 347.793 315.09 353.515 316.54C348.047 318.245 342.423 319.283 336.779 320.185C338.405 324.281 340.346 328.24 342.345 332.179C338.582 329.788 334.898 327.299 331.311 324.673C330.135 330.631 328.842 336.569 327.47 342.487C325.51 336.666 324.217 330.67 323.119 324.653C319.357 327.358 315.535 329.984 311.655 332.531C313.556 328.416 315.712 324.477 318.083 320.655C311.89 319.323 305.599 318.362 299.504 316.599C305.658 315.207 311.851 314.11 318.063 313.032C315.829 309.328 313.693 305.526 311.694 301.724C315.535 303.801 319.317 306.055 323.061 308.348Z"></path>
<path fill="#FDFEFC" d="M185.035 515.455C188.112 509.654 189.072 503.01 191.169 496.857C192.776 502.285 193.893 507.87 195.794 513.24C196.441 516.709 200.635 516.356 203.222 517.434C207.435 518.453 211.649 519.531 215.842 520.726C211.649 522.02 207.455 523.274 203.241 524.411C201.105 524.94 198.969 525.469 196.833 525.979C194.658 532.348 192.717 538.795 190.797 545.263C188.563 539.05 187.74 532.191 184.408 526.449C178.705 523.98 172.571 522.686 166.692 520.785C172.748 518.825 179.019 517.571 185.035 515.455Z"></path>
<path fill="#FEFEFD" d="M254.959 462.796C256.977 452.645 259.074 442.513 261.484 432.459C263.131 442.415 265.541 452.213 267.481 462.13C273.694 458.955 279.671 455.31 285.981 452.351C282.238 458.093 278.456 463.835 274.987 469.773C284.531 472.242 294.467 473.046 303.815 476.24C294.408 478.455 284.982 480.552 275.536 482.531C278.965 488.645 282.65 494.603 285.805 500.894C279.573 497.17 273.576 493.094 267.344 489.41C265.384 499.444 263.17 509.419 261.289 519.453C258.898 509.575 257.781 499.385 254.919 489.645C248.256 491.918 242.945 497.111 236.752 500.463C239.653 494.133 243.396 488.253 246.747 482.159C237.027 479.924 227.189 478.18 217.41 476.22C227.032 473.065 237.184 471.968 247.041 469.753C243.69 463.776 239.829 458.132 236.654 452.076C242.886 455.388 248.844 459.249 254.959 462.796Z"></path>
<path fill="#FDFDFD" d="M688.554 176.986C693.199 173.184 700.45 178.221 699.098 183.904C699.098 191.586 688.319 197.015 683.126 190.489C678.952 185.295 684.341 179.828 688.554 176.986Z"></path>
<path fill="#FDFDFD" d="M741.605 218.415C750.541 214.593 761.672 223.197 759.909 232.839C759.105 242.52 746.7 248.811 738.665 242.873C729.258 237.287 731.1 221.59 741.605 218.415Z"></path>
<path fill="#FDFDFD" d="M848.745 415.703C856.897 411.764 867.068 420.23 864.286 428.99C862.875 437.633 850.783 440.357 845.178 434.125C839.593 428.853 841.572 418.486 848.745 415.703Z"></path>
<path fill="#FDFDFD" d="M787.248 538.149L787.483 537.992C789.56 544.459 790.775 551.338 794.048 557.374C800.868 559.745 808.06 560.764 815.076 562.411C808.256 564.645 801.397 566.8 794.538 568.858C793.088 575.776 791.598 582.714 789.541 589.494C786.973 582.929 785.484 575.952 782.348 569.622C775.783 567.369 768.806 566.546 762.065 564.939C768.689 562.313 775.45 560 782.25 557.884C784.073 551.338 785.543 544.714 787.248 538.149Z"></path>
<path fill="#FDFDFD" d="M212.433 578.931C227.856 557.021 253.509 543.322 280.005 540.853C303.895 538.443 328.627 545.674 347.303 560.803C347.303 561.411 347.303 562.626 347.303 563.233C346.108 565.311 344.893 567.408 343.756 569.544C322.532 553.454 294.449 547.183 268.384 552.572C240.477 557.825 215.588 575.874 201.635 600.547C202.967 592.375 207.945 585.633 212.433 578.931Z"></path>
<path fill="#FEFDFC" d="M733.334 629.14C742.271 624.632 754.5 634.804 750.404 644.426C748.503 652.5 738.038 657.929 731.002 652.461C721.752 647.405 722.869 632.021 733.334 629.14Z"></path>
<path fill="#3A357B" d="M437.589 86.1906C455.658 77.2934 475.49 71.61 495.754 72.0216C510.786 71.6688 525.347 75.706 539.672 79.7039C552.763 85.9751 565.541 93.0889 576.712 102.457C601.777 123.132 618.298 153.567 622.648 185.726C622.981 188.646 623.236 191.566 623.432 194.545C623.687 199.523 623.687 204.54 623.471 209.557C622.648 225.137 618.866 240.482 612.732 254.808C599.347 284.792 574.674 309.446 544.768 322.968C489.287 349.15 417.952 339.469 373.387 296.59C355.632 279.951 343.031 257.865 338.131 233.995C332.84 207.578 336.328 179.083 349.831 155.585C352.928 150.412 356.945 144.768 363.295 143.67C369.115 142.377 375.034 145.728 377.993 150.686C382.618 157.526 382.598 166.07 383.558 173.968C384.499 183.218 388.399 191.841 392.887 199.895C411.642 230.311 453.149 245.793 486.504 231.291C507.964 222.335 522.015 198.818 519.291 175.653C514.881 143.337 484.27 119.036 452.62 116.978C443.644 116.116 434.512 123.21 425.948 118.35C421.715 116.312 420.578 111.413 418.814 107.532C421.97 98.0862 430.024 92.0111 437.589 86.1906ZM434.375 105.553C450.582 101.006 467.573 104.397 482.859 110.531L482.702 110.766C495.656 116.194 507.003 125.013 516.038 135.713C527.777 150.294 534.518 169.186 532.519 188C530.932 207.695 519.859 226.117 503.574 237.19C483.859 250.869 457.853 253.455 435.08 247.027C408.82 239.835 386.106 220.551 375.288 195.486C372.074 187.392 369.86 178.887 369.546 170.146C369.546 165.423 367.685 161.053 365.411 157.016C355.475 169.696 351.615 186.079 349.831 201.796C349.733 208.714 349.106 215.789 350.733 222.57C351.713 240.423 358.905 257.453 368.684 272.23C388.105 300.313 420.069 318.186 453.424 323.713C479.253 327.75 506.278 326.025 530.873 316.873C562.562 305.389 588.705 279.775 601.169 248.478C612.262 222.06 613.143 191.527 603.541 164.541C595.31 141.652 580.239 120.839 559.975 107.199C554.331 102.123 547.296 98.9682 540.593 95.5582C529.109 90.5412 516.88 87.0724 504.377 86.0926C479.959 84.3288 453.443 89.3459 434.375 105.553Z"></path>
<path fill="#6972AD" d="M539.672 79.7039C571.107 80.2722 602.267 87.19 632.055 96.9888C690.691 116.214 744.055 150.255 787.326 194.134C841.376 248.399 880.846 317.206 899.522 391.559C919.57 472.673 914.671 559.471 887.372 638.331C881.727 655.067 874.712 671.275 868.009 687.599C864.207 679.937 860.229 672.372 855.937 664.964C886.764 595.609 898.817 517.787 889.194 442.415C872.948 311.229 788.012 190.175 669.055 131.99C647.968 121.819 625.941 113.588 603.306 107.65C594.565 105.357 585.785 102.79 576.712 102.457C565.541 93.0889 552.764 85.9751 539.672 79.7039Z"></path>
<path fill="#6A73AD" d="M349.341 113.882C377.483 101.3 406.899 90.2082 437.589 86.1907C430.024 92.0111 421.969 98.0863 418.814 107.532C356.082 124.994 298.289 159.133 252.235 205.089C202.673 254.377 165.869 316.56 147.153 383.936C124.361 466.206 127.458 555.845 157.854 635.764C153.366 643.329 149.779 651.403 146.879 659.712C115.738 588.887 106.528 509.144 117.345 432.734C126.85 362.966 155.149 296.198 197.225 239.855C237.086 186.785 288.961 141.985 349.341 113.882Z"></path>
<path fill="#FEF4D9" d="M434.374 105.553C453.442 89.3458 479.958 84.3287 504.376 86.0925C501.182 86.9156 498.066 87.9347 494.95 88.9538C491.305 96.3617 487.327 103.593 482.858 110.531C467.572 104.397 450.581 101.006 434.374 105.553Z"></path>
<path fill="#FFEFBE" d="M504.377 86.0925C516.88 87.0724 529.109 90.5412 540.593 95.5582C539.339 100.026 538.34 104.573 537.752 109.198C528.09 104.887 517.645 102.045 507.023 102.28C514.705 108.826 524.935 111.413 532.735 117.899C526.64 123.308 521.505 129.677 516.038 135.713C507.003 125.013 495.656 116.194 482.702 110.766L482.859 110.531C487.327 103.593 491.305 96.3617 494.951 88.9538C498.067 87.9347 501.183 86.9156 504.377 86.0925Z"></path>
<path fill="#FFE4AA" d="M540.592 95.5582C547.295 98.9682 554.33 102.123 559.974 107.199C563.502 112.393 567.127 117.527 570.792 122.662C590.37 151.607 596.485 189.117 587.372 222.844C580.905 247.321 567.01 270.309 546.55 285.595C523.072 303.958 492.049 311.209 462.653 308.211C434.491 305.017 407.388 292.827 386.536 273.621C370.917 259.589 359.237 241.658 350.732 222.57C349.105 215.789 349.732 208.714 349.83 201.796C351.516 199.817 353.221 197.897 354.906 195.937C361.687 195.662 368.487 195.506 375.287 195.486C386.105 220.551 408.819 239.835 435.079 247.027C457.852 253.455 483.858 250.869 503.573 237.19C519.858 226.117 530.931 207.695 532.518 188C534.517 169.186 527.776 150.294 516.037 135.714C521.504 129.677 526.639 123.308 532.734 117.899C544.042 126.601 554.722 136.36 562.738 148.256C568.578 156.467 572.105 165.972 576.671 174.909C580.062 147.648 562.424 120.212 537.751 109.198C538.339 104.573 539.338 100.026 540.592 95.5582ZM546.334 183.786C544.061 204.873 533.361 224.882 517.056 238.444C495.185 256.846 465.436 266.194 437 261.882C410.759 258.472 387.575 242.559 370.897 222.55C367.566 218.866 365.959 213.32 361.02 211.36C368.056 237.209 387.007 259.256 411.445 270.192C430.258 279.305 451.816 281.029 472.315 278.148C502.142 272.779 531.068 254.612 543.669 226.254C549.157 213.065 552.116 197.328 546.334 183.786Z"></path>
<path fill="#FCFCFA" d="M507.023 102.28C517.645 102.045 528.09 104.887 537.752 109.198C562.425 120.212 580.063 147.648 576.673 174.909C572.106 165.972 568.579 156.467 562.739 148.256C554.723 136.36 544.043 126.601 532.735 117.899C524.935 111.413 514.705 108.826 507.023 102.28Z"></path>
<path fill="#FCFCFA" d="M209.846 645.425C209.317 641.8 206.495 636.077 211.786 634.784C216.724 636.646 220.056 641.604 225.485 642.662C220.115 642.172 214.725 643.152 209.846 645.425Z"></path>
<path fill="#A2B0D4" d="M576.712 102.457C585.786 102.79 594.565 105.357 603.306 107.65C625.941 113.588 647.968 121.819 669.055 131.99C788.012 190.175 872.948 311.229 889.194 442.415C898.817 517.787 886.764 595.608 855.937 664.964C846.354 652.461 833.557 642.153 818.389 637.43C811.647 635.137 804.533 634.51 797.635 632.961L798.203 631.394C823.249 562.724 829.638 486.313 811.275 415.174C794.44 349.444 756.264 289.319 703.861 246.165C701.685 244.284 699.53 242.402 697.393 240.501C696.747 235.622 695.767 230.37 692.024 226.842C687.222 221.649 680.03 220.277 673.935 217.278C670.702 210.674 670.447 202.404 664.685 197.171C653.769 186.158 637.151 185.726 622.649 185.726C618.298 153.567 601.777 123.132 576.712 102.457ZM647.224 149.314C640.659 151.607 639.463 161.523 645.342 165.267C650.791 169.617 659.864 165.325 659.649 158.27C660.452 151.725 653.103 146.551 647.224 149.314ZM670.819 161.151C664.509 162.562 661.55 170.538 664.685 176.026C667.723 183.1 678.952 183.532 682.617 176.712C687.418 169.069 679.638 158.172 670.819 161.151ZM688.555 176.986C684.342 179.827 678.952 185.295 683.126 190.489C688.32 197.015 699.098 191.586 699.098 183.904C700.451 178.221 693.2 173.184 688.555 176.986ZM712.033 194.624C705.566 198.308 705.546 208.793 712.033 212.497C718.559 217.239 728.573 211.321 728.103 203.443C728.299 195.603 718.578 190.273 712.033 194.624ZM741.605 218.415C731.101 221.59 729.259 237.287 738.666 242.873C746.701 248.811 759.106 242.52 759.91 232.839C761.673 223.197 750.542 214.594 741.605 218.415ZM766.573 242.696C760.478 245.656 766.24 255.729 771.942 252.299C778.39 249.222 772.609 238.189 766.573 242.696ZM776.45 268.467C771.766 271.015 771.844 278.775 776.411 281.402C780.722 284.184 787.405 281.264 787.699 275.993C789.169 269.839 781.506 264.979 776.45 268.467ZM792.089 288.378C785.112 291.396 784.113 302.195 790.482 306.428C797.047 311.68 807.845 305.761 807.296 297.491C807.12 290.201 798.634 285.066 792.089 288.378ZM811.941 314.208C807.943 315.756 807.218 321.341 809.413 324.653C811.765 328.69 818.565 328.788 820.936 324.653C825.326 319.166 818.036 310.602 811.941 314.208ZM829.402 335.491C824.581 339.057 826.149 346.446 825.64 351.815C828.736 356.989 836.634 355.833 838.123 350.012C841.298 344.114 837.437 332.316 829.402 335.491ZM843.258 382.368C836.595 383.995 839.378 394.812 846.021 392.892C852.782 391.383 849.98 379.957 843.258 382.368ZM848.745 415.703C841.572 418.486 839.593 428.853 845.178 434.125C850.783 440.357 862.875 437.633 864.286 428.99C867.069 420.23 856.898 411.764 848.745 415.703ZM854.977 447.549C852.018 449.431 851.763 454.291 854.742 456.329C858.191 459.621 865.129 455.623 863.659 450.9C863.091 447.04 857.956 445.041 854.977 447.549ZM847.256 461.013C840.357 461.973 841.514 473.359 848.725 472.379C856.173 471.85 854.585 459.327 847.256 461.013ZM854.742 493.878C850.372 495.21 849.843 501.462 853.409 504.049C857.368 507.537 864.364 502.54 862.444 497.621C861.758 494.113 857.819 492.78 854.742 493.878ZM845.198 511.81C839.789 516.278 846.766 525.743 852.194 520.628C857.878 516.297 850.94 507.165 845.198 511.81ZM847.138 527.938C842.513 531.133 842.356 538.737 847.138 541.892C852.331 546.262 861.19 541.323 860.268 534.621C860.582 528.075 852.253 524.313 847.138 527.938ZM855.095 564.644C852.057 567.016 846.609 568.956 847.687 573.797C851.214 581.42 861.856 576.089 863.757 569.936C865.462 565.134 858.603 560.999 855.095 564.644ZM837.437 607.896C831.636 610.169 830.206 618.694 834.89 622.79C839.417 627.631 848.49 625.142 849.803 618.616C852.214 611.522 844.081 604.682 837.437 607.896Z"></path>
<path fill="#A2B0D4" d="M252.235 205.089C298.289 159.133 356.082 124.994 418.814 107.532C420.578 111.413 421.715 116.312 425.948 118.35C434.512 123.21 443.644 116.116 452.62 116.978C484.27 119.036 514.881 143.337 519.291 175.653C505.592 175.242 491.854 175.869 478.253 177.476C475 177.633 472.139 179.063 469.493 180.827C465.437 178.593 461.125 176.868 456.696 175.496C455.364 171.009 453.992 166.521 452.522 162.072C450.836 166.56 449.327 171.107 447.956 175.692C442.86 177.319 437.745 178.946 432.65 180.572C436.178 181.513 439.705 182.473 443.252 183.394C426.222 188.117 409.035 192.625 392.887 199.895C388.399 191.841 384.499 183.218 383.558 173.968C382.598 166.07 382.618 157.526 377.993 150.686C375.033 145.728 369.115 142.377 363.294 143.67C356.945 144.768 352.927 150.412 349.831 155.585C336.328 179.083 332.84 207.578 338.131 233.995C289.647 268.291 251.295 316.442 228.718 371.374C209.571 417.408 201.047 467.656 203.222 517.434C200.635 516.356 196.441 516.709 195.794 513.24C193.893 507.87 192.776 502.285 191.169 496.857C189.072 503.01 188.112 509.654 185.035 515.455C179.019 517.571 172.748 518.825 166.692 520.785C172.571 522.686 178.705 523.98 184.408 526.449C187.74 532.191 188.563 539.05 190.797 545.263C192.718 538.795 194.658 532.348 196.833 525.979C198.969 525.469 201.105 524.94 203.241 524.411C205.652 542.656 206.22 561.411 212.433 578.931C207.945 585.633 202.967 592.375 201.634 600.547L201.419 601.174C183.252 606.955 167.613 619.42 157.854 635.764C127.458 555.845 124.361 466.206 147.153 383.936C165.869 316.559 202.673 254.376 252.235 205.089ZM308.656 195.603C306.834 199.621 305.599 204.775 300.935 206.421C299.563 207.264 293.586 209.341 297.897 210.733C304.071 212.281 306.618 218.101 308.656 223.53C310.165 219.297 310.969 213.516 316.084 212.183C317.73 211.458 323.688 209.42 319.259 207.832C313.242 206.323 310.577 200.973 308.656 195.603ZM253.313 261.334C246.532 261.588 247.728 273.484 254.626 271.622C260.603 270.623 259.663 260.275 253.313 261.334ZM235.362 268.565C227.64 271.564 228.15 283.988 235.812 286.81C242.554 289.593 250.373 282.812 248.629 275.699C248.688 269.251 240.653 265.861 235.362 268.565ZM218.194 316.246C213.648 319.421 215.666 327.789 221.428 328.044C226.112 328.769 230.227 323.458 228.307 319.127C227.268 314.796 221.467 313.737 218.194 316.246ZM196.578 381.643C194.423 386.229 190.601 389.599 186.329 392.225C190.856 393.891 194.305 397.164 196.402 401.476C198.322 397.086 202.36 394.577 205.828 391.618C202.262 388.757 198.558 385.895 196.578 381.643ZM176.746 413.822C170.043 417.075 169.24 427.481 175.668 431.46C181.978 436.144 191.816 430.95 191.62 423.17C192.267 415.664 183.213 410.059 176.746 413.822ZM174.276 569.269C180.43 571.876 185.153 576.442 186.584 583.164C187.093 576.011 192.404 572.17 198.244 569.23C192.345 567.819 188.269 563.606 186.956 557.707C184.565 563.312 180.195 567.506 174.276 569.269Z"></path>
<path fill="#EAACAB" d="M559.975 107.199C580.239 120.839 595.31 141.652 603.54 164.541C613.143 191.527 612.261 222.06 601.169 248.478C588.705 279.775 562.562 305.389 530.873 316.873C506.278 326.025 479.253 327.75 453.423 323.712C420.068 318.186 388.105 300.313 368.684 272.23C358.905 257.453 351.712 240.423 350.732 222.57C359.238 241.658 370.918 259.589 386.537 273.621C407.389 292.827 434.492 305.016 462.654 308.211C492.05 311.209 523.073 303.958 546.551 285.595C567.011 270.309 580.905 247.321 587.373 222.844C596.485 189.117 590.371 151.607 570.793 122.662C567.128 117.527 563.503 112.392 559.975 107.199Z"></path>
<path fill="#FCFDFC" d="M647.223 149.314C653.102 146.551 660.451 151.725 659.648 158.27C659.863 165.325 650.789 169.617 645.341 165.267C639.462 161.524 640.658 151.607 647.223 149.314Z"></path>
<path fill="#FCFDFC" d="M253.312 261.334C259.662 260.275 260.603 270.623 254.625 271.622C247.727 273.484 246.532 261.588 253.312 261.334Z"></path>
<path fill="#FCFDFC" d="M829.401 335.491C837.436 332.316 841.297 344.114 838.122 350.012C836.633 355.833 828.735 356.989 825.639 351.815C826.148 346.446 824.58 339.057 829.401 335.491Z"></path>
<path fill="#FCFDFC" d="M176.745 413.822C183.213 410.059 192.267 415.664 191.62 423.17C191.816 430.95 181.978 436.144 175.667 431.46C169.239 427.481 170.043 417.075 176.745 413.822Z"></path>
<path fill="#FCFDFC" d="M855.094 564.644C858.602 560.999 865.461 565.134 863.756 569.936C861.855 576.089 851.213 581.42 847.686 573.797C846.608 568.956 852.056 567.016 855.094 564.644Z"></path>
<path fill="#FCFDFC" d="M837.436 607.896C844.08 604.682 852.213 611.522 849.803 618.616C848.489 625.142 839.416 627.631 834.889 622.79C830.205 618.694 831.636 610.169 837.436 607.896Z"></path>
<path fill="#FEEDBB" d="M349.831 201.796C351.614 186.079 355.475 169.696 365.411 157.016C367.684 161.053 369.546 165.423 369.546 170.146C369.86 178.887 372.074 187.392 375.288 195.486C368.488 195.506 361.688 195.662 354.907 195.937C353.221 197.897 351.516 199.817 349.831 201.796Z"></path>
<path fill="#7988BF" d="M478.253 177.476C491.854 175.869 505.592 175.242 519.29 175.653C522.014 198.818 507.963 222.335 486.504 231.291C453.149 245.793 411.641 230.311 392.886 199.895C409.035 192.625 426.222 188.117 443.252 183.394C444.389 183.649 446.701 184.198 447.857 184.453C449.327 189.626 450.777 194.781 452.169 199.974C453.658 194.761 455.167 189.548 456.715 184.355C461.027 183.355 465.319 182.277 469.493 180.827C472.139 179.063 475 177.633 478.253 177.476Z"></path>
<path fill="#7988BF" d="M228.718 371.374C251.294 316.442 289.646 268.291 338.131 233.995C343.03 257.865 355.631 279.951 373.387 296.59C417.951 339.469 489.286 349.15 544.767 322.968C574.673 309.445 599.346 284.792 612.731 254.808L611.967 256.767C626.606 256.395 641.265 255.846 655.905 255.415C666.232 256.611 676.874 258.355 687.143 255.729C689.475 255.18 691.494 253.632 692.767 251.633C694.727 248.086 696.334 244.382 697.393 240.502C699.529 242.402 701.684 244.284 703.86 246.165C756.263 289.319 794.439 349.444 811.274 415.174C829.637 486.313 823.248 562.724 798.202 631.394C791.5 617.636 781.211 605.27 767.65 597.882C755.773 591.082 741.957 588.338 728.376 588.357C728.023 591.434 727.69 594.609 727.357 597.725C727.847 587.848 727.808 577.971 726.965 568.113C743.799 563.841 760.477 557.393 774.078 546.301C778.036 542.95 782.524 540.304 787.247 538.149C785.542 544.714 784.072 551.338 782.25 557.883C775.449 560 768.688 562.312 762.064 564.938C768.806 566.545 775.783 567.369 782.348 569.622C785.483 575.952 786.973 582.929 789.54 589.494C791.598 582.713 793.087 575.776 794.537 568.858C801.396 566.8 808.256 564.645 815.076 562.41C808.06 560.764 800.867 559.745 794.047 557.374C790.775 551.338 789.56 544.459 787.482 537.992C803.748 529.075 814.664 511.751 815.801 493.231C817.78 479.983 811.528 467.48 811.607 454.33C811.705 418.29 797.595 382.015 771.785 356.636C749.306 334.021 717.715 320.734 685.791 320.949C673.209 320.773 660.823 323.203 648.653 326.123C624.137 312.856 594.741 311.778 568.049 318.225C515.723 331.532 470.179 365.357 436.647 407.022C424.811 422.151 414.248 438.613 408.192 456.956C405.703 464.658 404.253 473.575 408.231 481.061C411.327 487.45 417.795 491.017 423.615 494.564C392.69 510.163 365.038 533.19 347.302 563.233C347.302 562.626 347.302 561.411 347.302 560.803C328.626 545.674 303.894 538.443 280.004 540.853C253.509 543.322 227.855 557.021 212.432 578.931C206.22 561.411 205.651 542.656 203.241 524.411C207.454 523.274 211.648 522.02 215.842 520.726C211.648 519.531 207.435 518.453 203.221 517.434C201.046 467.656 209.571 417.408 228.718 371.374ZM673.68 264.293C672.366 268.644 671.485 273.171 669.623 277.364C666.409 279.971 661.882 279.795 658.08 280.892C655.728 279.324 653.729 276.306 650.594 276.678C643.97 276.247 641.089 286.458 646.968 289.574C651.926 293.199 657.492 288.045 658.393 283.067C662.039 284.126 665.684 285.262 669.309 286.497C670.72 291.514 672.033 296.55 673.288 301.646C674.953 296.57 676.443 291.435 677.971 286.321C682.675 285.125 687.339 283.812 691.984 282.401C687.574 280.304 682.616 279.795 678.226 277.737C676.521 273.308 675.384 268.683 673.68 264.293ZM323.06 308.348C319.317 306.055 315.535 303.801 311.694 301.724C313.693 305.526 315.829 309.328 318.063 313.032C311.85 314.11 305.658 315.207 299.504 316.599C305.599 318.362 311.89 319.323 318.082 320.655C315.711 324.477 313.555 328.416 311.654 332.531C315.535 329.984 319.356 327.358 323.119 324.653C324.216 330.67 325.51 336.666 327.47 342.487C328.842 336.569 330.135 330.631 331.311 324.673C334.897 327.299 338.581 329.788 342.344 332.179C340.345 328.24 338.405 324.281 336.779 320.185C342.423 319.283 348.047 318.245 353.515 316.54C347.792 315.09 341.991 313.933 336.171 312.914C338.464 309.21 340.737 305.526 342.971 301.802C338.973 303.939 335.054 306.212 331.213 308.603C330.233 302.802 329.116 297.04 327.587 291.377C324.981 296.668 324.354 302.645 323.06 308.348ZM373.524 367.141C368.664 364.025 363.745 360.987 358.689 358.185C361.432 363.006 364.274 367.787 367.115 372.589C359.531 374.352 351.888 375.705 344.363 377.645C351.947 379.82 359.825 380.8 367.566 382.27C364.764 387.365 361.785 392.402 358.924 397.497C363.98 394.812 368.742 391.657 373.328 388.247C375.405 396.027 375.993 404.16 378.756 411.745C380.52 403.925 381.912 396.047 383.46 388.188C388.3 391.422 393.141 394.636 398.06 397.791C395.258 392.696 392.357 387.698 389.476 382.662C396.963 380.898 404.664 379.977 411.915 377.39C404.508 375.764 397.021 374.431 389.555 373.079C391.789 367.768 395.12 363.064 398.178 358.224C393.298 361.007 388.496 363.927 383.695 366.847C381.657 358.851 380.246 350.738 378.815 342.644C376.601 350.698 374.915 358.89 373.524 367.141ZM287.706 391.931C286.472 399.065 281.435 403.886 274.576 405.669C281.964 406.61 286.609 412.332 287.373 419.505C288.451 416.35 289.235 413.038 291.018 410.216C293.605 407.766 297.231 406.865 300.366 405.356C293.056 404.317 289.352 398.536 287.706 391.931ZM326.627 414.919C325.471 422.073 319.846 426.266 313.144 427.873C316.182 429.088 319.356 430.147 322.1 432.008C324.608 434.497 325.216 438.201 326.509 441.415C327.646 438.24 328.332 434.811 330.351 432.067C333.035 430.108 336.367 429.343 339.424 428.167C332.643 426.56 328.371 421.485 326.627 414.919ZM254.959 462.796C248.844 459.249 242.887 455.388 236.655 452.076C239.83 458.132 243.69 463.776 247.041 469.753C237.184 471.968 227.032 473.065 217.41 476.22C227.189 478.18 237.027 479.924 246.748 482.159C243.396 488.253 239.653 494.133 236.753 500.463C242.946 497.111 248.257 491.918 254.92 489.645C257.781 499.385 258.898 509.575 261.289 519.453C263.17 509.419 265.385 499.444 267.344 489.41C273.576 493.094 279.573 497.17 285.805 500.894C282.65 494.603 278.966 488.645 275.536 482.531C284.982 480.552 294.409 478.455 303.815 476.24C294.467 473.046 284.532 472.242 274.988 469.773C278.456 463.835 282.239 458.093 285.982 452.351C279.671 455.31 273.694 458.955 267.482 462.13C265.542 452.213 263.131 442.415 261.485 432.459C259.074 442.513 256.977 452.645 254.959 462.796ZM324.981 498.405C332.271 499.404 336.955 505.088 338.268 512.064C339.365 508.792 339.777 505.146 341.972 502.403C344.716 500.561 347.89 499.6 350.948 498.444C344.167 496.915 339.777 491.898 338.386 485.196C336.876 492.153 331.664 496.602 324.981 498.405Z"></path>
<path fill="#FDFEFB" d="M546.335 183.786C552.116 197.328 549.157 213.065 543.67 226.254C531.069 254.612 502.143 272.779 472.315 278.148C451.816 281.029 430.259 279.305 411.445 270.192C387.007 259.256 368.057 237.209 361.021 211.36C365.96 213.32 367.567 218.866 370.898 222.55C387.576 242.559 410.76 258.472 437.001 261.882C465.437 266.194 495.186 256.846 517.056 238.444C533.362 224.882 544.062 204.873 546.335 183.786Z"></path>
<path fill="#8C9DC2" d="M623.432 194.545C636.425 194.624 650.653 195.956 660.843 204.952C667.056 210.047 669.584 217.925 671.308 225.49C678.559 228.155 686.477 230.918 691.121 237.523C694.159 241.579 693.12 246.929 692.768 251.633C691.494 253.632 689.475 255.18 687.143 255.729C676.874 258.355 666.233 256.611 655.905 255.415C662.235 254.592 668.898 254.063 674.562 250.829C677.893 249.007 679.461 244.578 677.501 241.207C674.895 235.876 668.682 234.23 663.861 231.604C662.098 224.471 659.511 217.043 653.396 212.497C645.205 205.677 634.308 203.717 623.961 203.345C623.784 205.402 623.628 207.46 623.471 209.557C623.686 204.54 623.686 199.523 623.432 194.545Z"></path>
<path fill="#FCFCFB" d="M308.657 195.604C310.577 200.973 313.243 206.323 319.259 207.832C323.688 209.42 317.73 211.458 316.084 212.183C310.969 213.516 310.166 219.297 308.657 223.53C306.619 218.101 304.071 212.281 297.898 210.733C293.586 209.341 299.563 207.264 300.935 206.421C305.599 204.775 306.834 199.621 308.657 195.604Z"></path>
<path fill="#FCFCFB" d="M673.68 264.293C675.385 268.683 676.521 273.308 678.226 277.737C682.616 279.795 687.574 280.304 691.984 282.401C687.339 283.812 682.675 285.125 677.972 286.321C676.443 291.435 674.953 296.57 673.288 301.646C672.033 296.55 670.72 291.514 669.309 286.497C665.684 285.262 662.039 284.126 658.394 283.067C657.492 288.045 651.926 293.199 646.968 289.574C641.089 286.458 643.97 276.247 650.594 276.678C653.729 276.306 655.728 279.324 658.08 280.892C661.882 279.794 666.409 279.971 669.623 277.364C671.485 273.171 672.367 268.644 673.68 264.293Z"></path>
<path fill="#FAFCFB" d="M766.572 242.696C772.608 238.189 778.39 249.222 771.942 252.299C766.239 255.729 760.478 245.656 766.572 242.696Z"></path>
<path fill="#7887BB" d="M235.361 268.565C240.653 265.861 248.688 269.251 248.629 275.699C250.373 282.812 242.554 289.593 235.812 286.81C228.149 283.988 227.64 271.564 235.361 268.565Z"></path>
<path fill="#FBFCFC" d="M811.94 314.208C818.035 310.602 825.325 319.166 820.935 324.653C818.564 328.788 811.763 328.69 809.412 324.653C807.217 321.341 807.942 315.756 811.94 314.208Z"></path>
<path fill="#FBFCFC" d="M174.276 569.27C180.194 567.506 184.565 563.312 186.955 557.707C188.269 563.606 192.345 567.819 198.244 569.23C192.404 572.17 187.093 576.011 186.583 583.164C185.152 576.442 180.43 571.876 174.276 569.27Z"></path>
<path fill="#FBFDFC" d="M218.194 316.246C221.467 313.737 227.268 314.796 228.307 319.127C230.227 323.458 226.112 328.769 221.428 328.044C215.666 327.789 213.648 319.421 218.194 316.246Z"></path>
<path fill="#FBFDFC" d="M843.258 382.368C849.98 379.957 852.782 391.383 846.021 392.892C839.377 394.812 836.594 383.995 843.258 382.368Z"></path>
<path fill="#FBFDFC" d="M672.818 827.427C677.09 825.958 681.225 830.367 680.931 834.561C680.519 839.598 677.207 843.674 674.366 847.633C671.563 846.222 667.252 845.653 666.84 841.851C666.468 836.54 668.898 830.975 672.818 827.427Z"></path>
<path fill="#39337A" d="M568.049 318.225C594.741 311.778 624.137 312.856 648.654 326.123C660.824 323.203 673.21 320.773 685.791 320.949C717.716 320.734 749.307 334.021 771.785 356.636C797.595 382.015 811.705 418.29 811.607 454.33C811.529 467.48 817.78 479.983 815.801 493.231C814.664 511.751 803.749 529.075 787.483 537.992L787.247 538.149C782.524 540.304 778.037 542.95 774.078 546.301C760.477 557.393 743.8 563.841 726.966 568.113C727.808 577.971 727.847 587.848 727.357 597.725L727.397 599.626C727.906 603.056 728.71 606.446 729.474 609.856C732.845 611.169 736.216 612.502 739.645 613.717C734.942 613.403 730.219 613.325 725.515 613.246C720.753 636.822 711.562 659.595 697.608 679.251C706.682 681.505 715.579 685.385 722.047 692.362C724.731 695.438 727.201 698.75 729.729 701.984C730.611 701.984 732.355 701.984 733.217 701.964C731.649 712.449 733.374 723.13 731.591 733.654C730.219 736.75 728.71 739.788 727.181 742.825C726.887 742.374 726.28 741.473 725.986 741.042C711.523 761.972 685.576 770.066 661.706 774.279C658.021 787.39 648.281 797.953 636.347 804.165C625.588 809.614 614.005 813.298 602.227 815.767C576.339 821.137 549.804 822.45 523.445 822.509C506.925 822.273 489.796 824.821 473.864 819.275C466.456 816.943 460.498 811.025 452.502 810.535C419.99 805.439 390.339 788.095 367.488 764.794C367.135 764.578 366.45 764.147 366.097 763.951C363.177 760.267 360.609 756.347 357.807 752.585C354.613 748.254 351.457 743.864 348.616 739.298C343.089 730.106 338.719 720.327 334.643 710.43C313.477 714.35 290.176 706.158 277.575 688.403C273.596 682.896 270.422 676.782 268.736 670.197C266.149 660.241 267.188 649.952 268.325 639.879C270.48 634.686 272.989 629.63 275.791 624.77C287.452 605.721 310.695 595.628 332.644 598.431C334.153 593.492 335.623 588.573 337.406 583.752C339.287 578.911 341.384 574.149 343.756 569.544C344.892 567.408 346.107 565.311 347.303 563.233C365.038 533.19 392.691 510.163 423.615 494.564C417.795 491.017 411.328 487.45 408.231 481.061C404.253 473.575 405.703 464.658 408.192 456.956C414.248 438.613 424.811 422.151 436.648 407.022C470.179 365.357 515.724 331.532 568.049 318.225ZM562.503 334.472C526.15 345.583 493.814 367.474 467.142 394.244C448.21 413.43 431.141 435.399 421.871 460.974L421.519 461.032C420.735 464.775 420.029 468.538 419.402 472.36C433.061 471.321 446.094 466.383 457.931 459.7C484.231 444.904 503.613 420.897 520.31 396.302C529.814 382.054 541.103 368.591 555.722 359.341C563.444 354.089 572.321 351.09 581.062 347.994C586.608 347.935 592.076 346.348 597.661 346.504C601.581 346.191 606.01 347.249 609.38 344.643C616.063 340.39 623.059 336.706 630.232 333.374C608.303 326.006 584.335 327.73 562.503 334.472ZM670.094 336.412C638.659 340.625 610.399 358.126 588.685 380.663C562.288 408.041 545.845 443.453 535.263 479.611C526.013 513.495 520.388 549.398 527.326 584.281C528.639 589.71 530.5 595.001 532.989 600.038C556.506 574.051 570.107 539.991 573.576 505.303C576.221 477.984 577.378 449.587 589.411 424.385C595.466 410.824 606.264 400.3 617.905 391.461C622.903 390.403 627.626 384.7 632.839 387.796C635.759 389.678 634.348 393.303 633.564 395.969C627.195 414.821 625.842 434.85 624.216 454.546C622.805 476.22 620.473 497.954 615.22 519.08C613.613 524.528 611.967 529.957 610.223 535.385C652.652 561.724 709.112 566.585 753.971 543.479C747.327 542.362 740.88 540.304 734.922 537.13L734.197 537.267C732.335 533.798 731.728 527.409 736.745 526.508C745.975 527.605 754.774 531.779 764.279 531.113C781.29 530.858 795.674 517.63 801.005 502.05C789.952 503.089 775.979 497.974 773.49 485.941C774.372 485.255 776.116 483.903 776.998 483.217C784.68 487.391 793.225 494.662 802.475 490.723C803.219 485.137 801.691 479.591 800.731 474.143C796.027 463.443 798.438 451.626 796.791 440.396C792.794 408.021 776.782 376.312 750.11 356.852C727.593 339.645 698.098 331.983 670.094 336.412ZM547.962 381.016C537.124 391.5 529.599 404.67 520.702 416.703C516.723 422.249 512.157 427.364 508.571 433.184C505.082 435.752 502.437 439.26 499.399 442.336C481.35 461.542 458.421 476.789 432.572 482.942C436.805 485.49 441.88 487.489 446.799 485.588C458.264 482.453 470.258 481.316 481.33 476.808C499.438 469.616 516.371 459.308 531.049 446.491C536.046 439.652 537.947 431.029 541.965 423.621L542.278 423.66C553.782 399.398 570.264 377.645 590.038 359.556C574.105 361.673 559.27 369.708 547.962 381.016ZM596.681 437.751C585.001 470.596 589.136 506.381 579.435 539.658C577.672 545.988 575.163 552.102 573.595 558.51C566.54 572.895 559.074 587.221 548.883 599.744C557.78 595.334 564.424 587.613 570.852 580.264C593.369 552.278 604.069 516.493 607.519 481.179C609.42 475.064 608.93 468.401 609.772 462.071C610.811 444.12 613.163 426.286 615.769 408.511C606.891 416.311 600.699 426.737 596.681 437.751ZM505.082 477.298C510.413 477.533 515.743 477.71 521.094 477.827C522.367 473.712 523.563 469.597 524.68 465.481C517.88 468.95 511.589 473.3 505.082 477.298ZM405.919 521.373C377.64 540.598 355.455 569.113 345.911 602.154C357.787 607.798 368.213 616.931 373.936 628.924C379.658 640.173 380.344 653.088 379.168 665.454C375.327 682.641 364.353 698.104 348.341 705.943C363.647 749.802 401.803 784.568 447.035 795.347C440.019 775.651 451.424 754.78 466.26 742.1C474.608 734.261 485.544 730.106 496.616 727.931C522.524 721.758 548.902 717.152 575.555 716.29C576.319 713.37 577.084 710.47 577.868 707.589L576.3 707.334L577.495 707.51C583.159 678.055 576.927 646.699 560.935 621.399C559.132 618.694 557.369 615.99 555.605 613.305C546.727 617.421 535.655 618.812 527.247 612.815C517.821 606.407 515.802 594.492 512.177 584.516C512.412 580.264 511.491 576.031 511.216 571.817C489.404 559.569 463.359 557.687 438.902 560.078C438.333 559.079 437.197 557.099 436.628 556.1C437.882 554.121 438.98 551.73 441.645 551.553C464.124 545.929 488.17 547.497 509.962 555.238C510.021 536.346 512.235 517.532 515.959 499.032C516.351 496.7 516.743 494.387 517.154 492.114C478.175 489.096 438.157 499.091 405.919 521.373ZM605.637 548.476C597.191 569.073 585.726 588.808 569.323 604.134C566.756 605.917 570.107 608.406 570.871 610.287C587.725 634.882 595.368 665.18 593.448 694.85C610.36 688.579 627.92 684.385 645.518 680.505C647.576 676.037 647.792 670.961 648.713 666.179C651.652 641.663 646.87 615.99 633.466 595.079C630.33 591.14 636.013 585.829 639.913 588.632C646.165 593.727 650.006 601.194 653.338 608.406C662.627 630.433 663.901 655.479 658.707 678.702C666.213 677.781 673.797 677.605 681.362 677.271C703.39 648.287 716.187 611.6 713.188 574.992C713.247 574.012 713.384 572.052 713.443 571.053C676.365 575.443 637.483 568.407 605.637 548.476ZM291.391 627.082C279.691 640.605 276.732 661.789 286.531 677.174C296.839 694.321 319.945 701.847 338.523 694.752C354.789 689.108 366.116 672.411 365.783 655.263C366.116 638.998 356.69 622.751 341.698 616.029C324.922 607.779 303.267 612.776 291.391 627.082ZM594.369 711.861C592.252 712.488 590.841 714.154 589.548 715.859C608.596 716.819 628.841 719.014 644.872 730.302C654.749 737.024 660.785 748.175 662.411 759.895C666.899 758.758 671.485 757.935 675.757 756.112C691.651 752.546 708.426 744.902 716.402 729.891C723.791 716.408 714.384 697.829 699.509 695.125C694.884 692.518 689.142 692.655 683.969 692.068C652.985 690.911 622.57 699.691 594.369 711.861ZM493.5 743.707C480.37 746.784 469.356 756.347 463.026 768.067L462.791 767.753C457.343 777.219 456.833 790.447 465.633 798.11C480.468 812.024 502.417 808.692 520.996 808.359C551.92 808.301 583.394 807.183 613.261 798.384C625.607 794.406 639.227 788.997 645.695 776.925C652.593 764.382 647.047 747.803 635.132 740.532C626.038 735.535 615.906 732.87 605.657 731.753C567.912 728.029 530.05 734.673 493.5 743.707Z"></path>
<path fill="#E5C6E7" d="M545.492 357.009C556.075 350.737 568.539 345.662 581.062 347.994C572.321 351.09 563.444 354.089 555.722 359.341C541.102 368.591 529.814 382.054 520.31 396.302C503.612 420.897 484.23 444.904 457.931 459.7C446.094 466.382 433.061 471.321 419.402 472.36C420.029 468.538 420.734 464.775 421.518 461.032L421.871 460.974C452.62 456.917 478.194 435.948 497.067 412.489C512.47 393.46 524.19 370.413 545.492 357.009Z"></path>
<path fill="#E877AD" d="M547.962 381.016C559.27 369.708 574.105 361.673 590.038 359.556C570.264 377.645 553.782 399.398 542.279 423.66L541.965 423.621C529.638 420.407 519.604 429.618 508.571 433.184C512.157 427.364 516.723 422.249 520.702 416.703C529.599 404.67 537.124 391.5 547.962 381.016Z"></path>
<path fill="#F9FBF9" d="M196.578 381.643C198.557 385.895 202.261 388.757 205.828 391.618C202.359 394.577 198.322 397.086 196.402 401.476C194.305 397.164 190.856 393.891 186.329 392.225C190.601 389.599 194.422 386.229 196.578 381.643Z"></path>
<path fill="#FBFBFA" d="M287.707 391.931C289.353 398.536 293.057 404.317 300.367 405.356C297.231 406.865 293.605 407.766 291.018 410.216C289.235 413.038 288.451 416.35 287.373 419.505C286.609 412.332 281.964 406.61 274.576 405.669C281.435 403.886 286.472 399.065 287.707 391.931Z"></path>
<path fill="#E6C7E6" d="M578.886 425.659C586.216 409.569 599.777 394.557 617.905 391.461C606.264 400.3 595.466 410.823 589.41 424.385C577.377 449.587 576.221 477.984 573.575 505.303C570.107 539.991 556.506 574.051 532.989 600.037C530.5 595.001 528.638 589.71 527.325 584.281C547.021 564.919 558.25 538.149 562.483 511.163C566.363 482.472 566.579 452.468 578.886 425.659Z"></path>
<path fill="#E977AC" d="M596.681 437.75C600.699 426.737 606.891 416.311 615.769 408.511C613.163 426.286 610.811 444.12 609.772 462.071C608.93 468.401 609.419 475.064 607.519 481.179C596.132 494.015 590.175 510.496 586.138 526.919C583.218 537.855 580.885 549.456 573.595 558.51C575.163 552.102 577.672 545.988 579.435 539.658C589.136 506.381 585.001 470.596 596.681 437.75Z"></path>
<path fill="#FBFBFB" d="M326.628 414.919C328.372 421.485 332.644 426.56 339.425 428.167C336.368 429.343 333.036 430.108 330.351 432.067C328.333 434.811 327.647 438.24 326.51 441.415C325.217 438.201 324.609 434.497 322.101 432.008C319.357 430.147 316.182 429.088 313.145 427.873C319.847 426.266 325.471 422.073 326.628 414.919Z"></path>
<path fill="#FBFBFB" d="M324.981 498.405C331.664 496.602 336.877 492.153 338.386 485.196C339.778 491.898 344.167 496.915 350.948 498.444C347.891 499.6 344.716 500.561 341.972 502.403C339.778 505.146 339.366 508.792 338.269 512.064C336.956 505.088 332.272 499.404 324.981 498.405Z"></path>
<path fill="#383277" d="M696.53 422.386C707.388 419.466 719.558 420.759 729.278 426.502C732.884 428.089 731.316 435.379 727.063 434.203C717.5 430.303 706.702 427.756 696.648 431.558C693.924 432.322 689.181 434.595 687.868 430.735C685.477 425.385 692.67 423.346 696.53 422.386Z"></path>
<path fill="#F0A6C9" d="M508.57 433.184C519.604 429.618 529.638 420.407 541.965 423.621C537.947 431.029 536.046 439.651 531.049 446.491C516.37 459.308 499.438 469.616 481.33 476.808C470.257 481.316 458.264 482.452 446.799 485.588C441.88 487.489 436.804 485.49 432.571 482.942C458.42 476.789 481.35 461.542 499.399 442.336C502.436 439.259 505.082 435.752 508.57 433.184Z"></path>
<path fill="#39317B" d="M656.061 451.469C653.925 447.157 657.021 440.984 662.293 442.121C667.643 445.237 671.955 449.862 677.344 452.978C692.062 462.051 710.66 464.658 727.141 459.034C732.57 456.29 737.822 464.521 733.256 468.44C728.709 471.752 723.026 473.163 717.617 474.476C694.962 476.848 671.21 468.793 656.061 451.469Z"></path>
<path fill="#E5CBE4" d="M656.061 451.469C671.21 468.793 694.962 476.848 717.617 474.476C714.716 478.278 709.719 478.631 705.349 479.258C692.16 480.767 678.187 478.592 666.938 471.301C660.373 467.029 654.689 459.739 656.061 451.469Z"></path>
<path fill="#FBFBFC" d="M847.255 461.013C854.584 459.327 856.172 471.85 848.725 472.379C841.513 473.359 840.357 461.973 847.255 461.013Z"></path>
<path fill="#7E83BB" d="M505.082 477.298C511.588 473.3 517.879 468.95 524.68 465.481C523.563 469.596 522.367 473.712 521.093 477.827C515.743 477.71 510.413 477.533 505.082 477.298Z"></path>
<path fill="#E7C3E1" d="M776.998 483.217C783.544 477.298 792.323 475.574 800.731 474.143C801.691 479.591 803.22 485.137 802.475 490.723C793.225 494.662 784.68 487.391 776.998 483.217Z"></path>
<path fill="#F2A4C9" d="M586.138 526.919C590.175 510.496 596.133 494.015 607.519 481.179C604.07 516.493 593.37 552.278 570.852 580.264C564.424 587.613 557.781 595.334 548.883 599.744C559.074 587.221 566.541 572.895 573.596 558.51C580.886 549.456 583.218 537.855 586.138 526.919Z"></path>
<path fill="#E3B7D9" d="M662.803 490.272C674.561 486.646 687.515 489.018 698.372 494.427C704.644 497.66 711.072 502.618 712.541 509.928C713.619 516.082 707.642 520.57 702.292 521.824C687.731 525.43 671.426 521.373 660.236 511.398C656.767 508.38 654.258 504.049 654.396 499.365C654.905 494.858 658.727 491.644 662.803 490.272Z"></path>
<path fill="#E7C7E4" d="M514.411 495.406C514.803 496.308 515.587 498.131 515.959 499.032C512.236 517.532 510.021 536.346 509.962 555.238C488.17 547.497 464.124 545.929 441.645 551.553C438.98 551.73 437.883 554.121 436.628 556.1C437.197 557.099 438.333 559.079 438.902 560.078C429.358 560.96 420.343 564.449 410.936 566.056C411.642 562.528 412.955 558.981 416.188 557.041C433.493 544.498 454.658 537.247 476.039 536.777C485.073 536.581 494.03 537.835 503.025 538.501C505.572 523.842 508.943 509.282 514.411 495.406Z"></path>
<path fill="#E8C8E3" d="M615.221 519.08C650.575 540.402 694.121 545.576 734.198 537.267L734.923 537.13C740.88 540.304 747.328 542.362 753.971 543.479C709.113 566.585 652.652 561.724 610.224 535.385C611.968 529.957 613.614 524.528 615.221 519.08Z"></path>
<path fill="#E7C8E3" d="M605.637 548.477C637.483 568.407 676.364 575.443 713.443 571.053C713.384 572.052 713.247 574.012 713.188 574.992C679.637 586.849 642.049 580.93 610.889 565.017C602.344 581.792 593.016 598.254 580.552 612.502C587.254 623.124 594.29 633.687 598.582 645.563C602.305 655.028 603.952 665.101 605.774 675.057C620.276 673.136 634.739 670.569 648.712 666.179C647.791 670.961 647.576 676.037 645.518 680.505C627.919 684.385 610.36 688.579 593.447 694.85C595.368 665.18 587.725 634.882 570.871 610.287C570.107 608.406 566.755 605.917 569.323 604.134C585.726 588.808 597.19 569.073 605.637 548.477Z"></path>
<path fill="#E7C8E3" d="M348.341 705.943C364.352 698.104 375.327 682.641 379.168 665.454C379.462 673.528 379.109 681.798 376.013 689.402C373.68 696.34 368.742 702.062 366.469 709C366.86 711.018 367.546 712.958 368.526 714.82C383.518 742.845 408.76 765.48 438.862 776.004C440.9 765.735 442.938 755.132 448.876 746.274C457.656 732.419 472.432 723.247 488.15 719.308C513.705 712.351 539.907 707.706 566.383 706.491C569.695 706.374 573.007 706.766 576.299 707.334L577.867 707.589C577.083 710.47 576.319 713.37 575.554 716.29C548.902 717.152 522.524 721.758 496.616 727.931C485.543 730.106 474.608 734.261 466.259 742.1C451.424 754.78 440.018 775.651 447.034 795.347C401.803 784.568 363.646 749.802 348.341 705.943Z"></path>
<path fill="#554D93" d="M268.383 552.572C294.448 547.183 322.531 553.454 343.756 569.544C341.384 574.149 339.287 578.911 337.406 583.752C324.942 574.032 309.911 567.388 294.056 566.134C266.247 563.429 237.89 576.285 220.762 598.195C241.868 597.999 263.562 607.132 275.791 624.77C272.989 629.63 270.48 634.686 268.325 639.879C266.698 637.116 264.954 634.412 263.073 631.844C252.431 619.243 235.754 612.149 219.272 613.246C195.344 614.285 174.159 631.766 165.673 653.715C158.892 669.295 158.383 687.462 164.027 703.473C170.807 722.816 187.818 737.749 207.416 743.256C233.951 750.88 263.778 745.863 286.198 729.695C304.404 748.41 332.075 757.7 357.807 752.585C360.609 756.347 363.177 760.267 366.097 763.951C338.797 771.869 308.01 765.225 285.884 747.509C272.793 754.878 258.232 759.797 243.201 761.031C231.815 761.306 220.409 760.894 209.042 760.149C202.869 756.014 195.187 755.27 188.798 751.507C167.456 741.218 151.563 720.68 146.82 697.476C143.9 685.032 145.37 672.215 146.879 659.712C149.779 651.403 153.366 643.329 157.853 635.764C167.613 619.42 183.252 606.955 201.419 601.174L201.634 600.547C215.588 575.874 240.477 557.825 268.383 552.572Z"></path>
<path fill="#FEEFC0" d="M220.762 598.195C237.89 576.285 266.248 563.429 294.056 566.134C309.911 567.388 324.942 574.032 337.406 583.752C335.623 588.573 334.153 593.492 332.644 598.431C310.695 595.628 287.452 605.721 275.792 624.77C263.563 607.132 241.868 597.999 220.762 598.195ZM269.011 572.738C262.779 574.698 253.392 575.717 252.314 583.713C252.333 590.592 261.25 592.375 266.326 589.475C271.363 586.927 280.73 585.183 279.633 577.814C279.28 572.68 273.107 571.288 269.011 572.738ZM284.728 577.794C284.787 582.204 290.078 583.203 293.606 583.38C294.331 580.479 296.643 576.442 293.527 574.169C290.646 570.837 284.16 573.287 284.728 577.794ZM282.651 584.36C276.027 586.378 279.437 596.275 286.041 594.158C291.685 591.238 288.648 583.125 282.651 584.36Z"></path>
<path fill="#FBFCFB" d="M284.728 577.794C284.16 573.287 290.646 570.837 293.527 574.169C296.643 576.442 294.331 580.479 293.606 583.38C290.078 583.203 284.787 582.204 284.728 577.794Z"></path>
<path fill="#8C97BE" d="M393.455 611.032C397.316 596.49 410.093 584.124 425.379 582.811C433.316 582.263 442.566 584.007 447.25 591.14C435.629 587.064 421.107 586.417 411.641 595.609C403.626 602.526 402.489 615.245 408.976 623.594C410.132 626.612 413.699 625.945 416.306 626.396C419.755 618.792 426.79 613.031 435.178 611.874L433.101 613.873C425.673 619.772 419.52 628.709 421.107 638.664C421.852 647.346 431.259 654.068 439.685 651.344C447.152 648.737 453.502 643.838 460.38 640.095C465.437 644.935 470.454 651.207 478.116 651.324C488.013 652.5 496.205 646.111 503.358 640.252C502.241 646.503 500.32 653.049 495.519 657.537C487.386 661.476 478.312 664.827 469.141 662.848C462.183 661.907 456.637 657.38 451.405 653.068C442.645 658.262 431.259 661.103 421.989 655.44C415.247 651.971 413.013 644.387 410.858 637.704C398.609 635.274 392.338 622.712 393.455 611.032Z"></path>
<path fill="#E6C7E4" d="M512.177 584.516C515.802 594.491 517.821 606.407 527.247 612.815C535.655 618.812 546.727 617.421 555.605 613.305C557.369 615.99 559.133 618.694 560.935 621.399C550.666 625.652 538.535 626.945 528.306 621.928C514.744 615.912 507.003 598.47 512.177 584.516Z"></path>
<path fill="#8A9ABF" d="M416.619 610.346C421.734 596.471 441.978 593.551 452.032 603.761C458.127 609.425 459.714 618.283 458.617 626.239C455.559 632.452 451.542 639.507 443.977 640.565C447.975 635.313 452.816 629.982 452.894 622.967C454.129 612.874 445.036 603.467 435.041 603.839C428.28 603.702 422.518 607.641 416.619 610.346Z"></path>
<path fill="#4A4085" d="M727.397 599.626C743.898 598.333 760.849 602.958 774.058 613.05C784.425 620.537 791.637 631.472 797.046 642.897C814.703 643.054 832.459 649.071 845.962 660.574C859.817 672.372 869.263 689.089 872.418 707.02C877.416 733.693 867.852 762.619 847.804 780.962C830.734 796.757 806.845 804.969 783.7 802.715C781.74 801.716 779.8 800.716 777.88 799.717C769.472 802.5 758.909 811.122 750.737 803.773C760.987 801.363 770.962 797.051 778.095 789.056C806.139 795.307 836.476 781.001 850.92 756.504C862.639 736.887 863.834 711.077 852.723 690.931C849.352 684.013 844.472 677.938 838.906 672.686C816.35 651.011 778.428 650.599 754.069 669.472C744.27 676.586 737.411 687.227 734.118 698.809C733.883 699.613 733.452 701.18 733.217 701.964C732.355 701.984 730.611 701.984 729.729 701.984C727.201 698.75 724.731 695.438 722.046 692.362C731.198 666.454 755.656 648.267 782.348 643.74C773.372 628.062 757.753 616.225 739.645 613.717C736.215 612.502 732.845 611.169 729.474 609.856C728.71 606.446 727.906 603.056 727.397 599.626Z"></path>
<path fill="#4A4085" d="M782.544 692.479C791.402 688.364 801.592 690.794 809.745 695.438C819.897 702.964 825.207 716.212 822.836 728.676C819.799 745.118 806.335 757.935 790.971 763.363C768.375 771.986 739.743 764.147 727.181 742.825C728.709 739.788 730.218 736.75 731.59 733.654C746.641 761.07 791.088 761.306 807.001 734.633C810.882 727.147 811.744 717.348 806.002 710.568C801.318 703.728 790.069 700.769 783.896 707.138C779.408 712.743 787.032 718.505 787.208 724.501C784.366 725.697 781.407 728.578 778.134 726.853C771.04 723.384 769.492 714.703 769.1 707.589C771.432 701.043 775.861 695.007 782.544 692.479Z"></path>
<path fill="#E5CCE3" d="M393.377 632.942C389.398 626.22 390.378 617.891 393.455 611.032C392.338 622.712 398.609 635.274 410.858 637.704C413.013 644.387 415.247 651.971 421.989 655.44C431.259 661.103 442.645 658.262 451.405 653.068C456.637 657.38 462.183 661.907 469.141 662.848C478.312 664.827 487.386 661.476 495.519 657.537C492.128 664.984 483.427 667.669 476.078 669.53C465.378 672.156 454.442 669.178 444.918 664.18C437.197 667.159 428.025 669.609 420.46 664.847C411.896 660.692 408.761 651.089 407.898 642.27C402.587 640.075 396.493 638.194 393.377 632.942Z"></path>
<path fill="#FEEEBE" d="M165.673 653.715C174.159 631.766 195.343 614.285 219.272 613.246C235.754 612.149 252.431 619.243 263.073 631.844C253.627 636.077 244.083 640.291 235.656 646.386C232.363 644.896 228.934 643.701 225.484 642.662C220.056 641.604 216.724 636.646 211.786 634.784C206.494 636.077 209.317 641.8 209.846 645.425C197.676 652.089 190.777 666.003 192.443 679.76C190.895 678.447 189.366 677.154 187.818 675.88C181.527 676.938 175.178 677.644 168.828 678.192C166.927 670.157 166.065 661.926 165.673 653.715ZM216.136 623.535C211.943 624.299 210.512 631.864 215.333 633.157C219.292 635.587 223.917 631.002 222.643 626.886C222.819 623.437 218.684 622.79 216.136 623.535ZM198.42 625.691C193.384 627.278 188.328 629.414 184.31 632.903C179.881 637.018 184.075 645.543 190.17 644.171C197.695 642.956 206.22 638.684 208.101 630.629C207.847 625.573 202.536 624.025 198.42 625.691Z"></path>
<path fill="#FEEBB6" d="M725.515 613.246C730.219 613.325 734.942 613.403 739.645 613.717C757.753 616.225 773.372 628.062 782.348 643.74C755.656 648.267 731.199 666.454 722.047 692.361C715.579 685.385 706.682 681.504 697.608 679.251C711.562 659.594 720.753 636.822 725.515 613.246ZM733.335 629.14C722.87 632.021 721.753 647.405 731.003 652.461C738.038 657.929 748.503 652.5 750.404 644.426C754.5 634.803 742.271 624.632 733.335 629.14Z"></path>
<path fill="#E5CAE0" d="M421.107 638.664C419.52 628.709 425.673 619.772 433.101 613.873C431.082 620.772 426.085 627.18 427.457 634.745C428.397 639.272 431.768 644.348 436.844 644.583C439.254 643.309 441.41 641.526 443.977 640.565C451.542 639.507 455.56 632.452 458.617 626.239C459.459 630.806 460.087 635.431 460.38 640.095C453.502 643.838 447.152 648.737 439.686 651.344C431.259 654.068 421.852 647.346 421.107 638.664Z"></path>
<path fill="#FBFAF8" d="M216.136 623.535C218.684 622.79 222.819 623.437 222.643 626.886C223.916 631.002 219.291 635.587 215.333 633.157C210.512 631.864 211.942 624.299 216.136 623.535Z"></path>
<path fill="#E7C9E3" d="M286.53 677.173C276.732 661.789 279.691 640.604 291.39 627.082C291.292 638.507 289.078 650.775 294.742 661.378C303.129 679.133 326.529 687.344 344.206 678.741C354.73 674.626 359.59 663.847 365.783 655.263C366.116 672.411 354.788 689.108 338.523 694.752C319.944 701.847 296.839 694.321 286.53 677.173Z"></path>
<path fill="#FEE5AC" d="M235.656 646.386C244.083 640.291 253.627 636.077 263.073 631.844C264.954 634.412 266.698 637.116 268.325 639.879C267.188 649.952 266.15 660.241 268.737 670.197C265.954 688.618 245.396 701.592 227.405 697.653C220.801 696.477 215.137 692.479 210.787 687.54C211.433 683.484 211.394 679.212 213.119 675.449C215.549 671.333 220.84 671.02 224.975 669.844C226.739 673.058 228.777 677.408 233.206 676.997C239.575 676.703 242.789 669.55 243.397 664.023C244.396 657.125 240.555 650.854 235.656 646.386Z"></path>
<path fill="#554D92" d="M209.845 645.425C214.725 643.152 220.115 642.172 225.484 642.662C228.933 643.701 232.363 644.896 235.655 646.386C240.555 650.854 244.396 657.125 243.396 664.023C242.789 669.55 239.575 676.703 233.206 676.997C228.777 677.409 226.739 673.058 224.975 669.844C226.68 666.747 228.267 663.592 229.815 660.437C223.544 655.048 213.941 657.556 209.924 664.435C205.064 671.373 207.004 680.564 210.786 687.54C215.137 692.479 220.801 696.477 227.405 697.653C245.395 701.592 265.953 688.618 268.736 670.197C270.421 676.782 273.596 682.896 277.575 688.403C266.482 706.217 244.298 716.858 223.505 712.135C207.749 708.961 194.834 695.732 192.443 679.76C190.777 666.003 197.675 652.089 209.845 645.425Z"></path>
<path fill="#EAABAA" d="M164.027 703.473C158.382 687.462 158.892 669.295 165.673 653.715C166.065 661.927 166.927 670.157 168.828 678.192C173.727 696.614 187.171 712.586 205.005 719.622C231.677 730.616 262.524 723.816 286.452 709.235C302.542 726.265 324.765 739.062 348.616 739.297C351.457 743.864 354.612 748.254 357.807 752.585C332.075 757.7 304.404 748.41 286.198 729.695C263.778 745.863 233.951 750.88 207.415 743.256C187.818 737.749 170.807 722.816 164.027 703.473Z"></path>
<path fill="#FEEAB5" d="M754.069 669.472C778.429 650.599 816.35 651.011 838.907 672.685C829.049 680.074 818.819 687.07 809.745 695.438C801.593 690.794 791.402 688.364 782.544 692.479C775.861 695.007 771.432 701.043 769.1 707.589C768.649 705.884 768.179 704.198 767.709 702.552C764.26 703.395 760.81 704.218 757.361 705.061C765.455 691.362 779.095 681.23 794.244 676.585C803.827 673.548 813.939 673.626 823.875 673.019C794.714 655.93 750.816 673.097 743.643 706.942C741.722 702.885 738.489 699.906 734.119 698.809C737.411 687.227 744.27 676.585 754.069 669.472Z"></path>
<path fill="#EAACAF" d="M209.924 664.435C213.942 657.556 223.545 655.048 229.816 660.437C228.268 663.592 226.68 666.747 224.975 669.844C220.84 671.02 215.549 671.333 213.119 675.449C211.394 679.212 211.433 683.484 210.787 687.54C207.004 680.564 205.064 671.373 209.924 664.435Z"></path>
<path fill="#FCFDFB" d="M743.643 706.942C750.816 673.097 794.714 655.93 823.875 673.019C813.939 673.626 803.827 673.548 794.244 676.585C779.095 681.23 765.455 691.362 757.361 705.061C750.855 715.173 748.777 727.167 747.288 738.906C741.526 729.283 740.762 717.623 743.643 706.942Z"></path>
<path fill="#FEE4AA" d="M809.745 695.438C818.819 687.07 829.049 680.074 838.906 672.685C844.472 677.938 849.352 684.013 852.722 690.931C853.506 706.785 853.271 723.404 845.863 737.886C834.164 763.285 805.63 778.708 778.036 776.435C769.962 774.965 764.396 782.236 757.126 784.195C748.091 787.664 738.312 786.723 729.121 784.509C727.298 787.233 725.476 789.957 723.673 792.74C714.344 791.113 704.742 791.054 695.433 792.701C686.359 788.703 675.894 788.899 666.507 791.662C656.669 794.582 649.183 801.912 641.304 808.065C640.05 807.105 637.581 805.145 636.346 804.165C648.281 797.953 658.021 787.39 661.705 774.279C685.575 770.066 711.522 761.972 725.985 741.042C726.279 741.473 726.887 742.374 727.181 742.825C739.743 764.147 768.375 771.986 790.971 763.363C806.335 757.935 819.799 745.118 822.836 728.676C825.208 716.212 819.897 702.964 809.745 695.438Z"></path>
<path fill="#FEE4AA" d="M733.216 701.964C733.452 701.18 733.883 699.613 734.118 698.809C738.488 699.907 741.722 702.885 743.642 706.942C740.761 717.623 741.526 729.283 747.287 738.906C748.777 727.167 750.854 715.173 757.361 705.061C760.81 704.218 764.259 703.395 767.708 702.552C768.178 704.198 768.649 705.884 769.1 707.589C769.491 714.703 771.04 723.384 778.134 726.853C781.407 728.578 784.366 725.697 787.208 724.501C795.537 720.543 805.12 725.775 807.001 734.633C791.088 761.306 746.641 761.07 731.59 733.654C733.373 723.13 731.649 712.449 733.216 701.964Z"></path>
<path fill="#FEE4AB" d="M168.828 678.192C175.177 677.644 181.527 676.938 187.818 675.88C189.366 677.154 190.894 678.447 192.443 679.76C194.834 695.732 207.748 708.96 223.505 712.135C244.298 716.858 266.482 706.217 277.574 688.403C290.175 706.158 313.477 714.35 334.642 710.43C338.719 720.327 343.089 730.106 348.615 739.297C324.765 739.062 302.542 726.265 286.452 709.235C262.523 723.815 231.677 730.616 205.005 719.622C187.171 712.586 173.727 696.614 168.828 678.192Z"></path>
<path fill="#E8ABAC" d="M852.723 690.931C863.835 711.077 862.639 736.887 850.92 756.504C836.477 781.001 806.14 795.307 778.096 789.056C770.962 797.051 760.987 801.363 750.738 803.773C742.193 799.089 733.296 794.7 723.673 792.74C725.476 789.957 727.299 787.233 729.121 784.509C738.313 786.723 748.092 787.664 757.126 784.195C764.397 782.236 769.963 774.965 778.037 776.435C805.63 778.708 834.164 763.285 845.864 737.886C853.272 723.404 853.507 706.785 852.723 690.931Z"></path>
<path fill="#E676AC" d="M699.51 695.125C714.384 697.829 723.791 716.408 716.403 729.891C708.426 744.902 691.651 752.545 675.757 756.112C686.595 749.371 696.433 739.983 700.587 727.617C704.703 717.133 703.155 705.492 699.51 695.125Z"></path>
<path fill="#EBACAC" d="M783.896 707.138C790.069 700.769 801.318 703.728 806.002 710.568C811.744 717.348 810.881 727.147 807.001 734.633C805.12 725.775 795.537 720.543 787.208 724.501C787.031 718.505 779.408 712.743 783.896 707.138Z"></path>
<path fill="#E779AE" d="M635.132 740.532C647.047 747.803 652.593 764.382 645.695 776.925C639.227 788.997 625.607 794.406 613.261 798.384C583.394 807.183 551.92 808.3 520.996 808.359C546.218 805.086 572.282 804.949 596.446 796.228C609.047 791.643 620.649 783.627 627.782 772.065C634.838 763.167 636.229 751.487 635.132 740.532Z"></path>
<path fill="#6972AE" d="M209.042 760.149C220.408 760.894 231.814 761.306 243.2 761.031C240.182 761.306 237.164 761.521 234.146 761.815C242.122 770.027 249.981 778.395 258.564 785.959C259.584 785.92 261.641 785.802 262.68 785.763C254.39 786.822 246.218 789.017 238.751 792.799C228.384 782.393 217.253 772.437 209.042 760.149Z"></path>
<path fill="#E8C8E2" d="M462.791 767.753L463.026 768.067C467.749 774.064 472.315 780.511 478.998 784.529C490.541 791.329 504.22 793.132 517.389 793.857C544.708 795.111 572.4 793.426 598.915 786.43C609.478 783.823 618.885 778.159 627.782 772.065C620.649 783.627 609.047 791.643 596.446 796.228C572.282 804.949 546.217 805.086 520.995 808.359C502.417 808.692 480.468 812.024 465.632 798.11C456.833 790.447 457.342 777.219 462.791 767.753Z"></path>
<path fill="#3A357C" d="M262.68 785.763C286.491 782.569 315.241 790.937 325.314 814.787C342.795 798.874 369.311 792.23 391.593 801.304C404.939 806.321 415.58 817.492 420.048 831.014C424.634 846.614 420.852 864.153 410.269 876.48C390.887 899.194 353.77 904.348 329.136 887.337C313.222 876.539 305.697 854.903 311.753 836.619C312.85 832.17 315.515 827.467 313.262 822.94C309.185 811.279 298.054 803.342 286.237 800.893C265.032 795.993 238.771 801.853 227.856 822.391C225.23 827.839 224.093 834.169 225.857 840.088C226.876 843.36 230.442 846.966 234.107 845.261C242.299 841.322 249.041 834.032 258.487 832.934C268.305 830.877 279.926 834.463 284.61 843.89C291.606 856.804 285.1 871.679 287.432 885.417C288.628 899.429 297.27 912.03 309.205 919.203C326.784 929.923 347.93 933.47 368.291 932.96C384.832 932.313 401.921 928.727 415.737 919.164C422.616 914.539 427.3 907.542 431.591 900.605C445.643 912.069 465.005 912.363 482.133 910.129C495.225 908.405 507.355 902.349 517.193 893.667C522.014 896.842 526.855 900.036 532.068 902.584C528.168 904.779 524.249 906.974 520.368 909.228C513.666 913.069 507.218 917.361 500.379 920.967C479.174 926.062 456.343 927.277 435.589 919.634C421.46 936.409 399.549 944.092 378.286 946.169C352.065 948.717 324.315 944.778 301.542 930.922C287.001 922.201 276.516 907.091 273.792 890.336C271.676 879.675 273.283 868.857 273.753 858.156C274.263 852.689 270.774 845.928 264.581 846.339C252.392 846.241 245.219 859.352 233.245 859.94C226.484 860.626 219.86 856.981 216.058 851.533C210.473 843.85 209.865 833.542 212.276 824.625C215.96 810.848 226.307 799.442 238.752 792.799C246.218 789.016 254.391 786.821 262.68 785.763ZM359.649 812.475C347.048 815.042 334.936 822.195 328.214 833.385C322.12 843.4 322.218 856.765 328.548 866.662C346.852 893.844 395.14 886.318 406.213 856.138C410.328 844.928 407.467 831.719 399.256 823.116C389.28 812.612 373.446 809.398 359.649 812.475Z"></path>
<path fill="#FDFEFE" d="M666.507 791.662C675.894 788.899 686.359 788.703 695.433 792.701C679.304 796.346 663.783 805.008 654.474 818.981C650.319 825.311 647.321 832.347 645.479 839.715C638.541 840.049 631.917 842.204 625.862 845.555C620.531 833.797 612.457 823.645 602.227 815.767C614.005 813.298 625.587 809.614 636.346 804.165C637.581 805.145 640.05 807.105 641.305 808.065C649.183 801.912 656.669 794.582 666.507 791.662Z"></path>
<path fill="#433C80" d="M695.433 792.701C704.742 791.055 714.344 791.113 723.673 792.74C733.295 794.7 742.192 799.09 750.737 803.773C758.909 811.122 769.472 802.5 777.88 799.717C779.8 800.716 781.74 801.716 783.7 802.715C777.096 806.87 770.727 811.377 765.063 816.786C774.842 829.231 781.525 844.262 782.622 860.195C785.287 889.591 771.118 919.987 746.21 936.076C705.917 963.454 645.616 954.714 615.495 916.126C590.998 928.433 561.993 927.375 536.517 918.732C531.029 915.734 525.777 912.324 520.368 909.228C524.248 906.974 528.168 904.779 532.068 902.584C551.254 911.031 573.046 915.695 593.78 910.737C602.541 908.934 610.536 904.779 618.356 900.644C629.487 918.164 646.811 931.784 666.997 937.154C693.551 944.758 724.28 939.721 745.367 921.378C765.494 904.23 775.195 875.246 767.336 849.69C761.653 825.644 739.802 806.948 715.442 803.891C695.786 801.265 674.189 808.692 662.666 825.39C659.648 823.626 656.963 821.372 654.474 818.981C663.783 805.008 679.304 796.346 695.433 792.701Z"></path>
<path fill="#A1DBE2" d="M227.856 822.391C238.772 801.853 265.032 795.993 286.237 800.892C298.054 803.342 309.186 811.279 313.262 822.94C315.516 827.467 312.85 832.17 311.753 836.619C305.697 854.903 313.223 876.539 329.136 887.337C353.77 904.348 390.888 899.193 410.27 876.48C420.852 864.153 424.635 846.613 420.049 831.014C430.514 823.684 443.86 819.843 456.461 823.371C466.299 825.468 473.942 832.425 480.35 839.774C491.149 837.305 502.202 839.264 511.667 844.967C514.92 837.128 518.683 829.524 523.445 822.508C549.804 822.45 576.339 821.137 602.227 815.767C612.457 823.645 620.532 833.797 625.862 845.555C631.918 842.204 638.542 840.048 645.479 839.715C643.715 850.337 644.029 861.704 648.909 871.522C656.944 889.16 676.835 899.585 695.884 898.429C709.935 897.567 724.006 890.14 730.866 877.538C737.646 865.819 737.607 849.592 728.141 839.343C719.754 828.799 702.802 826.389 692.121 834.757C687.144 838.578 683.224 845.633 686.007 851.865C687.594 854.394 690.71 854.413 693.356 854.139C696.746 849.631 698.53 842.322 705.428 842.42C719.969 840.617 727.75 859.92 720.087 870.895C706.819 893.687 668.898 889.708 657.512 867.073C650.868 853.688 654.239 837.187 662.666 825.389C674.19 808.692 695.786 801.265 715.442 803.891C739.802 806.948 761.653 825.644 767.336 849.69C762.437 875.716 748.229 901.82 723.32 913.343C695.551 927.649 658.943 921.143 637.895 898.076C632.074 892.099 627.939 884.809 624.079 877.499C616.024 881.732 608.087 886.475 599.249 888.924C592.605 890.943 585.628 891.492 578.946 893.354C579.22 889.434 580.67 883.516 575.673 881.967C567.599 881.615 559.622 883.613 551.627 884.437C550.392 886.24 549.177 888.082 547.962 889.924C535.674 886.514 524.641 880.223 513.745 873.776C506.415 879.949 497.792 884.123 489.169 888.141C487.915 883.418 488.523 876.088 482.291 875.01C476.019 872.6 469.572 879.361 470.806 885.573L470.924 886.945C461.733 886.004 450.013 884.143 444.271 893.373C438.235 891.962 432.336 890.081 426.634 887.749C419.579 894.862 412.641 902.447 403.489 906.915C379.639 918.948 350.811 919.34 325.961 910.09C314.144 905.602 302.209 898.076 297.447 885.789C291.626 869.719 300.328 852.238 294.252 836.227C291.783 829.25 285.512 824.076 278.418 822.293C270.794 819.882 262.838 821.862 255.214 823.155C251.667 823.175 247.042 821.999 245.807 826.585C245.435 826.036 244.69 824.939 244.318 824.39C242.339 822.019 241.025 817.472 237.067 818.315C233.833 819.275 230.874 820.882 227.856 822.391ZM251.393 811.789C244.729 811.671 246.591 823.802 252.804 821.333C258.938 820.451 257.821 809.966 251.393 811.789ZM672.818 827.427C668.898 830.975 666.468 836.54 666.84 841.851C667.252 845.653 671.563 846.221 674.366 847.632C677.208 843.674 680.519 839.598 680.931 834.561C681.225 830.367 677.09 825.958 672.818 827.427ZM737.372 829.407C733.433 829.524 729.455 833.875 731.728 837.716C734.628 841.792 738.391 845.692 743.114 847.613C748.934 849.71 754.03 841.479 749.424 837.285C746.152 833.953 742.467 829.211 737.372 829.407ZM723.948 830.7C729.846 827.761 724.104 837.207 723.948 830.7ZM535.851 843.282C528.795 844.693 531.676 856.471 538.771 853.923C545.453 852.512 542.455 841.028 535.851 843.282ZM551.45 843.321C546.845 844.732 543.494 850.376 546.198 854.864C548.667 861.214 558.662 861.566 561.484 855.334C564.933 849.024 558.29 840.891 551.45 843.321ZM457.265 846.947C452.365 848.593 450.445 855.197 453.58 859.293C457.225 864.957 467.73 863.115 468.259 856.079C469.67 850.023 462.889 844.458 457.265 846.947ZM668.859 848.475C667.781 851.63 668.859 852.728 672.053 851.768C673.131 848.554 672.053 847.456 668.859 848.475ZM580.788 851.18C573.948 853.277 570.832 862.605 575.516 868.269C580.494 875.735 593.467 872.698 594.761 863.859C596.623 855.981 588.49 848.416 580.788 851.18ZM699.901 852.454C699.529 854.982 700.431 857.51 700.783 860.057C700.078 862.017 699.431 864.016 698.843 866.074C699.784 869.934 705.702 871.639 707.662 867.798C709.485 865.505 707.623 862.997 706.623 860.88C707.936 857.98 709.955 854.727 708.172 851.572C705.84 849.612 701.567 849.592 699.901 852.454ZM465.045 868.68C459.812 871.639 462.732 881.183 468.945 878.636C474.942 876.108 471.081 866.289 465.045 868.68ZM580.984 876.088C579.044 878.401 583.257 880.87 584.864 878.694C586.804 876.323 582.591 873.932 580.984 876.088ZM713.992 902.035C708.015 903.721 711.033 914.029 717.128 911.462C723.242 909.933 720.067 899.507 713.992 902.035Z"></path>
<path fill="#A1DBE2" d="M359.649 812.475C373.445 809.398 389.28 812.612 399.255 823.116C407.467 831.719 410.328 844.928 406.212 856.138C395.14 886.318 346.852 893.844 328.548 866.662C322.218 856.765 322.12 843.4 328.214 833.385C334.936 822.195 347.048 815.042 359.649 812.475ZM356.846 824.919C348.851 828.878 348.909 842.028 357.062 845.732C364.529 850.082 375.209 843.262 373.916 834.581C374.229 826.213 363.823 820.529 356.846 824.919ZM336.876 856.04C345.323 875.618 374.974 878.048 388.829 863.232C380.069 863.311 371.055 865.31 362.569 862.154C349.752 858.588 340.09 847.339 338.346 834.169C331.644 839.323 333.996 849.318 336.876 856.04Z"></path>
<path fill="#FCFEFE" d="M251.392 811.789C257.82 809.966 258.937 820.451 252.803 821.333C246.591 823.802 244.729 811.671 251.392 811.789Z"></path>
<path fill="#3A377F" d="M645.479 839.715C647.321 832.347 650.319 825.311 654.474 818.981C656.963 821.372 659.648 823.626 662.666 825.39C654.239 837.187 650.868 853.688 657.512 867.073C668.898 889.709 706.819 893.687 720.087 870.895C727.749 859.92 719.969 840.617 705.428 842.42C698.529 842.322 696.746 849.632 693.356 854.139C690.71 854.413 687.594 854.394 686.007 851.866C683.224 845.634 687.143 838.579 692.121 834.757C702.802 826.389 719.754 828.8 728.141 839.343C737.607 849.592 737.646 865.819 730.865 877.539C724.006 890.14 709.935 897.567 695.884 898.429C676.835 899.586 656.943 889.16 648.908 871.522C644.029 861.704 643.715 850.337 645.479 839.715Z"></path>
<path fill="#889CC3" d="M255.214 823.155C262.837 821.862 270.794 819.882 278.417 822.293C285.511 824.076 291.783 829.25 294.252 836.227C300.327 852.238 291.626 869.719 297.446 885.789C302.209 898.076 314.143 905.602 325.961 910.09C350.81 919.34 379.638 918.948 403.489 906.915C412.641 902.447 419.578 894.862 426.633 887.749C432.336 890.081 438.235 891.962 444.271 893.373C446.721 895.686 448.445 900.017 452.502 899.625C457.911 899.448 463.731 899.801 468.787 897.606C472.511 895.157 471.374 890.571 470.924 886.945L470.806 885.573C472.354 888.689 474.04 893.216 478.233 893.255C482.663 893.981 485.818 890.316 489.169 888.141C497.792 884.123 506.415 879.949 513.744 873.776C524.64 880.223 535.674 886.514 547.961 889.924C557.78 893.334 568.696 897.155 578.945 893.354C585.628 891.492 592.605 890.943 599.248 888.925C608.087 886.475 616.024 881.732 624.078 877.499C627.939 884.809 632.074 892.099 637.894 898.077C658.942 921.143 695.55 927.649 723.32 913.343C748.228 901.82 762.437 875.716 767.336 849.69C775.195 875.245 765.494 904.23 745.367 921.378C724.28 939.721 693.551 944.758 666.997 937.154C646.811 931.784 629.487 918.164 618.356 900.644C610.536 904.779 602.541 908.934 593.78 910.737C573.046 915.695 551.254 911.03 532.068 902.584C526.855 900.036 522.014 896.842 517.193 893.667C507.355 902.349 495.225 908.404 482.133 910.129C465.005 912.363 445.643 912.069 431.591 900.605C427.299 907.542 422.616 914.538 415.737 919.163C401.921 928.727 384.832 932.313 368.291 932.96C347.93 933.47 326.784 929.923 309.205 919.203C297.27 912.03 288.627 899.429 287.432 885.416C285.1 871.679 291.606 856.804 284.61 843.889C279.926 834.463 268.305 830.877 258.486 832.934C249.04 834.032 242.299 841.322 234.107 845.261C230.442 846.966 226.876 843.36 225.857 840.088C224.093 834.169 225.229 827.839 227.856 822.391C227.914 826.506 228.228 831.857 233.284 832.817C239.085 834.933 241.829 828.192 244.317 824.39C244.69 824.939 245.435 826.036 245.807 826.585C249.119 831.857 254.783 828.309 255.214 823.155ZM475.803 903.525C477.352 903.388 480.428 903.133 481.957 902.996C481.918 901.565 481.82 898.704 481.761 897.273C476.822 893.902 473.314 899.056 475.803 903.525Z"></path>
<path fill="#F0F8F9" d="M245.807 826.585C247.042 821.999 251.667 823.175 255.214 823.155C254.783 828.31 249.119 831.857 245.807 826.585Z"></path>
<path fill="#E7F8F9" d="M723.947 830.7C729.846 827.761 724.104 837.207 723.947 830.7Z"></path>
<path fill="#FCFEFD" d="M336.877 856.04C333.996 849.318 331.644 839.323 338.346 834.169C340.091 847.339 349.752 858.588 362.569 862.154C371.055 865.309 380.07 863.311 388.83 863.232C374.974 878.048 345.323 875.618 336.877 856.04Z"></path>
<path fill="#FCFEFD" d="M551.626 884.437C559.622 883.614 567.598 881.615 575.672 881.967C580.67 883.516 579.219 889.434 578.945 893.354C568.696 897.156 557.78 893.334 547.961 889.924C549.176 888.082 550.392 886.24 551.626 884.437Z"></path>
<path fill="#FCFEFD" d="M444.271 893.373C450.013 884.143 461.732 886.005 470.924 886.945C471.374 890.571 472.511 895.157 468.788 897.606C463.731 899.801 457.911 899.448 452.502 899.625C448.445 900.017 446.721 895.686 444.271 893.373Z"></path>
<path fill="#FBFEFE" d="M535.85 843.282C542.455 841.028 545.453 852.512 538.77 853.923C531.676 856.471 528.795 844.693 535.85 843.282Z"></path>
<path fill="#7B8EC4" d="M551.45 843.321C558.29 840.891 564.933 849.024 561.484 855.335C558.662 861.567 548.667 861.214 546.198 854.864C543.494 850.376 546.845 844.732 551.45 843.321Z"></path>
<path fill="#7E8FC1" d="M457.264 846.947C462.889 844.458 469.669 850.023 468.258 856.079C467.729 863.115 457.225 864.957 453.58 859.293C450.444 855.197 452.365 848.593 457.264 846.947Z"></path>
<path fill="#CFECF2" d="M668.859 848.475C672.053 847.456 673.131 848.554 672.053 851.768C668.859 852.728 667.781 851.63 668.859 848.475Z"></path>
<path fill="#FBFEFD" d="M699.901 852.454C701.567 849.592 705.839 849.612 708.171 851.572C709.955 854.727 707.936 857.98 706.623 860.881C707.622 862.997 709.484 865.505 707.662 867.798C705.702 871.64 699.783 869.935 698.843 866.074C699.431 864.016 700.077 862.017 700.783 860.057C700.43 857.51 699.529 854.982 699.901 852.454Z"></path>
<path fill="#FBFEFD" d="M713.992 902.035C720.067 899.507 723.242 909.933 717.128 911.462C711.033 914.029 708.015 903.721 713.992 902.035Z"></path>
<path fill="#FAFEFD" d="M465.045 868.68C471.081 866.289 474.941 876.108 468.945 878.636C462.732 881.184 459.812 871.64 465.045 868.68Z"></path>
<path fill="#FCFEFC" d="M470.806 885.573C469.571 879.361 476.019 872.6 482.29 875.01C488.522 876.088 487.915 883.418 489.169 888.141C485.818 890.316 482.662 893.981 478.233 893.256C474.04 893.216 472.354 888.689 470.806 885.573Z"></path>
<path fill="#D8F2F5" d="M580.984 876.088C582.591 873.933 586.804 876.323 584.864 878.695C583.257 880.87 579.043 878.401 580.984 876.088Z"></path>
<path fill="#E6EBF1" d="M475.803 903.525C473.314 899.056 476.822 893.902 481.761 897.273C481.82 898.704 481.918 901.565 481.957 902.996C480.428 903.133 477.351 903.388 475.803 903.525Z"></path>
<path fill="#6873B4" d="M500.379 920.966C507.219 917.36 513.667 913.069 520.369 909.228C525.778 912.324 531.03 915.734 536.517 918.732C524.68 921.182 512.412 921.515 500.379 920.966Z"></path>
</svg>
