<?xml version="1.0" standalone="no"?><!DOCTYPE svg PUBLIC "-//W3C//DTD SVG 1.1//EN" "http://www.w3.org/Graphics/SVG/1.1/DTD/svg11.dtd"><svg t="1778899835250" class="icon" viewBox="0 0 1024 1024" version="1.1" xmlns="http://www.w3.org/2000/svg" p-id="4055" xmlns:xlink="http://www.w3.org/1999/xlink" width="200" height="200"><path d="M311.0912 143.2064m-71.8848 0a71.8848 71.8848 0 1 0 143.7696 0 71.8848 71.8848 0 1 0-143.7696 0Z" fill="#E8A284" p-id="4056"></path><path d="M311.0912 230.4A87.04 87.04 0 1 1 398.336 143.36a87.3984 87.3984 0 0 1-87.2448 87.04z m0-143.8208a56.32 56.32 0 1 0 56.32 56.32 56.6272 56.6272 0 0 0-56.32-56.2176z" fill="#3C122C" p-id="4057"></path><path d="M430.8992 143.2064m-71.8848 0a71.8848 71.8848 0 1 0 143.7696 0 71.8848 71.8848 0 1 0-143.7696 0Z" fill="#9781DD" p-id="4058"></path><path d="M430.8992 230.4a87.04 87.04 0 1 1 87.2448-87.04 87.3984 87.3984 0 0 1-87.2448 87.04z m0-143.8208a56.32 56.32 0 1 0 56.32 56.32 56.6272 56.6272 0 0 0-56.32-56.2176z" fill="#3C122C" p-id="4059"></path><path d="M538.9824 143.2064m-71.8848 0a71.8848 71.8848 0 1 0 143.7696 0 71.8848 71.8848 0 1 0-143.7696 0Z" fill="#96B4EB" p-id="4060"></path><path d="M538.9824 230.4a87.04 87.04 0 1 1 87.04-87.296 87.3984 87.3984 0 0 1-87.04 87.296z m0-143.8208a56.32 56.32 0 1 0 56.32 56.32 56.6272 56.6272 0 0 0-56.32-56.2176z" fill="#3C122C" p-id="4061"></path><path d="M627.6608 853.0944l-4.4544-92.5696c178.176-8.5504 190.72-119.2448 188.3136-241.8176 0-7.68-0.3072-14.7456-0.3072-21.0944a6.9632 6.9632 0 0 0-3.072-6.4c-14.9504-13.3632-77.1072-28.672-163.2256-19.2l-10.24-92.16c27.904-3.1232 170.3936-15.7696 235.52 42.1888a98.9184 98.9184 0 0 1 34.048 75.52v19.2512c1.6896 88.32 6.2976 322.8672-276.5824 336.2816z" fill="#C1E5EF" p-id="4062"></path><path d="M904.192 517.12v-19.2512a98.9184 98.9184 0 0 0-34.048-75.52 160.0512 160.0512 0 0 0-61.9008-31.9488 121.8048 121.8048 0 0 1 13.1072 10.24A99.0208 99.0208 0 0 1 855.04 475.7504c0 5.7856 0 12.2368 0.3072 19.2512 1.5872 82.9952 5.7856 295.2192-229.0176 331.52l1.28 26.5728c282.9312-13.4144 278.3232-247.9616 276.5824-335.9744z" fill="#A6AAED" p-id="4063"></path><path d="M627.6096 868.4544a15.36 15.36 0 0 1-15.36-14.592l-4.4544-92.5696a15.36 15.36 0 0 1 14.592-16.0768c164.6592-7.936 176.3328-107.1104 173.7728-226.2016 0-6.3488 0-12.288-0.256-17.7152-13.4144-8.2432-65.2288-23.296-149.2992-13.9776a15.36 15.36 0 0 1-16.8448-13.568l-10.24-92.16a15.36 15.36 0 0 1 13.568-16.9984 594.5856 594.5856 0 0 1 106.6496-1.8432c63.2832 5.12 110.5408 21.0432 140.544 47.872a113.8688 113.8688 0 0 1 39.168 87.04v18.944c0.8704 44.9024 2.5088 128.4608-33.024 203.0592-44.1856 92.672-131.0208 142.7456-258.1504 148.8384z m11.6736-93.5936l2.9696 61.9008c106.5472-8.6016 179.2-52.3776 216.5248-130.3552 32.4096-68.0448 30.72-146.8928 30.0544-189.44v-19.5584a83.968 83.968 0 0 0-28.928-64.0512c-24.5248-21.9136-66.8672-35.84-122.4192-40.1408a564.3264 564.3264 0 0 0-85.6064 0.3584l6.8608 61.44c79.1552-6.3488 140.6976 7.2704 159.8976 24.4736a22.1184 22.1184 0 0 1 8.2432 17.8176c0 6.2464 0 13.2096 0.256 20.7872 2.304 121.9072-10.7008 241.8688-187.8528 256.768z" fill="#3C122C" p-id="4064"></path><path d="M672.0512 298.0352h-2.9696V225.28a44.9024 44.9024 0 0 0-44.8512-44.9024h-421.888A44.9024 44.9024 0 0 0 157.4912 225.28v72.7552h-2.9696A34.9696 34.9696 0 0 0 119.5008 332.8v546.6112a73.2672 73.2672 0 0 0 73.2672 73.2672h441.0368a73.2672 73.2672 0 0 0 73.2672-73.2672V332.8a34.9696 34.9696 0 0 0-35.0208-34.7648z" fill="#CF83B2" p-id="4065"></path><path d="M672.0512 298.0352h-2.9696V225.28a44.9024 44.9024 0 0 0-44.8512-44.9024h-83.9168a44.9024 44.9024 0 0 1 44.8512 44.9024v72.7552h3.0208a34.9696 34.9696 0 0 1 35.0208 34.7648v500.5824a37.1712 37.1712 0 0 1-37.1712 37.1712H119.5008v8.6528a73.2672 73.2672 0 0 0 73.2672 73.2672h441.0368a73.2672 73.2672 0 0 0 73.2672-73.2672V332.8a34.9696 34.9696 0 0 0-35.0208-34.7648z" fill="#C668B9" p-id="4066"></path><path d="M633.8048 968.0384H192.768a88.7296 88.7296 0 0 1-88.6272-88.6272V332.8a50.3808 50.3808 0 0 1 37.9904-48.7936V225.28a60.3136 60.3136 0 0 1 60.2112-60.4672h421.888A60.3136 60.3136 0 0 1 684.4416 225.28v58.9312A50.3808 50.3808 0 0 1 722.432 332.8v546.6112a88.7296 88.7296 0 0 1-88.6272 88.6272zM154.5216 313.3952A19.6608 19.6608 0 0 0 134.8608 332.8v546.6112a57.9584 57.9584 0 0 0 57.9072 57.9072h441.0368a57.9584 57.9584 0 0 0 57.9072-57.9072V332.8a19.6608 19.6608 0 0 0-19.6608-19.6096h-2.9696a15.36 15.36 0 0 1-15.36-15.36V225.28a29.5936 29.5936 0 0 0-29.4912-29.5424h-421.888A29.5936 29.5936 0 0 0 172.8512 225.28v72.7552a15.36 15.36 0 0 1-15.36 15.36z" fill="#3C122C" p-id="4067"></path><path d="M676.6592 313.7024H152.9344a10.24 10.24 0 1 1 0-20.48h523.7248a10.24 10.24 0 0 1 0 20.48zM619.52 277.0944H209.92a10.24 10.24 0 0 1 0-20.48h409.6a10.24 10.24 0 0 1 0 20.48zM619.52 240.64H209.92a10.24 10.24 0 1 1 0-20.48h409.6a10.24 10.24 0 1 1 0 20.48z" fill="#3C122C" p-id="4068"></path><path d="M197.376 686.6944a15.36 15.36 0 0 1-15.36-15.36v-156.7232a15.36 15.36 0 0 1 30.72 0v156.7232a15.36 15.36 0 0 1-15.36 15.36zM197.376 451.6352a15.36 15.36 0 0 1-15.36-15.36v-23.1936a15.36 15.36 0 0 1 30.72 0v23.1936a15.36 15.36 0 0 1-15.36 15.36z" fill="#FFFFFF" p-id="4069"></path><path d="M364.2368 597.1456s-81.92-64.7168-40.96-160.8704C402.5344 462.6432 415.1296 558.08 414.72 587.3152c-5.12 31.1296-50.4832 9.8304-50.4832 9.8304z" fill="#A1E8C3" p-id="4070"></path><path d="M393.0112 614.4a87.04 87.04 0 0 1-33.1776-8.0384 13.056 13.056 0 0 1-1.9968-1.2288c-0.8704-0.7168-87.04-70.7072-43.9296-172.9536a10.24 10.24 0 0 1 12.6976-5.6832c36.4544 12.1344 64.7168 39.8336 81.92 80.128A219.4944 219.4944 0 0 1 424.96 587.4688a9.3184 9.3184 0 0 1 0 1.6384 28.6208 28.6208 0 0 1-15.0016 21.7088 36.608 36.608 0 0 1-16.9472 3.584z m-23.3472-26.0608c7.5776 3.2768 23.3984 8.0896 30.72 4.1984a7.8848 7.8848 0 0 0 4.096-6.2976 196.9152 196.9152 0 0 0-15.36-71.68c-13.056-31.5904-33.28-53.4528-59.904-65.0752-27.136 78.336 31.8976 131.6864 40.448 138.9056z" fill="#3C122C" p-id="4071"></path><path d="M394.8544 604.8256a7.68 7.68 0 0 1-7.0144-4.5568l-50.7392-113.4592a7.68 7.68 0 1 1 13.9776-6.2464L401.8688 593.92a7.68 7.68 0 0 1-3.8912 10.24 7.2704 7.2704 0 0 1-3.1232 0.6656z" fill="#3C122C" p-id="4072"></path><path d="M438.8864 597.1456s81.92-64.7168 40.96-160.8704c-79.2576 26.368-91.8528 121.8048-91.5456 151.04 5.4784 31.1296 50.5856 9.8304 50.5856 9.8304z" fill="#A1E8C3" p-id="4073"></path><path d="M410.112 614.4a36.8128 36.8128 0 0 1-16.896-3.6352 28.8768 28.8768 0 0 1-15.0016-21.7088v-1.6384c-0.512-44.1344 19.4048-134.6048 98.4576-160.9216a10.24 10.24 0 0 1 12.6464 5.6832c43.4176 102.4-43.0592 172.2368-43.9296 172.9536a13.056 13.056 0 0 1-1.9968 1.2288 87.04 87.04 0 0 1-33.28 8.0384z m28.7744-17.3056z m0 0z m-40.3456-10.8544a8.1408 8.1408 0 0 0 4.096 6.2976c7.424 3.8912 23.1936-0.9216 30.72-4.1984 8.6016-7.2192 67.6864-60.5696 40.448-138.9056-26.5728 11.6224-46.848 33.4848-60.2112 65.1776a197.9904 197.9904 0 0 0-15.0528 71.68z" fill="#3C122C" p-id="4074"></path><path d="M408.2176 604.8256a7.6288 7.6288 0 0 1-6.9632-10.9056l50.7392-113.4592A7.68 7.68 0 0 1 465.92 486.8096l-50.688 113.4592a7.6288 7.6288 0 0 1-7.0144 4.5568z" fill="#3C122C" p-id="4075"></path><path d="M340.3776 631.3984m-74.3936 0a74.3936 74.3936 0 1 0 148.7872 0 74.3936 74.3936 0 1 0-148.7872 0Z" fill="#A6AAED" p-id="4076"></path><path d="M340.3776 716.032A84.6336 84.6336 0 1 1 424.96 631.3984a84.736 84.736 0 0 1-84.5824 84.6336z m0-148.7872A64.1536 64.1536 0 1 0 404.48 631.3984a64.2048 64.2048 0 0 0-64.1024-64.1536z" fill="#3C122C" p-id="4077"></path><path d="M451.8912 631.3984m-74.3936 0a74.3936 74.3936 0 1 0 148.7872 0 74.3936 74.3936 0 1 0-148.7872 0Z" fill="#9781DD" p-id="4078"></path><path d="M451.8912 716.032a84.6336 84.6336 0 1 1 84.6336-84.6336 84.736 84.736 0 0 1-84.6336 84.6336z m0-148.7872a64.1536 64.1536 0 1 0 64.1536 64.1536 64.2048 64.2048 0 0 0-64.1536-64.1536zM557.1584 408.9856a10.24 10.24 0 0 1-10.24-10.24v-35.84a10.24 10.24 0 0 1 20.48 0v35.84a10.24 10.24 0 0 1-10.24 10.24zM604.8256 585.216a10.24 10.24 0 0 1-10.24-10.24v-35.84a10.24 10.24 0 1 1 20.48 0v35.84a10.24 10.24 0 0 1-10.24 10.24zM591.2064 855.296a10.24 10.24 0 0 1-10.24-10.24v-35.84a10.24 10.24 0 0 1 20.48 0v35.84a10.24 10.24 0 0 1-10.24 10.24zM292.7104 855.296a10.24 10.24 0 0 1-10.24-10.24v-35.84a10.24 10.24 0 0 1 20.48 0v35.84a10.24 10.24 0 0 1-10.24 10.24zM459.008 819.2a10.24 10.24 0 0 1-10.24-10.24v-35.84a10.24 10.24 0 0 1 20.48 0v35.84a10.24 10.24 0 0 1-10.24 10.24z" fill="#3C122C" p-id="4079"></path></svg>