<svg xmlns="http://www.w3.org/2000/svg" fill="none" viewBox="0 0 1024 1024" height="1024" width="1024">
<rect fill="white" height="1024" width="1024"></rect>
<path fill="#FEFEFE" d="M508.348 200.831C517.718 196.793 524.307 188.966 531.525 182.11C534.039 187.481 537.486 193.213 535.886 199.383C535.791 200.012 535.581 201.269 535.486 201.878C528.363 221.57 513.909 239.566 493.627 246.536C468.66 255.392 441.98 248.879 416.232 251.012C398.045 251.888 379.553 257.392 365.632 269.504C354.32 278.93 346.912 292.261 343.027 306.335C333.029 307.572 323.088 309.248 313.414 312.105C321.298 266.266 360.605 230.559 404.273 218.351C438.171 207.706 475.935 217.247 508.348 200.831Z"></path>
<path fill="#FEFEFE" d="M416.003 295.156C439.523 289.957 463.366 299.098 482.81 311.933C515.337 332.768 537.18 367.352 572.545 384.225C580.62 388.814 590.618 390.528 596.96 397.784C593.227 401.021 589.266 404.278 584.467 405.802C580.696 405.992 576.944 406.068 573.174 406.163C546.969 407.001 520.269 395.67 504.272 374.607C492.636 359.106 479.039 344.88 462.661 334.367C449.064 325.093 432.61 318.523 415.889 320.713C401.701 322.16 387.437 330.787 382.41 344.575C380.962 347.432 382.181 350.307 383.343 353.011C384.371 358.896 384.657 365.333 388.237 370.399C392.884 377.026 399.702 381.806 404.348 388.452C409.909 396.356 413.547 405.649 420.536 412.486C425.354 417.533 431.676 420.637 437.694 423.969C445.845 427.95 447.959 437.891 455.063 443.185C455.767 473.446 448.073 505.878 426.039 527.835C405.624 548.346 375.744 555.488 347.654 556.268C319.374 556.916 289.094 551.412 267.06 532.482C273.535 531.72 283.133 529.626 283.628 521.684C281.591 516.238 277.934 522.141 275.611 524.008C270.412 529.988 262.09 525.379 256.852 521.932C262.394 516.181 272.107 510.696 270.888 501.555C262.109 497.86 252.282 500.107 243.35 502.069C231.257 472.589 229.924 439.109 237.885 408.391C245.693 378.207 265.289 351.012 292.35 335.243C310.842 324.579 332.21 317.99 353.71 319.132C343.084 332.749 337.751 354.021 348.854 368.818C349.502 362.819 349.806 356.763 348.93 350.783C355.234 346.974 357.652 339.776 361.709 334.025C374.583 315.438 393.169 299.307 416.003 295.156ZM349.768 442.271C336.799 450.307 321.564 457.068 305.948 453.716C301.891 453.411 296.426 450.422 293.493 454.649C290.636 458.306 293.226 463.943 297.664 464.743C317.717 470.189 339.713 464.571 356.243 452.459C361.937 448.422 355.996 438.386 349.768 442.271ZM361.271 478.473C352.777 481.121 342.798 486.948 342.265 496.87C341.713 503.554 348.168 507.973 354.034 509.134C365.86 511.153 379.115 507.554 387.228 498.451C391.836 493.651 392.446 484.815 386.752 480.625C379.42 475.35 369.517 476.207 361.271 478.473Z"></path>
<path fill="#FEFEFE" d="M476.354 505.402C508.767 516.276 541.218 527.569 571.669 543.261C597.017 556.535 621.203 573.218 639.199 595.747C652.149 612.048 661.348 632.064 661.538 653.164C660.7 658.954 668.508 662.21 672.298 658.021C675.802 653.564 673.479 647.394 673.783 642.214C683.134 636.329 695.055 633.949 705.625 637.872C722.041 644.042 734.172 659.163 738.381 675.998C736.514 684.987 733.163 694.109 726.288 700.508C715.966 710.373 699.359 712.315 686.6 706.392C676.887 701.574 674.126 690.091 671.841 680.454C672.698 674.208 666.242 667.676 660.586 672.818C657.805 678.245 657.767 684.625 656.015 690.452C640.418 697.822 629.773 711.668 618.156 723.818C605.434 737.034 588.771 745.452 571.422 750.803C552.759 742.119 532.077 737.663 511.49 739.281C502.216 726.731 494.979 712.372 493.379 696.661C492.084 685.063 492.998 673.37 494.122 661.81C501.949 644.499 519.336 632.045 538.095 629.455C555.615 627.341 575.097 628.559 589.647 639.624C601.664 648.213 607.929 661.887 615.432 674.113C615.394 671.77 615.356 669.447 615.337 667.143C616.956 651.907 609.053 637.224 597.683 627.588C588.333 619.494 576.049 615.686 563.994 614.048C538.628 611.344 511.528 616.924 491.132 632.749C473.421 647.032 466.451 669.466 458.51 689.843C455.691 699.194 444.322 695.537 437.028 696.566C444.265 680.492 450.587 664 455.805 647.165C458.967 636.31 462.795 625.436 463.061 614.01C463.747 607.935 466.68 602.183 466.28 595.994C464.908 590.148 455.158 589.862 454.301 596.166C445.617 631.264 428.439 663.315 413.09 695.785L412.499 696.032C401.644 700.565 390.999 706.564 383.438 715.8C375.725 725.303 372.431 737.396 365.88 747.623C360.033 757.145 350.93 763.886 343.16 771.732C334.247 771.523 324.668 768.876 318.612 761.982C314.404 755.602 318.879 747.965 323.792 743.509C336.895 731.188 349.94 718.542 359.938 703.479C380.277 672.894 393.151 637.739 400.178 601.822C402.406 595.366 395.703 592.204 390.332 592.966C389.418 592.928 387.609 592.871 386.695 592.833C375.878 600.984 372.716 614.81 369.193 627.131C367.403 633.149 364.356 640.862 357.138 641.566C348.397 642.823 341.77 635.853 334.933 631.664C333.981 628.312 332.8 625.036 332.476 621.57C336 612.962 339.713 603.478 347.864 598.241C357.462 592.109 368.927 590.262 379.839 587.729C395.512 584.453 410.862 578.835 424.059 569.637C446.931 553.545 464.851 530.787 476.354 505.402ZM500.578 706.088C501.34 712.067 508.157 711.172 512.252 709.344C514.042 695.271 516.004 680.321 525.354 668.971C532.629 659.144 544.113 653.678 555.977 651.793C556.282 649.07 558.853 646.061 556.929 643.528C554.682 638.577 548.074 640.195 543.846 640.805C515.832 648.022 498.236 678.15 500.578 706.088ZM567.289 640.767C564.318 642.557 562.661 647.527 565.651 650.155C568.984 655.278 578.297 651.717 576.906 645.49C576.735 640.595 571.155 638.843 567.289 640.767Z"></path>
<path fill="#FEFEFE" d="M631.658 754.25C642.304 740.729 660.32 735.149 677.04 735.758C693.951 736.52 711.053 741.738 724.384 752.441C739.467 764.324 758.949 769.942 778.031 769.428C782.201 769.238 786.429 769.466 790.485 770.609C788.6 781.331 784.334 792.281 775.06 798.68C765.462 806.183 752.626 808.468 740.876 805.688C739.39 800.946 732.725 797.442 729.316 802.241C726.517 808.811 724.422 815.781 719.927 821.494L719.07 821.742C705.949 825.703 692.828 831.188 678.811 829.988C667.328 830.007 652.95 825.494 649.807 813.058C650.379 807.421 655.121 803.193 658.111 798.623C662.605 792.947 667.728 786.492 667.004 778.798C666.223 774.056 659.977 772.361 656.378 775.179C653.94 779.293 653.959 784.892 649.903 787.977C643.256 793.271 632.687 790.396 628.421 783.406C622.346 774.399 625.279 762.249 631.658 754.25Z"></path>
<path fill="#FEFEFE" d="M224.973 772.323C231.448 762.382 240.437 753.831 251.007 748.403C260.091 749.679 269.403 751.203 277.592 755.602C289.209 761.867 296.979 773.275 308.672 779.426C315.623 783.387 323.526 785.139 331.353 786.453C326.23 794.89 315.204 799.879 305.758 795.956C299.95 793.709 299.626 786.777 296.674 782.149C293.208 778.569 286.447 781.216 286.428 786.225C286.143 797.232 294.998 807.097 305.625 809.211C314.48 811.42 323.469 808.602 331.544 805.021C335.467 805.821 339.656 807.154 343.56 805.402C354.758 801.231 365.69 795.137 378.011 795.271C383.572 795.385 390.713 795.613 393.913 801.003C396.522 807.287 395.703 814.353 395.855 821.037C388.162 827.227 379.801 832.711 370.432 836.063C356.777 841.662 341.98 843.014 327.716 846.309C317.432 844.823 307.758 840.234 298.902 834.92C293.208 831.588 288.638 826.541 282.639 823.741C276.373 822.58 270.012 824.503 263.69 824.275C250.245 824.122 235.543 821.228 225.849 811.192C216.061 800.622 217.565 783.768 224.973 772.323Z"></path>
<path fill="#FEFEFE" d="M492.713 756.402C509.929 750.232 529.03 750.403 546.57 755.183C563.233 759.392 577.764 770.095 595.17 771.713C597.627 772.056 600.102 772.304 602.597 772.627C602.959 773.599 603.702 775.522 604.063 776.493C605.682 786.51 610.957 795.518 612.386 805.535C613.395 814.277 604.463 819.399 597.036 820.637C586.333 823.208 575.707 819.076 566.394 814.105C562.319 821.989 558.186 830.159 551.445 836.158C536.457 849.718 516.194 856.783 496.141 857.221C482.924 857.507 468.718 850.594 463.614 837.872C460.338 830.769 461.633 822.808 462.509 815.362C463.557 814.696 465.633 813.362 466.68 812.696C480.62 823.684 504.33 821.989 513.719 805.935C516.69 801.06 519.984 791.557 512.614 788.986C505.454 786.891 504.444 795.632 502.254 800.165C495.989 809.059 482.182 809.097 474.24 802.469C465.233 795.918 462.871 782.207 469.118 773.008C474.736 764.915 483.686 759.83 492.713 756.402Z"></path>
<path fill="#FEFDFD" d="M293.646 713.477C308.139 696.223 323.679 678.893 330.992 657.144C332.782 661.315 334.896 665.409 336.381 669.732C337.067 679.235 337.886 689.386 333.81 698.318C325.602 715.095 311.948 728.674 296.103 738.367C289.914 731.949 287.19 720.637 293.646 713.477Z"></path>
<path fill="#FDFDFC" d="M349.864 181.311C357.043 177.578 365.994 184.51 364.566 192.356C364.204 200.145 353.882 204.354 347.978 199.421C341.408 195.175 342.665 184.148 349.864 181.311Z"></path>
<path fill="#FBFDFE" d="M289.38 585.52C293.398 581.559 301.682 584.168 301.816 590.109C302.749 595.88 295.855 600.26 290.903 597.365C286.333 595.347 285.666 588.662 289.38 585.52Z"></path>
<path fill="#FBFDFE" d="M738.686 596.965C741.466 595.289 746.322 596.318 746.913 599.898C749.046 605.459 740.399 609.077 737.048 604.754C734.363 602.507 735.829 598.241 738.686 596.965Z"></path>
<path fill="#FBFDFD" d="M592.161 334.063C596.96 329.111 605.511 336.862 600.045 341.642C595.418 346.765 586.276 338.805 592.161 334.063Z"></path>
<path fill="#FBFDFD" d="M830.002 393.137C832.973 391.271 838.343 391.899 838.781 396.108C840.286 400.184 834.801 404.069 831.202 402.031C827.374 400.869 826.174 395.023 830.002 393.137Z"></path>
<path fill="#FBFDFD" d="M778.468 499.384C785.02 496.87 788.79 507.382 781.953 509.458C775.041 512.2 770.775 500.717 778.468 499.384Z"></path>
<path fill="#FBFDFD" d="M154.701 574.931C154.206 571.199 153.197 566.552 156.834 564C161.576 565.543 161.69 571.085 162.966 575.122C166.908 593.347 171.727 612.086 182.944 627.36C195.989 645.47 215.337 659.144 237.219 664.057C262.471 670.361 288.466 665.676 314.024 664.705C312.633 667.371 311.148 670.018 309.548 672.608C285.381 676.188 260.396 678.55 236.343 673.027C215.585 668.438 196.75 656.611 182.791 640.709C166.699 622.408 158.739 598.603 154.701 574.931Z"></path>
<path fill="#FBFDFD" d="M187.133 596.661C185.171 593.442 183.781 588.091 189.037 587.443C200.102 599.194 206.577 614.829 219.317 625.208C238.704 642.404 266.166 643.661 290.77 643.318C291.304 645.432 291.837 647.546 292.37 649.679C272.755 653.85 251.844 651.05 233.277 643.814C212.004 635.282 198.064 615.895 187.133 596.661Z"></path>
<path fill="#FBFDFD" d="M802.711 618.599C816.023 610.887 824.383 597.651 834.743 586.72C835.619 590.052 838.971 593.823 835.905 597.041C829.506 606.792 821.527 615.667 812.195 622.732C796.35 634.482 775.973 638.615 756.548 637.148C755.977 635.587 754.854 632.482 754.282 630.921C770.755 628.674 788.295 627.874 802.711 618.599Z"></path>
<path fill="#FCFDFD" d="M637.41 177.445C642.59 174.36 650.398 178.188 650.341 184.434C651.445 191.975 641.066 196.508 635.867 191.461C631.449 187.805 632.306 180.035 637.41 177.445Z"></path>
<path fill="#FCFDFD" d="M199.702 385.424C205.282 383.634 211.509 388.148 211.166 394.108C211.395 400.907 202.882 405.421 197.321 401.555C190.789 398.089 192.408 386.853 199.702 385.424Z"></path>
<path fill="#FDFDFD" d="M658.624 315.133C667.651 311.762 678.24 319.723 676.907 329.397C677.059 340.557 661.938 346.556 653.959 339.129C645.313 332.844 648.302 317.742 658.624 315.133Z"></path>
<path fill="#FDFDFD" d="M774.869 564.362C781.23 552.288 776.24 536.862 783.649 525.131C789.019 537.796 785.896 552.631 791.742 564.971C803.15 570.018 816.423 567.961 828.04 572.189C828.592 572.856 829.678 574.189 830.211 574.874C819.337 577.54 808.12 578.055 797.132 580.016C794.389 580.702 790.219 580.968 789.819 584.568C786.867 595.385 787.781 606.925 784.639 617.685C783.896 618.18 782.392 619.171 781.649 619.647C778.373 607.23 779.078 594.014 774.907 581.844C763.233 575.655 748.608 579.654 736.362 574.817C736.419 574.132 736.515 572.741 736.572 572.056C748.988 567.942 763.024 570.17 774.869 564.362Z"></path>
<path fill="#FDFDFD" d="M672.069 561.048C683.039 555.83 696.503 566.971 693.246 578.702C691.247 590.281 675.288 595.194 667.023 586.872C658.624 579.654 661.5 564.514 672.069 561.048Z"></path>
<path fill="#FDFDFD" d="M245.636 599.041C255.044 595.594 265.461 605.192 262.947 614.848C261.424 625.189 246.988 629.188 240.018 621.589C232.591 614.943 236.209 601.612 245.636 599.041Z"></path>
<path fill="#FDFDFD" d="M422.86 716.771C435.733 712.829 449.064 716.143 461.824 718.752C462.814 728.045 464.014 737.853 460.338 746.747C457.824 753.26 453.254 758.725 448.245 763.505C441.923 765.086 435.353 764.191 428.973 763.696C427.754 754.707 431.582 746.499 435.219 738.596C425.145 741.719 423.164 753.698 423.183 762.82C419.07 761.087 415.033 759.201 411.09 757.126C410.862 749.698 411.376 741.49 416.651 735.701C423.469 727.684 434.267 725.703 443.56 721.951C433.182 721.304 421.965 723.837 414.195 731.092C407.91 737.129 407.225 746.309 407.434 754.517C403.34 749.66 398.54 743.871 399.854 737.053C402.006 726.046 412.9 719.666 422.86 716.771Z"></path>
<path fill="#FCFDFC" d="M279.477 212.6C280.906 211.495 283.762 209.305 285.191 208.22C291.875 211.495 298.807 215.533 302.026 222.617C309.605 236.595 303.13 256.135 288.352 262.362C280.411 265.58 269.841 268.17 263.29 260.915C268.508 253.24 278.849 257.049 285.857 252.592C293.17 248.174 296.75 238.595 294.218 230.444C292.332 222.331 283.343 219.475 279.477 212.6Z"></path>
<path fill="#FCFDFC" d="M544.037 293.632C549.75 290.547 555.044 299.65 549.14 302.64C542.97 307.229 536.133 295.955 544.037 293.632Z"></path>
<path fill="#FCFDFC" d="M628.573 337.148C632.286 344.232 631.41 352.574 633.067 360.229C640.723 362.096 648.55 362.991 656.282 364.476C649.616 369.028 640.894 367.656 633.334 369.523C632.115 376.931 631.448 384.434 630.153 391.842C625.869 385.272 626.878 376.931 625.183 369.561C617.565 367.828 609.738 367.466 602.025 366.476C608.043 360.629 618.08 363.981 625.069 359.696C626.897 352.288 626.878 344.575 628.573 337.148Z"></path>
<path fill="#FCFDFC" d="M708.044 600.45C714.195 597.08 722.708 602.088 722.098 609.23C722.365 616.39 713.148 621.227 707.32 617.114C701.074 613.629 701.645 603.44 708.044 600.45Z"></path>
<path fill="#FBFCFC" d="M383.896 175.464C387.914 172.627 394.599 178.625 391.323 182.739C389.228 187.005 382.468 186.148 380.868 181.939C379.535 179.406 381.42 176.34 383.896 175.464Z"></path>
<path fill="#FBFCFC" d="M224.516 278.74C241.066 275.464 257.862 289.538 257.672 306.411C259.138 324.35 241.504 340.042 223.964 337.529C220.212 336.291 219.622 330.501 223.45 328.997C229.487 327.016 236.685 327.245 241.351 322.274C249.731 314.771 249.769 300.221 241.066 292.947C236.038 287.938 228.477 288.662 222.136 286.91C219.698 284.224 220.27 278.949 224.516 278.74Z"></path>
<path fill="#FBFCFC" d="M868.166 570.551C870.242 571.504 872.394 572.418 874.355 573.674C873.041 586.796 867.214 599.041 860.929 610.468C848.075 633.168 828.364 653.374 802.864 661.087C785.096 666.838 766.204 665.105 747.884 664.115C746.513 660.953 744.913 657.925 743.237 654.954C765.919 656.459 790.028 658.782 811.11 648.289C841.619 633.701 859.444 601.993 868.166 570.551Z"></path>
<path fill="#FEFEFD" d="M843.313 497.651C854.168 492.89 867.613 502.05 866.794 513.972C867.404 526.75 851.94 535.986 841.066 529.073C828.459 522.77 830.116 502.24 843.313 497.651Z"></path>
<path fill="#FDFDFB" d="M455.901 161.01C456.453 157.029 457.024 153.03 458.662 149.336C459.5 153.087 460.185 156.915 460.833 160.724C464.642 161.505 468.431 162.324 472.202 163.276C468.508 164.571 464.642 165.314 460.795 165.999C460.166 170.017 459.519 174.055 458.7 178.073C457.5 174.093 456.796 170.018 456.205 165.942C452.244 165.161 448.302 164.38 444.417 163.314C448.226 162.476 452.054 161.733 455.901 161.01Z"></path>
<path fill="#5B3175" d="M458.186 115.685C531.582 105.706 607.739 116.047 675.498 146.079C739.01 174.207 794.542 219.76 835.334 275.883C875.841 331.663 902.045 397.898 909.415 466.495C914.043 509.725 911.929 553.735 902.902 596.28C890.352 653.107 865.767 707.173 831.487 754.193C827.05 760.211 822.518 766.21 817.433 771.713C814.614 765.6 810.882 759.963 806.235 755.107C826.422 729.645 843.009 701.441 857.063 672.208C860.796 664.476 864.014 656.535 867.138 648.556C879.097 616.904 887.743 583.882 891.514 550.231C892.162 544.747 892.123 539.205 891.914 533.72C891.476 523.303 892.581 512.924 892.333 502.526C891.114 437.205 872.146 372.436 838.572 316.428C807.149 263.371 762.548 218.142 709.891 186.072C643.371 145.546 563.995 127.092 486.41 132.425C413.719 136.671 342.951 164.095 285.191 208.22C283.762 209.305 280.906 211.495 279.477 212.6C205.853 270.475 154.606 356.439 140.418 449.165C135.466 477.026 135.314 505.402 135.79 533.625C135.943 563.943 142.76 593.785 151.216 622.751C157.843 644.537 166.223 665.848 176.621 686.148C179.972 692.661 183.553 699.079 187.361 705.364C195.588 719.971 205.834 733.282 215.375 747.07C210.614 751.888 206.539 757.354 202.806 763.01C158.491 706.621 128.211 638.71 118.993 567.39C109.186 492.128 120.06 414.067 151.483 344.88C180.239 281.692 226.002 226.35 282.562 186.129C334.324 149.012 394.941 123.988 458.186 115.685Z"></path>
<path fill="#5B3175" d="M705.892 857.526C711.929 855.469 717.528 852.365 723.432 849.946C718.118 855.183 711.167 858.154 704.749 861.734C642.533 894.49 572.393 913.782 501.778 911.554C444.303 910.449 388.409 893.557 335.886 871.18C353.063 874.018 370.679 873.275 387.647 869.428L388.066 869.6C474.583 902.946 573.955 898.223 658.663 861.563C674.431 862.877 690.809 863.182 705.892 857.526Z"></path>
<path fill="#7E9BD5" d="M285.19 208.22C342.95 164.095 413.718 136.672 486.409 132.425C563.994 127.092 643.37 145.546 709.89 186.072C762.547 218.142 807.148 263.371 838.571 316.428C872.145 372.436 891.113 437.205 892.332 502.526C892.58 512.924 891.475 523.303 891.913 533.72C882.886 532.882 875.707 538.805 869.974 545.013C857.234 558.058 845.941 572.38 834.743 586.72C824.383 597.651 816.023 610.887 802.711 618.599C788.295 627.874 770.755 628.674 754.282 630.921C745.198 631.206 735.981 632.197 727.83 636.52C718.727 629.416 707.834 624.027 696.122 623.589C687.342 623.018 678.868 625.874 670.907 629.207C662.852 602.888 645.465 580.302 624.478 562.858C600.921 542.918 573.231 528.597 544.779 516.961C517.908 505.668 490.256 496.413 462.509 487.519C468.203 464.838 468.717 441.166 465.346 418.085C499.625 431.016 538.266 435.32 573.688 424.369C584.486 420.789 595.436 416.314 604.006 408.639C609.871 403.497 610.881 393.537 605.282 387.862C597.931 380.492 587.475 377.807 578.563 372.913C550.892 359.467 531.772 334.501 508.481 315.266C500.806 308.658 492.465 302.907 484.143 297.213C506.272 283.71 526.63 266.133 539.865 243.566C550.378 224.617 554.206 200.183 544.36 180.187C541.141 173.217 533.333 166.38 525.278 170.189C518.27 175.045 514.365 183.444 506.691 187.557C485.038 200.107 459.176 198.336 435.104 200.05C398.902 202.507 363.099 216.98 337.256 242.785C316.67 262.61 302.215 288.986 298.482 317.475C273.554 329.283 251.787 348.289 238.684 372.76C217.336 412.81 214.308 462.4 231.257 504.564C233.58 510.848 234.723 517.971 239.636 522.941C244.912 528.464 250.339 533.853 255.748 539.281C271.707 554.554 293.15 562.496 314.518 566.647C314.327 586.758 315.641 607.059 320.916 626.541C322.592 632.064 323.24 637.948 321.716 643.604C311.432 642.404 301.072 642.804 290.77 643.319C266.165 643.661 238.703 642.404 219.316 625.208C206.576 614.829 200.101 599.194 189.036 587.443C174.354 571.427 163.936 551.622 147.559 537.091C144.416 533.968 139.865 534.025 135.789 533.625C135.313 505.402 135.466 477.026 140.417 449.165C154.605 356.439 205.852 270.475 279.477 212.6C283.342 219.475 292.331 222.331 294.217 230.444C296.749 238.595 293.169 248.174 285.856 252.592C278.848 257.049 268.507 253.24 263.289 260.915C269.84 268.17 280.41 265.58 288.351 262.362C303.129 256.135 309.604 236.595 302.025 222.617C298.806 215.533 291.874 211.495 285.19 208.22ZM455.9 161.01C452.053 161.733 448.226 162.476 444.417 163.314C448.302 164.381 452.244 165.161 456.205 165.942C456.795 170.018 457.5 174.093 458.7 178.073C459.519 174.055 460.166 170.017 460.795 165.999C464.642 165.314 468.507 164.571 472.202 163.276C468.431 162.324 464.642 161.505 460.833 160.724C460.185 156.915 459.5 153.087 458.662 149.336C457.024 153.03 456.453 157.029 455.9 161.01ZM488.504 154.325C489.132 157.43 489.532 162.286 494.007 161.505C498.94 161.791 498.978 155.049 495.493 153.03C493.131 153.24 490.808 153.83 488.504 154.325ZM584.257 152.135C583.114 154.268 582.124 156.458 581.134 158.667C578.544 159.6 575.954 160.534 573.383 161.486C575.44 163.428 577.535 165.371 579.61 167.332C579.534 170.132 579.477 172.95 579.439 175.769C582.105 174.417 584.771 173.065 587.437 171.731C589.151 172.531 592.579 174.131 594.293 174.931C592.979 169.084 593.874 163.219 598.654 159.22C592.617 159.639 588.104 156.344 584.257 152.135ZM421.069 172.665C421.716 175.388 420.631 179.444 424.154 180.53C427.239 181.653 431.2 178.454 429.772 175.178C429.429 170.684 423.887 172.436 421.069 172.665ZM383.895 175.464C381.419 176.34 379.534 179.406 380.867 181.939C382.467 186.148 389.227 187.005 391.322 182.739C394.598 178.625 387.913 172.627 383.895 175.464ZM637.409 177.445C632.305 180.035 631.448 187.805 635.866 191.461C641.065 196.508 651.444 191.975 650.34 184.434C650.397 178.187 642.589 174.36 637.409 177.445ZM349.863 181.311C342.665 184.148 341.408 195.175 347.978 199.422C353.882 204.354 364.203 200.145 364.565 192.356C365.994 184.51 357.043 177.578 349.863 181.311ZM591.989 204.43C585.781 205.687 579.515 206.677 573.345 208.087C579.077 211.286 585.952 210.696 592.179 212.314C593.227 218.561 594.065 224.826 595.074 231.073C599.283 225.798 597.493 218.332 599.607 212.181C606.005 211.248 612.423 210.315 618.708 208.715C612.442 206.887 606.043 205.668 599.645 204.601C598.331 197.898 597.34 191.118 595.512 184.529C594.065 191.099 593.074 197.765 591.989 204.43ZM667.879 196.565C663.899 198.355 661.69 203.326 663.156 207.496C664.642 211.514 667.936 214.409 670.736 217.532C688.694 235.891 700.597 259.943 704.825 285.253C711.604 324.541 700.616 366.19 676.697 397.917C646.074 438.424 591.532 459.734 541.713 448.479C532.572 446.975 524.249 442.119 514.956 441.509C508.938 441.166 503.929 447.318 505.662 453.164C507.681 459.848 512.899 464.876 517.222 470.17C551.616 510.201 605.415 532.482 658.053 528.597C694.37 526.388 729.963 511.991 757.082 487.615C805.663 445.013 823.793 372.665 803.663 311.629C785.171 254.611 734.99 210.124 677.135 195.956C674.069 195.403 670.755 195.156 667.879 196.565ZM321.64 200.64C313.204 203.744 322.592 215.133 328.115 209.001C333.219 205.268 326.649 197.384 321.64 200.64ZM653.406 229.492C650.892 232.196 654.339 236.976 657.843 235.91C661.766 235.796 661.214 231.054 661.766 228.387C659.005 228.102 655.291 226.445 653.406 229.492ZM631.543 235.719C629.544 247.412 629.544 259.41 626.478 270.951C615.832 274.131 604.729 275.236 593.855 277.331C593.855 278.149 593.855 279.787 593.855 280.606C604.729 283.101 616.86 280.968 626.973 286.148C632.21 296.584 630.077 309.515 635.009 320.313C641.18 309.553 637.771 296.279 641.998 284.796C652.949 281.711 664.451 281.444 675.421 278.473C665.727 271.294 651.597 276.283 641.77 269.408C637.371 260.286 638.513 249.583 635.695 239.966C635.257 237.7 633.886 236.291 631.543 235.719ZM583.724 241.756C581.991 246.194 588.809 249.279 591.284 245.451C593.436 243.223 591.284 240.309 590.961 237.852C588.504 238.824 584.257 238.29 583.724 241.756ZM549.711 251.735C542.874 254.878 542.436 265.314 548.245 269.675C554.853 275.54 567.346 269.98 566.07 260.762C566.737 252.592 556.319 246.993 549.711 251.735ZM224.515 278.74C220.269 278.949 219.697 284.225 222.135 286.91C228.477 288.662 236.037 287.938 241.065 292.947C249.768 300.222 249.73 314.771 241.35 322.275C236.685 327.245 229.486 327.016 223.449 328.997C219.621 330.501 220.212 336.291 223.963 337.529C241.503 340.043 259.138 324.35 257.671 306.411C257.862 289.538 241.065 275.464 224.515 278.74ZM679.649 284.453C674.773 286.51 677.306 294.584 682.657 293.023C688.656 291.633 685.324 282.206 679.649 284.453ZM273.82 289.995C268.031 291.918 272.735 300.755 277.782 297.898C283.019 295.384 279.153 287.062 273.82 289.995ZM544.036 293.632C536.133 295.956 542.97 307.23 549.14 302.64C555.044 299.65 549.749 290.547 544.036 293.632ZM563.804 310.962C558.662 311.629 553.52 312.6 548.683 314.505C553.71 315.533 558.795 316.371 563.88 317.152C565.289 322.103 564.756 327.988 568.298 332.12C569.041 327.036 569.631 321.951 570.812 316.961C575.897 316.218 580.962 315.419 586.009 314.371C581.115 312.695 575.992 311.743 570.869 311.153C569.479 305.63 568.85 299.936 567.917 294.337C565.956 299.726 565.118 305.402 563.804 310.962ZM658.624 315.133C648.302 317.742 645.312 332.844 653.958 339.128C661.938 346.556 677.059 340.557 676.906 329.397C678.239 319.723 667.651 311.762 658.624 315.133ZM592.16 334.063C586.276 338.805 595.417 346.765 600.044 341.642C605.51 336.862 596.959 329.111 592.16 334.063ZM628.572 337.148C626.878 344.575 626.897 352.288 625.068 359.696C618.079 363.981 608.043 360.629 602.025 366.476C609.738 367.466 617.565 367.828 625.183 369.561C626.878 376.931 625.868 385.272 630.153 391.842C631.448 384.434 632.115 376.931 633.333 369.523C640.894 367.656 649.616 369.028 656.281 364.476C648.55 362.991 640.723 362.096 633.067 360.229C631.41 352.574 632.286 344.232 628.572 337.148ZM199.796 359.087C202.653 358.668 207.776 359.963 208.328 355.849C209.433 352.764 205.795 349.679 202.881 350.974C198.558 351.069 200.12 356.268 199.796 359.087ZM186.389 366.438C181.743 368.418 184.371 375.788 189.303 374.436C195.626 373.998 192.426 362.895 186.389 366.438ZM843.199 371.903C840.266 373.217 840.285 379.197 844.075 379.464C847.35 381.292 851.616 377.159 849.75 373.77C849.197 371.027 845.236 370.875 843.199 371.903ZM199.701 385.424C192.407 386.853 190.789 398.089 197.321 401.555C202.881 405.421 211.394 400.907 211.166 394.109C211.508 388.148 205.281 383.634 199.701 385.424ZM830.001 393.137C826.173 395.023 827.373 400.869 831.201 402.031C834.8 404.068 840.285 400.184 838.78 396.108C838.342 391.899 832.972 391.271 830.001 393.137ZM815.052 433.987C815.432 440.005 822.441 442.442 824.783 447.356C820.574 452.155 810.633 458.458 816.918 465.447C824.097 471.465 830.458 461.715 835.048 457.125C838.152 460.287 841.085 463.657 844.532 466.476C848.055 469.447 854.892 467.485 855.349 462.572C856.339 455.506 848.645 452.231 845.027 447.413C848.017 443.718 851.864 440.785 854.682 436.977C856.796 433.301 855.253 427.036 850.378 426.845C843.389 425.931 839.847 433.396 835.314 437.319C832.343 434.006 829.62 430.368 825.945 427.778C821.488 424.979 814.461 428.502 815.052 433.987ZM173.135 431.092C170.45 431.435 168.107 435.529 170.564 437.51C174.887 440.862 180.809 442.728 183.171 448.117C187.856 456.325 184.123 467.637 175.858 471.941C172.259 473.674 168.259 474.341 164.603 475.998C161.442 478.797 164.355 484.206 168.412 483.577C183.038 483.196 195.854 469.58 194.712 454.859C194.35 443.471 185.209 430.94 173.135 431.092ZM802.997 487.615C802.235 491.747 807.32 492.737 810.271 491.328C812.195 488.91 811.071 485.844 810.919 483.139C808.177 484.053 802.711 483.254 802.997 487.615ZM843.256 484.358C831.068 486.872 821.298 497.689 819.965 510.068C817.223 527.417 832.762 544.88 850.359 543.985C868.813 544.309 883.286 524.084 878.335 506.582C875.154 491.176 858.605 480.587 843.256 484.358ZM778.468 499.384C770.774 500.717 775.04 512.2 781.953 509.458C788.79 507.382 785.019 496.87 778.468 499.384ZM181.495 505.897C179.991 512.448 180.124 519.285 178.6 525.836C173.135 530.064 164.698 527.817 158.985 532.197C165.765 533.111 172.621 533.644 179.305 535.149C180.619 541.7 179.857 549.032 183.533 554.897C184.637 548.251 185.113 541.566 185.818 534.882C192.75 533.625 199.93 533.168 206.424 530.254C199.587 528.883 192.655 528.045 185.799 526.807C184.256 519.856 184.409 512.467 181.495 505.897ZM774.869 564.362C763.023 570.171 748.988 567.942 736.571 572.056C736.514 572.741 736.419 574.132 736.362 574.817C748.607 579.654 763.233 575.655 774.907 581.844C779.077 594.014 778.373 607.23 781.648 619.647C782.391 619.171 783.896 618.18 784.638 617.685C787.78 606.925 786.866 595.385 789.818 584.568C790.218 580.968 794.389 580.702 797.131 580.016C808.12 578.055 819.336 577.54 830.211 574.874C829.677 574.189 828.592 572.856 828.04 572.189C816.423 567.961 803.149 570.018 791.742 564.971C785.895 552.631 789.018 537.796 783.648 525.131C776.24 536.862 781.229 552.288 774.869 564.362ZM690.637 539.014C685.209 541.947 690.999 549.927 695.893 546.346C700.178 542.938 695.246 535.587 690.637 539.014ZM804.901 541.109C803.168 544.042 807.263 548.289 810.291 546.594C814.652 545.966 812.823 540.976 812.766 538.138C810.31 539.053 805.91 537.872 804.901 541.109ZM740.247 542.899C737.466 543.509 737.276 547.394 738.837 549.355C740.799 551.069 745.807 551.507 746.169 548.117C748.017 544.499 743.617 540.747 740.247 542.899ZM719.641 554.897C717.984 558.554 723.221 561.886 726.23 559.544C729.011 558.439 727.639 554.421 728.535 552.136C725.487 552.459 720.65 550.803 719.641 554.897ZM208.385 561.563C211.661 562.629 215.051 562.534 218.326 561.543C217.431 558.535 217.145 553.012 212.537 554.497C208.937 554.65 209.471 559.144 208.385 561.563ZM672.069 561.048C661.5 564.514 658.624 579.654 667.022 586.872C675.287 595.194 691.246 590.281 693.246 578.702C696.502 566.971 683.038 555.83 672.069 561.048ZM216.212 578.95C213.489 579.654 210.766 580.397 208.042 581.159C210.156 583.73 212.365 586.225 214.67 588.662C214.594 591.119 214.517 593.595 214.441 596.07C218.993 592.795 224.344 592.414 229.372 594.928C228.858 592.147 228.343 589.386 227.867 586.643C229.772 584.358 231.676 582.111 233.6 579.864C230.591 579.312 227.486 579.064 224.592 578.112C222.687 575.903 221.202 573.351 219.602 570.97C218.479 573.598 217.355 576.284 216.212 578.95ZM289.379 585.52C285.666 588.662 286.332 595.347 290.903 597.365C295.854 600.26 302.748 595.88 301.815 590.11C301.682 584.168 293.398 581.559 289.379 585.52ZM738.685 596.965C735.828 598.241 734.362 602.507 737.047 604.754C740.399 609.077 749.045 605.459 746.912 599.898C746.322 596.318 741.465 595.29 738.685 596.965ZM245.635 599.041C236.209 601.612 232.59 614.943 240.017 621.589C246.987 629.188 261.423 625.189 262.946 614.848C265.46 605.192 255.043 595.594 245.635 599.041ZM708.043 600.45C701.644 603.44 701.073 613.629 707.319 617.114C713.147 621.227 722.364 616.39 722.098 609.23C722.707 602.088 714.194 597.08 708.043 600.45Z"></path>
<path fill="#C4D7EE" d="M488.505 154.325C490.809 153.83 493.133 153.24 495.494 153.03C498.979 155.049 498.941 161.79 494.009 161.505C489.533 162.286 489.133 157.429 488.505 154.325Z"></path>
<path fill="#FCD796" d="M584.257 152.135C588.104 156.344 592.618 159.638 598.655 159.219C593.875 163.219 592.98 169.084 594.294 174.931C592.58 174.131 589.152 172.531 587.438 171.731C584.772 173.064 582.106 174.417 579.439 175.769C579.477 172.95 579.535 170.132 579.611 167.332C577.535 165.371 575.44 163.428 573.383 161.486C575.954 160.534 578.544 159.6 581.134 158.667C582.125 156.458 583.115 154.268 584.257 152.135Z"></path>
<path fill="#CDC2DD" d="M765.061 160.457C773.25 157.125 781.192 162.819 787.819 167.047C796.236 173.122 805.054 179.006 811.891 186.91C818.366 194.775 812.862 208.239 802.597 209.001C794.351 210.524 788.505 203.535 783.001 198.679C776.164 191.956 767.728 187.233 760.605 180.911C754.264 175.083 756.93 163.2 765.061 160.457Z"></path>
<path fill="#CDC2DD" d="M88.9607 566.324C95.0357 566.076 100.635 570.837 101.244 576.95C108.5 619.171 122.402 660.306 142.684 698.089C154.701 720.828 169.117 742.214 184.6 762.725C187.837 766.667 188.751 772.627 185.704 776.97C181.934 783.273 171.783 784.302 167.213 778.36C120.364 721.856 89.951 652.346 78.0485 580.054C76.6011 573.294 81.9906 566.343 88.9607 566.324Z"></path>
<path fill="#582D72" d="M525.278 170.189C533.334 166.38 541.142 173.217 544.36 180.187C554.206 200.183 550.378 224.617 539.866 243.565C526.63 266.133 506.272 283.71 484.143 297.212C492.465 302.907 500.807 308.658 508.481 315.266C531.772 334.501 550.892 359.467 578.563 372.912C587.476 377.807 597.931 380.492 605.282 387.862C610.881 393.537 609.872 403.497 604.006 408.639C595.436 416.314 584.486 420.789 573.688 424.369C538.266 435.32 499.626 431.016 465.347 418.085C468.717 441.166 468.203 464.838 462.509 487.519C490.256 496.413 517.908 505.668 544.779 516.961C573.231 528.597 600.921 542.918 624.478 562.857C645.465 580.302 662.852 602.888 670.908 629.207C678.868 625.874 687.343 623.018 696.122 623.589C707.834 624.027 718.727 629.416 727.83 636.52C733.982 641.719 739.123 648.022 743.237 654.954C744.913 657.925 746.512 660.953 747.884 664.115C757.063 686.529 750.416 714.429 730.744 729.036C727.983 731.149 724.974 732.902 722.041 734.787C730.001 739.815 736.667 746.861 745.522 750.441C757.406 755.926 770.679 757.411 783.648 756.63C794.408 755.964 803.454 764.458 807.453 773.808C812.252 784.625 810.177 797.327 804.616 807.459C798.35 818.657 787.8 826.998 776.221 832.254C758.396 840.443 738.209 842.881 718.842 840.348C689.533 859.716 650.683 853.831 621.488 837.358C608.101 842.367 594.198 845.985 579.915 847.185C565.023 864.286 543.56 875.446 520.974 877.636C486.466 881.54 451.387 868.286 425.849 845.242C422.878 841.567 418.822 845.585 415.756 846.994C373.726 872.037 316.556 867.143 278.887 836.177C259.823 837.777 239.008 836.844 222.821 825.475C211.414 817.819 205.339 803.764 206.329 790.205C206.672 774.379 215.851 760.23 227.201 749.813C241.122 737.11 258.643 728.255 277.173 724.77C277.534 721.742 277.839 718.714 278.429 715.762C280.182 709.858 283.971 704.907 288.009 700.374C295.798 691.595 303.225 682.492 309.547 672.608C311.147 670.018 312.633 667.371 314.023 664.705C317.336 657.963 319.755 650.822 321.717 643.604C323.24 637.948 322.593 632.063 320.917 626.541C315.641 607.059 314.327 586.758 314.518 566.647C293.151 562.496 271.707 554.554 255.748 539.281C250.34 533.853 244.912 528.464 239.637 522.941C234.723 517.971 233.581 510.848 231.257 504.564C214.308 462.4 217.336 412.81 238.685 372.76C251.787 348.288 273.554 329.283 298.483 317.475C302.215 288.985 316.67 262.609 337.256 242.785C363.099 216.98 398.902 202.507 435.105 200.05C459.176 198.336 485.038 200.107 506.691 187.557C514.366 183.443 518.27 175.045 525.278 170.189ZM508.348 200.831C475.935 217.247 438.171 207.706 404.272 218.351C360.604 230.558 321.298 266.266 313.413 312.105C323.088 309.248 333.029 307.572 343.027 306.335C346.912 292.261 354.32 278.93 365.632 269.503C379.553 257.391 398.045 251.888 416.232 251.012C441.98 248.879 468.66 255.392 493.627 246.536C513.909 239.566 528.363 221.57 535.486 201.878C534.286 215.19 526.84 227.321 518.46 237.433C506.958 251.335 488.98 258.02 471.345 259.086C445.027 261.733 417.432 255.43 392.122 265.409C373.802 272.189 360.014 288.09 353.977 306.449C358.567 307.02 363.137 307.63 367.727 308.22C387.057 290.776 413.337 282.339 439.199 283.52C442.703 284.11 446.264 284.643 449.845 284.434C456.853 286.053 463.442 289.214 470.507 290.566C478.601 286.7 486.238 281.692 492.922 275.674C509.91 263.6 525.373 247.603 533.067 227.911C536.838 219.265 539.618 208.467 535.886 199.383C537.485 193.213 534.038 187.481 531.525 182.11C524.307 188.966 517.718 196.793 508.348 200.831ZM416.003 295.156C393.17 299.307 374.583 315.438 361.709 334.025C357.653 339.776 355.234 346.975 348.93 350.783C344.703 339.185 354.129 328.826 358.357 318.656C357.196 318.77 354.872 319.018 353.71 319.132C332.21 317.99 310.842 324.579 292.351 335.243C265.289 351.012 245.693 378.207 237.885 408.391C229.924 439.109 231.257 472.589 243.35 502.069C228.877 508.144 246.378 532.73 256.853 521.932C262.09 525.379 270.412 529.988 275.611 524.008C277.934 522.141 281.591 516.238 283.628 521.684C283.133 529.626 273.535 531.72 267.06 532.482C289.094 551.412 319.374 556.916 347.655 556.268C375.744 555.488 405.625 548.346 426.04 527.835C448.074 505.878 455.767 473.446 455.063 443.185C454.834 433.111 454.053 422.998 451.787 413.172C451.292 409.782 447.483 408.753 445.141 406.906C430.686 398.412 418.898 386.3 407.815 373.903C400.368 366.209 393.379 357.43 383.343 353.011C382.181 350.307 380.962 347.432 382.41 344.575C387.437 330.787 401.701 322.16 415.889 320.713C432.61 318.523 449.064 325.093 462.661 334.367C479.039 344.88 492.637 359.106 504.273 374.607C520.269 395.67 546.969 407.001 573.174 406.163C552.187 408.639 529.43 406.163 511.852 393.499C495.855 382.968 486.581 365.542 472.431 353.03C458.643 340.347 441.389 328.997 421.983 329.187C411.147 329.035 401.454 335.415 395.322 344.004C401.454 349.698 407.548 355.411 413.318 361.467C422.802 371.332 431.734 381.844 442.684 390.147C457.729 401.707 475.516 409.344 493.913 413.724C518.213 419.094 544.246 420.142 568.146 412.391C574.05 411.743 579.363 408.639 584.467 405.802C589.266 404.278 593.227 401.021 596.96 397.784C590.618 390.528 580.62 388.814 572.545 384.225C537.181 367.352 515.337 332.768 482.81 311.933C463.366 299.098 439.523 289.957 416.003 295.156ZM458.319 499.612C450.549 520.656 435.847 539.224 416.461 550.726C389.837 566.838 357.443 570.151 326.954 568.018C326.649 585.977 327.963 604.126 332.476 621.57C332.8 625.036 333.981 628.312 334.933 631.664C339.713 649.717 348.283 666.495 358.053 682.321C369.498 663.353 376.944 642.214 382.715 620.904C385.381 611.61 386.619 601.936 390.332 592.966C395.703 592.204 402.406 595.366 400.178 601.822C393.151 637.739 380.277 672.894 359.938 703.479C349.94 718.542 336.895 731.188 323.792 743.509C318.879 747.965 314.404 755.602 318.612 761.982C324.668 768.876 334.248 771.523 343.16 771.732C361.385 768.761 376.068 755.85 386.104 740.995C388.599 736.101 388.542 730.254 391.284 725.455C394.408 719.266 400.368 715.419 404.958 710.449C408.329 706.145 410.309 700.984 412.499 696.032L413.09 695.785C428.439 663.315 445.617 631.264 454.301 596.165C455.158 589.862 464.909 590.148 466.28 595.994C466.68 602.183 463.747 607.935 463.061 614.01C459.69 621.17 457.329 628.769 454.358 636.101C446.15 656.592 436.133 676.284 426.592 696.166L426.154 696.147C424.783 699.003 423.393 701.879 422.002 704.774C426.23 704.088 430.458 703.383 434.667 702.679C447.75 702.412 460.338 706.754 473.402 706.887C472.736 687.272 476.925 667.066 488.028 650.631C499.492 632.997 519.108 621.342 539.866 618.79C558.986 615.914 580.391 618.656 595.341 631.892C605.987 640.9 611.643 654.002 615.337 667.143C615.356 669.447 615.394 671.77 615.432 674.113C607.929 661.886 601.664 648.213 589.647 639.624C575.097 628.559 555.615 627.341 538.095 629.454C519.336 632.044 501.949 644.499 494.122 661.81C480.429 686.567 484.124 717.019 494.408 742.328C500.064 741.148 505.758 740.138 511.49 739.281C532.077 737.663 552.759 742.119 571.422 750.803C582.448 756.668 594.808 760.249 607.415 759.297C609.11 759.125 612.519 758.763 614.214 758.573C617.356 753.583 620.479 748.613 623.374 743.49L623.888 743.395C640.609 730.35 649.997 710.296 656.015 690.452C657.767 684.625 657.805 678.245 660.586 672.818C666.242 667.676 672.698 674.208 671.841 680.454C669.079 688.415 666.661 696.508 664.49 704.64C663.595 711.877 669.022 717.895 673.364 723.094C683.648 722.713 693.665 725.132 703.663 727.15C727.183 724.446 744.741 699.003 738.381 675.998C734.172 659.163 722.041 644.042 705.625 637.872C695.056 633.949 683.134 636.329 673.783 642.214C673.479 647.394 675.802 653.564 672.298 658.02C668.508 662.21 660.7 658.954 661.538 653.164C661.348 632.064 652.149 612.048 639.199 595.747C621.203 573.217 597.017 556.535 571.669 543.261C541.218 527.569 508.767 516.276 476.354 505.402C470.412 503.25 464.413 501.288 458.319 499.612ZM293.646 713.477C287.19 720.637 289.913 731.949 296.102 738.367L295.988 738.462C299.835 740.005 303.72 741.529 307.643 742.976C314.708 732.883 324.935 725.741 333.219 716.771C339.961 709.896 345.617 702.088 351.273 694.318C346.131 686.225 341.484 677.826 336.38 669.733C334.895 665.41 332.781 661.315 330.991 657.144C323.678 678.893 308.138 696.223 293.646 713.477ZM422.859 716.771C412.899 719.666 402.006 726.046 399.854 737.053C398.54 743.871 403.339 749.66 407.434 754.517C407.224 746.309 407.91 737.129 414.194 731.092C421.964 723.837 433.181 721.304 443.56 721.951C434.267 725.703 423.469 727.683 416.651 735.701C411.376 741.49 410.862 749.698 411.09 757.126C415.032 759.201 419.07 761.087 423.183 762.82C423.164 753.698 425.145 741.719 435.219 738.596C431.581 746.499 427.754 754.707 428.972 763.696C435.352 764.191 441.922 765.086 448.245 763.505C453.749 762.515 460.338 763.182 464.642 758.954C470.108 753.812 476.525 749.927 483.134 746.461C479.649 737.739 477.173 728.674 475.173 719.514C470.717 719.266 466.28 719.018 461.823 718.752C449.064 716.143 435.733 712.829 422.859 716.771ZM654.682 725.132C655.634 725.113 657.577 725.093 658.529 725.093C661.252 720.923 652.454 720.923 654.682 725.132ZM251.006 748.403C240.437 753.831 231.448 762.382 224.973 772.323C217.565 783.768 216.06 800.622 225.849 811.192C235.542 821.228 250.244 824.122 263.689 824.275C270.012 824.503 276.373 822.58 282.638 823.741C288.637 826.541 293.208 831.588 298.902 834.92C307.757 840.234 317.432 844.823 327.715 846.309C356.396 854.707 388.904 850.041 413.871 833.454C417.375 831.397 421.164 828.217 425.526 829.493C428.839 830.578 431.277 833.206 433.867 835.415C455.501 855.64 485.362 867.238 515.07 865.581C533.124 864.61 551.254 857.754 564.375 845.09C568.946 840.843 572.526 833.968 579.706 834.349C592.523 833.511 605.015 830.331 616.842 825.398C623.431 822.237 629.468 827.303 635.162 829.969C652.13 838.177 671.746 842.519 690.447 838.596C701.264 836.006 712.595 831.245 719.07 821.742L719.927 821.494C724.421 815.781 726.516 808.811 729.316 802.241C732.725 797.442 739.39 800.946 740.875 805.688C738.647 813.953 734.953 821.723 729.963 828.693C746.931 828.445 764.566 825.551 779.04 816.162C789.666 809.401 798.484 797.594 797.189 784.454C796.979 779.064 793.285 774.875 790.485 770.609C786.429 769.466 782.201 769.238 778.03 769.428C758.948 769.942 739.466 764.324 724.383 752.441C711.053 741.738 693.951 736.52 677.04 735.758C660.319 735.149 642.304 740.729 631.658 754.25C625.278 762.248 622.345 774.398 628.421 783.406C632.686 790.395 643.256 793.271 649.902 787.977C653.959 784.892 653.939 779.293 656.377 775.179C659.976 772.361 666.223 774.056 667.004 778.798C667.727 786.491 662.605 792.947 658.11 798.622C654.339 800.336 650.607 802.184 646.874 803.993C640.304 803.345 633.334 803.06 627.583 799.46C622.936 796.851 619.717 792.509 616.499 788.396C615.832 787.539 614.518 785.825 613.852 784.968C613.3 780.435 612.747 775.96 612.195 771.466C606.52 771.751 600.845 771.904 595.17 771.713C577.763 770.095 563.233 759.392 546.569 755.183C529.03 750.403 509.929 750.232 492.713 756.402C483.686 759.83 474.735 764.915 469.117 773.008C462.871 782.207 465.232 795.918 474.24 802.469C482.181 809.097 495.988 809.059 502.254 800.165C504.444 795.633 505.453 786.891 512.614 788.986C519.984 791.557 516.689 801.06 513.718 805.935C504.33 821.989 480.62 823.684 466.68 812.696C456.548 803.707 451.692 789.843 453.977 776.493C443.236 777.369 432.267 777.655 421.717 775.046C409.471 772.456 398.921 764.572 391.779 754.421C379.896 768.895 364.166 781.635 345.045 784.168C343.579 787.939 342.113 791.729 340.608 795.518C337.656 798.718 334.628 801.898 331.543 805.021C323.469 808.602 314.48 811.42 305.624 809.211C294.998 807.097 286.142 797.232 286.428 786.225C286.447 781.216 293.208 778.569 296.674 782.149C299.625 786.777 299.949 793.709 305.758 795.956C315.204 799.879 326.23 794.89 331.353 786.453L331.619 786.51C331.753 785.692 332.057 784.092 332.21 783.273C323.964 780.892 315.356 777.75 309.928 770.723C306.158 766.419 305.758 760.515 305.091 755.107C294.407 753.26 284.524 746.956 279.763 737.015C269.745 739.491 259.576 742.424 251.006 748.403Z"></path>
<path fill="#582D72" d="M667.879 196.565C670.755 195.156 674.069 195.403 677.135 195.955C734.99 210.124 785.171 254.611 803.663 311.629C823.793 372.665 805.663 445.013 757.081 487.615C729.963 511.991 694.37 526.388 658.053 528.597C605.415 532.482 551.616 510.201 517.222 470.17C512.899 464.876 507.681 459.848 505.662 453.164C503.929 447.317 508.938 441.166 514.956 441.509C524.249 442.118 532.572 446.975 541.713 448.479C591.532 459.734 646.074 438.424 676.697 397.917C700.616 366.19 711.604 324.541 704.825 285.253C700.597 259.943 688.694 235.891 670.736 217.532C667.936 214.409 664.642 211.514 663.156 207.496C661.69 203.326 663.899 198.355 667.879 196.565ZM679.744 208.905C684.086 214.504 688.713 219.856 692.827 225.626C706.405 244.651 714.804 267.218 717.508 290.414C722.155 328.102 711.985 367.104 690.827 398.508C669.765 429.797 636.133 452.25 599.245 459.982C572.812 465.904 545.064 463.181 519.698 454.135C538.894 480.492 567.194 499.803 598.178 509.668C634.781 520.923 675.535 519.418 710.614 503.669C731.315 494.223 750.073 480.321 764.547 462.705C788.485 433.663 800.959 395.575 799.473 358.001C798.616 325.931 787.19 294.375 767.937 268.78C746.074 239.966 714.537 218.675 679.744 208.905Z"></path>
<path fill="#BDD2EE" d="M421.069 172.665C423.887 172.436 429.429 170.684 429.772 175.178C431.2 178.454 427.239 181.653 424.154 180.53C420.631 179.444 421.716 175.388 421.069 172.665Z"></path>
<path fill="#CDC3DD" d="M220.231 185.253C227.716 181.825 236.838 190.204 233.391 197.936C229.182 205.782 216.727 213.019 209.871 204.202C203.987 195.994 212.537 187.5 220.231 185.253Z"></path>
<path fill="#F9DD85" d="M591.989 204.43C593.074 197.765 594.065 191.099 595.512 184.529C597.34 191.118 598.33 197.898 599.645 204.601C606.043 205.668 612.442 206.887 618.708 208.715C612.423 210.315 606.005 211.248 599.606 212.181C597.493 218.332 599.283 225.797 595.074 231.073C594.065 224.826 593.227 218.561 592.179 212.314C585.952 210.696 579.077 211.286 573.345 208.087C579.515 206.677 585.78 205.687 591.989 204.43Z"></path>
<path fill="#FCFEFD" d="M321.641 200.64C326.649 197.384 333.22 205.268 328.116 209.001C322.593 215.133 313.204 203.744 321.641 200.64Z"></path>
<path fill="#E79EC0" d="M535.486 201.878C535.581 201.269 535.79 200.012 535.886 199.383C539.618 208.467 536.838 219.265 533.067 227.911C526.097 235.377 520.612 244.403 511.966 250.136C495.684 261.562 475.821 266.666 456.167 267.809C445.465 268.818 433.524 267.999 424.421 274.702C422.783 277.902 426.554 279.178 428.763 280.435C432.096 281.882 435.657 282.739 439.199 283.52C413.337 282.339 387.057 290.776 367.727 308.22C363.137 307.63 358.567 307.02 353.977 306.449C360.014 288.09 373.802 272.189 392.122 265.409C417.432 255.43 445.027 261.733 471.345 259.086C488.98 258.02 506.958 251.335 518.46 237.433C526.84 227.321 534.286 215.19 535.486 201.878Z"></path>
<path fill="#F2AE90" d="M679.745 208.905C714.538 218.675 746.075 239.966 767.937 268.78C787.191 294.375 798.617 325.931 799.474 358.001C800.96 395.575 788.486 433.663 764.548 462.705C750.074 480.321 731.316 494.223 710.615 503.669C675.536 519.418 634.782 520.923 598.179 509.668C567.194 499.803 538.895 480.492 519.699 454.135C545.065 463.181 572.812 465.905 599.246 459.982C636.134 452.25 669.766 429.797 690.828 398.508C711.986 367.104 722.156 328.102 717.509 290.414C714.805 267.218 706.406 244.651 692.828 225.626C688.714 219.856 684.087 214.504 679.745 208.905ZM721.051 245.603C724.441 256.325 728.65 266.837 730.421 277.997C741.638 334.748 721.242 396.622 678.297 435.396C655.616 456.192 626.688 469.942 596.408 475.141C586.486 477.007 576.336 476.626 566.414 478.493C593.247 494.528 624.822 502.583 656.073 500.641C683.096 499.289 709.644 489.462 730.973 472.817C779.783 436.253 796.561 365.295 772.66 309.763C762.281 283.882 743.713 261.619 721.051 245.603Z"></path>
<path fill="#CEC4DD" d="M182.695 212.181C191.741 208.753 202.311 217.113 200.711 226.731C199.759 236.824 186.333 241.909 178.753 235.338C170.66 229.34 172.831 214.999 182.695 212.181Z"></path>
<path fill="#CCC3DD" d="M839.618 223.645C848.588 220.541 856.739 227.245 861.919 233.872C917.185 299.726 947.408 384.815 951.807 470.266C952.454 477.464 951.826 486.605 944.303 490.052C935.753 494.947 924.383 487.672 924.612 478.016C918.975 395.175 889.171 313.152 835.219 249.469C827.449 242.156 828.878 227.245 839.618 223.645Z"></path>
<path fill="#C4D3EA" d="M653.406 229.492C655.291 226.445 659.005 228.102 661.766 228.387C661.214 231.054 661.766 235.796 657.843 235.91C654.339 236.976 650.892 232.196 653.406 229.492Z"></path>
<path fill="#F3BBC9" d="M511.966 250.136C520.612 244.404 526.097 235.377 533.067 227.911C525.373 247.603 509.91 263.6 492.922 275.674C478.678 279.14 464.395 282.587 449.845 284.434C446.265 284.643 442.703 284.11 439.199 283.52C435.657 282.739 432.096 281.882 428.763 280.435C426.554 279.178 422.783 277.902 424.421 274.702C433.524 267.999 445.465 268.818 456.167 267.809C475.821 266.666 495.684 261.562 511.966 250.136Z"></path>
<path fill="#FBDB86" d="M631.544 235.719C633.887 236.291 635.258 237.7 635.696 239.966C638.514 249.583 637.372 260.286 641.771 269.408C651.597 276.283 665.728 271.294 675.422 278.473C664.452 281.444 652.95 281.711 641.999 284.796C637.771 296.279 641.18 309.553 635.01 320.313C630.078 309.515 632.211 296.584 626.974 286.148C616.861 280.968 604.73 283.101 593.856 280.606C593.856 279.787 593.856 278.149 593.856 277.331C604.73 275.236 615.833 274.131 626.478 270.951C629.544 259.41 629.544 247.412 631.544 235.719Z"></path>
<path fill="#C2D4ED" d="M583.724 241.756C584.258 238.29 588.504 238.824 590.961 237.852C591.285 240.309 593.437 243.223 591.285 245.451C588.809 249.279 581.991 246.194 583.724 241.756Z"></path>
<path fill="#FCD886" d="M721.051 245.603C743.713 261.619 762.281 283.882 772.66 309.763C796.561 365.295 779.783 436.253 730.973 472.817C709.644 489.462 683.096 499.289 656.073 500.641C624.822 502.583 593.247 494.528 566.414 478.493C576.336 476.626 586.486 477.007 596.408 475.141C626.688 469.942 655.616 456.192 678.297 435.396C721.241 396.622 741.638 334.748 730.421 277.997C728.65 266.837 724.441 256.325 721.051 245.603ZM753.997 319.018C747.332 321.056 742.228 327.969 743.028 335.034C744.037 341.795 750.169 347.736 757.177 347.698C765.119 348.555 772.279 340.938 771.975 333.187C772.717 323.969 762.815 316.066 753.997 319.018ZM731.163 374.969C732.992 379.368 737.2 382.473 740.514 385.843C745.104 387.557 747.446 382.282 750.303 379.806C751.502 377.921 754.74 376.131 753.407 373.541C749.903 369.866 746.265 366.323 743.294 362.21C739.181 366.266 733.468 369.637 731.163 374.969ZM713.929 427.245C712.767 431.263 716.918 433.396 719.166 435.91C722.27 438.653 724.612 442.29 728.269 444.404C732.63 444.556 734.591 439.871 737.562 437.472C740.4 434.177 746.437 431.816 744.589 426.464C739.981 422.598 735.125 418.904 732.135 413.553C730.763 413.819 727.983 414.371 726.593 414.638C722.651 419.113 718.137 423.036 713.929 427.245ZM677.745 450.288C673.022 452.497 675.574 460.858 680.887 460.172C684.677 460.896 686.943 456.478 686.315 453.259C686.01 449.089 680.678 448.917 677.745 450.288ZM652.378 473.446C654.035 479.33 659.291 482.911 663.595 486.796C666.909 482.911 670.66 479.464 674.203 475.826C674.888 472.17 671.365 470.761 669.061 468.951C667.385 467.028 666.09 464.648 663.767 463.486C659.444 466.171 656.244 470.227 652.378 473.446ZM612.976 476.798C610.12 477.312 608.863 480.968 609.682 483.577C610.996 488.205 619.051 488.376 620.175 483.539C622.06 479.292 616.994 475.065 612.976 476.798Z"></path>
<path fill="#FCDB87" d="M549.712 251.735C556.32 246.993 566.737 252.592 566.071 260.762C567.347 269.98 554.854 275.54 548.246 269.675C542.437 265.314 542.875 254.878 549.712 251.735Z"></path>
<path fill="#CCC2DD" d="M146.264 267.294C153.558 264.419 162.661 268.494 164.737 276.188C167.27 283.52 161.785 290.033 158.205 295.879C140.285 322.789 128.23 353.202 120.574 384.51C116.041 401.345 112.842 418.656 106.081 434.786C102.101 444.785 86.9613 446.937 80.0293 438.862C72.4688 430.844 76.0871 418.809 77.4964 409.172C87.8754 363.352 106.367 319.189 132.724 280.225C136.247 275.083 140.075 269.408 146.264 267.294Z"></path>
<path fill="#CCC2DD" d="M917.68 638.805C924.803 637.32 932.573 641.605 935.01 648.499C937.619 655.107 934.858 662.153 932.687 668.476C921.737 697.213 907.378 724.598 890.505 750.289C885.686 757.297 880.697 766.229 871.384 767.486C863.234 769.161 854.13 763.639 853.045 755.164C852.15 747.337 857.273 740.633 861.12 734.33C878.393 708.62 893.171 681.197 904.673 652.441C906.806 646.347 910.805 640.005 917.68 638.805Z"></path>
<path fill="#E59BBF" d="M449.845 284.434C464.395 282.587 478.678 279.14 492.923 275.674C486.238 281.692 478.602 286.7 470.508 290.566C463.443 289.214 456.853 286.053 449.845 284.434Z"></path>
<path fill="#C5D6ED" d="M679.649 284.453C685.324 282.206 688.657 291.633 682.658 293.023C677.307 294.584 674.774 286.51 679.649 284.453Z"></path>
<path fill="#C0D3EA" d="M273.822 289.995C279.154 287.062 283.02 295.384 277.783 297.898C272.736 300.755 268.032 291.918 273.822 289.995Z"></path>
<path fill="#F9DF8A" d="M563.804 310.962C565.118 305.401 565.956 299.726 567.918 294.337C568.851 299.936 569.479 305.63 570.869 311.153C575.992 311.743 581.115 312.695 586.009 314.371C580.963 315.419 575.897 316.218 570.812 316.961C569.632 321.951 569.041 327.035 568.298 332.12C564.756 327.988 565.29 322.103 563.88 317.152C558.796 316.371 553.711 315.533 548.683 314.505C553.52 312.6 558.662 311.629 563.804 310.962Z"></path>
<path fill="#FCFBF7" d="M753.997 319.018C762.814 316.066 772.717 323.969 771.974 333.187C772.279 340.938 765.119 348.555 757.177 347.698C750.169 347.736 744.037 341.795 743.028 335.034C742.228 327.969 747.331 321.056 753.997 319.018ZM755.806 326.388C751.483 327.15 748.912 333.11 751.521 336.71C753.997 342.309 763.5 341.109 764.681 335.129C766.756 329.911 760.967 324.617 755.806 326.388Z"></path>
<path fill="#D3CAE5" d="M353.711 319.132C354.872 319.018 357.196 318.77 358.357 318.656C354.13 328.826 344.703 339.185 348.931 350.783C349.807 356.763 349.502 362.819 348.854 368.818C337.752 354.021 343.084 332.749 353.711 319.132Z"></path>
<path fill="#FADA84" d="M755.806 326.388C760.967 324.617 766.756 329.911 764.681 335.129C763.5 341.109 753.997 342.309 751.521 336.71C748.912 333.11 751.483 327.15 755.806 326.388Z"></path>
<path fill="#E59EC0" d="M395.322 344.004C401.454 335.415 411.147 329.035 421.983 329.187C441.389 328.997 458.643 340.347 472.431 353.031C486.581 365.542 495.855 382.968 511.852 393.499C529.43 406.163 552.187 408.639 573.174 406.163C576.945 406.068 580.696 405.992 584.467 405.802C579.363 408.639 574.05 411.743 568.146 412.391C559.176 411.553 550.15 411.534 541.218 410.258C528.877 407.877 516.861 403.669 505.663 397.955C481.115 385.424 465.728 360.782 441.637 347.622C434.762 344.251 426.059 341.242 418.879 345.432C413.528 348.841 414.347 356.001 413.318 361.467C407.548 355.411 401.454 349.698 395.322 344.004Z"></path>
<path fill="#F3B8C8" d="M418.88 345.432C426.059 341.242 434.762 344.251 441.637 347.622C465.728 360.782 481.116 385.424 505.663 397.955C516.861 403.669 528.878 407.877 541.218 410.258C550.15 411.534 559.177 411.553 568.147 412.391C544.246 420.142 518.213 419.094 493.913 413.724C475.517 409.344 457.729 401.707 442.685 390.147C431.734 381.844 422.803 371.332 413.319 361.467C414.347 356.001 413.528 348.841 418.88 345.432Z"></path>
<path fill="#C4D5EE" d="M199.797 359.087C200.121 356.268 198.559 351.069 202.882 350.974C205.796 349.679 209.434 352.764 208.329 355.849C207.777 359.963 202.654 358.668 199.797 359.087Z"></path>
<path fill="#BBDCE3" d="M383.343 353.012C393.379 357.43 400.369 366.209 407.815 373.903C418.898 386.301 430.687 398.412 445.141 406.906C447.484 408.753 451.292 409.782 451.787 413.172C454.054 422.998 454.835 433.111 455.063 443.185C447.96 437.891 445.846 427.95 437.695 423.97C431.677 420.637 425.354 417.533 420.536 412.486C413.547 405.649 409.91 396.356 404.349 388.453C399.702 381.806 392.884 377.026 388.238 370.399C384.657 365.333 384.372 358.896 383.343 353.012Z"></path>
<path fill="#BBDCE3" d="M494.408 742.328C484.124 717.019 480.43 686.568 494.122 661.81C492.999 673.37 492.085 685.063 493.38 696.661C494.979 712.372 502.216 726.731 511.491 739.281C505.758 740.138 500.064 741.148 494.408 742.328Z"></path>
<path fill="#BBDCE3" d="M618.155 723.818C629.772 711.668 640.418 697.823 656.015 690.453C649.997 710.296 640.608 730.35 623.888 743.395L623.373 743.49C614.404 743.395 608.919 751.222 607.415 759.297C594.807 760.249 582.448 756.669 571.421 750.803C588.77 745.452 605.434 737.034 618.155 723.818Z"></path>
<path fill="#BBDCE3" d="M187.361 705.364C194.922 708.316 201.625 713.458 209.738 714.924C216.289 716.029 222.974 715.572 229.582 715.4C233.734 719.076 237.638 723.037 241.294 727.207C232.001 732.94 223.297 739.567 215.375 747.07C205.834 733.282 195.588 719.971 187.361 705.364Z"></path>
<path fill="#FDFCF9" d="M731.163 374.969C733.467 369.637 739.181 366.266 743.294 362.21C746.265 366.323 749.902 369.865 753.406 373.541C754.74 376.131 751.502 377.921 750.302 379.806C747.446 382.282 745.103 387.557 740.514 385.843C737.2 382.473 732.991 379.368 731.163 374.969Z"></path>
<path fill="#C3D5EF" d="M186.39 366.437C192.427 362.895 195.626 373.998 189.304 374.436C184.371 375.788 181.743 368.418 186.39 366.437Z"></path>
<path fill="#C7DAF2" d="M843.2 371.903C845.237 370.875 849.198 371.027 849.751 373.769C851.617 377.159 847.351 381.292 844.076 379.464C840.286 379.197 840.267 373.217 843.2 371.903Z"></path>
<path fill="#FDFDFA" d="M713.928 427.245C718.137 423.036 722.65 419.113 726.592 414.638C727.983 414.371 730.763 413.819 732.134 413.552C735.124 418.904 739.98 422.598 744.589 426.464C746.436 431.816 740.399 434.177 737.562 437.472C734.591 439.871 732.629 444.556 728.268 444.404C724.612 442.29 722.269 438.652 719.165 435.91C716.918 433.396 712.767 431.263 713.928 427.245Z"></path>
<path fill="#FBD987" d="M815.052 433.987C814.462 428.502 821.489 424.979 825.945 427.778C829.621 430.368 832.344 434.006 835.315 437.319C839.847 433.396 843.389 425.931 850.379 426.845C855.254 427.036 856.796 433.301 854.682 436.977C851.864 440.785 848.017 443.718 845.027 447.413C848.646 452.231 856.339 455.506 855.349 462.572C854.892 467.485 848.055 469.447 844.532 466.476C841.085 463.657 838.152 460.287 835.048 457.125C830.458 461.715 824.098 471.465 816.918 465.447C810.634 458.458 820.575 452.155 824.783 447.356C822.441 442.442 815.433 440.005 815.052 433.987Z"></path>
<path fill="#FBFDFC" d="M173.135 431.092C185.209 430.94 194.35 443.471 194.712 454.859C195.854 469.58 183.038 483.196 168.412 483.577C164.355 484.206 161.442 478.797 164.603 475.998C168.259 474.341 172.259 473.674 175.858 471.941C184.123 467.637 187.856 456.325 183.171 448.117C180.809 442.728 174.887 440.861 170.564 437.51C168.107 435.529 170.45 431.435 173.135 431.092Z"></path>
<path fill="#FBFDFC" d="M840.075 673.256C850.759 666.876 857.005 655.564 867.137 648.556C864.013 656.535 860.795 664.476 857.062 672.208C848.15 677.598 840.056 684.549 830.115 688.053C825.526 689.824 820.612 690.833 816.251 693.176C811.262 698.47 808.729 705.821 802.768 710.277C793.741 717.324 781.8 718.809 770.698 718.047C770.545 716.486 770.241 713.343 770.088 711.782C779.039 709.649 788.942 709.63 796.826 704.355C803.511 699.917 805.32 691.5 810.481 685.768C820.365 681.711 831.277 679.769 840.075 673.256Z"></path>
<path fill="#582E72" d="M349.768 442.271C355.996 438.386 361.937 448.422 356.243 452.459C339.713 464.571 317.717 470.189 297.664 464.743C293.227 463.943 290.637 458.306 293.493 454.649C296.426 450.422 301.892 453.412 305.948 453.716C321.564 457.068 336.799 450.307 349.768 442.271Z"></path>
<path fill="#FBFBF6" d="M677.745 450.288C680.678 448.917 686.01 449.089 686.315 453.259C686.943 456.478 684.677 460.896 680.887 460.172C675.574 460.858 673.022 452.498 677.745 450.288Z"></path>
<path fill="#FCFBFA" d="M652.378 473.446C656.244 470.227 659.443 466.171 663.766 463.486C666.09 464.648 667.385 467.028 669.061 468.951C671.365 470.761 674.888 472.17 674.202 475.826C670.66 479.464 666.909 482.911 663.595 486.796C659.291 482.911 654.035 479.33 652.378 473.446Z"></path>
<path fill="#FAFBF8" d="M612.976 476.798C616.994 475.065 622.06 479.292 620.175 483.539C619.051 488.376 610.996 488.205 609.682 483.577C608.863 480.968 610.12 477.312 612.976 476.798Z"></path>
<path fill="#CDC3DE" d="M81.4763 478.531C88.9796 477.026 94.9214 486.986 90.3508 492.985C87.0943 498.203 78.5245 498.089 75.268 492.928C71.4972 487.729 75.2108 479.483 81.4763 478.531Z"></path>
<path fill="#CDC3DE" d="M929.125 589.271C938.495 585.882 948.779 596.146 945.408 605.516C943.18 614.352 930.858 617.799 924.364 611.439C916.88 605.345 919.622 591.614 929.125 589.271Z"></path>
<path fill="#CDC3DE" d="M819.013 795.861C825.964 793.424 834.458 795.633 837.81 802.603C843.504 811.668 836.039 824.827 825.526 825.17C819.432 826.027 814.347 822.218 809.986 818.543C814.119 811.477 817.699 803.993 819.013 795.861Z"></path>
<path fill="#F1B5C2" d="M361.271 478.473C369.517 476.207 379.42 475.35 386.752 480.625C392.446 484.815 391.837 493.652 387.228 498.451C379.115 507.554 365.861 511.153 354.034 509.134C348.169 507.973 341.713 503.554 342.265 496.87C342.798 486.948 352.777 481.121 361.271 478.473Z"></path>
<path fill="#C7D7F2" d="M802.998 487.615C802.712 483.254 808.178 484.053 810.92 483.139C811.072 485.844 812.196 488.91 810.273 491.328C807.321 492.737 802.236 491.747 802.998 487.615Z"></path>
<path fill="#F3B7C3" d="M843.256 484.358C858.605 480.587 875.155 491.176 878.335 506.582C883.286 524.084 868.813 544.309 850.359 543.985C832.763 544.88 817.223 527.417 819.965 510.068C821.298 497.689 831.068 486.872 843.256 484.358ZM843.313 497.651C830.116 502.24 828.459 522.77 841.066 529.073C851.94 535.986 867.404 526.75 866.794 513.972C867.613 502.05 854.168 492.89 843.313 497.651Z"></path>
<path fill="#F2B6C1" d="M243.351 502.069C252.283 500.107 262.109 497.86 270.889 501.555C272.107 510.696 262.395 516.181 256.853 521.932C246.379 532.73 228.877 508.144 243.351 502.069Z"></path>
<path fill="#D1CAE5" d="M458.32 499.612C464.414 501.288 470.413 503.25 476.354 505.402C464.852 530.787 446.931 553.545 424.059 569.637C410.862 578.835 395.512 584.453 379.839 587.729C368.927 590.262 357.462 592.109 347.864 598.241C339.713 603.478 336 612.962 332.477 621.57C327.963 604.126 326.649 585.977 326.954 568.018C357.443 570.151 389.837 566.838 416.461 550.726C435.848 539.224 450.55 520.656 458.32 499.612Z"></path>
<path fill="#FCFCFB" d="M181.495 505.897C184.409 512.467 184.257 519.856 185.799 526.807C192.655 528.045 199.587 528.883 206.424 530.254C199.93 533.168 192.75 533.625 185.818 534.882C185.114 541.566 184.638 548.251 183.533 554.897C179.858 549.032 180.619 541.7 179.305 535.149C172.621 533.644 165.765 533.111 158.985 532.197C164.699 527.817 173.135 530.064 178.601 525.836C180.124 519.285 179.991 512.448 181.495 505.897Z"></path>
<path fill="#CDC4DE" d="M79.6292 518.675C87.9705 515.209 97.6258 523.779 95.3596 532.444C93.836 541.071 81.7621 544.48 75.7061 538.424C69.4406 532.997 71.3641 520.961 79.6292 518.675Z"></path>
<path fill="#CEC4DC" d="M938.229 522.256C944.018 519.97 950.988 525.036 950.208 531.321C950.398 538.691 940.438 542.328 935.239 537.701C930.021 533.606 931.83 524.122 938.229 522.256Z"></path>
<path fill="#BBDDE2" d="M135.79 533.625C139.865 534.025 144.417 533.968 147.559 537.091C163.937 551.622 174.354 571.427 189.037 587.443C183.781 588.091 185.171 593.442 187.133 596.661C198.064 615.895 212.004 635.282 233.276 643.814C251.844 651.05 272.755 653.85 292.37 649.679C291.837 647.546 291.303 645.432 290.77 643.318C301.073 642.804 311.433 642.404 321.717 643.604C319.755 650.822 317.337 657.963 314.023 664.705C288.466 665.676 262.471 670.361 237.218 664.057C215.337 659.144 195.988 645.47 182.943 627.36C171.726 612.086 166.908 593.347 162.966 575.122C161.69 571.084 161.576 565.543 156.834 564C153.196 566.552 154.206 571.199 154.701 574.931C158.738 598.603 166.698 622.408 182.791 640.709C196.75 656.611 215.584 668.438 236.342 673.027C260.395 678.55 285.381 676.188 309.548 672.608C303.225 682.492 295.798 691.595 288.009 700.374C283.972 704.907 280.182 709.858 278.43 715.762C268.717 716.162 259.786 719.971 250.664 722.77C243.846 719.076 239.085 712.639 233.333 707.592C222.098 707.668 209.986 708.278 200.216 701.745C191.703 697.48 185.762 689.081 176.62 686.148C166.222 665.848 157.843 644.537 151.216 622.751C142.76 593.785 135.942 563.943 135.79 533.625Z"></path>
<path fill="#BBDDE2" d="M604.063 776.493C607.168 779.483 610.5 782.226 613.852 784.968C614.519 785.825 615.833 787.539 616.499 788.396C616.118 794.338 613.128 802.108 619.222 806.24C627.602 812.144 638.59 808.049 646.874 803.993C650.607 802.184 654.34 800.336 658.11 798.622C655.12 803.193 650.378 807.421 649.807 813.058C652.949 825.494 667.328 830.007 678.811 829.988C692.828 831.188 705.949 825.703 719.07 821.742C712.595 831.245 701.264 836.006 690.447 838.596C671.746 842.519 652.13 838.177 635.162 829.969C629.468 827.303 623.431 822.237 616.842 825.398C605.016 830.331 592.523 833.511 579.706 834.349C572.526 833.968 568.946 840.843 564.376 845.09C551.254 857.754 533.124 864.61 515.071 865.581C485.362 867.238 455.501 855.64 433.867 835.416C431.277 833.206 428.839 830.578 425.526 829.493C421.165 828.217 417.375 831.397 413.871 833.454C406.596 831.416 400.692 826.674 395.855 821.037C395.703 814.353 396.522 807.288 393.913 801.003C390.713 795.614 383.572 795.385 378.011 795.271C365.689 795.138 354.758 801.232 343.56 805.402C339.656 807.154 335.467 805.821 331.543 805.021C334.629 801.898 337.657 798.718 340.608 795.518C346.931 796.014 353.539 797.061 359.652 794.776C370.717 790.7 381.42 785.006 393.36 784.035C404.234 782.911 414.423 789.71 425.297 787.291C431.239 786.644 437.981 783.692 443.389 787.691C448.912 791.633 448.493 799.289 451.102 805.021C452.492 810.506 457.939 812.963 462.509 815.362C461.633 822.808 460.338 830.769 463.614 837.872C468.718 850.594 482.924 857.507 496.141 857.221C516.194 856.783 536.457 849.718 551.445 836.158C558.186 830.159 562.319 821.99 566.394 814.105C575.707 819.076 586.333 823.208 597.036 820.637C604.463 819.4 613.395 814.277 612.386 805.535C610.957 795.518 605.682 786.511 604.063 776.493Z"></path>
<path fill="#BADDE2" d="M869.975 545.013C875.707 538.805 882.886 532.882 891.913 533.72C892.123 539.205 892.161 544.747 891.513 550.231C887.743 583.882 879.097 616.904 867.137 648.556C857.006 655.564 850.759 666.876 840.076 673.256C831.277 679.769 820.365 681.711 810.481 685.768C805.32 691.5 803.511 699.917 796.827 704.354C788.942 709.63 779.039 709.649 770.089 711.782C770.241 713.343 770.546 716.486 770.698 718.047C781.801 718.809 793.741 717.324 802.768 710.277C808.729 705.821 811.262 698.47 816.251 693.176C820.613 690.833 825.526 689.824 830.116 688.053C840.057 684.549 848.15 677.598 857.063 672.208C843.008 701.441 826.421 729.645 806.234 755.107C800.331 751.812 794.37 747.984 787.476 747.375C779.268 746.766 770.908 747.794 762.814 745.928C750.759 743.452 739.98 736.958 730.744 729.036C750.416 714.429 757.063 686.529 747.883 664.115C766.204 665.105 785.095 666.838 802.864 661.087C828.363 653.374 848.074 633.168 860.929 610.468C867.213 599.041 873.041 586.796 874.355 573.674C872.393 572.418 870.241 571.504 868.165 570.551C859.443 601.993 841.618 633.701 811.11 648.289C790.028 658.782 765.918 656.459 743.237 654.954C739.123 648.022 733.981 641.719 727.83 636.52C735.981 632.197 745.198 631.206 754.282 630.921C754.854 632.482 755.977 635.587 756.548 637.148C775.973 638.615 796.35 634.482 812.195 622.732C821.527 615.667 829.506 606.792 835.905 597.041C838.971 593.823 835.619 590.052 834.743 586.72C845.941 572.38 857.234 558.058 869.975 545.013Z"></path>
<path fill="#BED4F2" d="M690.638 539.014C695.247 535.587 700.179 542.937 695.894 546.346C691 549.927 685.21 541.947 690.638 539.014Z"></path>
<path fill="#BCD1EF" d="M804.901 541.109C805.91 537.872 810.31 539.053 812.766 538.138C812.823 540.976 814.652 545.965 810.291 546.594C807.263 548.289 803.168 544.042 804.901 541.109Z"></path>
<path fill="#C2D5F1" d="M740.247 542.9C743.618 540.748 748.017 544.499 746.17 548.118C745.808 551.507 740.799 551.069 738.838 549.355C737.276 547.394 737.467 543.509 740.247 542.9Z"></path>
<path fill="#C6D7EE" d="M719.641 554.897C720.651 550.803 725.488 552.459 728.535 552.136C727.64 554.421 729.011 558.439 726.231 559.544C723.222 561.886 717.985 558.554 719.641 554.897Z"></path>
<path fill="#C0D5ED" d="M208.386 561.563C209.472 559.144 208.939 554.65 212.538 554.497C217.146 553.012 217.432 558.535 218.327 561.544C215.052 562.534 211.662 562.629 208.386 561.563Z"></path>
<path fill="#FBD791" d="M216.213 578.95C217.355 576.284 218.479 573.598 219.603 570.97C221.202 573.351 222.688 575.903 224.592 578.112C227.487 579.064 230.591 579.312 233.6 579.864C231.677 582.111 229.772 584.358 227.868 586.644C228.344 589.386 228.858 592.147 229.372 594.928C224.345 592.414 218.993 592.795 214.442 596.07C214.518 593.595 214.594 591.119 214.67 588.662C212.366 586.225 210.157 583.73 208.043 581.159C210.766 580.397 213.49 579.654 216.213 578.95Z"></path>
<path fill="#D0CAE7" d="M369.193 627.131C372.716 614.81 375.878 600.984 386.695 592.833C387.609 592.871 389.418 592.928 390.332 592.966C386.619 601.936 385.381 611.61 382.715 620.904C376.944 642.214 369.498 663.353 358.053 682.321C348.283 666.495 339.713 649.717 334.933 631.664C341.77 635.853 348.397 642.823 357.138 641.567C364.356 640.862 367.403 633.149 369.193 627.131Z"></path>
<path fill="#D0CAE7" d="M461.824 718.752C466.28 719.018 470.717 719.266 475.173 719.514C477.173 728.674 479.649 737.739 483.134 746.461C476.525 749.927 470.108 753.812 464.642 758.954C460.338 763.182 453.749 762.515 448.245 763.505C453.254 758.725 457.824 753.26 460.338 746.747C464.014 737.853 462.814 728.045 461.824 718.752Z"></path>
<path fill="#BBDCE5" d="M491.132 632.749C511.529 616.923 538.628 611.343 563.995 614.048C576.05 615.686 588.333 619.494 597.684 627.588C609.053 637.224 616.956 651.907 615.338 667.142C611.643 654.002 605.987 640.9 595.341 631.892C580.392 618.656 558.986 615.914 539.866 618.79C519.108 621.342 499.493 632.997 488.028 650.631C476.926 667.066 472.736 687.272 473.403 706.887C460.338 706.754 447.75 702.412 434.667 702.679C435.448 700.622 436.229 698.584 437.028 696.566C444.322 695.537 455.692 699.194 458.51 689.843C466.451 669.466 473.422 647.032 491.132 632.749Z"></path>
<path fill="#D0CBE8" d="M463.061 614.01C462.794 625.436 458.967 636.31 455.805 647.165C450.587 664 444.265 680.493 437.028 696.566C433.543 696.394 430.058 696.28 426.592 696.166C436.133 676.284 446.15 656.592 454.358 636.101C457.329 628.769 459.69 621.17 463.061 614.01Z"></path>
<path fill="#D0CBE8" d="M336.381 669.733C341.484 677.826 346.131 686.225 351.273 694.318C345.617 702.088 339.961 709.896 333.219 716.771C324.935 725.741 314.709 732.883 307.643 742.976C303.72 741.529 299.835 740.005 295.988 738.462L296.103 738.367C311.947 728.674 325.602 715.095 333.81 698.318C337.885 689.386 337.066 679.236 336.381 669.733Z"></path>
<path fill="#F8D381" d="M500.578 706.088C498.236 678.15 515.832 648.022 543.846 640.805C548.074 640.195 554.682 638.577 556.929 643.528C558.853 646.061 556.282 649.07 555.977 651.793C544.113 653.678 532.629 659.144 525.354 668.971C516.004 680.321 514.042 695.271 512.252 709.344C508.158 711.172 501.34 712.067 500.578 706.088Z"></path>
<path fill="#F8D589" d="M567.289 640.767C571.155 638.843 576.735 640.595 576.906 645.49C578.297 651.717 568.984 655.278 565.651 650.155C562.662 647.527 564.318 642.557 567.289 640.767Z"></path>
<path fill="#D0CAE5" d="M738.381 675.998C744.741 699.003 727.183 724.446 703.663 727.15C693.665 725.132 683.648 722.713 673.364 723.094C669.022 717.895 663.595 711.877 664.49 704.64C666.661 696.508 669.08 688.415 671.841 680.454C674.126 690.091 676.888 701.574 686.6 706.392C699.36 712.315 715.966 710.373 726.288 700.508C733.163 694.109 736.514 684.987 738.381 675.998Z"></path>
<path fill="#8CC6D9" d="M426.154 696.147L426.592 696.166C430.058 696.28 433.543 696.394 437.028 696.566C436.228 698.584 435.447 700.622 434.666 702.679C430.458 703.383 426.23 704.088 422.002 704.774C423.392 701.879 424.782 699.003 426.154 696.147Z"></path>
<path fill="#D0C9E7" d="M383.438 715.8C390.999 706.564 401.644 700.565 412.499 696.032C410.309 700.984 408.329 706.145 404.958 710.449C400.368 715.419 394.408 719.266 391.284 725.455C388.542 730.254 388.599 736.101 386.104 740.995C376.068 755.85 361.385 768.761 343.16 771.732C350.93 763.886 360.033 757.145 365.88 747.623C372.431 737.396 375.725 725.303 383.438 715.8Z"></path>
<path fill="#D2C6DD" d="M654.682 725.132C652.454 720.923 661.253 720.923 658.529 725.094C657.577 725.094 655.635 725.113 654.682 725.132Z"></path>
<path fill="#CFC9E5" d="M251.006 748.403C259.576 742.424 269.746 739.491 279.763 737.015C284.524 746.956 294.408 753.26 305.091 755.107C305.758 760.515 306.158 766.419 309.929 770.723C315.356 777.75 323.964 780.892 332.21 783.273C332.058 784.092 331.753 785.692 331.62 786.51L331.353 786.453C323.526 785.139 315.623 783.387 308.672 779.426C296.979 773.275 289.209 761.868 277.592 755.602C269.403 751.203 260.09 749.679 251.006 748.403Z"></path>
<path fill="#71B6D1" d="M607.415 759.297C608.92 751.222 614.404 743.395 623.374 743.49C620.479 748.613 617.356 753.583 614.214 758.573C612.519 758.763 609.11 759.125 607.415 759.297Z"></path>
<path fill="#69B7D0" d="M345.046 784.168C364.166 781.635 379.896 768.895 391.78 754.421C398.921 764.572 409.472 772.456 421.717 775.046C432.267 777.655 443.237 777.369 453.977 776.493C451.692 789.843 456.548 803.707 466.68 812.696C465.632 813.362 463.557 814.696 462.509 815.362C457.939 812.963 452.492 810.506 451.102 805.021C448.493 799.289 448.912 791.633 443.389 787.691C437.98 783.692 431.239 786.644 425.297 787.291C414.423 789.71 404.234 782.911 393.36 784.035C381.42 785.006 370.717 790.7 359.652 794.776C353.539 797.061 346.931 796.013 340.608 795.518C342.113 791.729 343.579 787.939 345.046 784.168Z"></path>
<path fill="#91D3E5" d="M595.17 771.713C600.845 771.904 606.52 771.751 612.195 771.466C612.748 775.96 613.3 780.435 613.852 784.968C610.5 782.226 607.168 779.483 604.064 776.493C603.702 775.522 602.959 773.599 602.597 772.627C600.102 772.304 597.627 772.056 595.17 771.713Z"></path>
<path fill="#D0CAE6" d="M790.485 770.609C793.284 774.875 796.979 779.064 797.188 784.454C798.483 797.594 789.666 809.401 779.039 816.162C764.566 825.551 746.931 828.445 729.963 828.693C734.952 821.723 738.647 813.953 740.875 805.688C752.625 808.468 765.461 806.183 775.059 798.68C784.334 792.281 788.599 781.331 790.485 770.609Z"></path>
<path fill="#68B8CF" d="M616.499 788.396C619.718 792.509 622.936 796.851 627.583 799.46C633.334 803.06 640.304 803.345 646.874 803.993C638.59 808.049 627.602 812.144 619.222 806.24C613.128 802.107 616.118 794.337 616.499 788.396Z"></path>
<path fill="#D1C9E5" d="M395.855 821.037C400.692 826.674 406.596 831.416 413.87 833.454C388.904 850.041 356.396 854.707 327.715 846.309C341.979 843.014 356.776 841.662 370.431 836.063C379.801 832.711 388.161 827.227 395.855 821.037Z"></path>
<path fill="#CCC2DE" d="M778.069 843.205C785.401 839.377 792.695 835.473 799.284 830.445C803.874 835.435 806.368 842.919 802.883 849.261C798.789 858.154 784.925 859.887 778.983 852.003C777.212 849.508 773.346 844.842 778.069 843.205Z"></path>
<path fill="#7F9BD6" d="M587.723 856.383C598.75 854.707 609.7 852.403 620.117 848.308C632.458 854.098 645.37 858.516 658.662 861.563C573.955 898.223 474.583 902.946 388.066 869.6C399.645 865.448 411.414 861.525 421.945 854.993C447.159 876.284 479.915 889.71 513.223 888.339C536.476 887.825 559.595 879.122 577.021 863.639C580.353 860.935 583.077 856.726 587.723 856.383Z"></path>
</svg>
