<?xml version="1.0" standalone="no"?><!DOCTYPE svg PUBLIC "-//W3C//DTD SVG 1.1//EN" "http://www.w3.org/Graphics/SVG/1.1/DTD/svg11.dtd"><svg height="1024" node-id="1" sillyvg="true" template-height="1024" template-width="1024" version="1.1" viewBox="0 0 1024 1024" width="1024" xmlns="http://www.w3.org/2000/svg" xmlns:xlink="http://www.w3.org/1999/xlink"><defs node-id="52"><clipPath id="master_svg0_30_751" node-id="3"><path d="M 0.00 0.00 L 1024.00 0.00 L 1024.00 1024.00 L 0.00 1024.00 Z" fill="#000000" fill-rule="nonzero" node-id="55" stroke="none" target-height="1024" target-width="1024" target-x="0" target-y="0"></path></clipPath></defs><g node-id="175"><g clip-path="url(#master_svg0_30_751)" group-id="1" id="sillyvg_g_1" node-id="61"><path d="M 131.06 494.38 C 128.32 479.04 126.98 432.56 106.47 402.01 C 96.13 386.61 88.36 369.93 81.92 352.60 C 79.96 347.30 78.10 341.97 77.03 336.40 C 76.89 335.66 76.64 334.94 76.54 334.20 C 76.26 332.11 76.96 330.51 78.97 329.61 C 109.03 316.29 111.43 269.66 79.70 259.93 C 73.90 258.15 72.13 259.45 79.51 240.19 C 84.06 228.31 81.83 230.97 92.91 225.91 C 120.48 213.34 152.96 211.94 177.07 219.63 C 231.16 236.89 259.42 296.72 273.03 351.67 C 276.07 363.92 279.74 375.97 284.74 387.57 C 289.57 398.75 278.81 401.13 274.54 426.94 C 273.33 434.31 271.88 441.59 272.67 449.29 C 274.66 468.71 278.76 487.67 297.65 509.01 C 325.40 540.34 362.51 553.21 403.47 558.65 C 412.48 559.85 421.48 559.63 430.48 560.19 C 430.63 560.20 431.84 560.63 431.03 559.65 C 429.11 557.34 431.36 557.28 432.56 556.91 C 482.41 541.61 509.60 491.96 468.16 466.46 C 465.63 464.90 461.94 464.14 461.94 462.67 C 461.94 461.79 464.54 461.86 465.24 461.58 C 466.99 460.88 468.74 460.20 470.51 459.58 C 507.09 446.84 528.99 406.73 496.61 386.64 C 488.27 381.46 478.80 381.13 476.49 380.35 C 475.87 380.14 475.21 378.71 476.38 378.13 C 482.32 375.20 510.16 369.21 524.77 344.58 C 536.25 325.22 532.07 306.14 532.04 303.71 C 532.02 301.49 532.76 300.57 535.08 300.59 C 563.42 300.75 600.69 307.80 623.67 312.74 C 651.16 318.65 652.21 318.78 677.17 319.57 C 688.40 319.92 692.58 316.22 693.18 320.77 C 702.24 389.01 653.20 462.74 554.82 483.42 C 552.79 483.84 550.75 484.19 548.73 484.63 C 544.06 485.66 552.36 488.36 552.72 501.86 C 552.94 510.50 549.28 517.60 543.57 523.66 C 523.55 544.90 489.60 554.29 460.79 558.24 C 458.99 558.49 459.65 558.14 456.52 558.59 C 464.39 560.87 481.15 570.35 532.95 579.74 C 561.05 584.22 564.86 583.62 565.38 584.87 C 565.98 586.32 564.57 587.22 563.65 588.12 C 413.98 734.67 163.68 676.99 131.06 494.38 Z" fill="#ffffff" fill-rule="nonzero" group-id="1,2" node-id="65" stroke="none" target-height="522.73035" target-width="630.11194" target-x="72.12787" target-y="211.93619"></path><path d="M 678.99 402.70 C 669.97 401.91 698.25 378.82 692.83 321.27 C 692.65 319.33 691.63 318.26 689.91 318.69 C 684.72 319.99 679.42 319.01 674.18 319.78 C 669.96 320.40 665.48 320.09 661.25 319.38 C 651.17 317.68 652.14 319.42 633.42 315.30 C 630.16 314.58 629.47 313.14 630.69 309.92 C 652.01 253.59 783.30 145.06 841.53 132.60 C 846.43 131.55 851.29 131.98 856.13 132.41 C 860.27 132.77 863.28 136.01 864.03 140.13 C 868.59 165.45 816.68 216.14 816.63 218.83 C 817.47 218.79 874.44 196.86 897.69 207.83 C 909.83 213.55 907.82 225.74 900.33 237.25 C 890.26 252.71 874.00 265.47 858.42 276.15 C 816.30 305.02 777.75 314.70 777.67 315.79 C 777.52 317.89 821.77 310.57 840.07 325.41 C 846.96 331.01 845.18 341.24 839.75 348.22 C 828.71 362.40 803.88 374.56 787.19 381.22 C 758.65 392.60 726.36 400.13 699.24 402.56 C 695.12 402.93 689.35 403.60 678.99 402.70 Z M 396.75 315.19 C 378.21 320.53 360.58 327.83 344.27 337.80 C 343.55 338.25 342.82 338.66 342.09 339.16 C 337.17 342.23 332.39 345.53 327.77 349.04 C 299.95 370.38 290.89 388.33 288.71 390.91 C 287.58 392.22 285.77 392.04 285.04 390.41 C 272.45 361.77 273.90 347.63 258.85 309.43 C 250.88 289.18 239.82 269.42 225.41 253.29 C 224.94 252.69 224.44 252.12 223.91 251.57 C 209.46 235.80 191.83 223.70 170.94 218.21 C 127.94 206.93 95.81 226.64 88.10 228.09 C 86.61 228.37 85.47 226.96 86.11 225.65 C 99.75 197.09 132.92 170.45 176.38 162.84 C 221.70 154.91 266.47 170.63 308.79 190.39 C 358.46 213.59 417.82 252.42 458.56 285.37 C 492.27 312.60 477.54 291.80 396.75 315.19 Z M 662.38 427.52 C 639.09 514.71 572.98 585.90 565.73 584.04 C 565.64 583.95 526.35 581.32 494.26 571.44 C 471.70 564.69 457.92 559.43 457.01 558.66 C 462.00 558.66 491.09 554.68 517.38 541.72 C 531.58 534.71 546.31 524.14 551.32 509.05 C 554.44 499.94 549.87 492.96 547.28 487.66 C 543.66 480.31 565.09 486.84 608.28 464.23 C 625.36 455.30 636.64 446.69 644.35 439.85 C 644.48 439.76 644.57 439.67 644.71 439.53 C 654.86 430.38 658.58 424.35 660.93 424.72 C 661.16 424.72 661.34 424.80 661.57 424.94 C 662.43 425.53 662.43 426.48 662.38 427.52 Z M 655.16 375.69 C 649.75 387.12 641.92 397.40 632.86 406.29 C 623.81 415.25 613.44 422.75 602.47 429.06 C 591.43 435.26 579.77 440.27 567.70 443.83 C 555.65 447.43 543.23 449.73 530.73 450.21 C 528.98 450.28 527.46 449.03 527.19 447.30 C 526.93 445.57 528.00 443.92 529.69 443.46 C 552.94 437.06 575.27 428.86 595.78 417.23 C 616.32 405.72 634.75 390.92 649.72 372.29 C 650.74 371.00 652.56 370.69 653.95 371.56 C 655.35 372.43 655.86 374.20 655.16 375.69 Z M 597.35 354.42 C 594.20 360.27 590.01 365.46 585.34 370.13 C 580.68 374.84 575.42 378.91 569.88 382.53 C 564.28 386.03 558.39 389.09 552.19 391.36 C 546.03 393.67 539.61 395.35 533.01 395.90 C 531.39 396.03 529.89 395.02 529.40 393.47 C 528.90 391.92 529.54 390.24 530.94 389.41 L 530.98 389.39 C 536.43 386.19 541.81 383.31 547.09 380.33 C 552.34 377.30 557.55 374.31 562.60 371.06 C 567.71 367.91 572.65 364.50 577.60 361.04 L 592.51 350.21 C 593.75 349.29 595.46 349.36 596.62 350.37 C 597.78 351.38 598.08 353.06 597.35 354.42 Z M 390.45 649.44 L 390.52 649.48 C 392.28 650.47 392.91 652.71 391.91 654.47 C 389.30 659.12 361.94 659.25 348.22 643.38 C 346.22 641.06 348.03 637.46 351.08 637.67 C 351.58 637.77 375.28 640.92 390.45 649.44 Z M 341.38 576.04 C 347.77 580.38 350.54 583.43 350.09 582.98 C 352.45 585.31 350.71 589.34 347.39 589.23 C 340.06 588.96 331.91 585.90 325.52 582.12 C 319.00 578.23 312.35 572.49 308.89 565.81 C 307.47 563.07 310.13 559.97 313.06 560.98 C 313.57 561.24 327.70 566.50 341.38 576.04 Z M 321.40 613.07 C 323.67 615.51 321.71 619.46 318.39 619.15 C 307.28 618.08 295.46 609.99 287.91 601.52 C 285.30 598.66 282.92 595.62 280.97 592.08 C 280.04 590.43 280.64 588.33 282.29 587.41 C 289.78 583.24 323.78 615.13 321.40 613.07 Z M 155.51 454.10 C 165.56 468.10 169.53 494.38 168.79 490.90 C 169.21 494.92 163.97 499.23 155.72 486.01 C 148.38 474.53 145.17 451.03 153.35 452.68 C 154.21 452.85 154.97 453.35 155.49 454.06 L 155.51 454.10 Z M 204.16 474.36 C 206.59 480.95 207.01 484.83 206.93 484.37 C 207.45 487.59 203.81 489.84 201.15 487.95 C 193.21 482.30 186.76 470.89 184.52 460.94 C 180.76 445.08 187.45 445.71 189.53 448.02 C 189.82 448.47 198.31 457.83 204.16 474.36 Z M 412.38 609.48 C 418.48 611.58 421.46 613.61 421.01 613.34 C 423.76 614.98 423.29 619.07 420.29 620.09 C 408.68 624.02 390.89 619.45 383.29 609.95 C 381.42 607.61 383.16 604.20 386.08 604.25 C 386.57 604.33 399.19 604.73 412.38 609.48 Z M 280.12 627.40 C 285.67 632.03 287.98 635.25 287.61 634.79 C 289.67 637.37 287.57 641.11 284.33 640.76 C 277.43 640.00 269.99 636.50 264.30 632.33 C 261.34 630.16 258.57 627.66 256.20 624.77 C 246.49 613.21 251.39 609.01 255.18 610.78 C 262.32 614.11 274.19 622.31 280.12 627.40 Z M 202.84 563.59 C 206.85 569.80 208.10 573.27 207.90 572.82 C 209.18 575.84 206.13 578.88 203.11 577.64 C 190.46 572.40 178.51 556.14 178.75 542.21 C 178.80 539.14 182.53 537.69 184.66 539.85 C 185.03 540.30 195.18 551.40 202.84 563.59 Z M 236.44 439.83 C 252.56 463.95 247.15 479.22 233.68 461.64 C 228.04 454.46 223.64 443.42 224.64 434.50 C 224.97 431.52 228.61 430.32 230.66 432.42 C 230.66 432.42 234.66 437.07 236.44 439.83 Z M 240.22 555.36 L 240.25 555.46 C 240.84 557.43 239.71 559.51 237.74 560.10 C 228.66 562.79 204.91 527.11 215.82 525.19 C 218.64 524.70 236.02 541.22 240.22 555.36 Z M 276.18 521.86 C 279.33 527.15 280.17 530.48 280.03 530.03 C 280.99 533.05 278.03 535.81 275.11 534.72 C 263.99 530.59 253.69 516.41 254.60 504.57 C 254.82 501.63 258.31 500.27 260.47 502.19 C 260.89 502.67 270.10 511.33 276.18 521.86 Z" fill="#ff8ede" fill-rule="nonzero" group-id="1,3" node-id="70" stroke="none" target-height="527.7036" target-width="824.35815" target-x="85.47404" target-y="131.55014"></path><path d="M 70.94 331.05 C 53.08 327.16 28.76 315.60 12.46 301.81 C 5.53 295.95 1.41 290.78 7.69 284.18 C 20.30 270.94 50.51 261.44 67.12 259.33 C 77.06 258.06 86.29 259.68 93.53 267.35 C 99.27 273.45 102.33 280.80 103.03 289.13 C 105.19 315.04 82.90 333.66 70.94 331.05 Z" fill="#fd8a02" fill-rule="nonzero" group-id="1,4" node-id="75" stroke="none" target-height="75.59601" target-width="103.78621" target-x="1.4079965" target-y="258.06018"></path><path d="M 521.41 351.08 C 501.70 376.09 475.60 376.36 476.64 379.40 C 476.95 380.30 489.15 379.72 500.97 388.96 C 518.96 403.10 514.79 426.98 498.80 442.79 C 493.23 448.31 486.78 452.86 479.72 456.25 C 474.23 458.93 468.39 460.56 462.77 462.87 C 464.76 464.37 469.61 466.04 474.64 469.71 L 474.69 469.71 C 478.72 472.70 482.75 476.83 485.61 483.13 C 489.51 491.74 489.46 501.61 486.92 510.63 C 483.93 520.97 477.77 530.30 470.02 537.73 C 460.96 546.43 449.67 552.64 437.62 556.04 C 432.29 557.52 426.82 558.49 421.31 558.94 C 415.51 559.39 408.93 559.85 403.18 558.71 C 380.48 556.36 358.18 550.74 337.75 540.41 C 268.14 505.15 256.50 440.04 290.48 387.15 C 311.46 354.43 349.94 326.43 402.91 313.06 C 458.33 299.10 490.19 301.05 501.47 300.19 C 507.13 299.74 525.26 300.10 528.52 300.33 C 531.51 300.51 531.79 300.91 532.46 304.04 C 532.65 304.77 532.87 305.54 532.92 306.26 C 534.23 322.53 531.74 337.93 521.41 351.08 Z M 196.06 340.29 C 197.00 358.70 166.31 369.37 150.69 353.03 C 144.92 347.00 144.47 336.41 150.89 329.53 C 165.62 313.74 195.10 321.41 196.06 340.29 Z M 809.85 184.23 L 777.22 213.08 C 766.48 222.76 755.76 232.42 745.33 242.38 C 734.78 252.21 724.50 262.33 714.26 272.49 C 704.06 282.71 694.05 293.08 683.95 303.55 L 683.91 303.58 C 682.31 305.23 679.74 305.45 677.89 304.08 C 676.04 302.71 675.49 300.18 676.61 298.17 C 683.90 285.07 692.75 272.99 702.28 261.57 C 711.78 250.09 722.13 239.39 732.92 229.17 C 743.83 219.08 755.18 209.46 767.21 200.71 C 779.19 191.92 791.72 183.83 805.06 177.15 C 807.19 176.08 809.78 176.94 810.85 179.07 C 811.72 180.82 811.31 182.94 809.85 184.23 Z M 838.86 241.21 C 830.35 249.83 821.11 257.57 811.54 264.85 C 802.00 272.18 792.01 278.88 781.85 285.30 C 771.59 291.57 761.15 297.54 750.35 302.83 C 739.58 308.18 728.54 313.02 717.04 316.81 C 714.89 317.52 712.54 316.56 711.50 314.55 C 710.46 312.54 711.04 310.07 712.86 308.73 C 722.51 301.59 732.42 295.11 742.36 288.72 C 752.28 282.29 762.33 276.13 772.33 269.89 C 782.42 263.79 792.44 257.59 802.66 251.64 C 812.85 245.64 823.11 239.71 833.83 234.30 C 835.96 233.22 838.57 234.08 839.65 236.21 C 840.51 237.91 840.13 239.92 838.86 241.21 Z M 800.89 343.55 C 795.25 348.88 788.77 353.10 781.96 356.62 C 775.16 360.14 768.02 362.99 760.65 365.10 C 753.31 367.24 745.76 368.61 738.16 369.30 C 730.57 369.99 722.90 369.97 715.29 368.65 C 713.19 368.29 711.59 366.55 711.41 364.43 C 711.23 362.30 712.51 360.32 714.52 359.60 L 714.57 359.59 C 721.58 357.11 728.47 355.22 735.32 353.34 L 755.69 347.67 L 775.97 341.87 C 782.76 339.88 789.56 337.81 796.76 336.06 L 796.81 336.05 C 798.76 335.58 800.78 336.47 801.73 338.23 C 802.69 339.99 802.34 342.17 800.89 343.55 Z" fill="#fc09b2" fill-rule="nonzero" group-id="1,5" node-id="80" stroke="none" target-height="383.7613" target-width="696.0377" target-x="144.46992" target-y="176.08461"></path><path d="M 372.05 466.75 C 381.50 467.66 391.01 470.48 399.58 475.98 C 403.88 478.71 407.88 482.22 411.12 486.84 C 414.29 491.38 416.63 497.56 415.84 504.16 C 415.41 507.37 414.30 510.45 412.60 513.20 C 410.91 515.80 408.91 518.11 406.68 519.86 C 402.22 523.43 397.39 525.59 392.56 527.05 C 382.95 529.91 373.18 530.59 363.62 528.99 C 361.95 528.70 360.74 527.25 360.76 525.56 C 360.77 523.87 362.01 522.44 363.68 522.18 L 363.78 522.17 C 372.38 520.91 380.89 518.80 388.43 515.60 C 395.88 512.50 402.07 507.47 402.35 502.48 C 403.23 497.46 398.77 490.62 392.57 485.64 C 386.35 480.50 378.63 476.54 370.50 472.98 L 370.44 472.95 C 368.97 472.31 368.19 470.70 368.60 469.16 C 369.00 467.62 370.46 466.60 372.05 466.75 Z" fill="#ff8ede" fill-rule="nonzero" group-id="1,6" node-id="85" stroke="none" target-height="63.99066" target-width="55.889557" target-x="360.74246" target-y="466.59546"></path><path d="M 375.07 401.26 C 384.93 401.75 394.97 403.80 404.40 409.18 C 409.09 411.85 413.56 415.72 416.80 420.93 C 420.02 426.19 421.29 432.59 420.75 438.60 C 420.16 444.71 417.54 450.54 413.92 455.02 C 410.40 459.28 406.09 462.84 401.24 465.51 C 391.99 470.68 381.91 473.25 371.72 473.25 C 370.02 473.24 368.58 472.00 368.33 470.32 C 368.07 468.64 369.09 467.02 370.71 466.52 L 370.84 466.48 C 379.49 463.83 387.85 460.12 394.77 455.21 C 401.66 450.29 406.75 444.03 407.22 437.29 C 408.08 430.32 404.61 424.17 397.87 419.18 C 391.20 414.24 382.62 410.76 373.87 407.56 L 373.80 407.54 C 372.29 406.99 371.40 405.42 371.72 403.85 C 372.04 402.27 373.47 401.17 375.07 401.26 Z" fill="#ff8ede" fill-rule="nonzero" group-id="1,7" node-id="90" stroke="none" target-height="72.086945" target-width="53.212585" target-x="368.07358" target-y="401.16727"></path><path d="M 418.74 357.77 C 419.05 363.73 417.75 369.70 415.52 375.24 C 413.33 380.81 410.10 385.96 406.20 390.50 C 402.28 395.02 397.64 398.96 392.44 401.94 C 387.27 404.94 381.54 407.08 375.59 407.63 C 374.01 407.78 372.52 406.84 371.97 405.35 C 371.42 403.85 371.94 402.17 373.25 401.26 L 373.35 401.19 C 377.69 398.15 381.71 395.19 385.48 391.96 C 389.20 388.73 392.69 385.26 395.94 381.57 C 399.19 377.89 402.13 373.96 404.88 369.82 C 407.59 365.65 410.01 361.27 412.45 356.53 L 412.50 356.43 C 413.18 355.10 414.67 354.39 416.13 354.71 C 417.59 355.02 418.66 356.28 418.74 357.77 Z" fill="#ff8ede" fill-rule="nonzero" group-id="1,8" node-id="95" stroke="none" target-height="53.386932" target-width="47.631104" target-x="371.41718" target-y="354.39337"></path><path d="M 256.99 194.45 C 300.39 209.46 340.01 236.34 360.27 259.07 C 369.65 269.60 362.09 281.53 347.07 269.35 C 283.27 217.62 238.23 201.06 165.98 194.84 C 159.37 194.27 157.77 190.66 160.67 188.50 C 167.28 183.60 185.81 182.18 194.68 182.82 C 195.81 182.90 221.81 182.28 256.99 194.45 Z M 376.36 345.80 C 389.08 334.90 407.85 331.57 424.02 328.84 C 482.64 318.95 515.82 329.01 504.07 335.66 C 499.20 338.42 493.90 336.08 481.72 336.58 C 413.79 339.37 389.46 348.52 379.33 350.90 C 376.17 351.65 373.39 348.35 376.36 345.80 Z M 37.03 287.89 C 34.53 287.63 32.82 286.28 32.11 283.90 C 30.37 278.10 36.39 275.21 42.15 273.32 C 48.13 271.36 68.17 265.21 74.41 266.12 C 78.04 266.65 79.36 269.86 77.23 272.78 C 75.89 274.62 74.21 276.19 72.17 277.20 C 63.40 281.53 54.39 285.25 44.88 287.66 C 42.28 288.32 37.31 287.92 37.03 287.89 Z" fill="#ffffff" fill-opacity="0.5" fill-rule="nonzero" group-id="1,9,21" node-id="102" stroke="none" target-height="169.46844" target-width="485.4517" target-x="30.37199" target-y="182.18192"></path><path d="M 662.38 427.52 C 639.09 514.71 572.98 585.90 565.73 584.04 C 565.64 583.95 526.35 581.32 494.26 571.44 C 471.70 564.69 457.92 559.43 457.01 558.66 C 462.00 558.66 491.09 554.68 517.38 541.72 C 531.06 534.97 545.15 525.09 550.86 510.27 C 551.00 509.86 551.18 509.45 551.32 509.05 C 554.44 499.94 549.87 492.96 547.28 487.66 C 543.66 480.31 565.09 486.84 608.28 464.23 C 625.36 455.30 636.64 446.69 644.35 439.85 C 644.48 439.76 644.57 439.67 644.71 439.53 C 654.86 430.38 658.58 424.35 660.93 424.72 C 661.16 424.72 661.34 424.80 661.57 424.94 C 662.43 425.53 662.43 426.48 662.38 427.52 Z M 342.10 339.16 C 337.17 342.23 332.39 345.52 327.78 349.04 C 299.95 370.38 290.89 388.33 288.72 390.91 C 287.58 392.22 285.77 392.04 285.05 390.41 C 272.45 361.77 273.90 347.63 258.85 309.43 C 250.88 289.18 239.82 269.42 225.41 253.29 C 271.09 266.16 309.38 304.40 342.10 339.16 Z M 693.44 340.09 C 693.53 337.46 693.75 334.82 693.66 332.20 C 693.56 329.13 694.78 327.32 697.72 326.28 C 731.28 314.49 786.49 304.39 823.74 273.47 C 840.63 259.46 857.00 237.85 859.37 215.85 C 860.41 206.17 861.36 205.68 870.04 205.23 C 874.90 204.98 886.75 203.05 897.73 207.88 C 909.97 213.27 907.71 225.90 900.31 237.27 C 890.27 252.70 874.00 265.47 858.42 276.15 C 814.28 306.40 777.33 314.32 777.65 316.14 C 777.82 317.09 824.93 311.29 840.45 325.69 C 846.87 331.66 845.02 341.47 839.82 348.13 C 811.08 384.99 706.54 406.39 679.76 402.85 C 671.79 401.79 684.46 393.91 691.38 360.24 C 692.73 353.63 693.60 346.89 693.44 340.09 Z" fill="#fc09b2" fill-opacity="0.5" fill-rule="nonzero" group-id="1,10,22" node-id="110" stroke="none" target-height="382.84802" target-width="684.562" target-x="225.41006" target-y="203.05005"></path><path d="M 131.09 494.64 C 129.42 485.38 128.83 475.99 127.54 466.68 C 118.73 403.08 91.55 388.52 101.16 388.03 C 152.88 385.40 163.07 466.39 182.69 501.35 C 257.81 635.12 320.28 642.09 470.73 647.97 C 314.89 715.75 155.51 629.65 131.09 494.64 Z M 611.69 463.20 C 591.12 474.41 572.73 479.50 551.19 484.21 C 546.82 485.17 546.89 485.12 548.98 488.77 C 552.92 495.67 554.24 503.64 551.62 511.25 C 548.90 519.15 542.86 525.53 536.42 530.62 C 528.26 537.04 518.89 541.88 509.32 545.81 C 476.49 559.27 439.16 560.78 431.36 559.54 C 429.94 559.31 430.43 557.74 431.04 557.49 C 435.09 555.86 446.56 553.09 458.63 544.84 C 474.57 533.94 488.27 517.71 488.38 498.83 C 488.44 486.94 481.24 475.91 475.09 471.36 C 474.71 471.08 474.38 470.33 474.49 469.92 C 475.42 466.41 616.14 464.91 682.97 349.10 C 691.42 334.46 691.04 332.25 692.90 332.50 C 694.14 332.67 694.05 333.84 694.04 334.73 C 693.27 392.58 662.13 435.72 611.69 463.20 Z" fill="#000e3f" fill-opacity="0.2" fill-rule="nonzero" group-id="1,11,23" node-id="118" stroke="none" target-height="383.49786" target-width="602.5943" target-x="91.546104" target-y="332.25006"></path><path d="M 486.92 510.63 C 483.93 520.96 477.77 530.30 470.02 537.73 C 460.96 546.43 449.68 552.64 437.62 556.04 C 432.29 557.52 426.83 558.49 421.31 558.94 C 415.51 559.39 408.94 559.84 403.18 558.71 C 380.48 556.36 358.18 550.74 337.75 540.41 C 268.14 505.15 256.50 440.03 290.48 387.15 C 292.93 390.77 296.87 396.89 304.22 405.36 C 339.97 446.83 397.11 470.94 451.63 468.90 C 459.87 468.58 467.85 468.31 474.65 469.71 L 474.69 469.71 C 478.72 472.70 482.76 476.83 485.61 483.13 C 489.51 491.73 489.46 501.61 486.92 510.63 Z" fill="#000e3f" fill-opacity="0.25" fill-rule="nonzero" group-id="1,12" node-id="124" stroke="none" target-height="172.69397" target-width="233.0097" target-x="256.498" target-y="387.1499"></path><path d="M 909.27 212.63 C 906.38 206.99 900.38 203.02 891.93 201.15 C 872.45 196.82 850.09 202.77 830.19 209.56 C 847.33 189.98 873.72 156.20 868.54 139.06 C 867.03 134.04 863.84 130.33 859.30 128.33 C 847.43 123.11 829.26 130.35 813.06 138.14 L 811.92 138.68 C 789.44 149.42 766.52 163.91 739.79 184.30 C 712.26 205.30 687.89 227.54 667.35 250.42 C 648.53 271.37 635.42 289.85 626.24 308.24 C 625.64 308.11 625.03 307.98 624.43 307.85 C 599.46 302.41 568.37 295.64 513.06 295.00 C 501.92 294.88 490.79 295.15 479.68 295.82 C 469.53 288.52 459.44 280.83 449.67 273.37 C 434.45 261.72 418.71 249.68 402.29 238.87 C 362.28 212.49 313.94 183.17 258.77 165.69 C 204.75 148.57 131.89 151.57 89.42 211.33 C 80.44 223.96 75.05 237.74 69.91 254.32 C 64.28 254.70 58.98 256.00 54.60 257.09 C 35.90 261.75 22.50 267.43 11.16 275.51 C 5.56 279.50 -0.15 284.49 0.00 291.19 C 0.17 298.60 7.45 304.30 15.30 309.36 C 15.38 309.41 15.46 309.46 15.55 309.51 C 28.53 318.17 49.12 329.22 62.00 333.98 C 65.16 335.16 68.36 335.73 71.53 335.77 C 72.63 338.39 73.51 341.17 74.33 344.13 C 74.99 346.51 75.66 348.89 76.48 351.21 C 83.02 369.68 91.63 387.16 102.81 404.63 C 111.89 418.81 117.79 435.62 121.38 457.53 C 122.40 463.77 123.18 470.22 123.93 476.45 C 125.42 488.72 126.95 501.41 130.43 513.76 C 136.61 535.59 146.89 556.40 161.88 577.37 C 182.47 606.18 208.35 629.34 238.80 646.21 C 252.26 653.67 266.50 659.74 281.33 664.47 C 293.80 691.65 296.75 708.38 280.67 728.43 C 266.27 746.38 249.17 761.93 230.73 776.10 C 227.77 775.17 224.77 774.42 221.73 773.84 C 190.50 768.01 155.21 776.74 127.36 797.17 C 125.07 798.78 124.55 801.95 126.21 804.20 C 127.86 806.45 131.04 806.91 133.26 805.21 C 158.93 786.37 191.32 778.31 219.91 783.64 C 220.09 783.68 220.26 783.73 220.44 783.76 C 200.84 797.97 180.06 810.89 159.60 823.58 L 157.92 824.62 C 156.02 825.80 155.13 828.09 155.74 830.23 C 156.36 832.38 158.32 833.85 160.55 833.84 C 161.45 833.84 162.36 833.60 163.18 833.09 L 164.85 832.05 C 187.66 817.90 210.85 803.49 232.50 787.28 C 251.86 795.03 263.20 811.47 265.46 835.55 C 265.72 838.29 268.15 840.31 270.89 840.05 C 273.63 839.79 275.64 837.36 275.38 834.62 C 272.97 808.97 261.11 790.32 241.44 780.39 C 258.66 766.77 274.69 751.82 288.46 734.66 C 307.22 711.26 303.22 690.31 293.87 668.13 C 300.73 669.92 307.66 671.41 314.64 672.61 C 329.68 675.16 344.90 676.44 360.15 676.42 C 367.18 676.42 374.24 676.16 381.32 675.63 C 402.67 674.03 424.29 669.69 445.85 662.74 C 447.01 664.87 448.17 667.01 449.31 669.10 C 458.05 685.05 466.32 700.12 470.23 718.47 C 472.32 728.27 471.08 737.02 466.21 746.82 C 456.73 765.90 439.06 787.15 418.39 807.32 C 417.88 807.21 417.39 807.06 416.87 806.96 C 384.86 800.63 347.01 812.64 315.57 839.08 C 313.46 840.85 313.19 843.99 314.96 846.10 C 316.73 848.21 319.88 848.48 321.98 846.71 C 349.30 823.74 381.54 812.45 409.39 815.86 C 390.99 832.88 370.94 848.78 352.51 861.47 C 350.24 863.03 349.67 866.14 351.23 868.40 C 352.79 870.67 355.90 871.24 358.16 869.68 C 377.71 856.22 400.52 838.20 421.33 818.42 C 443.39 825.38 457.33 844.26 456.56 867.20 C 456.46 869.96 458.62 872.26 461.37 872.35 L 461.54 872.36 C 464.23 872.35 466.43 870.22 466.52 867.54 C 467.39 841.67 452.81 820.12 429.27 810.66 C 448.59 791.35 465.45 770.75 475.14 751.26 C 480.99 739.46 482.53 728.38 479.98 716.38 C 475.76 696.61 467.16 680.91 458.05 664.30 C 457.18 662.71 456.29 661.07 455.41 659.45 C 459.75 657.90 464.05 656.26 468.32 654.53 C 496.08 643.18 521.87 628.17 544.98 609.92 C 587.42 576.40 620.45 536.05 643.15 489.99 C 653.15 469.69 661.29 448.39 668.03 424.89 C 668.27 424.06 668.21 423.24 668.04 422.45 C 671.70 417.78 675.10 412.90 678.21 407.84 C 680.22 407.93 682.23 408.03 684.37 408.03 C 741.75 408.03 842.98 374.38 849.47 338.79 C 850.33 334.09 849.23 329.54 846.29 325.63 C 840.05 317.34 826.79 313.27 816.46 312.22 C 811.79 311.75 807.10 311.37 802.41 311.08 C 823.27 302.98 841.49 293.89 864.41 277.58 C 879.55 266.81 900.62 250.26 908.82 231.06 C 911.81 224.08 911.96 217.87 909.27 212.63 Z M 512.94 304.97 C 567.24 305.60 597.77 312.25 622.31 317.60 C 623.80 317.92 625.22 318.22 626.67 318.54 C 626.71 318.56 626.73 318.60 626.77 318.61 C 627.43 318.93 628.16 319.09 628.89 319.09 C 628.96 319.09 629.02 319.06 629.09 319.06 C 648.17 323.14 664.60 325.99 687.46 323.92 C 688.03 323.87 688.45 323.87 688.74 323.88 C 688.79 324.26 688.84 324.90 688.82 325.94 L 688.71 331.50 C 688.43 349.61 688.15 368.33 674.98 393.47 C 641.42 457.54 576.77 472.95 552.43 478.75 C 549.38 479.47 547.03 480.04 545.54 480.51 C 543.41 481.18 541.99 483.18 542.05 485.40 C 541.96 486.50 542.22 487.59 542.82 488.52 C 549.46 498.90 548.89 508.70 541.11 518.49 C 515.91 550.14 426.92 568.06 358.97 543.84 C 300.54 523.01 269.74 479.36 278.59 429.94 C 288.98 371.86 354.32 313.98 477.43 305.92 C 477.76 305.99 478.09 306.07 478.42 306.07 C 479.01 306.07 479.59 305.94 480.15 305.73 C 491.06 305.09 502.00 304.83 512.94 304.97 Z M 45.69 315.57 C 62.18 311.73 74.94 300.75 81.92 293.44 C 83.82 291.45 83.74 288.29 81.75 286.40 C 79.76 284.50 76.60 284.57 74.70 286.56 C 61.40 300.51 45.46 307.96 30.88 306.89 C 30.65 306.87 30.45 306.96 30.22 306.97 C 27.10 305.12 24.02 303.19 20.99 301.18 C 20.89 301.11 20.80 301.05 20.70 300.98 L 20.42 300.80 C 17.08 298.54 14.43 296.54 12.82 295.02 C 12.66 294.86 12.48 294.71 12.29 294.58 C 10.33 292.61 9.98 291.49 9.97 290.96 C 9.95 290.26 10.60 288.16 16.95 283.63 C 27.22 276.31 39.58 271.11 57.01 266.76 C 69.39 263.68 79.53 261.92 88.14 269.56 C 100.81 280.79 99.69 299.53 92.04 312.24 C 86.73 321.05 76.98 328.93 65.48 324.64 C 59.77 322.52 52.76 319.24 45.69 315.57 Z M 634.21 485.59 C 612.17 530.31 580.07 569.51 538.81 602.10 C 516.42 619.78 491.44 634.32 464.55 645.31 C 436.57 656.75 408.31 663.61 380.57 665.69 C 358.79 667.32 337.18 666.34 316.32 662.78 C 290.36 658.34 265.90 649.84 243.63 637.49 C 214.50 621.35 189.72 599.17 170.00 571.57 C 155.69 551.55 145.89 531.75 140.03 511.05 C 136.75 499.44 135.27 487.15 133.84 475.25 C 133.07 468.92 132.28 462.37 131.23 455.91 C 127.41 432.62 121.05 414.62 111.22 399.25 C 100.44 382.43 92.16 365.63 85.88 347.89 C 85.13 345.78 84.54 343.62 83.94 341.47 C 83.26 339.00 82.54 336.48 81.62 333.97 C 88.92 331.28 95.60 325.64 100.58 317.38 C 110.36 301.15 111.50 276.94 94.76 262.09 C 90.15 258.01 85.17 255.87 80.19 254.89 C 84.82 240.29 89.75 228.08 97.55 217.10 C 136.92 161.72 205.09 159.14 255.77 175.20 C 309.77 192.31 357.37 221.19 396.81 247.19 C 412.93 257.82 428.53 269.75 443.62 281.28 C 450.52 286.57 457.47 291.81 464.45 297.00 C 344.05 308.52 279.50 368.23 268.77 428.18 C 259.16 481.90 293.25 530.98 355.63 553.22 C 377.20 560.91 402.35 564.87 428.10 564.87 C 441.40 564.87 454.86 563.81 468.06 561.67 C 505.04 555.66 535.26 541.83 548.91 524.69 C 557.90 513.40 559.68 500.77 554.18 488.57 L 554.74 488.44 C 572.32 484.25 617.17 473.53 653.34 438.70 C 647.86 455.23 641.55 470.69 634.21 485.59 Z M 899.66 227.15 C 892.44 244.04 872.79 259.39 858.64 269.46 C 827.66 291.51 805.40 299.98 772.42 311.30 C 770.10 312.10 768.85 314.45 769.22 316.79 C 769.22 316.84 769.20 316.88 769.21 316.93 C 769.21 316.99 769.25 317.03 769.26 317.09 C 769.30 317.27 769.27 317.45 769.33 317.63 C 769.39 317.82 769.51 317.96 769.59 318.13 C 770.39 320.18 772.44 321.56 774.71 321.34 C 788.50 319.82 802.45 320.83 815.47 322.15 C 823.67 322.98 834.32 326.30 838.32 331.63 C 839.60 333.33 840.03 335.04 839.67 337.01 C 834.81 363.69 743.24 398.81 683.82 398.08 C 698.08 370.84 698.40 350.03 698.69 331.66 L 698.78 326.17 C 698.86 323.06 698.58 319.14 695.70 316.44 C 693.55 314.43 690.56 313.63 686.56 313.99 C 667.19 315.74 652.48 313.67 636.33 310.37 C 645.03 293.55 657.37 276.45 674.77 257.08 C 694.90 234.67 718.81 212.85 745.84 192.23 C 772.01 172.27 794.37 158.11 816.22 147.68 L 817.38 147.13 C 824.47 143.72 846.01 133.37 855.29 137.46 C 857.18 138.29 858.32 139.67 859.01 141.94 C 862.77 154.42 832.59 193.84 809.36 217.51 C 809.18 217.69 809.10 217.93 808.96 218.13 C 808.75 218.42 808.52 218.70 808.37 219.03 C 808.24 219.33 808.20 219.64 808.13 219.96 C 808.07 220.27 807.97 220.56 807.96 220.88 C 807.95 221.25 808.05 221.60 808.12 221.97 C 808.17 222.21 808.14 222.44 808.22 222.68 C 808.23 222.72 808.27 222.75 808.29 222.79 C 808.40 223.09 808.61 223.35 808.79 223.63 C 808.97 223.92 809.12 224.22 809.36 224.46 C 809.39 224.49 809.40 224.54 809.43 224.57 C 809.60 224.74 809.82 224.81 810.01 224.94 C 810.31 225.17 810.60 225.41 810.95 225.56 C 811.23 225.68 811.52 225.71 811.82 225.78 C 812.15 225.86 812.46 225.95 812.80 225.96 C 813.16 225.97 813.50 225.88 813.86 225.81 C 814.10 225.76 814.35 225.79 814.59 225.70 L 820.37 223.62 C 841.89 215.86 868.67 206.21 889.78 210.88 C 895.16 212.08 898.93 214.32 900.41 217.18 C 901.67 219.66 901.43 223.02 899.66 227.15 Z" fill="#000e3f" fill-rule="nonzero" group-id="1,13" node-id="129" stroke="none" target-height="749.248" target-width="912.1119" target-x="-0.1539436" target-y="123.10802"></path><path d="M 144.27 278.82 C 137.45 278.89 129.71 283.46 129.48 293.44 C 129.05 311.44 157.98 312.79 158.25 293.09 C 158.35 285.78 151.80 278.74 144.27 278.82 Z" fill="#000e3f" fill-rule="nonzero" group-id="1,14" node-id="134" stroke="none" target-height="34.05597" target-width="29.297989" target-x="129.05415" target-y="278.73807"></path><path d="M 758.44 685.53 C 756.92 687.15 755.29 688.66 753.55 690.05 C 731.85 707.51 702.70 697.94 685.39 677.30 C 668.08 656.66 669.06 628.59 676.10 604.03 C 679.71 591.55 684.84 579.54 690.73 567.97 C 691.87 565.78 694.79 564.56 697.33 564.85 C 697.74 564.91 698.18 564.99 698.58 565.14 C 714.40 570.74 730.37 579.50 744.72 588.20 C 780.67 609.98 782.90 659.58 758.44 685.53 Z M 871.70 526.99 C 858.08 533.68 839.93 531.08 828.00 515.17 C 812.50 494.50 810.99 462.00 823.87 441.53 C 824.23 440.96 824.59 440.39 824.97 439.85 C 831.12 430.98 877.47 443.27 888.54 484.90 C 893.96 505.22 885.00 520.52 871.70 526.99 Z M 1017.30 543.63 C 998.85 568.66 975.51 587.60 945.02 583.10 C 924.28 580.05 914.22 563.44 915.54 546.48 C 917.80 517.03 952.93 496.28 986.64 513.42 C 997.04 518.74 1024.15 534.22 1017.30 543.63 Z M 927.64 812.05 C 926.83 813.20 925.62 814.09 924.11 814.61 C 908.86 819.70 877.22 821.61 849.24 815.39 C 795.09 803.35 778.11 757.59 791.07 736.07 C 791.54 735.28 792.05 734.56 792.58 733.84 C 811.97 708.57 887.00 694.22 912.42 763.38 C 917.59 777.42 922.73 791.44 928.34 805.30 C 929.35 807.75 929.01 810.22 927.64 812.05 Z" fill="#91d728" fill-rule="nonzero" group-id="1,15" node-id="139" stroke="none" target-height="390.63223" target-width="356.06396" target-x="668.08386" target-y="430.98203"></path><path d="M 669.73 738.08 C 667.92 740.42 665.92 742.60 663.74 744.61 C 630.31 775.81 577.62 741.83 585.36 704.89 C 588.13 691.68 585.69 682.48 585.55 677.20 C 585.45 674.32 586.10 672.62 588.64 672.08 C 616.79 666.24 647.89 661.98 665.75 683.37 C 666.80 684.64 667.79 685.97 668.71 687.35 C 671.77 691.92 674.07 697.96 675.32 704.43 C 677.61 716.26 676.36 729.58 669.73 738.08 Z M 825.81 593.54 C 823.24 597.27 820.14 599.82 816.72 601.37 C 800.11 608.87 775.50 593.18 765.79 576.96 C 753.84 556.99 758.51 531.02 769.15 510.78 C 769.98 509.17 771.13 508.03 772.51 507.36 C 773.97 506.61 775.72 506.38 777.74 506.66 C 778.58 506.76 779.46 506.79 780.26 507.04 C 794.98 512.00 806.80 518.34 815.98 527.88 L 816.01 527.89 C 820.75 532.86 824.76 538.62 828.11 545.54 C 829.53 548.46 830.79 551.46 831.88 554.52 C 836.68 567.95 833.50 582.29 825.81 593.54 Z M 982.82 454.59 C 971.91 479.26 942.84 491.97 919.82 481.14 C 883.98 464.11 879.00 396.46 931.64 370.62 C 948.88 362.15 959.81 354.69 964.83 357.39 C 965.71 357.87 966.41 358.65 966.92 359.76 C 982.24 393.14 997.94 420.38 982.82 454.59 Z M 979.57 687.21 C 978.88 689.42 977.48 691.12 975.10 692.20 C 956.04 700.77 931.28 703.23 904.85 696.58 C 898.20 694.89 878.14 686.24 870.17 678.32 C 858.25 666.47 854.41 653.75 856.40 642.77 C 860.69 619.53 891.30 603.87 927.79 619.77 C 942.60 626.25 955.78 636.53 965.31 649.64 C 969.89 655.95 982.93 676.74 979.57 687.21 Z M 806.98 888.94 C 806.72 889.77 805.96 890.72 805.00 891.41 C 804.07 892.08 802.97 892.54 802.05 892.44 C 732.50 887.02 724.13 840.22 743.70 822.76 C 748.46 818.46 754.97 815.94 762.68 816.25 C 788.13 817.28 802.69 833.50 806.06 849.51 C 809.55 866.03 808.74 883.01 806.98 888.94 Z" fill="#018100" fill-rule="nonzero" group-id="1,16" node-id="144" stroke="none" target-height="537.85205" target-width="420.3122" target-x="577.62396" target-y="354.68613"></path><path d="M 605.76 680.61 C 624.21 672.94 651.74 681.74 659.46 704.32 C 645.30 692.82 638.62 685.94 605.76 680.61 Z M 707.21 589.03 C 725.33 591.23 747.51 609.84 752.38 632.50 C 742.92 622.40 736.87 611.96 707.21 589.03 Z M 787.14 525.71 C 799.82 528.61 817.54 547.32 822.81 565.27 C 820.88 563.88 819.23 562.32 817.57 560.78 C 806.56 550.53 792.12 531.45 787.14 525.71 Z M 840.58 451.35 C 855.64 452.42 871.32 470.13 869.91 484.35 C 855.82 465.54 845.38 456.66 840.58 451.35 Z M 959.10 384.77 C 975.36 395.75 980.59 425.03 966.18 446.91 C 966.40 437.68 972.50 412.49 959.10 384.77 Z M 959.12 520.21 C 972.14 515.32 994.83 523.89 1004.74 537.61 C 996.60 535.79 974.92 525.46 959.12 520.21 Z M 958.00 654.97 C 930.67 635.42 918.64 634.59 898.84 632.25 C 922.39 622.15 949.47 636.42 958.00 654.97 Z M 906.57 778.57 C 885.88 755.46 855.68 734.30 848.15 727.26 C 875.75 735.28 900.90 759.52 906.57 778.57 Z M 799.66 873.92 C 796.30 868.21 794.05 861.29 790.57 853.99 C 786.56 845.59 782.93 841.11 779.40 835.71 C 794.97 839.59 803.04 858.40 799.66 873.92 Z" fill="#ffffff" fill-opacity="0.5" fill-rule="nonzero" group-id="1,17,24" node-id="151" stroke="none" target-height="489.146" target-width="398.98004" target-x="605.76013" target-y="384.77002"></path><path d="M 663.74 744.61 C 630.31 775.81 577.62 741.83 585.36 704.89 C 588.13 691.68 585.69 682.48 585.55 677.20 C 604.35 688.50 644.08 714.66 663.74 744.61 Z M 816.72 601.37 C 800.10 608.87 775.50 593.18 765.79 576.96 C 753.84 556.99 758.51 531.02 769.15 510.78 C 769.98 509.17 771.13 508.03 772.51 507.36 C 779.59 526.21 797.16 570.44 816.72 601.37 Z M 964.83 357.39 L 919.82 481.14 C 883.98 464.11 879.00 396.46 931.64 370.62 C 948.88 362.15 959.81 354.69 964.83 357.39 Z M 979.57 687.21 C 978.88 689.42 977.48 691.12 975.10 692.20 C 956.04 700.77 931.28 703.23 904.85 696.58 C 898.20 694.89 878.14 686.24 870.17 678.32 C 858.25 666.47 854.41 653.75 856.40 642.77 C 883.48 642.35 940.64 646.75 979.57 687.21 Z M 804.99 891.41 C 804.07 892.08 802.97 892.54 802.05 892.44 C 732.50 887.02 724.13 840.22 743.70 822.76 C 754.49 830.15 773.58 848.12 804.99 891.41 Z" fill="#000e3f" fill-opacity="0.25" fill-rule="nonzero" group-id="1,18,25" node-id="159" stroke="none" target-height="537.85205" target-width="401.94214" target-x="577.624" target-y="354.68607"></path><path d="M 753.55 690.05 C 731.85 707.51 702.70 697.94 685.39 677.30 C 668.08 656.66 669.06 628.59 676.10 604.03 C 679.71 591.55 684.84 579.54 690.73 567.97 C 691.87 565.78 694.79 564.56 697.33 564.85 C 694.91 580.84 693.95 615.20 722.53 642.35 C 741.03 659.90 749.65 676.98 753.55 690.05 Z M 871.70 526.99 C 858.08 533.68 839.93 531.08 828.00 515.17 C 812.50 494.50 810.99 462.00 823.87 441.53 C 830.68 457.31 848.58 496.17 871.70 526.99 Z M 1017.93 542.57 C 1017.74 542.93 1017.55 543.28 1017.30 543.63 C 998.85 568.66 975.51 587.60 945.02 583.10 C 924.28 580.05 914.22 563.44 915.54 546.48 C 947.81 536.97 1005.86 541.48 1017.93 542.57 Z M 927.64 812.05 C 926.83 813.20 925.62 814.09 924.11 814.61 C 908.86 819.70 877.22 821.61 849.24 815.39 C 795.09 803.35 778.11 757.59 791.07 736.07 C 806.95 739.65 843.50 755.72 927.64 812.05 Z" fill="#018100" fill-opacity="0.5" fill-rule="nonzero" group-id="1,19,26" node-id="167" stroke="none" target-height="380.0859" target-width="349.8499" target-x="668.084" target-y="441.52792"></path><path d="M 1023.06 533.94 C 1017.18 518.58 982.34 506.36 975.32 504.90 C 945.05 498.62 928.74 511.41 921.72 519.60 C 917.24 524.83 914.16 530.99 912.41 537.46 C 906.38 538.08 900.46 538.92 895.03 540.02 C 895.65 538.81 896.32 537.63 896.94 536.41 C 905.26 520.09 913.15 503.56 920.61 486.83 C 925.98 488.93 931.70 490.01 937.46 490.02 C 943.44 490.02 949.53 488.91 955.48 486.69 C 969.63 481.41 981.25 470.44 987.37 456.60 C 1002.10 423.29 989.13 395.57 975.41 366.21 C 974.08 363.37 972.75 360.53 971.44 357.68 C 970.48 355.59 969.06 354.02 967.19 353.00 C 961.07 349.71 953.48 353.69 940.88 360.29 C 937.44 362.09 933.63 364.09 929.44 366.15 C 903.01 379.12 887.34 403.82 887.51 432.23 C 887.65 453.33 896.97 472.18 911.76 482.22 C 904.29 498.98 896.39 515.54 888.06 531.88 C 887.20 533.57 886.27 535.20 885.40 536.88 C 883.66 533.81 881.88 530.75 880.07 527.72 C 892.95 518.17 898.15 501.60 893.36 483.62 C 885.42 453.77 859.83 436.33 839.41 432.75 C 830.44 431.18 823.87 432.70 820.90 436.97 C 820.51 437.52 820.14 438.10 819.65 438.87 C 805.56 461.28 807.47 496.10 824.01 518.16 C 833.28 530.52 845.37 535.44 856.69 535.44 C 861.86 535.44 866.84 534.36 871.34 532.55 C 874.27 537.44 877.10 542.39 879.82 547.40 C 865.70 573.89 850.28 599.67 833.61 624.64 C 830.82 616.54 827.51 608.73 823.85 601.08 C 824.48 600.58 825.15 600.18 825.75 599.62 C 839.55 586.90 842.50 562.15 832.61 542.04 C 821.30 519.04 793.35 503.59 778.42 501.72 C 772.36 500.90 767.39 503.35 764.73 508.45 C 743.19 549.45 756.80 585.76 781.39 600.43 C 789.55 605.31 797.56 607.74 804.96 607.74 C 808.54 607.74 811.95 607.10 815.19 605.96 C 819.66 615.39 823.47 625.08 826.50 635.27 C 809.17 660.43 790.53 684.67 770.66 707.87 C 767.59 701.83 764.38 695.86 761.03 689.97 C 761.37 689.63 761.71 689.32 762.06 688.96 L 762.07 688.94 C 775.48 674.71 781.79 653.73 778.95 632.82 C 776.11 611.94 764.87 594.58 747.30 583.94 C 728.87 572.75 713.92 565.29 700.27 560.44 C 699.50 560.17 698.70 559.99 697.89 559.90 C 693.14 559.34 688.35 561.72 686.29 565.70 C 679.59 578.84 674.69 590.93 671.30 602.66 C 664.91 624.96 661.50 656.57 681.57 680.50 C 693.10 694.24 710.61 704.10 728.22 704.10 C 736.76 704.10 745.32 701.78 753.23 696.46 C 756.85 702.86 760.30 709.36 763.58 715.93 C 741.94 740.56 718.91 763.93 694.61 785.94 C 688.71 769.95 680.58 756.19 671.09 743.98 C 678.78 734.52 682.55 721.53 681.27 708.09 C 679.79 692.60 671.79 678.94 659.87 671.54 C 639.18 658.70 611.73 662.15 587.61 667.20 C 584.87 667.78 580.31 669.86 580.56 677.33 C 580.67 681.39 580.65 685.51 580.63 689.62 C 580.52 713.36 580.38 740.26 607.23 754.96 C 615.48 759.48 624.31 761.70 632.99 761.70 C 644.06 761.70 654.86 758.06 663.87 751.00 C 673.27 763.26 681.16 777.09 686.60 793.21 C 647.70 827.61 605.50 858.82 560.00 886.65 C 557.59 888.06 556.81 891.18 558.27 893.56 C 559.73 895.94 562.86 896.66 565.21 895.16 C 612.58 866.18 656.39 833.54 696.69 797.52 C 712.20 799.44 726.84 808.78 739.23 819.99 C 733.67 825.43 730.14 833.07 729.61 842.03 C 728.15 866.69 749.86 893.37 801.54 897.41 C 801.79 897.43 802.03 897.44 802.28 897.44 C 806.50 897.44 810.67 893.88 811.74 890.41 C 811.74 890.41 811.76 890.36 811.76 890.36 C 813.65 883.98 814.69 866.26 810.93 848.48 C 807.20 830.78 790.89 812.40 762.88 811.27 C 757.33 811.03 752.20 812.08 747.70 814.15 C 735.72 803.03 721.46 793.23 705.90 789.17 C 726.89 769.86 746.93 749.54 765.94 728.27 C 772.48 729.63 779.39 731.71 786.41 734.27 C 780.45 744.84 780.47 759.53 786.60 773.83 C 796.46 796.83 818.89 813.75 848.15 820.25 C 860.89 823.09 874.28 824.28 886.65 824.28 C 902.57 824.28 916.79 822.30 925.74 819.32 C 928.21 818.46 930.25 816.96 931.67 814.98 C 934.09 811.70 934.57 807.38 932.96 803.43 C 927.50 789.92 922.37 775.99 917.41 762.52 L 917.10 761.66 C 906.17 731.92 884.63 713.18 856.45 708.90 C 830.22 704.92 805.77 714.17 793.01 726.06 C 786.43 723.57 779.86 721.41 773.51 719.79 C 794.12 696.13 813.45 671.40 831.41 645.68 C 837.99 644.88 844.61 644.48 851.23 644.51 C 849.66 659.05 856.97 673.81 871.80 685.39 C 886.69 697.02 909.75 705.82 934.81 705.82 C 948.66 705.82 963.13 703.13 977.16 696.74 C 980.90 695.04 983.44 692.01 984.51 687.98 C 988.34 673.47 971.30 649.41 969.34 646.71 C 945.34 613.70 908.34 604.57 884.11 610.08 C 869.16 613.48 858.44 622.28 853.63 634.63 C 848.65 634.53 843.66 634.65 838.68 634.99 C 856.68 608.43 873.35 580.72 888.72 551.90 C 894.90 549.95 902.65 548.60 910.83 547.66 C 910.63 553.20 911.41 558.74 913.35 563.93 C 918.27 577.07 929.54 585.86 944.29 588.04 C 947.59 588.52 950.85 588.77 954.08 588.77 C 978.37 588.77 1000.45 574.88 1021.31 546.59 C 1024.15 542.74 1024.75 538.36 1023.06 533.94 Z M 897.49 432.17 C 897.33 407.68 910.92 386.34 933.84 375.10 C 938.11 373.00 942.00 370.96 945.51 369.12 C 951.78 365.83 959.49 361.79 961.99 361.79 C 962.14 361.79 962.27 361.81 962.38 361.84 C 963.71 364.71 965.04 367.57 966.38 370.43 C 980.22 400.03 991.15 423.41 978.26 452.57 C 973.22 463.97 963.65 473.00 952.00 477.35 C 942.73 480.81 933.12 480.90 924.62 477.72 C 939.65 443.15 947.05 420.87 947.16 420.54 C 947.94 417.95 946.51 415.21 943.94 414.37 C 941.37 413.52 938.60 414.88 937.69 417.43 C 937.58 417.75 930.43 439.27 915.87 472.86 C 904.65 464.41 897.59 449.25 897.49 432.17 Z M 831.99 512.18 C 818.00 493.52 816.24 463.01 828.20 444.00 C 828.47 443.57 828.74 443.14 828.94 442.83 C 829.34 442.51 830.70 442.12 832.98 442.12 C 835.45 442.12 839.02 442.58 843.62 444.07 C 858.91 449.00 877.47 462.66 883.72 486.18 C 887.92 501.94 882.54 512.94 874.83 519.13 C 859.88 495.23 845.68 476.81 845.49 476.57 C 843.80 474.43 840.70 474.06 838.54 475.73 C 836.38 477.40 835.97 480.49 837.61 482.67 C 837.79 482.91 851.53 500.72 866.06 523.91 C 855.52 527.45 841.78 525.23 831.99 512.18 Z M 786.50 591.88 C 759.34 575.66 759.44 539.97 773.57 513.08 C 774.05 512.15 774.71 511.27 777.12 511.60 C 789.90 513.21 814.39 527.58 823.67 546.44 C 831.59 562.56 829.68 581.99 819.31 591.94 C 812.40 578.72 804.56 565.92 796.46 553.09 C 794.99 550.76 791.91 550.07 789.58 551.54 C 787.26 553.01 786.56 556.09 788.03 558.41 C 796.30 571.51 804.01 584.07 810.69 596.88 C 803.75 598.84 795.47 597.23 786.50 591.88 Z M 689.21 674.10 C 671.95 653.52 675.16 625.39 680.89 605.41 C 684.09 594.31 688.77 582.80 695.13 570.31 C 695.28 570.12 695.89 569.82 696.61 569.82 C 696.71 569.82 696.81 569.82 696.91 569.83 C 709.93 574.45 724.30 581.64 742.13 592.47 C 757.08 601.52 766.65 616.33 769.07 634.17 C 771.45 651.61 766.43 668.98 755.73 681.02 C 742.63 659.44 728.29 640.54 711.73 623.15 C 709.85 621.07 706.63 620.96 704.60 622.89 C 702.57 624.82 702.53 628.04 704.51 630.02 C 720.96 647.30 735.18 666.14 748.16 687.77 C 728.63 701.26 703.54 691.18 689.21 674.10 Z M 762.48 821.23 C 786.69 822.21 798.46 837.63 801.18 850.54 C 804.58 866.62 803.59 882.25 802.29 887.19 C 802.21 887.27 802.09 887.37 801.98 887.44 C 757.25 883.81 738.40 862.34 739.57 842.62 C 739.90 836.93 742.23 831.15 746.49 827.01 C 764.21 845.20 775.81 865.04 776.02 865.40 C 777.39 867.79 780.44 868.61 782.82 867.23 C 785.21 865.86 786.03 862.81 784.66 860.42 C 783.80 858.94 772.82 840.15 755.58 821.97 C 757.83 821.38 760.16 821.13 762.48 821.23 Z M 612.02 746.22 C 590.38 734.37 590.49 712.66 590.60 689.67 C 590.63 685.45 590.64 681.23 590.53 677.04 L 590.53 676.78 C 612.50 672.23 637.15 669.17 654.61 680.01 C 663.91 685.78 670.16 696.63 671.35 709.05 C 672.31 719.11 669.79 728.76 664.58 736.05 C 650.39 719.74 633.89 706.19 617.49 693.50 C 615.31 691.82 612.18 692.22 610.50 694.40 C 608.81 696.58 609.21 699.71 611.39 701.39 C 627.51 713.86 643.72 727.18 657.52 743.18 C 644.60 753.17 627.16 754.50 612.02 746.22 Z M 844.06 717.94 C 847.65 717.94 851.29 718.20 854.95 718.75 C 872.23 721.38 895.41 731.56 907.74 765.10 L 908.06 765.96 C 913.04 779.51 918.20 793.52 923.72 807.18 C 923.94 807.71 924.10 808.46 923.65 809.06 C 923.62 809.10 923.59 809.14 923.56 809.18 C 923.36 809.47 922.97 809.73 922.53 809.88 C 907.76 814.80 876.71 816.39 850.32 810.52 C 813.26 802.28 799.83 779.37 795.77 769.90 C 790.83 758.38 790.67 746.41 795.39 738.57 C 795.53 738.34 795.68 738.15 795.83 737.93 C 830.73 752.36 865.16 775.38 865.61 775.68 C 867.89 777.22 871.00 776.62 872.53 774.33 C 874.07 772.05 873.46 768.95 871.18 767.41 C 869.36 766.19 837.57 744.93 803.45 730.29 C 812.99 723.21 827.91 717.94 844.06 717.94 Z M 886.32 619.80 C 889.94 618.98 893.86 618.56 897.97 618.56 C 918.66 618.56 944.27 629.17 961.28 652.57 C 969.30 663.63 976.58 678.95 974.87 685.43 C 974.57 686.56 974.04 687.21 973.03 687.67 C 938.99 703.16 899.42 694.31 877.95 677.54 C 865.48 667.81 859.62 656.25 861.19 644.86 C 879.56 645.98 899.14 649.98 920.38 656.95 C 922.99 657.81 925.81 656.39 926.66 653.77 C 927.52 651.16 926.10 648.34 923.48 647.48 C 902.37 640.55 882.79 636.47 864.29 635.10 C 869.66 625.12 879.88 621.27 886.32 619.80 Z M 1013.28 540.67 C 992.06 569.47 970.00 581.74 945.74 578.17 C 934.54 576.52 926.35 570.22 922.69 560.43 C 921.06 556.07 920.48 551.38 920.81 546.72 C 942.23 545.10 963.22 545.79 963.55 545.80 L 963.73 545.80 C 966.42 545.77 968.60 543.60 968.65 540.90 C 968.69 538.21 966.59 535.96 963.90 535.84 C 962.59 535.79 943.67 535.17 923.14 536.54 C 924.58 532.79 926.60 529.22 929.28 526.09 C 936.55 517.62 947.20 513.22 960.00 513.22 C 964.21 513.22 968.66 513.70 973.29 514.66 C 981.88 516.44 1010.17 528.15 1013.75 537.50 C 1014.22 538.72 1014.09 539.58 1013.28 540.67 Z" fill="#000e3f" fill-rule="nonzero" group-id="1,20" node-id="173" stroke="none" target-height="547.7301" target-width="467.94513" target-x="556.809" target-y="349.71014"></path></g></g></svg>