<?xml version="1.0" standalone="no"?><!DOCTYPE svg PUBLIC "-//W3C//DTD SVG 1.1//EN" "http://www.w3.org/Graphics/SVG/1.1/DTD/svg11.dtd"><svg t="1778899819555" class="icon" viewBox="0 0 1024 1024" version="1.1" xmlns="http://www.w3.org/2000/svg" p-id="3496" xmlns:xlink="http://www.w3.org/1999/xlink" width="200" height="200"><path d="M742.0928 65.8944H295.936a43.008 43.008 0 0 0-43.0592 43.0592v73.3696L148.48 324.608a106.7008 106.7008 0 0 0-20.48 63.0784V916.48a41.5744 41.5744 0 0 0 41.6256 41.5744h507.2384V352.768l78.7968-123.8016h29.696V108.9536a43.0592 43.0592 0 0 0-43.264-43.0592z" fill="#FFFFFF" p-id="3497"></path><path d="M742.0928 65.8944h-44.9024v116.4288L580.4032 352.768v499.2512a30.72 30.72 0 0 1-30.72 30.72H128V916.48a41.5744 41.5744 0 0 0 41.6256 41.5744h507.2384V352.768l78.7968-123.8016h29.696V108.9536a43.0592 43.0592 0 0 0-43.264-43.0592z" fill="#E1BDFC" p-id="3498"></path><path d="M676.7104 958.1056h175.36a41.5232 41.5232 0 0 0 41.5744-41.5744V384a106.8544 106.8544 0 0 0-16.64-57.2416l-91.8016-144.4352-108.4928 170.4448z" fill="#A6AAED" p-id="3499"></path><path d="M676.7104 973.4656H169.472A57.0368 57.0368 0 0 1 112.64 916.48V387.6864a120.9856 120.9856 0 0 1 23.6544-72.1408L240.64 173.2096a15.36 15.36 0 0 1 12.3392-6.2464h532.48a15.36 15.36 0 0 1 12.9536 23.6032l-106.3424 166.656v600.8832a15.36 15.36 0 0 1-15.36 15.36zM260.6592 197.6832L160.9216 333.6704A90.7776 90.7776 0 0 0 143.36 387.6864V916.48a26.2656 26.2656 0 0 0 26.2656 26.2144h491.8784V352.768a15.616 15.616 0 0 1 2.4064-8.2432l93.44-146.8416z" fill="#3C122C" p-id="3500"></path><path d="M785.2032 197.6832h-532.48a15.36 15.36 0 0 1-15.36-15.36V108.9536A58.5216 58.5216 0 0 1 295.936 50.5344h446.1568a58.5216 58.5216 0 0 1 58.4704 58.4192v73.3696a15.36 15.36 0 0 1-15.36 15.36z m-517.12-30.72h501.76V108.9536a27.7504 27.7504 0 0 0-27.7504-27.6992H295.936a27.8016 27.8016 0 0 0-27.7504 27.6992zM883.456 363.008H143.36a10.24 10.24 0 1 1 0-20.48h740.096a10.24 10.24 0 0 1 0 20.48z" fill="#3C122C" p-id="3501"></path><path d="M388.6592 568.9856v86.6816a29.2864 29.2864 0 0 1-29.2352 29.2864 29.2864 29.2864 0 0 1-29.2864-29.2864v-106.8544l-3.2256-1.1264C211.6096 506.5216 128 634.1632 128 634.1632v248.4736s65.8944-155.136 242.9952-72.7552 305.8688-39.0656 305.8688-39.0656v-250.5728c-79.6672 85.1456-199.2704 77.0048-288.2048 48.7424z" fill="#96B4EB" p-id="3502"></path><path d="M580.4032 824.6272a278.2208 278.2208 0 0 0 96.3072-53.8112v-250.5728A207.4112 207.4112 0 0 1 580.4032 578.56z" fill="#8286EA" p-id="3503"></path><path d="M128 892.8768a8.96 8.96 0 0 1-2.048 0 10.24 10.24 0 0 1-8.2432-10.24v-248.4736a10.496 10.496 0 0 1 1.6896-5.632c0.8704-1.3312 89.5488-133.888 211.0464-90.4704l3.2256 1.1264a10.24 10.24 0 0 1 6.8096 9.6256v106.8544a19.0464 19.0464 0 1 0 38.0416 0v-86.6816a10.24 10.24 0 0 1 4.1984-8.2432 10.24 10.24 0 0 1 9.1648-1.4848c157.3376 49.9712 241.3568-7.3728 277.4528-46.08a10.24 10.24 0 0 1 17.7152 7.0144v250.5728a10.24 10.24 0 0 1-3.1744 7.4752 300.544 300.544 0 0 1-189.7984 70.2464A299.2128 299.2128 0 0 1 366.5408 819.2c-54.1696-25.1904-102.7072-29.8496-144.2816-13.8752-59.5456 22.8864-84.736 80.7936-84.9408 81.3568a10.24 10.24 0 0 1-9.3184 6.1952z m10.24-255.488v208.4864a175.8208 175.8208 0 0 1 76.8-59.6992c46.9504-18.0736 100.864-13.2096 160.2048 14.3872 155.392 72.2944 270.4896-16.4352 291.328-34.3552v-222.0544c-31.6928 27.0336-83.2 55.1424-159.6928 55.1424a390.6048 390.6048 0 0 1-108.032-16.4864v72.8576a39.5264 39.5264 0 1 1-79.0016 0v-99.584c-43.0592-14.0288-86.4768-5.12-129.1264 27.2384A262.7072 262.7072 0 0 0 138.24 637.3888z" fill="#3C122C" p-id="3504"></path><path d="M316.8256 228.9664h-35.84v50.176a20.48 20.48 0 0 0 10.24 17.7664 165.6832 165.6832 0 0 0 83.712 20.48c39.936 0 65.8944-10.24 79.2576-17.3056a20.48 20.48 0 0 0 10.9056-18.2272V228.9664z" fill="#A6AAED" p-id="3505"></path><path d="M374.9376 327.68a175.7696 175.7696 0 0 1-88.8832-22.0672 30.72 30.72 0 0 1-15.36-26.5728v-50.176a10.24 10.24 0 0 1 10.24-10.24h184.1664a10.24 10.24 0 0 1 10.24 10.24v53.1456a30.72 30.72 0 0 1-16.2816 27.2384c-15.7696 8.448-43.1616 18.432-84.1216 18.432zM291.3792 239.2064v39.936a10.24 10.24 0 0 0 5.12 8.9088A155.6992 155.6992 0 0 0 374.9376 307.2c38.656 0 63.232-10.24 74.4448-16.0768a10.24 10.24 0 0 0 5.4784-9.216v-42.7008z" fill="#3C122C" p-id="3506"></path><path d="M281.1392 228.9664a91.9552 46.6944 0 1 0 183.9104 0 91.9552 46.6944 0 1 0-183.9104 0Z" fill="#96B4EB" p-id="3507"></path><path d="M373.0944 285.9008c-57.2928 0-102.4-24.9856-102.4-56.9344s44.9024-56.8832 102.4-56.8832 102.4 24.9856 102.4 56.8832-45.056 56.9344-102.4 56.9344z m0-93.3376c-48.128 0-81.92 19.2-81.92 36.4032s33.5872 36.4544 81.92 36.4544 81.92-19.2 81.92-36.4544-33.7408-36.4032-81.92-36.4032z" fill="#3C122C" p-id="3508"></path><path d="M199.5264 449.8944a42.5472 34.9184 90 1 0 69.8368 0 42.5472 34.9184 90 1 0-69.8368 0Z" fill="#A1E8C3" p-id="3509"></path><path d="M234.4448 502.6816c-24.9344 0-45.1584-23.7056-45.1584-52.7872s20.48-52.8384 45.1584-52.8384 45.1072 23.7056 45.1072 52.8384-20.224 52.7872-45.1072 52.7872z m0-85.1456c-13.6192 0-24.6784 14.5408-24.6784 32.3584s11.0592 32.3072 24.6784 32.3072 24.6272-14.4896 24.6272-32.3072-11.0592-32.3584-24.6272-32.3584z" fill="#3C122C" p-id="3510"></path><path d="M314.4192 449.8944a42.5472 34.9184 90 1 0 69.8368 0 42.5472 34.9184 90 1 0-69.8368 0Z" fill="#F6E06E" p-id="3511"></path><path d="M349.3376 502.6816c-24.8832 0-45.1072-23.7056-45.1072-52.7872s20.224-52.8384 45.1072-52.8384 45.1584 23.7056 45.1584 52.8384-20.2752 52.7872-45.1584 52.7872z m0-85.1456c-13.568 0-24.6272 14.5408-24.6272 32.3584s11.0592 32.3072 24.6272 32.3072 24.6784-14.4896 24.6784-32.3072-11.0592-32.3584-24.6784-32.3584z" fill="#3C122C" p-id="3512"></path><path d="M431.872 449.8944a42.5472 34.9184 90 1 0 69.8368 0 42.5472 34.9184 90 1 0-69.8368 0Z" fill="#8286EA" p-id="3513"></path><path d="M466.7904 502.6816c-24.9344 0-45.1584-23.7056-45.1584-52.7872s20.48-52.8384 45.1584-52.8384S512 420.7616 512 449.8944s-20.48 52.7872-45.2096 52.7872z m0-85.1456c-13.6192 0-24.6784 14.5408-24.6784 32.3584s11.0592 32.3072 24.6784 32.3072S491.52 467.712 491.52 449.8944s-11.1616-32.3584-24.7296-32.3584zM852.0704 973.4656h-175.36a15.36 15.36 0 0 1-15.36-15.36V352.768a15.616 15.616 0 0 1 2.4064-8.2432L772.2496 174.08a15.36 15.36 0 0 1 25.9072 0l91.8016 144.2304A121.6 121.6 0 0 1 909.0048 384v532.48a56.9856 56.9856 0 0 1-56.9344 56.9856z m-160-30.72h160a26.2144 26.2144 0 0 0 26.2144-26.2144V384a91.3408 91.3408 0 0 0-14.2336-48.9984l-78.848-123.904-93.1328 146.1248zM516.4544 710.4a10.24 10.24 0 0 1-10.24-10.24v-35.84a10.24 10.24 0 0 1 20.48 0v35.84a10.24 10.24 0 0 1-10.24 10.24zM242.0736 700.672a10.24 10.24 0 0 1-10.24-10.24v-35.84a10.24 10.24 0 0 1 20.48 0v35.84a10.24 10.24 0 0 1-10.24 10.24zM417.1264 769.1264a10.24 10.24 0 0 1-10.24-10.24v-35.84a10.24 10.24 0 0 1 20.48 0v35.84a10.24 10.24 0 0 1-10.24 10.24z" fill="#3C122C" p-id="3514"></path><path d="M182.0672 737.28a15.36 15.36 0 0 1-15.36-15.36v-49.3568a15.36 15.36 0 0 1 30.72 0V721.92a15.36 15.36 0 0 1-15.36 15.36z" fill="#FFFFFF" p-id="3515"></path></svg>