<?xml version="1.0" standalone="no"?><!DOCTYPE svg PUBLIC "-//W3C//DTD SVG 1.1//EN" "http://www.w3.org/Graphics/SVG/1.1/DTD/svg11.dtd"><svg t="1778899838642" class="icon" viewBox="0 0 1024 1024" version="1.1" xmlns="http://www.w3.org/2000/svg" p-id="4247" xmlns:xlink="http://www.w3.org/1999/xlink" width="200" height="200"><path d="M820.224 217.1904m-160.256 0a160.256 160.256 0 1 0 320.512 0 160.256 160.256 0 1 0-320.512 0Z" fill="#FAF1A9" p-id="4248"></path><path d="M820.224 56.9344h-5.12a160.256 160.256 0 0 1-50.2784 310.6304 160.256 160.256 0 1 0 55.3984-310.6304z" fill="#F5DF6E" p-id="4249"></path><path d="M820.224 392.8064a175.616 175.616 0 1 1 175.616-175.616 175.8208 175.8208 0 0 1-175.616 175.616z m0-320.512a144.896 144.896 0 1 0 144.896 144.896 145.0496 145.0496 0 0 0-144.896-144.896z" fill="#3C122C" p-id="4250"></path><path d="M980.48 227.4304h-320.512a10.24 10.24 0 0 1 0-20.48h320.512a10.24 10.24 0 0 1 0 20.48z" fill="#3C122C" p-id="4251"></path><path d="M820.224 387.6864a10.24 10.24 0 0 1-10.24-10.24v-320.512a10.24 10.24 0 0 1 20.48 0v320.512a10.24 10.24 0 0 1-10.24 10.24z" fill="#3C122C" p-id="4252"></path><path d="M706.9184 340.736a10.24 10.24 0 0 1-7.2192-17.4592l226.6112-226.6624a10.24 10.24 0 0 1 14.4896 14.4896L714.1376 337.92a10.24 10.24 0 0 1-7.2192 2.816z" fill="#3C122C" p-id="4253"></path><path d="M933.5296 340.736a10.24 10.24 0 0 1-7.2192-2.9696L699.6992 111.104a10.24 10.24 0 0 1 14.4384-14.4896l226.6624 226.6624a10.24 10.24 0 0 1-7.2704 17.4592z" fill="#3C122C" p-id="4254"></path><path d="M860.928 164.4032s108.7488 277.8112-326.144 416.768v244.5824l128.6656 94.208a16.384 16.384 0 0 1-9.6768 29.5936H329.2672a16.384 16.384 0 0 1-9.6768-29.5936l128.6656-94.208v-244.5824c-434.8928-138.9568-326.144-416.768-326.144-416.768z" fill="#C1E5EF" p-id="4255"></path><path d="M860.928 164.4032h-63.3344c15.36 81.5616 8.4992 255.1808-287.232 361.0112a47.872 47.872 0 0 0-31.6928 45.056v244.2752a47.7696 47.7696 0 0 0 16.4352 36.096s35.84 27.648 60.7232 44.4928a5.12 5.12 0 0 1-2.8672 9.2672H340.5824l-20.992 15.36a16.384 16.384 0 0 0 9.6768 29.5936h324.5056a16.384 16.384 0 0 0 9.6768-29.5936l-128.6656-94.208V581.12c434.8928-138.9056 326.144-416.7168 326.144-416.7168z" fill="#A6AAED" p-id="4256"></path><path d="M668.928 164.4032a160.2048 160.2048 0 0 0 151.296 213.0432 148.48 148.48 0 0 0 15.9232-0.8192c64.4096-110.848 24.7808-212.224 24.7808-212.224z" fill="#FFF9D9" p-id="4257"></path><path d="M830.464 361.6768V241.92l39.5264 39.68a247.7568 247.7568 0 0 0 2.6624-26.3168L844.8 227.4304h27.6992c-0.4096-7.3728-1.0752-14.1824-1.8944-20.48h-25.6l21.9136-21.9136a166.0416 166.0416 0 0 0-5.9392-20.48h-2.4064l-28.0576 28.0576v-28.2112h-20.48v28.0576l-28.0576-28.0576h-28.928l42.496 42.5472H675.84a143.616 143.616 0 0 1 9.728-42.5472h-32.7168a175.5648 175.5648 0 0 0 167.3728 228.4032h5.9392a296.192 296.192 0 0 0 19.0464-32.8704 139.776 139.776 0 0 1-14.7456 1.7408zM675.84 227.4304h119.7568L710.8608 312.32A144.384 144.384 0 0 1 675.84 227.4304z m134.144 134.2464a144.0768 144.0768 0 0 1-84.6336-35.1232l84.6336-84.6336z" fill="#4F3747" p-id="4258"></path><path d="M653.7728 964.9152H329.2672a31.744 31.744 0 0 1-18.7392-57.344l122.368-89.6v-225.6896c-158.72-52.5312-263.2192-129.7408-310.7328-229.5296-51.2-107.52-15.872-200.0384-14.3872-203.9296a15.36 15.36 0 0 1 14.336-9.7792h738.816A15.36 15.36 0 0 1 875.52 158.72c1.4848 3.8912 36.7104 96.6144-14.3872 203.9296-47.5136 99.7888-152.0128 176.9984-310.7328 229.5296v225.6896l122.368 89.6a31.744 31.744 0 0 1-18.7392 57.344zM133.376 179.7632a249.9072 249.9072 0 0 0 16.7936 170.3936C195.1232 443.904 296.96 516.7104 452.9152 566.528a15.36 15.36 0 0 1 10.7008 14.6432v244.5824a15.36 15.36 0 0 1-6.2976 12.3904l-128.6656 94.208a0.768 0.768 0 0 0-0.3584 1.1264c0 0.7168 0.512 0.7168 0.9728 0.7168h324.5056c0.4608 0 0.768 0 0.9728-0.7168a0.768 0.768 0 0 0-0.3584-1.1264l-128.6656-94.208a15.36 15.36 0 0 1-6.2976-12.3904v-244.5824a15.36 15.36 0 0 1 10.7008-14.6432c155.9552-49.8176 257.792-122.88 302.7456-216.3712A249.9072 249.9072 0 0 0 849.92 179.7632z" fill="#3C122C" p-id="4259"></path><path d="M783.9232 242.944S798.72 448.256 491.52 502.6304C184.32 448.256 199.1168 242.944 199.1168 242.944z" fill="#FAF1A9" p-id="4260"></path><path d="M783.9232 242.944h-62.4128c-6.6048 55.296-47.8208 193.3312-291.2768 236.4416a629.76 629.76 0 0 1-71.68-16.9472A532.48 532.48 0 0 0 491.52 502.6304c307.2-54.3744 292.4032-259.6864 292.4032-259.6864z" fill="#F5DF6E" p-id="4261"></path><path d="M491.52 512.8704a10.5984 10.5984 0 0 1-1.792 0C400.0768 496.64 280.7808 457.0624 221.3888 357.632c-35.84-60.2112-32.6656-113.2032-32.512-115.456a10.24 10.24 0 0 1 10.24-9.472h584.8064a10.24 10.24 0 0 1 10.24 9.472c0 2.2528 3.4304 55.2448-32.512 115.456-59.392 99.4304-178.688 139.2128-268.3392 155.0848a10.5984 10.5984 0 0 1-1.792 0.1536zM209.408 253.184A207.1552 207.1552 0 0 0 239.616 348.16C283.4432 420.7104 370.5344 470.4768 491.52 492.2368c255.232-46.08 280.0128-199.2192 282.112-239.0528z" fill="#3C122C" p-id="4262"></path><path d="M382.72 424.96a16.128 16.128 0 0 1-5.9392-1.1776 246.2208 246.2208 0 0 1-83.968-58.7264 15.36 15.36 0 1 1 22.3232-21.0944 214.7328 214.7328 0 0 0 73.5232 51.5584A15.36 15.36 0 0 1 382.72 424.96zM269.2608 323.6864A15.36 15.36 0 0 1 256 316.1088c-5.12-8.3968-7.3216-13.7216-7.5776-14.336A15.36 15.36 0 0 1 276.48 289.2288s2.0992 4.5568 6.0416 11.3664a15.36 15.36 0 0 1-13.2096 23.0912z" fill="#FFFFFF" p-id="4263"></path><path d="M415.8976 368.896a10.24 10.24 0 0 1-10.24-10.24V327.68a10.24 10.24 0 0 1 20.48 0v30.72a10.24 10.24 0 0 1-10.24 10.496zM547.84 346.368a10.24 10.24 0 0 1-10.24-10.24V305.152a10.24 10.24 0 0 1 20.48 0v30.976a10.24 10.24 0 0 1-10.24 10.24zM612.5568 441.5488a10.24 10.24 0 0 1-10.24-10.24v-30.72a10.24 10.24 0 0 1 20.48 0v30.72a10.24 10.24 0 0 1-10.24 10.24z" fill="#3C122C" p-id="4264"></path></svg>