<?xml version="1.0" standalone="no"?><!DOCTYPE svg PUBLIC "-//W3C//DTD SVG 1.1//EN" "http://www.w3.org/Graphics/SVG/1.1/DTD/svg11.dtd"><svg t="1778899814953" class="icon" viewBox="0 0 1024 1024" version="1.1" xmlns="http://www.w3.org/2000/svg" p-id="3309" xmlns:xlink="http://www.w3.org/1999/xlink" width="200" height="200"><path d="M198.5024 193.792a23.6544 23.6544 0 0 0-22.784 17.2032 777.472 777.472 0 0 0-24.7808 175.6672h667.3408A777.472 777.472 0 0 0 793.6 210.9952a23.552 23.552 0 0 0-22.7328-17.2032z" fill="#FFFFFF" p-id="3310"></path><path d="M416.9728 386.6624H330.8032L275.1488 109.312a42.1888 42.1888 0 0 1 33.0752-49.7152 42.24 42.24 0 0 1 49.7664 33.0752z" fill="#E1BDFC" p-id="3311"></path><path d="M416.9728 402.0224H330.8032a15.36 15.36 0 0 1-15.0528-12.3392L260.096 112.3328a57.6 57.6 0 0 1 112.9472-22.6816l58.9824 293.9904a15.36 15.36 0 0 1-15.0528 18.3808z m-73.5744-30.72h54.8352L343.04 95.6928a26.88 26.88 0 0 0-52.736 10.5984z" fill="#3C122C" p-id="3312"></path><path d="M150.9376 386.6624c-4.8128 133.9904 16.128 329.0624 125.9008 556.9024a51.2 51.2 0 0 0 46.08 29.0304h323.072a51.2 51.2 0 0 0 46.08-29.0304c109.7216-227.84 130.7136-422.912 125.8496-556.9024z" fill="#E8A284" p-id="3313"></path><path d="M793.6 210.9952a23.6032 23.6032 0 0 0-22.7328-17.2544h-71.68c27.7504 113.8176 65.8944 360.9088-78.4384 669.7984a70.8608 70.8608 0 0 1-64.256 40.96H258.6624c5.7856 13.0048 11.8272 26.0608 18.176 39.2704a51.2 51.2 0 0 0 46.08 28.9792h323.072a51.2 51.2 0 0 0 46.08-28.928C873.0112 568.576 813.2608 282.4192 793.6 210.9952z" fill="#D57B84" p-id="3314"></path><path d="M782.4384 206.336m-160.256 0a160.256 160.256 0 1 0 320.512 0 160.256 160.256 0 1 0-320.512 0Z" fill="#FAF1A9" p-id="3315"></path><path d="M782.4384 46.08h-5.12A160.2048 160.2048 0 0 1 727.04 356.8128 160.256 160.256 0 1 0 782.4384 46.08z" fill="#F5DF6E" p-id="3316"></path><path d="M782.4384 381.952a175.616 175.616 0 1 1 175.616-175.616 175.8208 175.8208 0 0 1-175.616 175.616z m0-320.512a144.896 144.896 0 1 0 144.896 144.896 145.0496 145.0496 0 0 0-144.896-144.896z" fill="#3C122C" p-id="3317"></path><path d="M942.6944 216.576h-320.512a10.24 10.24 0 0 1 0-20.48h320.512a10.24 10.24 0 0 1 0 20.48z" fill="#3C122C" p-id="3318"></path><path d="M782.4384 376.832a10.24 10.24 0 0 1-10.24-10.24V46.08a10.24 10.24 0 0 1 20.48 0v320.512a10.24 10.24 0 0 1-10.24 10.24z" fill="#3C122C" p-id="3319"></path><path d="M669.1328 329.8816a10.24 10.24 0 0 1-7.2704-17.5616l226.6624-226.6624a10.24 10.24 0 0 1 14.4384 14.4896L676.352 326.912a10.24 10.24 0 0 1-7.2192 2.9696z" fill="#3C122C" p-id="3320"></path><path d="M896 329.8816a10.24 10.24 0 0 1-7.2192-2.9696l-226.9184-226.6624a10.24 10.24 0 0 1 14.4896-14.4896L902.9632 312.32a10.24 10.24 0 0 1-6.9632 17.5616z" fill="#3C122C" p-id="3321"></path><path d="M818.2784 386.6624c0-5.12-0.4096-10.24-0.6656-15.36a7.936 7.936 0 0 1 0-1.1264c-0.256-5.12-0.5632-9.8304-0.9216-14.6432v-0.7168c-0.3072-4.8128-0.6656-9.472-1.0752-14.08-0.4096-4.6592-0.8704-9.1648-1.28-13.6192a5.6832 5.6832 0 0 1 0-0.9728c-0.9216-8.7552-1.8944-17.152-2.9696-25.1392v-1.024c-1.024-7.8848-2.1504-15.36-3.2768-22.4256a7.936 7.936 0 0 1 0-1.0752c-1.1264-6.9632-2.304-13.568-3.4816-19.712v-0.9728c-0.5632-3.0208-1.1776-5.888-1.7408-8.704v-0.8192c-0.5632-2.6112-1.1264-5.12-1.6384-7.5264v-0.8192c-0.5632-2.5088-1.1264-5.12-1.6384-7.168l-0.3072-1.1776-1.4336-5.9904v-0.5632c-0.512-1.9968-0.9728-3.8912-1.4848-5.7344l-0.3072-1.2288c-0.4608-1.7408-0.9216-3.3792-1.3312-5.12a23.552 23.552 0 0 0-22.7328-17.2032h-71.68a919.5008 919.5008 0 0 1 25.6 192.8704z" fill="#F4E9FF" p-id="3322"></path><path d="M793.6 210.9952a23.552 23.552 0 0 0-22.7328-17.2032h-148.1728c-0.3072 4.1472-0.512 8.2944-0.512 12.544a160.256 160.256 0 0 0 194.9184 156.4672A755.6608 755.6608 0 0 0 793.6 210.9952z" fill="#FFF9D9" p-id="3323"></path><path d="M814.08 327.68a159.4368 159.4368 0 0 1-87.04 28.928 159.3344 159.3344 0 0 0 55.2448 9.7792 161.2288 161.2288 0 0 0 34.6624-3.7888c-0.6144-12.032-1.536-23.7056-2.8672-34.9184z" fill="#F7E492" p-id="3324"></path><path d="M816.0256 347.2384a140.3392 140.3392 0 0 1-23.3472 3.584V231.0656l7.6288 7.68c-2.4576-11.3152-4.864-20.48-6.8096-27.7504a23.552 23.552 0 0 0-22.7328-17.2032h-15.36l2.3552 2.304h-119.808c0-0.768 0-1.536 0.256-2.304h-30.72c-0.3072 4.1472-0.512 8.2944-0.512 12.544a175.7696 175.7696 0 0 0 211.0976 172.032c-0.6656-10.8032-1.28-21.1456-2.048-31.1296zM637.952 216.576H757.76l-84.6848 84.6336a143.9232 143.9232 0 0 1-35.1232-84.6336z m134.2464 134.2464a143.9232 143.9232 0 0 1-84.6336-35.1232l84.6336-84.6336z" fill="#4F3747" p-id="3325"></path><path d="M646.144 988.16H323.072a66.9696 66.9696 0 0 1-60.0576-37.632C81.6128 573.44 139.008 286.1056 160.9216 206.8992a39.168 39.168 0 0 1 37.5808-28.5184h572.2624a39.1168 39.1168 0 0 1 37.5296 28.5184c21.9136 79.2064 79.3088 366.7456-102.0928 743.424A66.9696 66.9696 0 0 1 646.144 988.16zM198.5024 209.1008A8.2432 8.2432 0 0 0 190.5664 215.04c-21.1968 76.8-76.8 354.8672 100.1472 721.92a35.84 35.84 0 0 0 32.3584 20.48h323.072a36.1472 36.1472 0 0 0 32.4096-20.48c176.7424-367.0016 121.344-645.12 100.1472-721.92a8.2944 8.2944 0 0 0-7.936-5.9904z" fill="#3C122C" p-id="3326"></path><path d="M818.2784 396.9024H150.9376a10.24 10.24 0 0 1 0-20.48h667.3408a10.24 10.24 0 0 1 0 20.48zM666.1632 747.9296h-1.7408a10.24 10.24 0 0 1-8.3968-11.776l5.9392-35.5328a10.24 10.24 0 0 1 20.48 3.3792l-5.9392 35.5328a10.24 10.24 0 0 1-10.3424 8.3968zM481.9456 821.248a10.24 10.24 0 0 1-10.24-10.24v-35.84a10.24 10.24 0 0 1 20.48 0v35.84a10.24 10.24 0 0 1-10.24 10.24zM562.176 560.896a10.24 10.24 0 0 1-10.24-10.24v-35.84a10.24 10.24 0 0 1 20.48 0v35.84a10.24 10.24 0 0 1-10.24 10.24zM393.5744 638.8736a10.24 10.24 0 0 1-10.24-8.7552l-5.12-35.84a10.24 10.24 0 0 1 8.704-11.5712 10.24 10.24 0 0 1 11.5712 8.704l5.12 35.84a10.24 10.24 0 0 1-8.704 11.5712 6.7584 6.7584 0 0 1-1.3312 0.0512z" fill="#3C122C" p-id="3327"></path><path d="M265.0624 694.9888a15.36 15.36 0 0 1-14.5408-10.24 615.3728 615.3728 0 0 1-24.6272-98.9184 15.36 15.36 0 1 1 30.3104-5.12 588.8 588.8 0 0 0 23.3472 93.952 15.36 15.36 0 0 1-14.4896 20.48zM232.448 521.4208a15.36 15.36 0 0 1-15.36-14.5408c-0.6656-12.1344-0.6656-19.2512-0.6656-19.5584a15.36 15.36 0 0 1 15.36-15.36 15.36 15.36 0 0 1 15.36 15.36s0 6.7072 0.6144 17.92a15.36 15.36 0 0 1-14.4896 16.1792z" fill="#FFFFFF" p-id="3328"></path></svg>