<?xml version="1.0" standalone="no"?><!DOCTYPE svg PUBLIC "-//W3C//DTD SVG 1.1//EN" "http://www.w3.org/Graphics/SVG/1.1/DTD/svg11.dtd"><svg height="1024" node-id="1" sillyvg="true" template-height="1024" template-width="1024" version="1.1" viewBox="0 0 1024 1024" width="1024" xmlns="http://www.w3.org/2000/svg" xmlns:xlink="http://www.w3.org/1999/xlink"><defs node-id="36"><clipPath id="master_svg0_30_414" node-id="3"><path d="M 0.00 0.00 L 1024.00 0.00 L 1024.00 1024.00 L 0.00 1024.00 Z" fill="#000000" fill-rule="nonzero" node-id="39" stroke="none" target-height="1024" target-width="1024" target-x="0" target-y="0"></path></clipPath></defs><g node-id="117"><g clip-path="url(#master_svg0_30_414)" group-id="1" id="sillyvg_g_1" node-id="45"><path d="M 482.65 855.51 C 404.28 787.61 390.24 544.56 444.03 439.00 C 447.60 431.97 441.68 436.12 430.19 411.20 C 406.35 359.90 431.58 297.99 487.77 282.84 C 511.48 276.46 537.82 280.33 558.78 292.40 C 606.81 320.02 617.28 389.54 580.01 432.99 C 575.46 438.30 581.05 434.40 593.35 473.92 C 650.37 656.90 569.41 930.86 482.65 855.51 Z" fill="#ffcf00" fill-rule="nonzero" group-id="1,2" node-id="49" stroke="none" target-height="654.40186" target-width="260.13623" target-x="390.2378" target-y="276.45795"></path><path d="M 521.65 866.79 C 484.51 879.10 450.60 814.72 451.83 812.59 C 453.55 809.61 477.78 820.21 503.02 810.51 C 547.20 793.53 563.75 740.38 568.98 693.71 C 578.87 605.37 564.85 534.43 577.34 486.88 C 578.18 483.71 584.39 460.65 587.68 460.64 C 589.59 460.63 589.65 462.82 590.15 464.21 C 637.31 596.04 604.54 839.29 521.65 866.79 Z M 584.24 543.59 L 584.24 543.57 C 584.75 543.57 585.28 543.67 585.75 543.55 C 586.42 543.37 585.94 544.12 586.24 543.49 C 586.24 543.48 585.91 543.24 585.73 543.23 C 584.49 543.18 583.49 543.17 582.28 543.32 C 583.46 543.66 582.95 543.59 584.24 543.59 Z M 588.60 656.57 L 588.60 656.59 C 589.22 656.59 588.67 656.63 590.59 656.44 C 589.86 656.32 588.27 655.99 587.05 656.25 C 586.38 656.39 586.87 655.68 586.54 656.29 C 587.17 656.63 586.54 656.57 588.60 656.57 Z" fill="#fd8a02" fill-opacity="0.5" fill-rule="nonzero" group-id="1,3" node-id="54" stroke="none" target-height="418.47" target-width="186.71155" target-x="450.59796" target-y="460.63217"></path><path d="M 939.71 518.41 C 914.46 540.41 833.76 564.38 857.39 546.88 C 865.27 541.04 878.53 524.40 883.49 517.16 C 891.93 504.86 898.64 491.69 901.82 477.01 C 903.15 470.86 902.73 464.52 901.93 458.28 C 897.67 424.92 862.62 411.53 882.06 369.34 C 895.36 340.45 923.83 323.65 882.31 277.16 C 869.71 263.05 861.31 259.34 852.64 243.10 C 847.21 232.94 844.98 216.12 848.83 201.85 C 850.52 195.58 853.27 189.76 856.42 184.13 C 858.10 181.13 860.91 179.33 864.02 178.02 C 895.26 164.82 936.67 152.91 965.96 170.27 C 976.69 176.63 987.76 190.93 994.33 202.51 C 1043.89 289.96 1017.09 451.00 939.71 518.41 Z M 4.89 312.83 C 4.89 307.08 4.68 301.31 4.93 295.57 C 6.54 257.79 17.38 213.61 41.93 184.45 C 47.80 177.48 54.42 171.36 62.88 167.50 C 91.83 154.31 130.68 165.52 159.78 178.08 C 163.72 179.78 166.49 182.39 168.43 186.00 C 173.61 195.64 177.23 205.70 176.56 216.92 C 176.33 220.74 176.39 224.54 175.81 228.37 C 173.01 246.81 160.79 258.12 147.04 271.28 C 139.82 278.18 133.81 286.09 128.15 294.24 C 121.53 303.76 118.92 314.42 120.12 325.97 C 122.42 348.26 150.68 365.71 147.10 399.12 C 145.69 412.22 137.99 421.00 129.78 435.64 C 121.98 449.57 118.15 466.92 123.31 482.41 C 125.60 489.27 128.43 500.00 138.93 515.31 C 158.92 544.42 171.87 549.26 170.35 552.40 C 169.57 554.00 167.98 553.42 166.65 553.15 C 132.69 546.21 94.98 532.27 71.69 506.54 C 40.90 472.54 15.68 421.51 6.69 350.34 C 5.12 337.87 4.48 325.38 4.89 312.83 Z M 247.43 905.44 C 239.78 904.78 232.34 903.08 224.81 901.84 C 218.09 900.74 194.68 891.41 175.26 877.79 C 122.03 840.45 92.93 778.20 105.38 703.27 C 106.05 699.24 108.08 696.74 112.03 695.46 C 120.42 692.73 128.85 691.50 137.68 693.05 C 143.00 693.99 148.25 695.02 153.29 697.01 C 163.12 700.88 178.61 711.79 189.34 727.04 C 211.78 758.92 199.89 801.17 240.78 820.52 C 270.03 834.36 299.32 818.29 325.21 823.95 C 351.53 829.70 368.85 852.77 370.62 869.19 C 370.86 871.43 370.08 873.11 368.27 874.62 C 344.92 894.22 315.79 904.03 284.81 906.42 C 280.13 906.78 261.70 906.66 247.43 905.44 Z M 921.50 735.68 C 921.15 814.12 875.48 872.73 810.27 898.10 C 789.51 906.18 746.24 911.20 708.14 901.35 C 681.92 894.57 664.41 881.05 657.44 876.36 C 642.46 866.30 673.36 822.62 706.99 822.98 C 721.01 823.13 716.83 822.28 732.98 824.46 C 759.12 827.99 783.33 827.60 801.72 806.40 C 826.53 777.79 809.74 743.19 852.42 708.10 C 873.32 690.92 897.38 689.03 913.28 696.15 C 916.14 697.43 917.59 699.45 918.07 702.40 C 918.75 706.53 919.74 710.61 920.12 714.76 C 920.80 722.38 921.73 729.99 921.50 735.68 Z M 540.26 388.60 C 534.74 382.74 539.32 375.12 546.69 372.48 C 558.11 368.38 569.39 371.56 574.06 376.60 C 586.60 390.12 553.63 402.81 540.26 388.60 Z M 483.53 388.60 C 489.04 382.74 484.46 375.12 477.09 372.48 C 465.67 368.38 454.40 371.56 449.72 376.60 C 437.18 390.12 470.15 402.81 483.53 388.60 Z" fill="#fc09b2" fill-rule="nonzero" group-id="1,4" node-id="59" stroke="none" target-height="758.2883" target-width="1039.4061" target-x="4.4820237" target-y="152.914"></path><path d="M 49.44 229.53 C 49.10 212.31 62.16 196.02 82.63 195.82 C 103.30 195.62 116.42 211.49 116.71 229.30 C 117.03 247.97 101.87 262.48 82.84 262.88 C 65.54 263.25 48.92 248.44 49.44 229.53 Z M 940.41 262.79 C 922.38 263.46 906.02 247.11 907.45 228.75 C 906.47 213.81 919.20 196.25 941.20 195.54 C 962.01 196.97 974.53 212.23 974.49 229.53 C 974.45 251.02 955.91 263.93 940.41 262.79 Z M 71.02 410.32 C 56.68 411.23 41.76 399.60 41.68 381.49 C 41.60 365.87 53.60 352.43 70.95 352.35 C 87.34 352.27 100.12 365.20 100.25 381.44 C 100.39 399.56 84.29 411.74 71.02 410.32 Z M 953.12 410.32 C 936.96 411.21 923.58 398.11 923.45 381.85 C 923.30 364.28 937.12 352.49 952.33 352.33 C 969.24 352.16 982.29 365.95 982.04 381.62 C 981.74 400.15 966.04 411.50 953.12 410.32 Z M 731.55 838.68 C 744.36 837.73 756.95 850.23 756.57 863.85 C 756.20 877.21 746.29 889.27 730.92 889.22 C 718.15 889.18 705.77 878.77 705.80 863.74 C 705.83 850.18 717.40 837.54 731.55 838.68 Z M 317.58 863.78 C 318.13 878.28 306.62 889.26 292.29 889.22 C 278.29 889.18 267.18 877.90 267.03 863.85 C 266.88 850.33 277.98 838.69 292.68 838.51 C 305.84 838.36 318.80 850.61 317.58 863.78 Z M 154.91 794.26 C 142.61 794.21 131.36 784.58 130.46 769.89 C 131.67 754.24 141.49 745.86 155.45 744.73 C 170.95 745.91 180.44 756.37 180.20 769.91 C 179.91 785.91 167.27 794.57 154.91 794.26 Z M 868.45 794.27 C 854.76 794.61 843.39 782.50 843.65 770.04 C 844.37 736.12 892.76 737.37 893.01 769.25 C 893.13 784.40 881.28 794.14 868.45 794.27 Z M 62.20 460.11 C 62.44 447.73 71.95 438.99 83.17 439.34 C 95.93 439.74 104.07 448.39 103.98 460.30 C 103.89 472.93 95.12 480.27 83.02 481.26 C 69.76 480.14 62.33 471.17 62.20 460.11 Z M 919.99 460.37 C 918.99 451.11 926.84 439.53 940.52 439.29 C 967.66 438.82 969.30 479.94 940.80 481.21 C 929.47 481.71 920.01 471.97 919.99 460.37 Z M 198.04 821.94 C 209.09 821.45 217.74 830.04 218.01 841.53 C 218.22 850.96 209.44 861.44 197.87 861.35 C 187.75 861.27 178.03 852.50 178.01 841.40 C 178.00 830.86 188.12 820.55 198.04 821.94 Z M 825.47 821.95 C 836.26 821.47 844.67 828.69 845.94 840.90 C 846.16 843.02 845.46 845.05 844.89 847.03 C 839.12 867.15 810.42 864.81 806.67 846.64 C 804.58 836.55 806.96 830.66 815.40 824.52 C 818.45 822.29 822.05 821.60 825.47 821.95 Z M 71.09 323.47 C 61.70 324.73 51.51 314.90 51.75 304.47 C 51.99 293.81 60.56 285.36 71.26 285.36 C 80.18 285.36 90.26 291.87 90.57 304.63 C 90.77 313.02 83.66 324.09 71.09 323.47 Z M 952.28 323.47 C 943.08 324.43 933.34 315.57 933.37 304.28 C 933.39 294.66 942.27 285.27 952.96 285.35 C 962.83 285.42 972.13 294.55 971.85 304.94 C 971.63 313.65 964.09 324.50 952.28 323.47 Z" fill="#ff8ede" fill-rule="nonzero" group-id="1,5" node-id="64" stroke="none" target-height="693.726" target-width="940.6897" target-x="41.60369" target-y="195.54199"></path><path d="M 176.31 217.21 C 176.76 206.94 173.41 197.65 169.09 188.61 C 167.55 185.37 166.09 183.38 168.32 182.89 C 169.82 182.55 171.06 183.31 172.27 183.94 C 223.06 210.72 243.35 228.12 283.15 262.40 C 309.09 284.74 359.68 339.96 393.46 391.51 C 414.92 424.26 422.88 441.96 431.59 458.71 C 436.74 468.62 430.09 465.91 420.02 519.35 C 405.89 594.33 412.33 697.42 429.71 753.27 C 430.57 756.02 430.53 758.76 430.01 761.54 C 422.44 801.93 405.79 840.29 375.30 868.51 C 372.78 870.85 370.86 871.56 370.05 867.95 C 363.78 840.08 330.44 817.96 305.48 823.14 C 304.18 823.41 276.06 826.32 274.96 826.40 C 270.99 826.71 267.00 826.75 263.00 826.13 C 258.20 825.38 253.37 825.06 248.63 823.79 C 224.64 817.38 212.28 798.74 206.49 775.19 C 201.96 756.74 198.39 740.76 188.17 726.63 C 173.37 706.17 150.14 690.50 124.71 692.83 C 113.89 693.83 110.18 698.03 108.16 696.43 C 106.62 695.21 107.62 693.52 107.99 692.06 C 110.46 682.44 113.64 673.01 117.52 663.86 C 129.57 635.54 148.30 610.35 169.37 591.34 C 194.87 568.34 215.04 559.69 216.00 559.01 C 216.25 558.83 216.43 558.53 216.64 558.29 C 214.14 556.85 208.65 559.50 176.99 554.85 C 174.02 554.41 171.71 553.11 169.65 551.23 C 157.54 540.15 146.44 528.16 137.45 514.34 C 105.94 465.91 125.43 442.38 140.55 415.95 C 163.46 375.90 119.07 349.30 119.66 324.15 C 119.81 317.71 118.06 307.44 128.08 293.04 C 147.03 265.81 157.13 263.99 168.25 246.50 C 173.99 237.46 176.03 227.63 176.31 217.21 Z M 593.11 757.31 C 596.37 742.21 612.19 694.52 611.68 603.74 C 611.52 574.45 607.78 535.32 597.99 492.59 C 591.49 464.26 587.70 467.95 591.62 460.10 C 600.34 442.64 610.08 421.36 633.20 387.07 C 669.60 333.09 714.91 283.65 757.20 247.94 C 802.36 209.81 842.91 187.11 853.49 183.06 C 855.39 182.34 857.10 183.51 856.11 185.76 C 852.14 194.78 845.76 205.49 847.87 224.40 C 850.63 249.06 869.67 262.62 875.60 268.84 C 893.41 287.53 904.65 301.02 904.49 321.84 C 904.32 345.10 879.54 361.98 876.71 389.69 C 875.00 406.36 885.19 419.09 894.45 435.05 C 898.69 442.36 901.01 450.33 902.63 458.62 C 907.12 481.58 891.05 510.13 875.97 528.27 C 865.14 541.29 868.64 537.69 851.66 553.31 C 850.87 554.03 849.91 554.42 848.84 554.55 C 848.62 554.57 825.24 557.86 816.74 557.75 C 813.43 557.71 810.13 557.89 806.83 557.97 C 808.74 559.91 892.55 598.50 915.45 691.05 C 915.86 692.70 916.91 694.49 915.46 695.98 C 913.90 697.59 912.17 696.26 910.63 695.66 C 896.01 689.97 875.60 691.40 855.77 706.44 C 841.17 717.51 829.81 731.27 824.36 749.02 C 821.55 758.17 818.93 767.39 816.77 776.72 C 811.35 800.04 797.12 818.98 773.06 824.37 C 756.02 828.19 750.00 826.50 720.80 823.43 C 715.40 822.86 713.53 821.42 699.11 824.14 C 684.71 826.87 667.93 838.14 657.65 856.63 C 653.99 863.22 653.89 868.49 653.48 870.02 C 653.19 871.11 651.95 871.51 650.97 870.84 C 648.07 868.84 628.67 851.03 614.82 823.99 C 604.83 804.50 598.29 785.93 593.46 759.80 C 593.33 759.11 593.26 758.42 593.11 757.31 Z" fill="#91d728" fill-rule="nonzero" group-id="1,6" node-id="69" stroke="none" target-height="689.22406" target-width="810.9617" target-x="105.94412" target-y="182.33614"></path><path d="M 851.01 322.89 C 842.80 347.47 815.77 365.98 795.65 380.17 C 748.69 413.27 683.72 443.82 633.87 461.54 C 631.75 462.29 629.67 464.22 627.09 462.73 C 626.72 460.33 628.13 458.44 628.98 456.42 C 666.10 368.26 759.62 296.67 807.36 288.07 C 832.38 283.56 859.67 296.92 851.01 322.89 Z M 264.40 308.69 C 311.86 336.94 367.50 394.10 396.83 460.86 C 397.65 462.73 396.79 463.84 394.57 463.29 C 387.92 461.65 332.10 439.57 295.94 420.75 C 261.67 402.91 176.62 355.46 171.14 315.89 C 164.63 268.80 244.08 296.59 264.40 308.69 Z M 660.99 511.99 C 655.65 512.70 650.20 512.15 644.95 513.58 C 644.48 513.71 643.91 513.57 643.40 513.50 C 642.06 513.30 641.48 511.74 642.47 510.73 C 680.65 471.99 756.01 435.32 811.62 429.65 C 830.46 427.73 865.65 432.08 873.70 453.25 C 886.55 487.00 835.14 510.05 810.67 512.98 C 776.16 517.10 728.74 502.95 660.99 511.99 Z M 229.26 513.63 C 206.24 514.43 179.40 508.06 163.60 491.16 C 153.49 480.33 146.35 460.73 153.25 447.55 C 175.38 405.32 271.78 441.22 314.55 463.76 C 333.34 473.65 351.90 484.84 368.36 498.33 C 369.59 499.34 387.03 514.76 378.40 513.59 C 328.84 506.90 278.66 511.90 229.26 513.63 Z M 832.99 704.04 C 807.56 721.97 780.84 705.85 756.15 685.83 C 709.19 647.74 656.14 583.63 655.58 582.35 C 655.26 581.60 655.62 580.66 656.23 580.63 C 697.94 578.51 739.19 586.15 777.45 603.00 C 806.57 615.83 839.93 640.10 845.55 671.44 C 847.95 684.83 843.97 696.31 832.99 704.04 Z M 192.85 705.52 C 176.01 694.73 174.03 677.23 181.76 659.39 C 203.70 608.73 283.30 584.45 339.25 580.20 C 343.30 579.89 366.72 577.61 367.50 582.34 C 367.78 584.03 363.96 587.51 363.00 588.69 C 336.62 620.86 272.99 690.53 234.35 707.39 C 228.08 710.12 205.69 713.76 192.85 705.52 Z M 649.62 643.98 C 649.75 640.05 650.63 639.49 653.99 641.28 C 692.87 662.08 735.77 709.80 742.07 756.60 C 747.09 793.83 710.99 813.68 685.20 796.10 C 655.99 776.18 651.92 700.28 650.34 665.35 C 650.07 659.47 649.14 657.98 649.62 643.98 Z M 373.79 656.32 C 373.79 689.42 367.85 762.94 346.78 788.54 C 327.73 811.70 293.04 804.08 284.10 779.52 C 267.63 734.25 325.96 664.26 369.39 641.34 C 374.69 638.54 373.80 640.92 373.80 656.33 L 373.79 656.32 Z" fill="#018100" fill-rule="nonzero" group-id="1,7" node-id="74" stroke="none" target-height="544.8859" target-width="740.1916" target-x="146.35414" target-y="268.79797"></path><path d="M 411.86 615.86 C 413.55 627.24 409.85 677.39 429.72 753.21 C 430.44 755.91 430.54 758.74 430.02 761.49 C 422.41 802.18 405.60 840.47 375.33 868.48 C 372.09 871.48 370.91 871.15 369.72 867.00 C 363.89 846.71 350.32 833.69 331.11 826.07 C 328.06 824.86 324.91 823.77 321.58 823.43 C 320.12 823.28 320.37 821.89 321.38 821.33 C 334.63 813.88 335.41 814.14 341.31 809.00 C 407.70 751.18 381.23 647.51 409.41 595.84 C 410.01 594.73 410.54 593.62 411.46 593.87 C 411.74 593.95 412.13 594.29 412.15 594.53 C 413.31 611.78 411.11 610.79 411.86 615.86 Z M 593.09 757.35 C 595.22 747.57 604.39 718.83 608.95 668.90 C 613.43 619.88 610.22 589.43 613.46 594.45 C 644.95 643.23 610.42 771.71 700.67 820.59 C 701.56 821.08 702.96 821.31 702.93 822.46 C 702.90 823.85 701.39 823.47 700.48 823.70 C 695.42 824.98 690.42 826.42 685.76 828.88 C 670.83 836.79 655.84 852.97 653.82 868.06 C 653.75 868.75 653.62 869.44 653.46 870.11 C 653.23 870.94 652.05 871.47 651.36 871.01 C 650.50 870.43 649.68 869.79 648.92 869.08 C 617.61 840.09 600.26 799.92 593.09 757.35 Z M 604.12 517.66 C 604.27 517.62 604.44 517.51 604.55 517.55 C 605.06 517.76 604.82 518.77 604.19 518.11 C 604.10 518.02 604.14 517.81 604.12 517.66 Z" fill="#018100" fill-opacity="0.5" fill-rule="nonzero" group-id="1,8,15" node-id="81" stroke="none" target-height="353.97174" target-width="382.83957" target-x="320.12003" target-y="517.50793"></path><path d="M 141.79 847.16 C 126.43 828.82 115.07 806.01 115.63 803.10 C 117.89 802.67 118.90 804.68 120.21 805.74 C 124.40 809.14 128.46 812.68 132.87 815.82 C 178.54 848.36 241.83 855.31 293.63 835.03 C 314.45 826.88 315.77 821.66 324.31 823.61 C 351.52 829.80 368.17 852.14 370.51 867.72 C 370.95 870.62 370.49 873.02 367.82 875.04 C 295.12 930.13 195.51 911.29 141.79 847.16 Z M 755.08 907.36 C 718.74 906.11 689.32 900.28 657.44 876.39 C 654.71 874.35 653.21 872.07 653.48 868.48 C 653.69 865.84 653.99 863.27 655.04 860.86 C 659.06 851.63 664.53 843.53 672.47 837.12 C 684.57 827.34 691.67 825.31 701.79 823.23 C 711.26 821.29 716.44 837.23 771.78 845.22 C 782.37 846.75 792.98 846.30 803.56 846.01 C 837.92 845.08 877.82 829.61 904.86 804.48 C 905.81 803.60 907.10 802.37 907.84 802.78 C 908.53 803.17 908.18 804.43 907.86 805.14 C 887.25 851.49 853.42 881.42 805.98 899.76 C 798.28 902.74 773.53 906.05 773.29 906.04 C 766.15 905.85 759.12 907.79 755.08 907.36 Z" fill="#000e3f" fill-opacity="0.25" fill-rule="nonzero" group-id="1,9,16" node-id="89" stroke="none" target-height="127.76172" target-width="793.46185" target-x="115.06599" target-y="802.368"></path><path d="M 482.85 456.10 C 492.15 459.15 501.96 460.53 511.75 460.62 C 521.54 460.57 531.33 459.23 540.64 456.30 C 549.94 453.43 558.83 449.12 566.43 443.16 C 567.92 442.00 568.35 439.95 567.47 438.29 C 566.58 436.62 564.63 435.84 562.84 436.43 L 562.79 436.44 C 554.26 439.24 545.87 441.52 537.36 443.07 C 528.86 444.55 520.31 445.44 511.75 445.39 C 503.19 445.49 494.64 444.64 486.17 443.14 C 477.69 441.57 469.34 439.19 460.89 436.18 L 460.84 436.16 C 459.18 435.58 457.33 436.26 456.46 437.80 C 455.59 439.33 455.93 441.26 457.29 442.40 C 464.71 448.61 473.55 453.11 482.85 456.10 Z M 433.81 548.78 C 436.73 549.62 439.84 550.17 442.98 550.16 C 449.28 550.26 455.71 548.57 461.21 545.55 C 466.76 542.56 471.33 538.31 474.91 533.59 C 475.95 532.17 476.92 530.70 477.80 529.18 C 479.24 534.23 481.45 539.17 484.65 543.73 C 485.39 544.74 486.01 545.83 486.87 546.78 L 489.58 549.54 C 491.28 551.47 493.58 552.90 495.76 554.45 C 496.81 555.29 498.10 555.81 499.37 556.35 L 503.20 557.93 C 504.57 558.26 505.97 558.53 507.36 558.80 C 508.75 559.09 510.15 559.35 511.60 559.24 L 515.90 559.03 C 517.32 558.92 518.67 558.41 520.06 558.08 C 522.89 557.48 525.32 556.15 527.74 554.79 C 529.00 554.17 530.05 553.34 531.04 552.46 L 534.07 549.86 C 536.02 548.11 537.41 545.97 538.99 543.99 C 542.22 539.24 544.38 534.19 545.84 529.05 C 546.78 530.61 547.77 532.13 548.88 533.59 C 552.45 538.19 556.99 542.28 562.38 545.26 C 567.74 548.23 574.00 550.05 580.27 550.01 C 586.52 549.98 592.64 548.26 597.53 544.93 C 598.55 544.22 599.25 543.03 599.26 541.69 C 599.29 539.50 597.53 537.70 595.34 537.68 L 595.12 537.67 C 590.08 537.62 585.65 537.35 581.49 536.38 C 577.33 535.47 573.46 533.92 569.68 531.88 C 565.90 529.84 562.23 527.27 558.60 524.32 C 554.93 521.40 551.41 518.06 547.45 514.62 L 547.34 514.53 C 547.25 514.44 547.11 514.43 547.00 514.35 C 546.71 514.04 546.36 513.77 545.98 513.57 C 544.08 512.60 541.75 513.35 540.78 515.25 L 540.66 515.50 C 536.82 522.99 533.13 530.15 528.24 535.60 C 523.36 541.04 517.55 544.12 511.85 544.01 C 511.13 544.17 510.40 544.00 509.68 543.86 L 507.49 543.54 C 506.09 542.84 504.56 542.60 503.17 541.70 C 501.79 540.84 500.24 540.22 498.99 538.96 C 497.66 537.86 496.26 536.80 495.09 535.36 C 490.10 530.04 486.26 523.05 482.82 515.44 L 482.74 515.26 C 482.12 513.91 480.74 513.06 479.25 513.14 C 478.74 513.16 478.24 513.30 477.78 513.54 C 477.22 513.68 476.71 513.96 476.27 514.34 L 476.18 514.42 C 472.24 517.99 468.74 521.45 465.07 524.46 C 461.44 527.49 457.78 530.16 453.96 532.17 C 450.14 534.18 446.22 535.64 441.95 536.52 C 440.88 536.80 439.79 536.94 438.68 537.09 C 437.56 537.33 436.42 537.38 435.26 537.45 C 434.15 537.62 432.75 537.65 431.82 537.73 C 430.86 537.79 430.26 537.92 429.52 537.85 L 427.87 537.70 C 426.39 537.56 424.96 538.32 424.26 539.63 C 423.55 540.94 423.69 542.55 424.61 543.72 C 425.91 545.36 427.82 546.53 429.43 547.22 C 431.06 547.95 432.29 548.32 433.81 548.78 Z M 595.41 652.12 L 595.23 652.08 C 590.60 651.14 586.49 650.33 582.68 649.02 C 578.87 647.76 575.35 646.14 571.83 644.15 C 568.52 642.27 565.44 639.94 562.24 637.09 C 559.00 634.29 555.78 630.91 551.81 627.77 C 551.56 627.57 551.23 627.48 550.94 627.35 C 550.62 627.10 550.27 626.91 549.89 626.78 C 548.00 626.13 545.94 627.15 545.29 629.05 L 545.22 629.25 C 542.27 637.89 538.19 645.72 532.17 651.32 C 529.25 654.16 525.99 656.51 522.48 657.97 C 519.05 659.49 515.44 660.51 511.93 660.23 C 508.43 660.18 505.04 659.18 501.80 657.51 C 498.75 655.76 495.22 652.85 492.30 649.95 C 489.37 646.99 486.87 643.62 484.89 639.95 C 482.74 636.17 481.58 632.14 479.29 626.98 C 478.64 625.52 477.15 624.62 475.55 624.72 C 474.39 624.79 473.42 625.40 472.77 626.26 C 472.70 626.32 472.61 626.34 472.54 626.41 L 472.46 626.49 C 468.80 629.94 465.63 633.30 462.31 636.25 C 459.03 639.23 455.72 641.84 452.26 643.97 C 448.80 646.10 445.10 647.80 441.23 649.05 C 437.28 650.38 432.99 651.18 428.18 652.09 L 427.95 652.13 C 426.26 652.46 424.98 653.83 424.76 655.54 C 424.54 657.25 425.44 658.90 426.99 659.64 C 432.02 662.05 437.83 662.97 443.67 662.51 C 449.52 662.04 455.35 660.04 460.33 656.89 C 465.33 653.75 469.45 649.54 472.58 644.91 C 473.05 644.19 473.47 643.44 473.90 642.70 C 474.04 643.21 474.13 643.72 474.28 644.21 C 475.93 649.43 478.52 654.52 481.95 658.82 C 485.34 663.26 489.13 666.77 494.20 670.30 C 499.38 673.39 505.46 675.27 511.63 675.47 C 524.12 675.61 535.32 669.03 542.13 660.26 C 546.26 655.28 549.03 649.50 550.64 643.52 C 551.08 644.28 551.51 645.04 552.01 645.79 C 555.01 650.26 559.19 654.44 564.22 657.35 C 569.02 660.16 574.59 662.03 580.24 662.48 C 585.89 662.91 591.52 662.02 596.37 659.65 C 597.44 659.12 598.28 658.11 598.54 656.85 C 598.98 654.68 597.58 652.56 595.41 652.12 Z M 580.74 759.39 L 580.49 759.35 C 571.75 757.70 566.02 754.95 560.26 750.00 C 557.42 747.55 554.67 744.67 551.91 741.51 C 549.12 738.36 546.43 734.91 543.23 731.41 L 543.15 731.32 C 542.99 731.16 542.78 731.08 542.60 730.94 C 542.10 730.37 541.43 729.98 540.69 729.81 C 538.72 729.37 536.77 730.60 536.33 732.57 L 536.31 732.69 C 534.34 741.45 531.50 750.59 527.45 757.42 C 526.93 758.23 526.40 758.99 525.86 759.64 L 523.87 762.01 C 522.56 763.49 521.14 764.87 519.62 766.13 C 516.71 768.44 513.88 769.77 511.52 769.65 C 506.86 770.07 500.42 764.26 496.14 757.17 C 491.81 749.99 488.56 741.58 487.30 732.98 L 487.26 732.72 C 487.02 731.10 485.78 729.81 484.17 729.50 C 482.42 729.17 480.78 730.12 480.04 731.65 L 471.59 741.68 C 468.82 744.88 466.00 748.04 463.29 750.46 C 460.89 752.63 457.71 754.56 454.40 756.00 C 451.02 757.49 447.25 758.45 442.87 759.35 L 442.56 759.41 C 440.91 759.76 439.65 761.11 439.42 762.79 C 439.20 764.46 440.05 766.10 441.55 766.88 C 446.38 769.37 452.17 770.11 457.84 769.24 C 463.54 768.28 468.96 765.90 473.49 761.78 C 476.37 759.12 478.60 756.24 480.48 753.21 C 481.38 756.76 482.59 760.22 484.10 763.56 C 486.36 768.46 489.42 773.14 493.75 777.31 C 497.98 781.36 504.36 784.91 511.67 784.88 C 519.02 784.74 525.07 781.08 529.34 777.22 C 531.36 775.26 533.22 773.14 534.91 770.89 C 535.69 769.77 536.47 768.75 537.24 767.54 C 538.05 766.21 538.73 764.90 539.33 763.60 C 541.01 759.87 542.02 756.19 542.73 752.52 C 544.75 755.78 547.24 758.84 550.28 761.51 C 554.43 765.17 559.74 768.01 565.46 769.06 C 571.17 770.11 577.07 769.37 581.85 766.87 C 582.93 766.30 583.70 765.27 583.93 764.07 C 584.34 761.90 582.91 759.80 580.74 759.39 Z" fill="#fd8a02" fill-rule="nonzero" group-id="1,10" node-id="95" stroke="none" target-height="349.33014" target-width="175.73889" target-x="423.54828" target-y="435.57617"></path><path d="M 446.95 491.99 C 454.12 472.77 463.14 478.88 462.23 484.70 C 453.50 540.38 455.15 518.29 451.11 562.70 C 443.70 644.18 452.70 673.31 453.36 708.58 C 453.44 712.61 449.74 718.53 444.36 716.39 C 441.79 715.37 439.37 713.57 437.56 707.64 C 422.13 657.16 422.05 558.71 446.95 491.99 Z" fill="#ffffff" fill-opacity="0.75" fill-rule="nonzero" group-id="1,11" node-id="100" stroke="none" target-height="245.76001" target-width="41.097992" target-x="422.04578" target-y="472.768"></path><path d="M 526.34 345.07 C 523.71 345.34 521.80 347.70 522.08 350.33 C 523.34 362.33 519.52 369.41 515.53 372.05 C 513.27 373.53 510.83 373.69 508.65 372.47 C 504.83 370.33 500.89 363.30 501.33 349.99 C 501.42 347.35 499.34 345.13 496.70 345.04 C 493.99 345.01 491.84 347.03 491.75 349.67 C 491.26 364.85 495.71 376.20 503.97 380.83 C 506.32 382.16 508.98 382.86 511.68 382.86 C 514.81 382.86 517.96 381.92 520.80 380.05 C 529.02 374.63 533.06 363.14 531.60 349.33 C 531.34 346.69 528.97 344.78 526.34 345.07 Z" fill="#000e3f" fill-rule="nonzero" group-id="1,12" node-id="105" stroke="none" target-height="38.078674" target-width="41.799957" target-x="491.26004" target-y="344.78137"></path><path d="M 958.50 161.73 C 897.90 138.53 804.84 204.79 777.77 225.66 C 690.75 292.73 622.10 385.21 592.67 447.12 C 591.83 448.88 591.11 450.44 590.41 451.95 C 588.58 447.57 586.59 443.26 584.44 439.02 C 583.90 437.93 583.36 436.85 582.95 436.00 C 613.04 400.09 615.13 348.62 587.49 312.47 C 581.33 304.42 573.95 297.38 565.60 291.63 C 579.73 270.37 575.67 242.26 572.03 217.29 C 571.15 211.28 570.33 205.60 569.79 200.25 C 566.82 170.75 573.81 145.98 588.99 132.28 C 598.50 123.69 610.24 120.30 622.01 122.71 C 640.52 126.51 646.49 139.10 648.41 146.26 C 651.46 157.70 648.48 171.02 641.46 177.23 C 637.45 180.79 632.73 181.51 627.43 179.38 C 623.10 177.63 620.14 173.94 619.32 169.24 C 618.38 163.84 620.35 158.38 624.58 154.61 C 626.46 152.83 626.58 149.88 624.86 147.95 C 623.14 146.02 620.20 145.80 618.21 147.46 C 611.49 153.44 608.37 162.20 609.89 170.88 C 611.29 178.92 616.38 185.26 623.86 188.26 C 632.55 191.76 641.05 190.38 647.81 184.40 C 657.67 175.67 661.72 158.97 657.66 143.79 C 653.43 127.96 641.14 116.86 623.94 113.33 C 609.31 110.33 594.23 114.64 582.57 125.17 C 565.11 140.93 556.98 168.65 560.26 201.21 C 560.82 206.77 561.66 212.55 562.55 218.67 C 565.95 241.99 569.74 268.25 557.43 286.57 C 537.28 275.53 513.45 272.08 489.69 277.67 C 481.53 279.59 473.64 282.57 466.24 286.52 C 454.49 266.25 457.71 243.20 461.15 218.85 C 465.45 188.40 469.90 156.91 445.11 128.67 C 434.73 116.85 419.89 110.97 404.36 112.49 C 389.69 113.95 377.25 121.80 370.21 134.03 C 361.58 149.04 362.76 168.17 373.15 181.66 C 378.98 189.22 391.11 192.24 400.19 188.40 C 407.51 185.31 412.79 178.09 413.97 169.56 C 415.19 160.78 411.83 152.26 404.98 146.77 C 402.91 145.20 399.96 145.56 398.33 147.59 C 396.71 149.62 397.00 152.57 398.99 154.25 C 403.24 157.66 405.24 162.75 404.48 168.24 C 403.76 173.45 400.69 177.80 396.46 179.58 C 391.40 181.71 383.91 179.92 380.74 175.81 C 372.68 165.36 371.79 150.49 378.51 138.81 C 383.99 129.29 393.76 123.17 405.31 122.02 C 417.71 120.79 429.59 125.52 437.91 134.99 C 459.80 159.92 455.85 187.90 451.66 217.52 C 448.14 242.49 444.54 268.26 458.01 291.42 C 437.80 304.99 423.58 326.02 418.75 351.02 C 413.09 380.34 419.97 407.27 440.31 435.57 C 437.85 440.59 435.56 445.71 433.46 450.90 C 426.12 434.82 407.77 400.02 367.18 347.38 C 313.50 277.74 224.86 193.18 137.05 164.72 C 91.93 150.10 58.51 156.10 37.70 182.56 C -21.86 258.28 -9.16 414.55 63.82 504.12 C 98.70 546.92 160.71 559.06 203.44 562.04 C 137.51 601.09 98.39 664.61 97.91 734.85 C 97.44 803.10 133.73 862.97 194.97 895.01 C 215.08 905.53 242.28 911.74 270.54 911.74 C 300.85 911.74 332.37 904.58 357.58 887.90 C 408.70 854.07 424.38 803.32 431.09 775.85 C 444.88 817.19 464.20 849.64 488.19 864.99 C 497.28 870.82 504.92 873.27 512.05 873.27 C 520.25 873.27 527.77 870.02 536.08 864.93 C 559.36 850.65 578.68 818.77 592.60 777.29 C 594.70 785.84 597.29 794.27 600.37 802.52 C 612.82 835.90 632.66 863.39 657.75 882.01 C 686.76 903.55 721.82 911.53 753.81 911.53 C 782.12 911.53 808.03 905.28 825.22 896.67 C 879.79 869.34 915.81 820.34 924.05 762.23 C 932.88 699.92 908.77 635.58 859.58 590.12 C 851.57 582.72 838.88 571.00 825.07 562.35 C 849.46 561.05 889.58 554.81 929.96 530.73 C 976.17 503.16 1005.44 433.23 1016.47 381.73 C 1039.89 272.37 1005.40 179.68 958.50 161.73 Z M 423.54 766.15 C 417.64 791.68 405.36 844.80 352.29 879.91 C 306.55 910.19 238.64 907.04 199.41 886.52 C 141.42 856.18 107.05 799.51 107.50 734.92 C 107.99 663.13 151.12 598.61 222.87 562.31 C 224.83 561.32 225.87 559.12 225.38 556.98 C 224.89 554.84 223.01 553.30 220.81 553.25 C 181.04 552.38 108.73 544.06 71.25 498.08 C -5.98 403.28 -6.16 253.82 45.23 188.48 C 63.30 165.51 93.20 160.58 134.10 173.83 C 219.83 201.62 306.80 284.72 359.60 353.22 C 413.78 423.51 427.83 461.94 428.56 464.01 C 399.32 548.42 400.79 669.10 425.58 757.81 C 424.95 760.04 424.31 762.83 423.54 766.15 Z M 531.07 856.76 C 517.66 864.99 509.04 866.96 493.36 856.93 C 415.73 807.23 389.88 556.21 450.14 437.26 C 450.25 437.05 450.25 436.82 450.32 436.60 C 450.43 436.27 450.56 435.95 450.60 435.61 C 450.63 435.30 450.58 435.00 450.55 434.70 C 450.53 434.39 450.53 434.09 450.44 433.79 C 450.35 433.46 450.17 433.18 450.01 432.88 C 449.90 432.67 449.86 432.44 449.71 432.24 C 429.73 405.38 422.88 380.15 428.16 352.84 C 434.50 319.98 458.92 294.75 491.89 287.00 C 525.38 279.11 559.10 291.11 579.88 318.29 C 604.98 351.13 602.83 398.07 575.01 430.59 C 573.67 431.44 572.72 432.87 572.72 434.58 C 572.72 434.73 572.77 434.89 572.78 435.05 C 572.78 435.36 572.82 435.67 572.88 435.97 C 573.23 437.92 574.23 440.01 575.87 443.30 C 579.95 451.49 588.45 468.53 596.28 505.17 C 613.76 587.00 608.90 683.53 588.98 755.86 C 588.90 756.09 588.83 756.31 588.79 756.54 C 575.48 804.50 555.56 841.75 531.07 856.76 Z M 1007.11 379.72 C 996.48 429.34 968.62 496.51 925.05 522.50 C 869.44 555.67 814.51 553.50 804.07 552.74 C 801.65 552.59 799.44 554.25 799.00 556.67 C 798.57 559.08 800.03 561.44 802.39 562.12 C 820.96 567.48 841.85 586.79 853.08 597.16 C 899.97 640.48 922.95 701.69 914.56 760.88 C 906.78 815.83 872.65 862.20 820.93 888.11 C 786.49 905.36 714.86 912.49 663.46 874.32 C 639.87 856.80 621.15 830.82 609.35 799.18 C 604.16 785.27 600.80 772.55 598.46 758.24 C 618.91 684.63 623.65 587.45 605.64 503.17 C 602.19 486.99 598.59 474.50 595.27 464.81 C 597.25 459.94 598.87 456.38 601.32 451.23 C 630.26 390.36 697.85 299.35 783.61 233.25 C 886.74 153.76 940.91 165.26 955.07 170.68 C 997.38 186.87 1029.16 276.71 1007.11 379.72 Z" fill="#000e3f" fill-rule="nonzero" group-id="1,13" node-id="110" stroke="none" target-height="802.1677" target-width="1061.7445" target-x="-21.85823" target-y="110.326004"></path><path d="M 470.32 336.37 C 463.67 336.45 458.64 341.59 458.55 348.23 C 458.47 354.37 464.01 360.06 470.62 359.93 C 477.16 359.81 482.30 354.82 482.28 347.89 C 482.29 341.29 477.11 336.29 470.32 336.37 Z M 553.22 336.36 C 545.26 336.54 541.50 342.90 541.28 348.21 C 541.05 354.09 546.91 360.14 552.84 359.99 C 569.39 359.55 568.37 336.03 553.22 336.36 Z" fill="#000e3f" fill-rule="nonzero" group-id="1,14" node-id="115" stroke="none" target-height="24.116028" target-width="110.914215" target-x="458.47366" target-y="336.02597"></path></g></g></svg>