<?xml version="1.0" standalone="no"?><!DOCTYPE svg PUBLIC "-//W3C//DTD SVG 1.1//EN" "http://www.w3.org/Graphics/SVG/1.1/DTD/svg11.dtd"><svg height="1024" node-id="1" sillyvg="true" template-height="1024" template-width="1024" version="1.1" viewBox="0 0 1024 1024" width="1024" xmlns="http://www.w3.org/2000/svg" xmlns:xlink="http://www.w3.org/1999/xlink"><defs node-id="76"><clipPath id="master_svg0_30_066" node-id="3"><path d="M 0.00 0.00 L 1024.00 0.00 L 1024.00 1024.00 L 0.00 1024.00 Z" fill="#000000" fill-rule="nonzero" node-id="79" stroke="none" target-height="1024" target-width="1024" target-x="0" target-y="0"></path></clipPath></defs><g node-id="260"><g clip-path="url(#master_svg0_30_066)" group-id="1" id="sillyvg_g_1" node-id="85"><path d="M 953.68 632.15 C 951.34 656.41 945.21 691.21 934.98 713.41 C 914.91 756.91 819.18 765.73 780.92 722.93 C 774.79 716.09 769.27 699.00 766.74 689.59 C 763.49 677.52 760.94 665.31 758.97 653.00 C 758.00 647.00 757.34 640.97 756.83 637.11 C 756.35 629.69 756.40 629.60 761.43 629.85 C 774.65 630.47 778.19 639.88 788.47 646.58 C 795.64 651.27 802.82 651.56 810.01 646.54 C 817.74 641.14 822.22 640.17 828.30 640.75 C 839.98 641.86 848.35 670.76 873.06 645.56 C 879.57 638.92 888.58 639.61 894.83 643.32 C 903.48 648.43 908.74 653.06 917.91 648.54 C 932.26 641.47 935.16 628.45 951.83 629.89 C 953.33 630.01 953.83 630.55 953.68 632.15 Z" fill="#fc09b2" fill-rule="nonzero" group-id="1,2" node-id="89" stroke="none" target-height="137.27765" target-width="197.4743" target-x="756.3538" target-y="628.45404"></path><path d="M 832.94 367.13 C 851.77 369.27 886.34 384.65 905.44 401.97 C 921.41 416.46 933.32 433.07 930.56 454.38 C 928.48 470.47 910.43 486.44 888.48 482.27 C 882.87 481.21 883.14 480.69 882.40 483.84 C 880.59 491.56 872.26 500.09 862.44 500.08 C 848.62 500.06 837.48 489.60 831.20 477.01 C 829.52 473.65 829.54 472.95 827.15 476.59 C 809.90 502.81 766.09 500.73 756.91 463.70 C 753.74 450.95 756.87 442.60 759.86 434.34 C 760.66 432.13 760.56 431.68 758.62 430.89 C 743.70 424.89 735.41 413.21 730.75 398.41 C 729.48 394.38 730.31 393.44 733.21 393.03 C 748.00 390.95 765.29 393.03 779.01 396.96 C 821.23 409.04 827.08 433.99 829.56 427.19 C 831.43 422.08 832.86 416.82 833.51 411.44 C 838.13 373.44 826.26 366.37 832.94 367.13 Z" fill="#91d728" fill-rule="nonzero" group-id="1,3" node-id="94" stroke="none" target-height="136.43799" target-width="203.83588" target-x="729.48" target-y="366.36996"></path><path d="M 800.02 566.51 C 799.84 565.51 798.98 565.21 798.21 565.79 C 790.97 571.15 790.06 592.62 772.95 608.63 C 765.57 615.54 757.10 620.25 746.89 621.41 C 745.26 621.60 743.71 622.28 742.02 622.05 C 738.84 621.60 740.83 618.71 741.53 616.93 C 747.65 601.34 747.17 589.70 747.91 579.78 C 748.98 565.43 762.01 550.53 779.55 546.70 C 783.21 545.90 787.00 545.58 790.74 545.18 C 795.77 544.65 793.87 544.01 794.41 534.39 C 794.88 525.86 797.10 517.87 802.05 510.80 C 811.41 497.42 827.39 494.68 840.15 505.39 C 850.86 514.37 847.26 516.98 851.09 515.22 C 855.82 513.06 859.13 510.35 870.58 511.53 C 877.11 512.20 881.97 515.57 884.30 521.96 C 888.37 533.09 884.37 535.18 889.17 535.04 C 897.63 534.80 904.36 538.50 910.30 544.09 C 911.92 545.61 912.02 545.76 913.35 544.20 C 928.40 526.57 956.21 545.54 960.61 567.21 C 965.56 591.59 943.67 613.01 923.03 627.08 C 920.71 628.67 918.64 628.70 916.14 627.77 C 896.69 620.52 879.89 606.51 870.15 592.03 C 859.47 576.13 864.65 571.25 859.13 574.69 C 847.72 581.82 830.73 586.52 820.48 586.88 C 817.86 586.98 815.30 587.63 812.65 587.69 C 809.16 587.76 805.80 587.00 802.37 586.73 C 801.18 586.64 800.75 585.83 800.84 584.66 C 801.46 576.97 801.41 573.93 800.02 566.51 Z M 701.43 600.60 C 701.65 600.63 698.75 600.85 699.23 598.49 C 699.67 596.35 702.82 595.57 705.31 578.40 C 709.69 548.25 704.43 546.75 712.84 529.70 C 728.55 497.85 764.63 493.77 781.70 517.98 C 784.55 522.02 781.45 520.60 784.34 524.05 C 786.90 527.10 782.23 527.48 780.91 527.88 C 762.64 533.41 749.97 544.73 742.63 560.82 C 735.58 576.26 723.48 593.65 707.45 599.62 C 705.74 600.26 704.02 600.72 701.43 600.60 Z M 913.47 503.09 C 912.19 500.54 912.37 496.95 914.90 495.66 C 931.09 487.44 953.68 494.54 965.84 517.67 C 973.07 531.44 979.35 534.16 975.34 535.57 C 974.42 535.90 973.46 536.18 972.49 536.26 C 946.43 538.48 925.64 527.24 913.47 503.09 Z" fill="#91d728" fill-rule="nonzero" group-id="1,4" node-id="99" stroke="none" target-height="141.25995" target-width="280.59418" target-x="698.754" target-y="487.44208"></path><path d="M 846.32 494.95 C 830.86 485.09 817.08 455.19 828.66 429.34 C 835.85 413.30 834.21 393.40 834.84 387.79 C 834.93 386.91 835.86 386.39 836.66 386.75 C 839.74 388.07 845.36 392.55 847.06 394.10 C 858.65 404.67 865.91 417.72 871.66 432.14 C 877.88 447.75 878.15 463.69 883.20 479.56 C 884.26 482.89 882.13 486.01 880.41 488.83 C 872.53 501.77 859.15 503.12 846.32 494.95 Z M 759.46 435.36 C 760.79 431.89 760.78 431.90 757.34 430.41 C 747.60 426.19 740.53 419.13 735.49 409.90 C 732.51 404.44 727.53 393.02 733.10 395.69 C 736.50 397.31 740.05 398.56 743.36 400.45 C 774.45 418.23 800.76 445.70 818.25 476.60 C 824.53 487.70 809.00 492.54 800.27 493.93 C 771.44 498.54 746.39 469.51 759.46 435.36 Z M 801.32 585.12 C 806.42 580.09 817.05 575.07 823.93 557.32 C 832.00 536.49 834.23 524.17 855.08 513.47 C 860.47 510.70 866.28 510.91 871.95 511.76 C 887.52 514.12 888.24 534.75 884.61 546.61 C 871.74 588.55 795.30 591.05 801.32 585.12 Z M 917.54 612.77 C 910.23 592.74 906.93 577.52 911.29 549.93 C 913.47 536.13 935.64 530.45 951.54 549.73 C 960.22 560.27 963.70 571.09 959.77 584.56 C 954.68 602.00 935.79 620.52 921.00 628.20 C 920.11 628.66 919.26 628.19 919.29 627.24 C 919.49 621.70 920.51 620.89 917.54 612.77 Z M 784.03 523.77 C 785.74 525.01 785.16 526.73 783.69 527.16 C 739.66 540.18 748.87 564.96 722.61 589.88 C 708.99 602.80 697.00 601.88 699.33 598.45 C 707.38 586.57 716.85 577.64 719.88 562.76 C 722.73 548.81 728.09 534.69 740.02 526.04 C 750.86 518.18 772.62 515.39 784.03 523.77 Z M 789.62 581.91 C 782.16 604.21 764.60 621.10 742.30 622.02 C 740.65 622.09 739.87 620.94 740.44 619.45 C 742.52 613.98 743.18 612.32 744.85 611.38 C 760.56 602.59 755.77 587.04 774.08 566.71 C 780.17 559.95 789.76 555.62 794.24 555.01 C 796.37 554.72 797.83 555.51 798.47 557.49 C 801.76 567.76 796.42 561.62 789.62 581.91 Z M 914.27 504.69 C 913.42 503.04 911.73 501.12 913.45 499.34 C 914.87 497.87 916.87 499.05 918.56 499.51 C 926.72 501.75 934.17 505.46 941.00 510.42 C 959.09 523.55 959.82 528.39 973.58 532.61 C 974.36 532.85 975.13 533.15 975.87 533.48 C 976.39 533.71 976.40 534.85 975.93 535.20 C 974.98 535.92 973.88 536.20 972.72 536.26 C 946.77 537.67 926.26 527.96 914.27 504.69 Z" fill="#018100" fill-opacity="0.5" fill-rule="nonzero" group-id="1,5,31" node-id="106" stroke="none" target-height="242.27698" target-width="279.39233" target-x="697.00385" target-y="386.38654"></path><path d="M 856.29 689.92 C 849.31 690.07 842.69 696.41 843.26 703.61 C 844.08 713.85 859.20 716.85 865.84 710.51 C 873.85 702.87 866.78 689.68 856.29 689.92 Z" fill="#ffffff" fill-rule="nonzero" group-id="1,6" node-id="112" stroke="none" target-height="27.170044" target-width="31.16803" target-x="842.68604" target-y="689.68195"></path><path d="M 954.35 626.01 C 953.78 634.48 946.08 624.23 930.68 639.67 C 915.47 654.92 907.68 652.24 896.59 645.05 C 877.46 632.65 874.13 650.38 860.69 655.29 C 848.45 659.77 839.74 648.46 834.26 644.09 C 815.82 629.38 807.88 667.26 781.35 641.54 C 773.97 634.38 769.60 630.79 760.82 630.09 C 756.21 629.73 755.85 629.39 755.75 624.75 C 755.71 622.96 754.77 621.06 755.67 619.43 C 756.59 617.77 758.73 617.67 760.31 616.85 C 785.25 603.88 788.72 579.78 793.85 570.71 C 794.74 569.14 795.80 567.67 796.84 566.19 C 797.87 564.71 800.15 564.84 800.48 566.95 C 803.03 583.58 798.97 586.15 804.42 586.57 C 826.13 588.23 841.40 583.38 858.32 574.55 C 863.12 572.04 862.60 575.57 865.42 582.27 C 872.90 600.04 891.86 616.21 909.40 624.32 C 911.78 625.43 914.24 626.37 916.66 627.38 C 918.82 628.28 920.72 627.90 922.69 626.60 C 944.32 612.20 949.34 602.17 953.11 598.18 C 953.69 597.57 954.98 597.78 955.25 598.99 C 955.42 599.78 955.44 600.62 955.44 601.44 C 955.59 618.35 955.01 616.35 954.35 626.01 Z M 854.67 170.28 C 867.56 170.30 876.08 180.11 876.37 191.75 C 876.64 202.58 867.62 213.37 854.81 213.47 C 827.21 213.71 826.04 170.21 854.67 170.28 Z" fill="#ff8ede" fill-rule="nonzero" group-id="1,7" node-id="117" stroke="none" target-height="497.0459" target-width="200.82599" target-x="754.7663" target-y="170.21405"></path><path d="M 876.29 191.75 C 876.91 201.07 869.17 210.47 860.44 212.66 C 850.49 215.17 840.99 209.72 839.80 206.94 C 839.19 205.54 841.09 205.63 842.22 205.52 C 856.02 204.06 863.25 188.56 861.18 174.26 C 861.07 173.50 860.43 172.60 861.26 171.97 C 862.19 171.26 863.14 171.92 863.99 172.32 C 872.89 176.47 876.76 185.86 876.29 191.75 Z" fill="#fc09b2" fill-opacity="0.5" fill-rule="nonzero" group-id="1,8" node-id="122" stroke="none" target-height="43.905975" target-width="37.717957" target-x="839.1919" target-y="171.26198"></path><path d="M 876.11 725.53 C 933.98 720.56 940.84 680.81 945.34 679.06 C 945.44 679.36 945.68 679.68 945.62 679.95 C 939.61 707.29 933.81 723.28 914.70 735.31 C 880.66 756.73 830.53 756.55 796.14 735.84 C 794.79 735.03 792.76 734.44 792.72 732.61 C 792.67 730.44 794.93 730.03 796.44 729.16 C 799.31 727.51 802.50 726.64 805.68 725.82 C 834.93 718.30 858.90 727.00 876.11 725.53 Z" fill="#000e3f" fill-opacity="0.25" fill-rule="nonzero" group-id="1,9" node-id="127" stroke="none" target-height="77.66797" target-width="153.0102" target-x="792.672" target-y="679.0621"></path><path d="M 778.63 688.77 C 776.60 680.02 765.67 629.98 770.98 619.87 C 772.67 616.65 776.87 616.52 778.66 624.82 C 781.15 636.34 783.55 647.89 785.73 659.48 C 786.93 665.90 796.67 693.22 786.72 696.19 C 782.42 697.48 779.42 692.20 778.63 688.77 Z M 906.15 451.69 C 903.46 450.52 902.62 448.39 901.10 443.63 C 890.20 409.54 869.69 402.33 863.92 394.89 C 862.90 393.58 863.71 391.88 865.35 391.48 C 869.65 390.43 881.72 397.79 885.94 401.14 C 896.77 409.77 903.91 421.02 909.26 433.55 C 915.57 448.29 909.94 453.33 906.15 451.69 Z M 812.84 429.56 C 814.85 432.51 816.08 435.59 813.17 437.84 C 810.84 439.64 807.93 437.89 805.85 435.81 C 795.87 425.84 791.73 420.81 775.03 410.83 C 771.98 409.01 766.57 406.25 767.92 403.68 C 770.91 398.00 799.82 410.42 812.84 429.56 Z M 881.20 575.14 C 881.16 573.44 881.63 571.05 882.80 568.82 C 883.83 566.85 886.38 567.19 887.05 569.02 C 888.85 573.95 887.96 575.26 891.90 584.99 C 896.69 596.79 907.57 604.38 905.17 608.42 C 904.45 609.62 902.40 609.85 900.18 608.95 C 897.71 607.96 895.58 606.40 893.71 604.55 C 885.76 596.68 881.86 587.02 881.20 575.14 Z M 812.94 515.69 C 814.06 514.48 815.30 513.38 816.64 512.41 C 818.47 511.09 828.67 508.31 824.75 513.35 C 822.72 515.95 810.67 526.62 813.83 545.57 C 815.05 552.90 807.65 555.92 805.34 547.95 C 802.91 539.61 804.18 530.14 808.18 522.48 C 809.45 520.01 811.05 517.72 812.94 515.69 Z M 745.81 509.01 C 749.00 509.14 750.23 511.34 748.59 512.32 C 740.36 517.25 731.77 518.74 725.31 532.27 C 723.70 535.64 722.09 538.75 718.72 537.04 C 715.22 535.25 717.53 530.39 719.62 527.07 C 724.29 519.68 730.39 513.95 738.66 510.70 C 740.99 509.78 743.40 509.43 745.81 509.01 Z M 754.05 572.22 C 756.33 565.47 759.90 559.74 766.58 556.47 C 770.84 554.38 773.71 556.89 771.06 559.43 C 761.51 568.61 763.02 575.32 757.91 579.42 C 756.53 580.53 755.08 580.16 754.31 578.51 C 753.45 576.65 753.71 573.25 754.05 572.22 Z M 958.18 513.35 C 958.88 515.19 956.74 517.73 954.44 516.21 C 949.70 513.07 951.65 511.66 938.67 504.15 C 936.24 502.74 934.52 501.92 935.00 500.28 C 936.45 495.24 954.85 504.70 958.18 513.35 Z" fill="#ffffff" fill-opacity="0.5" fill-rule="nonzero" group-id="1,10,32" node-id="134" stroke="none" target-height="307.04993" target-width="243.66205" target-x="715.222" target-y="390.42596"></path><path d="M 1020.60 596.60 C 1016.91 591.04 1007.67 585.44 1000.60 589.83 C 997.26 591.91 995.39 595.56 995.49 599.85 C 995.61 604.86 998.36 609.72 1002.34 611.94 C 1004.04 612.88 1006.19 612.28 1007.14 610.57 C 1008.08 608.87 1007.47 606.73 1005.77 605.78 C 1003.99 604.78 1002.59 602.17 1002.54 599.69 C 1002.51 598.45 1002.79 596.77 1004.32 595.82 C 1007.28 593.99 1012.67 597.39 1014.73 600.50 C 1017.27 604.33 1017.65 609.74 1015.71 614.29 C 1014.72 616.60 1012.29 620.61 1007.05 621.56 C 1003.63 622.16 1000.59 621.48 997.74 619.45 C 991.45 614.98 987.29 604.58 985.97 596.26 C 985.47 593.10 985.15 589.90 984.82 586.51 C 983.77 575.96 982.69 565.06 975.88 555.79 C 969.93 547.67 959.81 542.60 947.38 541.46 C 946.72 540.94 946.11 540.40 945.42 539.90 C 944.28 539.09 943.08 538.36 941.84 537.72 L 940.95 534.53 C 943.39 535.62 945.88 536.60 948.49 537.38 C 952.41 538.54 958.49 539.95 965.04 539.95 C 969.41 539.95 973.99 539.33 978.27 537.59 C 980.59 536.65 981.22 533.66 979.47 531.87 C 975.64 527.92 972.84 523.20 969.88 518.19 C 966.85 513.07 963.72 507.77 959.31 503.20 C 950.91 494.52 941.74 489.91 931.35 489.08 L 927.33 469.07 C 927.25 468.71 927.11 468.37 926.91 468.06 C 927.43 467.32 927.94 466.57 928.41 465.80 C 938.27 449.55 934.36 428.61 917.95 409.77 C 917.08 408.77 916.13 407.81 915.20 406.84 C 915.33 406.30 915.38 405.73 915.23 405.15 C 911.47 390.67 877.22 227.01 873.59 209.66 C 875.60 207.22 877.11 204.40 878.03 201.37 C 880.93 191.82 878.24 181.88 871.36 175.52 C 885.88 156.79 891.40 127.30 875.55 109.38 C 865.33 97.84 850.72 96.15 839.19 105.19 C 823.49 117.51 818.42 145.51 838.58 175.52 C 832.86 180.68 829.88 188.14 830.72 196.00 C 831.26 200.96 833.44 205.52 836.67 209.20 C 821.65 279.62 813.12 321.69 807.47 349.55 C 802.22 375.47 799.54 388.66 796.58 400.23 C 782.03 393.63 764.88 389.93 745.84 389.46 L 745.35 389.44 C 738.56 389.22 731.21 389.54 728.28 393.44 C 727.05 395.08 726.74 397.14 727.41 399.23 C 732.85 416.05 742.20 427.21 755.99 433.35 C 756.14 433.42 756.27 433.48 756.38 433.53 C 756.33 433.70 756.27 433.87 756.21 434.04 C 750.99 448.81 751.71 463.49 757.95 475.37 C 744.81 482.96 728.01 482.38 717.16 473.63 C 706.42 464.96 704.34 454.35 707.04 447.68 C 709.17 442.45 714.11 439.78 720.49 440.37 C 723.37 440.63 725.87 442.07 727.37 444.32 C 728.65 446.25 728.99 448.47 728.32 450.57 C 727.31 453.78 725.18 454.98 723.72 454.73 C 722.52 454.54 721.85 453.42 721.87 451.67 C 721.90 449.72 720.34 448.13 718.39 448.10 C 716.31 448.07 714.85 449.63 714.82 451.58 C 714.75 456.87 717.88 460.93 722.60 461.69 C 727.04 462.42 732.78 459.89 735.04 452.69 C 736.34 448.57 735.68 444.10 733.23 440.42 C 730.55 436.38 726.14 433.81 721.13 433.35 C 711.56 432.49 703.83 436.84 700.51 445.04 C 696.83 454.11 699.18 468.17 712.73 479.11 C 719.83 484.84 729.00 487.72 738.40 487.72 C 746.40 487.72 754.55 485.61 761.73 481.41 C 765.80 486.78 771.13 491.08 777.24 493.92 L 774.85 506.49 C 769.59 502.64 763.56 500.12 757.12 499.23 C 743.95 497.42 730.49 502.63 720.16 513.55 C 706.24 528.26 704.59 547.16 702.99 565.43 C 702.30 573.43 701.57 581.70 699.79 589.29 C 699.50 590.55 698.83 591.81 698.12 593.13 C 697.17 594.91 696.10 596.91 695.69 599.36 C 695.65 599.64 695.63 599.92 695.65 600.19 C 695.53 601.93 696.71 603.50 698.42 603.88 C 699.62 604.14 700.86 604.28 702.09 604.28 C 707.53 604.28 712.09 601.62 716.32 598.81 C 731.84 588.55 738.25 576.11 743.91 565.15 C 747.71 557.78 751.30 550.81 757.25 545.16 C 760.70 541.87 764.53 538.99 768.66 536.60 L 765.76 548.58 C 763.11 550.11 760.64 551.91 758.38 553.97 C 746.62 564.75 744.61 579.64 742.66 594.05 C 741.39 603.47 740.19 612.37 736.45 620.12 C 736.44 620.15 736.44 620.17 736.43 620.20 C 736.33 620.42 736.30 620.68 736.25 620.92 C 736.20 621.14 736.12 621.35 736.12 621.56 C 736.12 621.59 736.10 621.62 736.10 621.65 C 736.10 621.84 736.18 622.00 736.21 622.18 C 736.24 622.43 736.26 622.68 736.35 622.91 C 736.44 623.13 736.57 623.30 736.70 623.50 C 736.82 623.69 736.91 623.88 737.07 624.05 C 737.24 624.24 737.46 624.36 737.67 624.51 C 737.82 624.61 737.93 624.75 738.09 624.83 C 738.12 624.84 738.15 624.83 738.17 624.84 C 738.59 625.03 739.04 625.14 739.52 625.15 C 739.56 625.15 739.59 625.17 739.62 625.17 L 739.64 625.17 C 744.57 625.17 748.61 624.79 752.22 623.95 L 752.59 627.45 C 754.87 649.12 757.45 673.69 765.95 698.74 L 766.20 699.47 C 769.87 710.27 773.66 721.45 783.11 729.91 C 801.18 746.06 827.90 754.23 854.82 754.23 C 879.74 754.23 904.82 747.24 923.39 733.09 C 937.91 722.03 942.44 705.43 946.08 692.08 C 956.69 653.18 957.78 627.94 958.50 611.24 C 958.78 604.77 959.00 599.66 959.69 595.59 C 959.79 595.01 959.69 594.45 959.52 593.92 C 963.11 586.64 964.39 580.13 964.50 574.77 C 964.69 565.97 961.80 557.64 956.28 550.39 C 961.40 552.06 966.52 554.94 970.19 559.95 C 975.85 567.67 976.80 577.15 977.79 587.20 C 978.13 590.54 978.47 593.99 979.00 597.35 C 980.51 606.85 985.15 619.15 993.65 625.19 C 997.04 627.60 1000.73 628.82 1004.67 628.82 C 1005.85 628.82 1007.06 628.70 1008.28 628.49 C 1014.49 627.37 1019.55 623.20 1022.18 617.05 C 1025.08 610.28 1024.47 602.44 1020.60 596.60 Z M 933.71 534.81 C 930.35 534.16 926.95 534.12 923.68 534.79 C 920.81 535.38 918.08 536.51 915.64 538.14 C 914.55 529.76 910.56 521.96 904.24 516.36 C 900.69 513.21 897.75 508.81 895.29 503.89 C 900.07 502.83 904.97 502.48 909.84 502.86 C 914.87 514.18 922.61 523.32 932.29 529.74 L 933.71 534.81 Z M 890.12 531.98 C 889.92 527.98 889.04 524.16 887.47 520.73 C 890.78 519.51 894.19 519.27 897.78 520.02 C 897.86 520.03 897.94 520.01 898.02 520.02 C 898.54 520.55 899.02 521.15 899.57 521.63 C 904.64 526.13 907.82 532.41 908.67 539.16 C 903.09 533.98 896.60 531.43 890.12 531.98 Z M 804.37 583.61 C 804.40 583.15 804.45 582.61 804.50 582.14 C 804.90 577.86 805.59 570.70 802.19 559.46 L 802.19 559.46 C 792.31 526.82 803.01 509.27 816.31 503.74 C 825.98 499.70 837.82 506.14 843.68 514.68 C 847.50 520.27 851.42 519.12 855.11 517.47 C 865.78 512.68 874.37 513.77 879.28 520.55 C 885.25 528.79 884.79 545.28 873.62 557.55 C 856.66 576.20 834.02 584.70 804.37 583.61 Z M 851.06 501.29 L 851.06 511.54 C 850.60 511.73 850.39 511.81 850.46 511.87 C 850.39 511.81 850.08 511.56 849.49 510.70 C 845.21 504.46 838.31 499.05 830.63 496.70 C 828.64 492.50 826.51 488.37 824.25 484.31 C 825.48 482.95 826.69 481.56 827.85 480.14 C 832.79 489.92 840.52 497.73 851.06 501.29 Z M 882.57 490.47 C 884.88 497.98 887.97 505.99 892.20 512.70 C 889.28 512.88 886.42 513.56 883.65 514.75 C 879.91 510.53 871.93 504.81 858.12 508.87 L 858.12 502.86 C 859.10 502.96 860.08 503.08 861.04 503.08 C 865.53 503.08 869.79 501.99 873.49 499.84 C 877.20 497.70 880.21 494.47 882.57 490.47 Z M 921.20 474.34 L 924.21 489.32 C 920.38 489.97 916.78 491.34 913.52 492.61 C 911.67 493.33 910.37 494.42 909.58 495.79 C 903.82 495.42 898.03 495.94 892.43 497.33 C 890.66 492.86 889.20 488.27 888.02 483.97 C 900.53 485.48 912.58 481.90 921.20 474.34 Z M 963.82 521.78 C 965.93 525.35 968.09 529.00 970.69 532.43 C 964.92 533.41 957.84 532.81 950.51 530.62 C 934.93 525.99 922.68 514.90 915.98 499.41 L 915.91 499.24 C 915.97 499.22 916.02 499.20 916.08 499.18 C 920.30 497.53 924.77 495.81 928.98 495.95 C 938.34 496.23 946.60 500.20 954.23 508.10 C 958.07 512.07 960.86 516.79 963.82 521.78 Z M 922.39 462.14 C 915.02 474.27 899.62 479.90 884.05 476.14 C 883.99 476.12 883.93 476.14 883.87 476.13 C 883.65 476.09 883.42 476.11 883.19 476.11 C 882.97 476.11 882.76 476.09 882.55 476.14 C 882.48 476.15 882.41 476.13 882.34 476.14 C 882.10 476.20 881.92 476.34 881.71 476.45 C 881.58 476.51 881.45 476.55 881.33 476.63 C 881.04 476.81 880.79 477.04 880.58 477.30 C 880.51 477.39 880.42 477.46 880.36 477.55 C 880.15 477.85 879.99 478.19 879.89 478.55 C 879.87 478.62 879.82 478.67 879.80 478.73 C 879.78 478.82 879.75 478.90 879.73 478.98 C 879.73 479.00 879.72 479.01 879.72 479.03 C 877.98 485.96 874.62 491.05 869.96 493.75 C 865.64 496.24 860.16 496.71 854.51 495.06 C 831.39 488.32 825.86 458.97 829.31 440.29 C 830.24 435.25 831.68 430.41 833.06 425.73 C 835.52 417.45 838.06 408.90 837.94 398.97 C 837.85 391.26 836.60 383.83 835.40 376.64 C 835.10 374.87 834.80 373.09 834.52 371.31 C 855.30 374.39 892.10 390.85 912.63 414.41 C 926.93 430.81 930.58 448.65 922.39 462.14 Z M 858.61 217.76 C 861.73 217.40 864.75 216.42 867.48 214.87 C 873.10 241.69 898.65 363.67 906.47 398.60 C 892.19 386.47 874.44 376.88 858.61 370.85 L 858.61 217.76 Z M 843.54 110.74 C 850.34 105.41 860.92 103.49 870.27 114.05 C 883.60 129.11 878.21 155.43 865.56 171.53 C 858.90 168.26 851.20 168.31 844.43 171.60 C 824.58 142.09 832.91 119.08 843.54 110.74 Z M 846.05 178.67 C 848.76 177.02 851.86 176.14 855.03 176.14 C 858.44 176.14 861.78 177.17 864.60 179.09 C 871.96 184.07 873.26 192.84 871.29 199.32 C 869.09 206.56 863.24 210.91 855.64 210.94 L 855.57 210.94 C 846.80 210.94 838.65 203.77 837.73 195.25 C 837.01 188.54 840.20 182.18 846.05 178.67 Z M 803.28 402.50 C 806.34 390.64 809.03 377.38 814.38 350.95 C 819.93 323.60 828.27 282.49 842.78 214.34 C 845.48 215.97 848.45 217.09 851.56 217.63 L 851.56 368.36 C 843.49 365.73 836.20 364.14 830.58 363.81 C 829.53 363.75 828.50 364.16 827.79 364.94 C 827.08 365.71 826.74 366.76 826.89 367.80 C 827.34 371.17 827.90 374.49 828.45 377.80 C 829.67 385.04 830.82 391.88 830.90 399.05 C 831.00 407.36 829.00 414.63 826.76 422.20 C 820.30 414.82 812.41 408.60 803.34 403.62 C 803.21 403.26 803.19 402.87 803.28 402.50 Z M 767.26 477.04 C 759.14 466.26 757.54 451.44 762.86 436.39 C 764.57 431.55 763.49 428.98 758.87 426.92 C 747.13 421.69 739.08 412.07 734.26 397.48 C 735.15 397.03 737.77 396.25 745.13 396.49 L 745.67 396.50 C 780.38 397.36 808.26 409.40 824.39 430.43 C 823.60 433.26 822.94 436.12 822.39 439.00 C 820.34 450.06 821.12 462.11 824.73 472.76 C 816.18 483.60 810.34 489.80 796.15 490.64 C 785.03 491.29 774.16 486.22 767.26 477.04 Z M 794.20 497.74 C 794.99 497.74 795.78 497.72 796.57 497.67 C 806.59 497.08 813.23 494.19 818.99 489.39 C 820.09 491.40 821.16 493.43 822.19 495.47 C 819.24 495.51 816.33 496.11 813.60 497.23 C 803.93 501.26 794.81 510.92 792.15 526.77 C 791.17 525.86 790.15 524.99 789.05 524.16 C 788.83 523.51 788.55 522.88 788.23 522.28 C 786.27 518.56 783.83 515.12 780.97 512.04 L 783.96 496.36 C 787.28 497.24 790.71 497.74 794.20 497.74 Z M 752.40 540.06 C 745.59 546.53 741.73 554.00 737.66 561.92 C 732.14 572.62 726.43 583.69 712.44 592.94 C 709.57 594.84 706.87 596.48 704.04 597.03 C 704.14 596.84 704.24 596.65 704.35 596.45 C 705.19 594.86 706.15 593.06 706.66 590.91 C 708.55 582.82 709.30 574.29 710.02 566.05 C 711.58 548.19 713.06 531.32 725.28 518.40 C 733.00 510.25 742.28 505.91 751.82 505.91 C 753.26 505.91 754.71 506.01 756.16 506.21 C 766.38 507.63 775.39 514.07 781.12 523.98 C 770.30 526.72 760.89 531.99 752.40 540.06 Z M 776.87 532.70 C 779.38 531.76 781.95 530.99 784.57 530.40 C 784.81 530.34 785.08 530.27 785.34 530.21 C 787.42 531.85 789.28 533.74 791.33 535.85 L 791.40 535.92 C 791.38 537.93 791.44 540.00 791.62 542.18 C 785.27 542.18 779.31 543.08 773.91 544.91 L 776.87 532.70 Z M 763.15 559.17 C 772.37 550.71 784.14 549.07 792.53 549.20 C 793.24 553.36 794.22 557.47 795.44 561.50 L 795.44 561.50 C 795.56 561.88 795.63 562.22 795.74 562.59 C 790.37 568.23 787.63 575.08 785.69 581.13 C 780.53 597.24 770.51 608.74 755.88 615.33 C 752.73 616.76 749.28 617.57 744.94 617.92 C 747.52 610.56 748.61 602.68 749.65 595.00 C 751.51 581.23 753.27 568.22 763.15 559.17 Z M 951.47 610.94 C 950.76 627.33 949.69 652.09 939.29 690.23 C 935.02 705.90 930.82 718.58 919.13 727.49 C 882.92 755.07 820.34 753.72 787.82 724.66 C 779.74 717.43 776.41 707.61 772.88 697.21 L 772.64 696.48 C 764.39 672.17 761.85 648.02 759.61 626.72 L 759.06 621.61 C 775.42 614.15 786.65 601.26 792.41 583.28 C 793.61 579.50 795.16 575.39 797.55 571.66 C 797.99 575.91 797.71 579.07 797.48 581.47 C 797.21 584.27 796.98 586.70 798.67 588.63 C 800.12 590.30 802.19 590.57 803.62 590.63 C 805.61 590.71 807.55 590.75 809.48 590.75 C 824.88 590.75 838.47 588.13 850.43 582.88 C 852.13 606.96 841.54 619.89 830.43 621.73 C 825.55 622.53 819.32 620.96 817.80 613.85 C 817.27 611.39 817.42 608.28 818.93 606.91 C 820.94 605.09 822.77 606.15 823.96 607.35 C 825.32 608.74 827.55 608.75 828.94 607.38 C 830.32 606.02 830.34 603.79 828.97 602.40 C 824.66 598.02 818.58 597.72 814.20 601.69 C 810.94 604.64 809.71 609.74 810.91 615.33 C 812.70 623.72 819.50 628.98 828.01 628.98 C 829.17 628.98 830.36 628.88 831.58 628.68 C 846.25 626.25 860.35 609.83 857.20 579.55 C 858.12 579.05 859.01 578.51 859.90 577.97 C 868.92 602.46 887.26 619.86 915.90 631.02 C 916.92 631.42 918.13 631.79 919.46 631.79 C 920.74 631.79 922.13 631.45 923.60 630.49 C 936.51 622.04 945.48 613.78 951.68 606.05 C 951.61 607.60 951.54 609.22 951.47 610.94 Z M 919.49 624.74 C 919.49 624.74 919.21 624.75 918.46 624.46 C 891.20 613.83 874.02 597.28 865.94 573.93 C 870.62 570.49 874.94 566.59 878.84 562.29 C 884.91 555.61 888.63 547.31 889.79 539.15 C 896.31 538.18 903.19 541.97 908.44 549.66 C 908.45 549.67 908.47 549.67 908.48 549.69 C 908.75 550.08 909.10 550.42 909.53 550.68 C 909.57 550.70 909.62 550.70 909.66 550.73 C 909.80 550.80 909.95 550.83 910.10 550.88 C 910.45 551.02 910.79 551.12 911.14 551.14 C 911.22 551.14 911.28 551.19 911.36 551.19 C 911.57 551.19 911.78 551.13 912.00 551.09 C 912.09 551.08 912.17 551.08 912.26 551.05 C 912.64 550.95 913.01 550.80 913.35 550.57 C 913.36 550.56 913.37 550.55 913.38 550.53 C 913.55 550.42 913.67 550.24 913.81 550.09 C 914.00 549.90 914.21 549.73 914.34 549.52 C 914.35 549.50 914.36 549.50 914.37 549.49 C 916.89 545.32 920.59 542.62 925.09 541.70 C 930.39 540.60 936.31 542.03 941.31 545.62 C 951.96 553.27 957.71 563.57 957.47 574.62 C 957.12 591.14 943.72 608.89 919.49 624.74 Z" fill="#000e3f" fill-rule="nonzero" group-id="1,11" node-id="140" stroke="none" target-height="658.91797" target-width="329.55048" target-x="695.533" target-y="96.15191"></path><path d="M 831.52 682.27 C 829.58 682.16 827.91 683.64 827.80 685.59 C 827.63 688.63 826.14 691.41 824.00 692.68 C 822.48 693.58 820.80 693.61 818.99 692.75 C 815.98 691.33 814.70 687.34 814.99 684.13 C 815.17 682.20 813.74 680.48 811.80 680.30 C 809.86 680.12 808.14 681.55 807.97 683.49 C 807.36 690.18 810.66 696.61 815.98 699.13 C 817.82 699.99 819.70 700.43 821.54 700.43 C 823.68 700.42 825.77 699.84 827.60 698.73 C 831.76 696.26 834.53 691.38 834.84 685.98 C 834.95 684.04 833.46 682.38 831.52 682.27 Z M 899.81 680.31 C 897.87 680.49 896.44 682.20 896.62 684.14 C 896.91 687.35 895.63 691.34 892.62 692.76 C 890.82 693.61 889.13 693.59 887.61 692.68 C 885.47 691.41 883.98 688.63 883.81 685.59 C 883.70 683.65 882.06 682.22 880.09 682.28 C 878.15 682.38 876.66 684.05 876.77 685.99 C 877.08 691.39 879.85 696.27 884.01 698.74 C 885.84 699.85 887.94 700.43 890.07 700.44 C 891.91 700.44 893.80 700.00 895.63 699.13 C 900.96 696.62 904.25 690.19 903.64 683.50 C 903.48 681.55 901.75 680.11 899.81 680.31 Z M 511.86 111.11 C 449.06 111.11 386.61 111.10 324.74 111.09 C 217.67 111.06 110.60 111.03 3.53 111.08 C 1.58 111.09 0.00 109.51 0.00 107.56 C -0.00 105.62 1.58 104.04 3.52 104.04 C 110.60 103.99 217.67 104.02 324.75 104.04 C 546.09 104.08 775.00 104.14 1000.13 103.54 L 1000.13 103.54 C 1002.08 103.54 1003.65 105.12 1003.66 107.06 C 1003.66 109.00 1002.09 110.58 1000.14 110.59 C 837.93 111.02 673.75 111.11 511.86 111.11 Z" fill="#000e3f" fill-rule="nonzero" group-id="1,12" node-id="145" stroke="none" target-height="596.89197" target-width="1003.6611" target-x="-0.00110403" target-y="103.54401"></path><path d="M 427.94 683.57 C 413.93 681.83 413.29 683.44 408.75 679.15 C 386.25 657.86 378.75 630.36 364.26 610.33 C 343.80 582.05 338.62 582.90 340.28 580.28 C 340.95 579.23 341.66 579.02 351.63 581.69 C 392.94 592.71 412.39 610.67 413.53 608.50 C 414.47 606.68 399.59 592.37 392.54 552.73 C 388.95 532.53 388.25 510.70 394.45 491.31 C 394.78 490.21 395.22 489.15 395.76 488.13 C 396.54 486.69 398.06 486.68 398.84 488.08 C 401.48 492.74 402.43 500.66 419.92 525.31 C 434.05 545.25 459.53 572.24 457.44 564.39 C 448.00 529.10 453.21 465.07 471.80 441.52 C 472.82 440.23 474.37 440.72 474.57 442.37 C 475.59 450.65 482.68 474.58 494.10 494.27 C 501.70 507.37 507.77 524.35 512.02 539.02 C 512.55 540.85 513.59 540.52 514.31 539.34 C 520.08 529.82 525.75 519.82 533.84 495.30 C 542.21 469.92 540.15 465.20 542.75 464.94 C 544.70 464.75 544.76 466.75 545.22 468.05 C 565.33 524.83 551.97 565.51 551.97 565.83 C 551.96 566.12 552.11 566.41 552.19 566.70 C 558.05 562.30 573.97 535.24 580.62 521.34 C 603.25 474.09 598.12 466.07 601.48 465.50 C 603.70 465.12 613.35 495.22 613.08 509.41 C 613.02 512.47 614.59 515.05 613.50 522.14 C 612.43 529.11 614.06 534.49 607.87 557.06 C 598.47 591.32 579.68 610.64 585.17 608.74 C 593.32 605.91 599.53 602.71 606.91 598.30 C 642.14 577.27 648.65 558.60 652.38 558.42 C 656.35 558.23 650.15 586.09 644.99 600.24 C 630.97 638.67 608.60 665.51 590.51 677.77 C 582.56 683.16 579.60 683.42 548.50 685.36 C 525.38 686.80 460.00 687.55 427.94 683.57 Z" fill="#018100" fill-rule="nonzero" group-id="1,13" node-id="150" stroke="none" target-height="247.32367" target-width="317.73145" target-x="338.62177" target-y="440.22998"></path><path d="M 367.42 757.95 C 366.02 757.50 365.29 756.48 365.22 755.01 C 364.68 742.30 365.29 740.59 364.23 736.33 C 364.11 735.87 364.18 735.35 364.17 734.86 C 363.86 722.67 364.48 733.29 434.03 742.04 C 479.14 747.72 524.77 747.90 569.50 742.13 C 634.18 733.79 639.53 725.09 639.64 731.41 C 639.77 739.46 639.66 747.50 638.64 755.50 C 638.41 757.28 637.22 757.95 635.70 758.35 C 590.04 770.44 562.10 772.70 522.43 774.49 C 462.87 777.18 398.82 768.10 367.42 757.95 Z" fill="#fc09b2" fill-rule="nonzero" group-id="1,14" node-id="155" stroke="none" target-height="54.512085" target-width="275.91797" target-x="363.8562" target-y="722.668"></path><path d="M 367.18 729.68 C 365.02 729.05 363.93 727.75 363.95 725.38 C 363.95 725.17 361.54 664.73 361.51 664.52 C 361.24 661.81 362.93 659.84 365.21 658.60 C 374.32 653.63 375.35 653.78 384.41 651.09 C 386.40 650.50 387.88 651.11 389.00 652.92 C 402.31 674.32 408.23 676.77 408.66 678.06 C 409.82 681.61 412.42 681.84 424.67 682.99 C 501.66 690.27 582.91 683.45 585.18 681.16 C 590.28 676.01 599.67 673.36 615.58 652.67 C 617.24 650.52 618.84 649.76 621.42 650.54 C 626.14 651.96 630.95 653.06 635.35 655.38 C 640.23 657.95 643.05 659.87 642.52 664.69 C 642.20 667.59 642.62 670.56 642.52 673.49 C 642.35 678.16 640.35 719.96 640.46 724.63 C 640.56 728.51 639.79 728.92 636.08 729.92 C 580.46 744.84 532.21 745.58 529.65 745.83 C 495.01 749.15 416.77 744.06 367.18 729.68 Z" fill="#ff8ede" fill-rule="nonzero" group-id="1,15" node-id="160" stroke="none" target-height="99.39789" target-width="281.8161" target-x="361.23578" target-y="649.7559"></path><path d="M 488.27 918.17 C 443.50 914.96 400.87 906.34 379.33 867.75 C 375.21 860.37 369.43 848.23 369.04 839.74 C 367.59 808.40 365.77 763.94 365.43 760.61 C 365.01 756.59 368.17 757.69 372.04 758.77 C 442.32 778.42 551.24 781.29 634.55 758.10 C 637.97 757.15 638.85 757.72 638.64 761.20 C 638.34 766.11 638.62 771.02 637.88 775.94 C 637.25 780.13 637.55 784.47 637.53 788.74 C 637.52 790.09 635.45 829.77 635.49 836.43 C 635.58 847.93 626.25 872.08 608.41 888.64 C 585.99 909.44 553.07 914.53 523.21 917.56 C 514.63 918.43 491.22 918.38 488.27 918.17 Z M 507.85 329.63 C 499.29 331.74 491.61 329.48 485.20 323.34 C 481.41 319.69 479.78 313.34 479.04 308.11 C 477.23 295.30 477.09 293.37 478.69 285.19 C 481.99 268.28 526.76 266.09 526.22 291.13 C 525.83 309.25 525.55 325.27 507.85 329.63 Z" fill="#ffcf00" fill-rule="nonzero" group-id="1,16" node-id="165" stroke="none" target-height="652.3424" target-width="273.8397" target-x="365.01187" target-y="266.09186"></path><path d="M 488.45 918.18 C 454.54 915.77 414.86 909.76 392.16 884.77 C 390.91 883.38 391.05 882.31 392.69 881.75 C 459.33 859.14 524.69 912.96 588.14 865.63 C 618.73 842.81 623.88 820.75 634.29 784.54 C 635.78 779.35 635.99 778.32 636.81 778.38 C 638.20 778.50 637.71 779.91 637.67 780.72 C 637.41 786.29 637.68 791.86 636.92 797.43 C 636.17 802.86 637.21 799.64 635.59 830.37 C 635.29 836.01 636.07 842.31 631.69 853.51 C 613.01 901.22 574.36 912.47 523.39 917.55 C 516.16 918.27 491.64 918.41 488.45 918.18 Z M 526.19 295.37 C 526.44 302.09 525.51 308.42 523.77 314.61 C 519.02 331.47 497.68 334.91 486.49 324.63 C 478.95 317.71 501.63 323.75 511.07 298.19 C 515.42 286.44 513.72 279.32 513.61 276.42 C 513.56 275.30 514.51 274.66 515.60 275.12 C 521.90 277.73 525.74 282.24 526.17 289.23 C 526.31 291.35 526.19 293.50 526.19 295.37 Z" fill="#ffcf00" fill-opacity="0.5" fill-rule="nonzero" group-id="1,17,33" node-id="172" stroke="none" target-height="643.7457" target-width="247.29819" target-x="390.90598" target-y="274.65994"></path><path d="M 488.45 918.18 C 454.54 915.77 414.86 909.76 392.16 884.77 C 390.91 883.38 391.05 882.31 392.69 881.75 C 459.33 859.14 524.69 912.96 588.14 865.63 C 618.73 842.81 623.88 820.75 634.29 784.54 C 635.78 779.35 635.99 778.32 636.81 778.38 C 638.20 778.50 637.71 779.91 637.67 780.72 C 637.41 786.29 637.68 791.86 636.92 797.43 C 636.17 802.86 637.21 799.64 635.59 830.37 C 635.29 836.01 636.07 842.31 631.69 853.51 C 613.01 901.22 574.36 912.47 523.39 917.55 C 516.16 918.27 491.64 918.41 488.45 918.18 Z M 526.19 295.37 C 526.44 302.09 525.51 308.42 523.77 314.61 C 519.02 331.47 497.68 334.91 486.49 324.63 C 478.95 317.71 501.63 323.75 511.07 298.19 C 515.42 286.44 513.72 279.32 513.61 276.42 C 513.56 275.30 514.51 274.66 515.60 275.12 C 521.90 277.73 525.74 282.24 526.17 289.23 C 526.31 291.35 526.19 293.50 526.19 295.37 Z" fill="#fd8a02" fill-opacity="0.5" fill-rule="nonzero" group-id="1,17,34" node-id="177" stroke="none" target-height="643.7457" target-width="247.29819" target-x="390.90598" target-y="274.65994"></path><path d="M 522.93 683.97 C 522.51 671.27 525.90 655.25 530.63 643.58 C 532.36 639.29 531.30 634.36 535.66 626.72 C 539.12 620.66 542.67 606.01 566.84 578.60 C 579.04 564.78 590.20 551.52 593.76 536.75 C 596.20 526.63 597.78 515.81 592.39 501.44 C 589.90 494.81 595.02 491.29 599.24 471.72 C 599.62 469.96 599.89 468.17 600.33 466.42 C 600.56 465.49 602.12 466.90 602.83 467.80 C 605.67 471.39 606.94 476.81 608.24 481.09 C 610.13 487.35 611.52 493.75 612.39 500.24 C 615.79 525.57 611.34 550.53 601.71 574.02 C 594.69 591.14 585.74 609.20 573.28 623.10 C 572.38 624.11 571.44 625.10 570.42 626.00 C 568.63 627.58 568.13 630.29 565.91 631.58 C 560.31 640.08 554.52 648.44 549.27 657.19 C 545.72 663.14 543.78 669.72 540.52 675.74 C 539.65 677.34 538.98 679.35 539.39 681.39 C 541.50 682.30 540.97 682.23 567.32 668.92 C 571.47 666.81 566.68 668.56 576.85 662.20 C 582.88 658.42 601.36 639.81 601.78 639.21 C 605.58 633.72 620.41 615.35 622.92 602.26 C 623.72 598.06 624.66 593.89 624.45 589.58 C 624.11 582.48 629.31 587.15 650.73 559.22 C 651.84 557.78 653.40 558.25 653.39 559.89 C 653.14 607.21 606.93 680.88 575.51 683.27 C 566.51 683.95 557.53 684.85 548.52 685.31 C 524.29 686.55 523.05 687.51 522.93 683.97 Z M 494.91 686.49 C 480.18 686.49 488.44 689.21 470.99 664.07 C 469.87 662.46 468.87 660.72 467.53 659.31 C 463.93 655.50 461.33 650.78 457.10 647.56 C 455.55 646.38 455.86 644.13 454.15 643.17 C 449.61 640.60 449.40 636.85 445.41 635.45 C 443.16 634.65 448.02 636.87 432.07 623.93 C 422.41 616.09 418.16 614.30 416.79 612.39 C 377.82 558.00 391.07 486.09 397.36 487.21 C 397.75 487.28 398.32 487.76 398.38 488.13 C 401.69 508.81 398.69 507.94 411.40 545.56 C 412.50 548.80 423.23 569.10 423.34 569.31 C 441.57 601.79 447.30 601.39 470.06 624.64 C 483.68 638.55 499.72 654.46 504.78 681.19 C 505.98 687.53 505.44 686.40 494.90 686.40 C 494.91 686.43 494.91 686.46 494.91 686.49 Z M 477.71 455.45 C 475.86 462.94 473.69 470.17 473.60 478.09 C 473.54 483.15 470.92 483.48 472.19 492.17 C 473.32 499.88 473.39 535.73 491.55 577.11 C 497.70 591.13 508.22 605.27 515.65 611.53 C 517.95 613.47 516.22 617.48 514.63 620.04 C 512.16 624.02 510.20 629.15 508.50 633.94 C 508.07 635.15 507.87 636.71 506.20 636.72 C 504.78 636.72 503.86 635.65 503.16 634.49 C 500.76 630.50 504.15 634.60 494.02 617.72 C 487.80 607.35 477.15 590.27 468.96 581.28 C 465.98 578.02 463.52 574.30 460.04 571.49 C 458.97 570.62 458.65 569.43 458.31 568.10 C 441.76 503.79 466.58 439.03 473.52 440.96 C 475.16 441.42 474.60 443.48 474.95 444.85 C 475.60 447.40 476.25 449.94 476.90 452.49 C 477.15 453.44 477.42 454.38 477.71 455.45 Z M 365.34 606.82 C 374.02 607.08 380.76 609.83 386.97 614.11 C 390.04 616.24 400.37 621.59 416.46 639.89 C 425.16 649.78 433.36 661.26 435.54 664.92 C 446.71 683.73 446.95 683.32 446.09 684.48 C 445.23 685.64 446.22 685.18 414.96 682.34 C 412.32 682.10 410.42 680.73 408.59 678.98 C 395.58 666.59 384.26 647.64 376.82 631.32 C 367.53 610.94 359.26 607.90 364.96 606.88 C 365.44 606.79 365.93 606.74 365.34 606.82 Z M 518.61 585.34 C 518.48 584.38 517.22 583.83 517.47 582.73 C 518.07 580.09 530.49 577.24 537.24 554.82 C 545.00 529.02 540.64 514.88 540.16 509.60 C 539.66 504.19 538.13 498.97 536.33 493.84 C 535.00 490.07 535.81 489.47 541.20 467.48 C 541.48 466.33 541.90 464.62 542.94 464.85 C 544.20 465.14 544.48 465.88 544.98 467.30 C 555.93 498.23 560.26 532.35 552.42 564.08 C 550.56 571.63 548.06 572.01 547.46 572.91 C 542.92 579.75 536.80 585.29 531.88 591.79 C 521.53 605.47 521.84 608.85 519.20 607.91 C 518.50 607.66 518.08 607.10 518.05 606.44 C 517.53 595.07 519.74 593.79 518.61 585.34 Z" fill="#000e3f" fill-opacity="0.25" fill-rule="nonzero" group-id="1,18,35" node-id="185" stroke="none" target-height="250.17386" target-width="294.1385" target-x="359.25793" target-y="439.03403"></path><path d="M 397.74 772.57 C 397.74 805.13 399.81 823.69 390.73 823.49 C 388.04 823.42 386.23 821.67 385.18 818.12 C 381.65 806.28 381.77 711.15 386.96 702.94 C 388.67 700.22 392.19 700.24 393.81 703.03 C 398.57 711.23 397.73 767.59 397.74 772.57 Z M 505.62 572.90 C 502.26 575.61 498.78 571.83 498.17 568.49 C 494.92 550.95 492.38 536.16 486.03 516.82 C 485.51 515.25 483.50 508.86 483.49 506.35 C 483.47 504.41 485.56 502.98 487.27 504.56 C 494.87 511.54 498.25 524.36 501.21 533.84 C 503.92 542.47 506.80 551.24 507.40 560.33 C 507.63 563.83 508.40 570.66 505.62 572.90 Z M 427.75 552.08 C 431.34 552.44 437.56 564.06 452.11 580.10 C 454.71 582.97 466.43 595.28 466.64 599.08 C 467.14 608.18 448.62 590.07 447.13 588.44 C 437.17 577.60 426.22 559.24 425.71 554.35 C 425.59 553.16 426.72 551.94 427.75 552.08 Z M 550.46 580.97 C 550.76 580.76 551.42 580.89 551.83 581.06 C 556.06 582.89 534.09 599.89 526.02 634.82 C 525.21 638.35 523.57 644.85 520.02 643.72 C 518.33 643.18 517.25 641.43 517.13 639.01 C 516.62 628.45 532.28 593.58 550.46 580.97 Z M 426.77 638.88 C 424.96 637.00 423.31 634.96 421.64 632.94 C 420.89 632.03 420.33 630.95 421.32 629.86 C 424.70 626.11 436.23 637.39 438.21 639.26 C 443.95 644.67 453.69 653.97 454.98 662.22 C 455.27 664.11 455.65 667.83 453.17 668.52 C 448.78 669.74 448.24 661.32 426.77 638.88 Z M 572.28 640.55 C 588.55 627.29 595.83 611.98 599.69 613.89 C 605.40 616.71 590.64 634.56 586.36 639.28 C 583.70 642.21 580.52 644.54 577.22 646.70 C 570.06 651.39 565.35 646.19 572.28 640.55 Z M 529.48 546.94 C 528.87 548.06 527.85 548.98 526.93 549.90 C 525.08 551.73 522.18 550.41 521.88 547.80 C 521.43 543.75 524.74 541.40 529.57 526.17 C 529.91 525.09 530.54 524.10 531.09 523.09 C 531.80 521.79 533.77 521.75 534.59 523.48 C 535.33 525.03 535.88 535.19 529.48 546.94 Z" fill="#ffffff" fill-opacity="0.5" fill-rule="nonzero" group-id="1,19,36" node-id="193" stroke="none" target-height="320.71375" target-width="223.75009" target-x="381.652" target-y="502.97595"></path><path d="M 633.38 631.21 C 633.36 631.15 633.31 631.12 633.29 631.07 C 633.95 629.95 634.60 628.84 635.20 627.74 C 650.31 600.14 657.56 576.24 657.38 554.67 C 657.38 554.55 657.32 554.44 657.30 554.32 C 657.26 553.87 657.12 553.43 656.90 553.03 C 656.67 552.62 656.37 552.27 656.01 551.98 C 655.91 551.91 655.86 551.80 655.75 551.74 C 655.67 551.68 655.57 551.68 655.48 551.63 C 655.27 551.52 655.05 551.44 654.82 551.37 C 654.60 551.30 654.37 551.26 654.14 551.24 C 654.04 551.23 653.96 551.18 653.85 551.18 L 653.82 551.18 C 653.70 551.18 653.59 551.24 653.47 551.25 C 652.55 551.35 651.70 551.82 651.13 552.55 C 651.06 552.65 650.95 552.70 650.89 552.80 C 642.65 565.67 631.34 577.34 618.02 587.03 C 614.87 579.06 611.86 571.37 609.30 563.38 C 623.22 519.59 615.73 477.42 603.70 463.02 C 603.64 462.95 603.55 462.91 603.48 462.84 C 603.31 462.68 603.13 462.53 602.93 462.41 C 602.74 462.27 602.53 462.15 602.31 462.06 C 602.22 462.02 602.16 461.95 602.07 461.92 C 601.94 461.88 601.82 461.91 601.70 461.88 C 601.47 461.83 601.24 461.81 601.00 461.80 C 600.30 461.80 599.62 462.01 599.05 462.41 C 598.95 462.48 598.84 462.50 598.74 462.58 C 598.67 462.64 598.64 462.73 598.57 462.79 C 598.40 462.96 598.25 463.15 598.12 463.35 C 597.99 463.55 597.87 463.75 597.78 463.96 C 597.75 464.05 597.67 464.12 597.64 464.21 C 597.31 465.25 596.88 466.80 596.31 468.78 C 594.41 475.52 591.18 486.85 586.02 500.33 C 578.89 480.73 558.55 424.32 522.42 323.94 C 522.39 323.87 522.33 323.82 522.30 323.74 C 523.07 322.72 523.80 321.63 524.47 320.46 C 530.64 309.73 531.44 292.74 528.29 284.21 C 526.44 279.18 523.02 275.65 518.83 273.28 C 565.81 179.56 544.30 121.24 518.01 104.80 C 502.87 95.34 485.71 99.04 474.31 114.25 C 446.32 151.58 457.39 225.50 485.34 272.86 C 483.93 273.64 482.56 274.56 481.30 275.80 C 476.65 280.36 474.28 287.19 474.05 296.68 C 473.75 308.75 477.07 317.59 481.80 323.67 C 463.02 375.90 444.21 428.13 425.37 480.34 C 419.47 496.70 416.21 505.71 414.40 510.85 C 409.95 503.29 405.32 494.49 400.44 483.99 C 400.36 483.84 400.23 483.73 400.14 483.59 C 400.00 483.38 399.88 483.18 399.70 483.00 C 399.52 482.82 399.31 482.69 399.09 482.56 C 398.95 482.47 398.85 482.34 398.70 482.27 C 398.66 482.25 398.62 482.26 398.57 482.24 C 398.32 482.14 398.06 482.11 397.80 482.06 C 397.61 482.03 397.42 481.97 397.23 481.97 C 397.02 481.97 396.82 482.04 396.60 482.08 C 396.36 482.13 396.11 482.16 395.88 482.26 C 395.84 482.27 395.79 482.27 395.75 482.29 C 395.60 482.36 395.50 482.49 395.36 482.58 C 395.15 482.71 394.94 482.84 394.76 483.02 C 394.58 483.20 394.46 483.40 394.33 483.61 C 394.24 483.75 394.11 483.86 394.03 484.02 C 394.00 484.10 393.97 484.19 393.94 484.27 L 393.93 484.28 C 384.79 504.59 383.52 537.89 392.93 570.01 L 385.39 590.51 C 370.84 584.21 355.30 579.29 338.77 575.78 C 338.69 575.76 338.61 575.79 338.53 575.78 C 338.28 575.75 338.03 575.75 337.78 575.77 C 337.57 575.79 337.37 575.80 337.18 575.85 C 336.95 575.90 336.74 576.01 336.52 576.11 C 336.32 576.20 336.13 576.31 335.95 576.44 C 335.88 576.49 335.79 576.51 335.72 576.57 C 335.60 576.67 335.55 576.81 335.45 576.92 C 335.30 577.08 335.16 577.26 335.04 577.45 C 334.92 577.67 334.82 577.90 334.74 578.14 C 334.70 578.26 334.62 578.36 334.59 578.49 C 334.57 578.57 334.60 578.65 334.59 578.73 C 334.56 578.98 334.56 579.23 334.58 579.48 C 334.60 579.69 334.61 579.89 334.66 580.09 C 334.71 580.31 334.81 580.51 334.91 580.71 C 335.01 580.93 335.11 581.13 335.26 581.32 C 335.31 581.39 335.32 581.48 335.38 581.54 C 338.66 585.30 341.55 588.31 344.35 591.23 C 352.81 600.07 359.69 607.29 371.68 628.95 C 369.45 635.10 364.36 647.44 361.51 654.28 C 359.02 660.22 357.91 666.66 358.27 673.10 C 360.11 707.43 365.07 820.85 365.09 825.43 C 365.24 862.49 383.19 889.91 418.46 906.92 C 442.47 918.50 471.41 924.59 501.60 924.59 C 508.31 924.59 515.09 924.29 521.89 923.68 C 545.46 921.56 603.11 911.74 629.06 866.28 C 638.59 849.59 639.16 835.20 641.02 787.54 C 641.53 774.69 642.13 759.36 643.02 740.85 L 643.17 737.73 C 644.20 716.33 645.27 694.21 645.93 672.38 C 646.11 666.50 645.07 660.64 642.89 655.17 L 633.38 631.21 Z M 617.11 653.72 L 619.07 654.14 C 625.07 655.38 634.14 657.26 636.80 662.01 C 637.21 662.75 637.10 663.09 637.04 663.27 C 636.70 664.27 635.13 665.97 629.57 668.42 C 621.76 671.85 609.55 674.66 594.65 676.86 C 602.01 670.62 609.90 662.44 617.11 653.72 Z M 633.65 651.00 C 629.81 649.32 625.62 648.32 622.03 647.56 C 624.33 644.57 626.53 641.51 628.64 638.38 L 633.65 651.00 Z M 649.56 566.70 C 647.48 583.94 640.76 602.91 629.02 624.36 C 618.18 644.17 596.13 668.89 580.88 678.36 C 580.75 678.44 580.67 678.57 580.55 678.67 C 568.62 680.00 555.51 681.01 541.80 681.69 C 548.37 657.96 560.21 642.93 572.71 627.09 C 576.20 622.67 579.72 618.17 583.20 613.45 C 609.75 603.82 633.31 587.11 649.56 566.70 Z M 612.07 591.17 C 605.21 595.66 598.01 599.58 590.52 602.90 C 595.41 595.36 600.09 587.03 604.27 577.16 C 604.72 576.11 605.08 575.06 605.50 574.01 C 607.59 579.82 609.84 585.56 612.07 591.17 Z M 602.18 473.90 C 610.76 492.06 615.40 532.92 597.79 574.41 C 589.03 595.04 577.92 609.11 567.18 622.72 C 553.83 639.63 541.22 655.65 534.42 682.02 C 531.57 682.13 528.72 682.24 525.84 682.32 L 525.11 679.58 C 522.19 668.45 519.00 656.33 510.48 638.76 C 514.34 624.94 521.26 611.33 532.26 596.04 C 536.35 590.34 541.17 585.02 545.83 579.86 C 548.83 576.55 551.92 573.13 554.83 569.60 C 583.90 534.44 596.80 492.70 602.18 473.90 Z M 462.03 567.35 C 447.78 512.46 464.27 460.37 471.87 447.53 C 475.52 464.63 482.62 479.66 490.13 495.55 C 504.58 526.10 519.51 557.69 513.83 610.39 C 513.78 610.89 513.84 611.37 513.98 611.82 C 510.70 617.91 508.03 623.87 505.94 629.82 C 501.83 622.12 496.77 613.45 490.42 603.52 C 480.02 587.26 470.78 576.45 462.03 567.35 Z M 548.84 565.77 C 546.18 568.95 543.36 572.09 540.61 575.13 C 535.82 580.43 530.86 585.91 526.54 591.93 C 524.91 594.20 523.32 596.51 521.78 598.84 C 522.87 577.44 520.53 559.35 516.40 543.44 C 516.48 543.33 516.59 543.25 516.66 543.13 C 529.18 520.04 538.00 500.44 544.40 472.76 C 548.56 483.93 550.07 496.86 551.25 506.90 C 553.77 528.44 553.08 545.04 548.84 565.77 Z M 582.14 509.97 C 576.28 523.75 568.44 539.01 558.09 553.67 C 560.29 537.94 560.30 523.58 558.25 506.09 C 556.66 492.52 554.48 473.93 546.14 460.05 C 545.39 458.80 543.94 458.14 542.50 458.40 C 541.07 458.65 539.94 459.76 539.66 461.19 C 533.81 491.02 525.57 511.15 513.63 533.85 C 511.26 526.40 508.57 519.42 505.72 512.76 C 505.85 512.05 505.84 511.31 505.50 510.61 L 505.46 510.52 C 505.28 507.86 505.29 494.43 505.31 447.11 C 505.33 421.26 505.35 384.97 505.35 334.12 C 509.47 333.56 513.38 331.88 516.83 329.24 C 568.60 473.05 579.48 503.25 582.14 509.97 Z M 479.95 118.48 C 489.27 106.05 502.09 103.17 514.28 110.78 C 537.50 125.30 557.15 181.44 512.28 270.63 C 509.54 269.88 506.73 269.42 503.89 269.27 C 503.59 269.21 503.27 269.19 502.96 269.20 L 502.73 269.22 C 499.64 269.14 496.55 269.34 493.50 269.82 C 492.99 269.91 492.50 270.11 492.08 270.41 C 464.79 225.09 453.42 153.85 479.95 118.48 Z M 486.22 280.84 C 489.71 277.42 494.48 277.02 500.00 276.56 C 501.01 276.48 502.01 276.39 503.01 276.29 C 511.37 276.65 519.12 279.72 521.68 286.66 C 524.23 293.56 523.33 308.30 518.36 316.95 C 514.63 323.42 508.94 327.05 502.79 327.23 C 502.48 327.15 502.17 327.04 501.83 327.04 C 501.51 327.04 501.23 327.14 500.94 327.22 C 499.85 327.14 498.77 326.95 497.72 326.66 C 489.77 324.43 480.64 315.29 481.09 296.85 C 481.27 289.29 482.95 284.05 486.22 280.84 Z M 431.99 482.73 C 441.60 456.11 458.31 409.80 487.32 329.14 C 490.08 331.22 493.00 332.65 495.81 333.44 C 496.64 333.67 497.47 333.82 498.30 333.96 C 498.30 384.90 498.28 421.23 498.27 447.11 C 498.25 471.38 498.24 486.64 498.30 496.35 L 496.50 492.53 C 489.06 476.79 482.03 461.91 478.61 445.31 C 478.23 443.47 477.44 439.64 473.77 438.42 C 472.86 438.11 471.02 437.88 469.03 439.74 C 461.87 446.48 441.35 498.93 452.69 557.96 L 451.49 556.78 C 440.79 546.28 430.48 536.11 419.16 518.57 C 419.78 516.59 422.67 508.55 431.99 482.73 Z M 397.60 494.43 C 415.90 531.71 430.82 546.36 446.55 561.81 C 449.73 564.91 452.87 568.05 455.98 571.22 C 456.25 571.65 456.58 572.01 457.00 572.28 C 465.49 581.12 474.45 591.63 484.48 607.32 C 508.88 645.46 513.67 663.72 518.30 681.37 L 518.60 682.53 C 508.41 682.75 498.10 682.81 487.90 682.70 C 469.73 651.72 446.59 627.00 418.76 608.60 C 418.67 608.23 418.51 607.88 418.30 607.56 C 398.50 579.21 386.55 529.00 397.60 494.43 Z M 396.51 580.66 C 399.07 587.53 402.15 594.19 405.72 600.58 C 401.20 598.05 396.54 595.71 391.80 593.48 L 396.51 580.66 Z M 348.43 585.31 C 405.11 600.03 449.13 632.72 479.53 682.57 C 455.72 682.09 432.87 680.68 413.95 678.33 C 399.34 666.06 390.52 649.38 382.00 633.23 C 366.92 604.62 358.81 596.16 349.43 586.36 L 348.43 585.31 Z M 382.39 648.82 C 378.28 649.95 373.59 651.33 369.58 653.22 C 371.79 647.88 373.97 642.52 376.10 637.14 C 378.15 641.06 380.24 644.95 382.39 648.82 Z M 385.95 655.15 L 386.03 655.13 C 390.58 662.70 395.73 670.00 401.98 676.62 C 388.64 674.46 378.06 671.73 371.82 668.42 C 367.92 666.35 367.38 664.85 367.30 664.44 C 366.57 660.43 380.65 656.59 385.95 655.15 Z M 636.13 737.39 L 635.98 740.51 C 635.09 759.05 634.48 774.40 633.98 787.26 C 632.12 834.81 631.61 847.59 622.94 862.79 C 598.64 905.36 543.74 914.64 521.26 916.66 C 485.16 919.89 449.73 914.18 421.51 900.57 C 388.43 884.61 372.27 860.03 372.14 825.40 C 372.11 819.99 366.98 704.04 365.30 672.72 L 365.30 672.65 C 366.24 673.34 367.31 674.00 368.52 674.64 C 387.63 684.79 442.57 689.88 498.34 689.88 C 553.57 689.88 609.62 684.89 632.41 674.87 C 634.63 673.90 636.91 672.77 638.87 671.38 C 638.86 671.65 638.89 671.91 638.88 672.17 C 638.22 693.93 637.16 716.03 636.13 737.39 Z" fill="#000e3f" fill-rule="nonzero" group-id="1,20" node-id="199" stroke="none" target-height="829.2501" target-width="323.00693" target-x="334.55557" target-y="95.338036"></path><path d="M 523.40 839.16 L 523.33 839.16 C 521.38 839.20 519.84 840.81 519.88 842.75 C 520.01 849.14 516.70 856.37 511.65 860.74 C 509.04 862.99 504.80 865.49 499.40 864.58 C 489.69 862.96 484.61 851.47 484.00 841.48 C 483.87 839.54 482.21 838.07 480.27 838.18 C 478.32 838.30 476.85 839.97 476.96 841.91 C 477.74 854.60 484.73 869.28 498.24 871.54 C 499.36 871.72 500.49 871.82 501.61 871.82 C 506.80 871.82 511.90 869.83 516.26 866.07 C 522.91 860.32 527.10 851.11 526.92 842.61 C 526.89 840.69 525.32 839.16 523.40 839.16 Z M 549.53 824.16 C 542.79 824.04 536.28 830.35 536.59 836.95 C 537.35 853.14 561.68 852.42 562.05 836.77 C 562.18 831.53 557.28 824.29 549.53 824.16 Z M 454.44 824.16 C 446.69 824.29 441.79 831.53 441.92 836.77 C 442.30 852.42 466.62 853.14 467.38 836.95 C 467.69 830.35 461.18 824.04 454.44 824.16 Z" fill="#000e3f" fill-rule="nonzero" group-id="1,21" node-id="204" stroke="none" target-height="47.776062" target-width="120.38364" target-x="441.79385" target-y="824.0399"></path><path d="M 129.57 331.42 C 134.37 335.05 138.08 339.59 141.79 344.20 C 142.22 344.72 142.72 345.88 143.48 345.76 C 144.22 345.63 144.04 344.22 144.97 338.77 C 151.92 298.14 195.71 287.80 223.01 321.80 C 225.60 325.03 227.63 328.59 229.27 332.37 C 231.43 337.36 236.05 331.87 249.12 338.93 C 256.10 342.70 257.67 347.33 271.20 356.15 C 287.01 366.45 305.54 368.39 320.57 357.23 C 324.72 354.15 325.68 352.59 327.08 353.49 C 328.23 354.23 327.79 356.33 327.40 358.15 C 324.32 372.59 317.01 384.27 304.82 392.79 C 303.31 393.84 301.17 394.31 300.75 396.56 C 302.71 398.74 316.00 403.59 323.40 424.13 C 328.53 438.37 331.19 447.36 340.43 459.45 C 341.81 461.25 343.36 462.76 341.59 463.98 C 339.59 465.35 326.78 468.70 313.47 466.93 C 279.23 462.37 262.89 434.28 266.38 443.30 C 281.59 482.68 272.60 534.58 267.64 527.91 C 265.05 524.43 254.61 495.99 223.94 470.97 C 181.87 436.65 184.04 399.47 181.03 399.20 C 179.67 399.08 173.54 407.05 172.99 416.99 C 171.37 446.35 156.80 474.16 128.13 478.89 C 114.69 481.10 100.96 478.07 95.83 475.20 C 89.18 471.47 109.62 471.27 118.01 420.31 C 118.25 418.80 117.73 418.15 116.23 417.98 C 112.03 417.53 108.01 418.13 104.29 420.16 C 79.61 433.66 66.85 469.54 61.37 497.60 C 56.27 523.69 33.87 544.73 18.89 547.17 C 11.24 548.41 24.04 537.70 20.05 510.32 C 18.87 502.23 11.81 483.39 17.93 454.76 C 29.64 399.84 68.55 386.22 69.68 384.83 C 69.46 384.69 69.26 384.43 69.03 384.42 C 58.19 383.79 49.49 382.67 35.44 374.39 C 27.76 369.86 20.93 364.25 15.47 357.05 C 12.98 353.75 12.43 352.11 17.39 351.53 C 32.01 349.84 48.34 338.71 60.00 329.89 C 78.40 315.97 105.90 313.52 129.57 331.42 Z M 239.42 400.97 C 239.35 400.85 239.30 400.66 239.21 400.63 C 238.49 400.47 238.77 401.22 239.20 401.25 C 239.27 401.26 239.35 401.07 239.42 400.97 Z" fill="#91d728" fill-rule="nonzero" group-id="1,22" node-id="209" stroke="none" target-height="260.6142" target-width="332.12442" target-x="11.235943" target-y="287.79797"></path><path d="M 269.51 526.71 C 269.28 527.13 269.16 527.74 268.81 527.93 C 268.20 528.27 267.42 527.99 267.16 527.34 C 265.53 523.38 263.33 519.73 261.27 516.00 C 235.76 469.69 217.39 474.67 196.49 439.97 C 179.58 411.89 184.10 394.49 179.66 400.04 C 168.05 414.58 177.21 427.95 163.44 452.56 C 155.85 466.13 145.01 475.61 129.39 478.60 C 111.48 482.03 92.04 475.67 95.54 473.45 C 102.34 469.13 110.16 473.22 125.82 458.74 C 152.19 434.35 139.05 401.54 161.73 387.40 C 165.89 384.82 169.60 381.49 174.17 379.54 C 178.64 377.63 182.74 375.75 182.15 380.20 C 181.51 385.11 181.94 390.04 181.90 394.97 C 181.88 397.04 187.73 397.51 189.04 397.90 C 196.72 400.18 203.54 404.20 209.69 409.30 C 243.19 437.10 260.18 482.81 268.94 524.27 C 269.11 525.07 269.31 525.86 269.51 526.71 Z M 266.13 440.87 C 259.31 433.40 258.20 424.71 245.62 410.27 C 244.15 408.58 243.09 406.53 241.26 405.12 C 238.82 403.25 242.57 401.45 234.03 398.95 C 218.75 394.47 205.38 387.07 200.91 383.33 C 199.49 382.14 199.23 381.11 200.27 379.44 C 222.75 343.25 260.43 389.92 288.65 381.62 C 316.91 373.30 323.29 350.92 326.92 353.45 C 330.56 356.00 320.96 393.87 284.35 401.68 C 260.09 406.85 250.72 401.53 246.82 402.63 C 246.92 402.92 246.94 403.34 247.15 403.47 C 272.83 419.20 273.19 409.29 301.11 431.25 C 311.39 439.33 316.46 449.42 332.64 457.68 C 335.02 458.90 339.48 460.30 341.69 461.52 C 342.56 462.00 342.48 463.55 341.58 463.99 C 340.70 464.42 339.78 464.81 338.83 465.05 C 311.02 472.19 285.37 461.91 266.13 440.87 Z M 18.50 547.22 C 16.72 547.26 15.95 546.21 16.48 544.88 C 19.16 538.10 29.11 529.67 35.97 497.93 C 36.62 494.90 36.93 491.77 37.05 488.67 C 39.72 417.37 79.02 390.44 124.25 399.00 C 125.69 399.27 126.72 400.61 125.91 401.29 C 123.20 403.58 123.02 407.06 121.64 409.97 C 120.89 411.61 120.26 413.30 119.77 415.04 C 117.52 422.74 109.20 409.61 89.61 432.31 C 73.75 450.67 66.03 473.62 61.38 497.52 C 57.68 516.50 43.52 537.06 24.64 545.37 C 22.53 546.30 20.36 547.06 18.50 547.22 Z M 111.36 385.56 C 92.08 375.86 76.48 385.44 64.60 384.29 C 46.51 382.54 27.07 372.58 14.07 355.07 C 12.90 353.49 13.47 352.22 15.38 351.88 C 24.46 350.31 32.85 353.24 41.99 353.08 C 59.62 352.77 76.97 348.36 94.66 349.22 C 106.83 349.81 139.68 359.33 131.93 378.18 C 129.12 385.02 118.00 388.90 111.36 385.56 Z M 189.15 324.81 C 195.35 311.69 196.17 310.39 196.43 306.15 C 196.60 303.43 197.28 303.05 199.89 304.16 C 203.82 305.84 207.74 307.59 211.13 310.21 C 221.04 317.87 226.94 326.17 229.28 332.45 C 230.88 336.76 225.36 333.84 213.26 340.07 C 208.37 342.59 204.14 345.82 200.99 350.42 C 199.15 353.11 196.76 355.36 195.42 358.46 C 194.38 360.85 192.77 362.97 192.73 365.74 C 192.72 366.70 190.71 367.96 188.11 362.84 C 182.22 351.25 183.62 336.50 189.15 324.81 Z" fill="#018100" fill-opacity="0.5" fill-rule="nonzero" group-id="1,23,37" node-id="216" stroke="none" target-height="244.20993" target-width="329.66614" target-x="12.895913" target-y="303.04996"></path><path d="M 68.74 478.79 C 66.10 477.73 65.71 476.96 66.59 474.22 C 72.10 457.01 80.01 443.01 86.92 434.52 C 88.67 432.36 90.62 430.35 92.49 428.28 C 94.00 426.61 95.77 426.24 97.84 427.14 C 114.87 434.53 116.17 431.58 114.89 437.50 C 112.74 447.40 106.27 461.24 96.92 471.58 C 94.57 474.18 94.64 474.47 98.13 475.70 C 122.63 484.36 149.23 477.74 162.84 452.39 C 166.88 444.87 166.68 442.21 171.03 442.60 C 172.33 442.72 173.61 443.17 174.91 443.19 C 180.32 443.26 185.74 443.78 191.13 442.82 C 191.77 442.70 192.43 442.59 193.08 442.58 C 199.31 442.52 198.20 441.87 201.56 446.59 C 208.85 456.83 217.38 465.88 227.67 473.18 C 234.46 477.99 239.47 484.53 244.82 490.74 C 245.35 491.35 245.75 492.10 246.06 492.85 C 246.72 494.42 244.34 495.03 242.60 495.44 C 182.24 509.65 129.09 502.88 68.74 478.79 Z M 295.73 478.37 C 289.83 480.79 283.83 482.99 277.86 485.23 C 271.34 487.67 277.08 476.43 267.68 448.58 C 267.11 446.92 265.19 444.63 267.33 443.31 C 269.14 442.19 270.30 444.74 271.58 445.86 C 278.78 452.13 286.52 457.57 295.33 461.36 C 296.23 461.75 297.09 462.27 298.01 462.58 C 300.19 463.33 301.06 464.90 301.02 467.10 C 300.88 475.90 301.97 475.80 295.73 478.37 Z" fill="#fc09b2" fill-rule="nonzero" group-id="1,24" node-id="222" stroke="none" target-height="83.40799" target-width="236.25803" target-x="65.713936" target-y="426.23795"></path><path d="M 301.14 521.21 C 301.14 534.52 301.13 547.83 301.17 561.14 C 301.18 566.93 296.52 574.21 291.55 578.19 C 287.40 581.52 275.66 595.49 243.64 606.59 C 150.36 638.90 61.96 589.53 62.16 557.83 C 62.63 487.13 60.87 491.77 64.87 480.28 C 65.68 477.95 66.50 477.61 69.02 478.40 C 77.07 480.94 100.67 491.94 140.87 498.99 C 168.20 503.77 192.40 504.96 226.97 498.27 C 246.48 494.49 246.68 492.94 249.00 496.02 C 263.76 515.65 266.52 527.29 268.98 529.21 C 270.98 526.16 274.62 508.58 274.38 491.45 C 274.33 488.11 274.09 485.87 277.12 484.84 C 301.08 476.67 301.04 472.67 301.04 482.75 C 301.04 495.57 301.04 508.39 301.04 521.21 C 301.08 521.21 301.11 521.21 301.14 521.21 Z M 182.23 443.56 C 159.03 443.56 171.68 444.49 172.70 416.22 C 173.10 405.12 181.55 395.32 181.77 401.27 C 181.97 406.43 181.42 408.08 183.38 409.05 C 185.57 410.14 185.90 421.43 196.46 438.61 C 198.14 441.34 197.30 442.24 195.45 442.73 C 191.32 443.83 186.43 443.73 182.23 443.21 L 182.23 443.56 Z M 181.21 203.00 C 172.96 202.99 167.87 197.47 167.51 189.11 C 167.19 181.97 173.19 174.81 181.67 174.81 C 188.96 174.82 196.06 180.86 195.72 189.23 C 195.39 197.57 189.93 203.01 181.21 203.00 Z M 117.01 417.61 C 118.04 417.98 118.63 418.79 118.46 419.89 C 116.33 433.27 116.59 433.87 112.95 433.08 C 107.47 431.90 102.34 429.76 97.40 427.16 C 96.11 426.48 95.91 425.23 96.88 424.37 C 101.68 420.11 107.32 417.72 113.67 416.96 C 114.61 416.85 116.37 417.39 117.01 417.61 Z" fill="#ff8ede" fill-rule="nonzero" group-id="1,25" node-id="227" stroke="none" target-height="464.09595" target-width="240.30763" target-x="60.873943" target-y="174.80803"></path><path d="M 301.13 534.82 C 301.13 563.40 301.72 563.51 299.63 567.60 C 297.55 571.70 295.01 575.41 291.33 578.42 C 287.40 581.64 283.80 585.24 279.68 588.27 C 250.07 610.06 201.96 619.26 173.07 617.15 C 139.09 614.67 102.79 605.26 77.06 583.36 C 73.12 580.01 73.19 579.09 78.33 576.75 C 85.82 573.34 103.56 572.19 113.80 573.38 C 139.10 576.31 194.01 595.23 237.43 573.02 C 261.30 560.81 276.86 549.55 290.80 523.28 C 297.72 510.22 299.09 503.28 300.59 505.81 C 301.17 506.78 301.04 504.82 301.04 534.82 L 301.13 534.82 Z M 180.46 203.02 C 175.76 203.31 172.67 200.78 172.54 199.59 C 172.30 197.23 179.32 199.41 183.57 191.67 C 187.73 184.10 186.02 180.25 185.68 177.50 C 185.28 174.24 189.63 176.65 191.92 178.98 C 198.22 185.41 197.07 198.83 186.45 202.43 C 184.68 203.03 182.91 202.96 180.46 203.02 Z" fill="#fc09b2" fill-opacity="0.5" fill-rule="nonzero" group-id="1,26,38" node-id="234" stroke="none" target-height="445.01987" target-width="228.60208" target-x="73.11596" target-y="174.238"></path><path d="M 194.64 537.27 C 199.74 539.13 201.36 542.23 200.61 547.72 C 196.49 578.05 164.18 574.12 162.96 545.30 C 162.82 541.89 164.33 539.45 167.53 537.98 C 175.29 534.39 187.05 534.50 194.64 537.27 Z" fill="#ffffff" fill-rule="nonzero" group-id="1,27" node-id="240" stroke="none" target-height="43.651978" target-width="38.54001" target-x="162.81999" target-y="534.39386"></path><path d="M 82.77 554.99 C 68.81 555.88 74.56 507.63 75.22 491.32 C 75.43 486.20 74.83 462.86 82.25 462.61 C 89.56 462.37 88.77 475.56 88.83 478.09 C 89.14 491.28 89.44 504.47 89.47 517.67 C 89.49 525.42 91.54 554.43 82.77 554.99 Z M 131.10 346.86 C 131.03 349.15 129.32 350.22 127.88 349.43 C 122.23 346.38 115.96 338.13 98.50 337.07 C 81.25 336.04 77.02 341.91 71.44 340.96 C 67.35 340.27 66.25 334.57 74.47 331.40 C 97.25 322.62 117.74 328.86 129.46 343.56 C 130.39 344.73 131.11 346.01 131.10 346.86 Z M 23.90 460.75 C 25.45 442.57 30.02 428.15 42.48 414.57 C 45.07 411.74 54.98 402.87 57.31 405.94 C 59.50 408.81 36.88 421.03 33.66 453.96 C 33.07 460.04 32.76 463.42 30.63 466.20 C 29.62 467.51 28.10 467.63 26.73 466.63 C 24.49 464.99 24.32 462.48 23.90 460.75 Z M 260.16 465.85 C 255.95 462.03 256.97 454.28 244.47 434.27 C 235.52 419.94 231.44 417.93 228.81 414.12 C 227.68 412.47 229.39 409.35 233.81 411.91 C 246.14 419.04 256.68 435.51 262.15 448.80 C 267.39 461.53 262.98 468.40 260.16 465.85 Z M 273.30 367.95 C 274.73 368.76 276.17 369.54 277.28 370.78 C 278.11 371.70 277.60 373.30 276.39 373.46 C 269.30 374.44 252.95 364.99 243.46 360.01 C 229.50 352.67 219.45 359.21 213.76 360.97 C 211.85 361.56 210.90 359.58 211.96 358.35 C 214.43 355.49 216.92 352.62 220.52 351.11 C 239.51 343.10 249.19 354.33 273.30 367.95 Z M 124.19 435.36 C 127.25 418.49 127.66 406.29 136.32 394.83 C 137.81 392.85 141.16 389.58 143.02 391.00 C 144.06 391.79 143.30 393.23 142.62 394.58 C 136.73 406.15 136.85 414.40 134.31 429.31 C 131.87 443.66 124.13 448.19 123.34 443.14 C 123.07 441.38 123.22 440.68 124.19 435.36 Z M 164.70 318.39 C 165.48 317.16 166.55 316.10 167.61 315.08 C 168.48 314.24 169.62 313.86 170.78 314.52 C 172.67 315.59 171.61 317.82 170.49 320.82 C 163.89 338.40 166.14 347.73 164.15 351.03 C 162.31 354.09 158.18 351.66 157.80 346.08 C 157.70 344.61 159.63 326.42 164.70 318.39 Z M 317.87 428.88 C 317.74 432.61 315.46 434.48 309.92 428.29 C 300.60 417.87 294.43 415.55 291.63 411.99 C 289.73 409.58 293.18 406.73 296.46 408.27 C 298.39 409.17 305.23 411.44 313.61 421.13 C 317.38 425.50 317.72 428.41 317.87 428.88 Z" fill="#ffffff" fill-opacity="0.5" fill-rule="nonzero" group-id="1,28,39" node-id="247" stroke="none" target-height="242.01602" target-width="293.97202" target-x="23.90193" target-y="313.8619"></path><path d="M 343.76 458.20 C 337.03 449.40 333.53 439.97 330.14 430.84 C 325.01 417.03 320.11 403.93 305.02 396.34 C 314.11 390.36 321.41 382.01 326.54 371.57 C 326.63 371.39 335.07 353.82 328.85 350.00 C 326.18 348.35 323.81 350.30 321.32 352.38 C 315.53 357.22 303.48 367.29 281.20 357.86 C 272.43 354.14 266.24 348.79 260.78 344.07 C 258.80 342.33 256.76 340.66 254.68 339.04 L 251.94 331.98 C 236.87 293.09 219.79 249.03 198.14 195.08 C 199.67 191.10 199.76 186.70 198.12 182.72 C 196.34 178.40 193.38 175.18 189.51 173.24 C 200.16 159.36 213.66 139.69 204.92 118.87 C 200.56 108.47 191.07 101.70 180.65 101.94 C 170.52 102.05 162.01 108.37 157.89 118.84 C 149.44 140.32 166.06 165.27 173.09 173.62 C 169.73 175.41 166.57 178.33 164.93 183.44 C 163.73 187.17 163.74 191.18 164.96 194.91 C 164.81 195.13 164.63 195.32 164.53 195.58 C 154.54 221.29 144.51 246.99 134.46 272.68 C 125.12 296.56 121.65 305.43 116.25 319.87 C 113.40 318.74 110.49 317.77 107.52 316.96 C 82.72 310.18 68.73 319.99 53.92 330.37 C 44.79 336.77 35.36 343.39 22.35 347.12 C 21.81 347.28 21.04 347.39 20.19 347.53 C 16.51 348.12 12.33 348.79 10.99 352.19 C 10.58 353.24 10.18 355.36 12.13 357.86 C 24.32 373.53 40.56 382.75 61.35 386.03 C 56.83 388.52 52.55 391.45 48.59 394.78 C 18.72 419.81 5.91 463.85 15.96 506.99 C 18.69 518.75 18.12 529.74 14.23 540.55 C 14.16 540.71 14.04 540.89 13.93 541.09 C 11.15 545.99 13.44 548.44 15.06 549.47 C 16.12 550.14 17.37 550.38 18.59 550.38 C 20.25 550.38 21.88 549.94 22.96 549.56 C 28.62 547.59 33.99 544.41 39.85 539.55 C 49.45 531.61 55.19 523.55 58.98 515.50 C 58.95 520.37 58.96 525.22 58.98 529.99 C 59.01 535.98 59.03 541.98 58.97 547.97 C 58.83 564.47 59.68 574.51 78.81 589.00 C 106.40 609.90 144.09 620.26 181.63 620.26 C 221.52 620.26 261.23 608.55 288.44 585.36 C 296.73 578.30 304.81 570.21 304.64 555.99 C 304.37 533.78 304.27 511.56 304.18 489.35 L 304.08 468.47 C 309.74 469.94 315.56 470.68 321.40 470.69 C 327.65 470.69 334.01 469.85 340.41 468.16 C 343.74 467.28 344.94 465.42 345.36 464.00 C 345.69 462.87 345.91 460.57 343.76 458.20 Z M 278.46 364.35 C 301.64 374.17 315.91 365.63 323.29 359.87 C 322.44 362.96 321.16 366.55 320.22 368.46 C 312.83 383.49 300.98 393.30 285.02 397.63 C 261.15 404.11 229.65 397.14 202.82 379.43 C 201.19 378.35 199.00 378.80 197.94 380.43 C 196.86 382.05 197.31 384.24 198.93 385.31 C 210.01 392.62 222.08 398.28 234.79 402.12 C 235.59 403.23 236.78 404.51 238.41 406.25 C 246.63 415.06 263.75 433.37 269.52 470.23 C 272.48 489.18 271.34 508.53 268.49 521.21 C 261.04 506.46 245.99 483.56 230.59 471.48 C 204.66 451.14 188.27 424.46 185.63 398.30 C 185.61 398.12 185.53 397.98 185.48 397.81 L 185.48 397.40 C 185.59 396.90 185.59 396.38 185.48 395.89 C 185.48 395.38 185.47 394.88 185.47 394.38 L 185.44 373.62 C 185.46 373.52 185.52 373.45 185.54 373.35 C 185.62 372.84 185.58 372.31 185.43 371.82 L 185.42 366.00 C 185.39 345.74 185.35 325.48 185.29 305.23 C 200.64 305.27 215.45 315.08 225.13 331.97 C 221.17 332.73 217.32 334.02 213.70 335.82 C 201.82 341.69 192.27 352.59 188.15 364.98 C 187.54 366.83 188.54 368.82 190.39 369.43 C 192.24 370.05 194.23 369.05 194.84 367.20 C 198.38 356.56 206.59 347.19 216.83 342.14 C 225.27 337.96 234.32 337.18 242.31 339.93 C 247.15 341.60 251.33 345.21 256.17 349.40 C 262.02 354.46 268.66 360.20 278.46 364.35 Z M 114.06 424.74 C 113.70 426.30 113.33 427.85 112.96 429.41 C 109.49 428.44 105.85 427.29 102.03 425.39 C 106.02 422.79 110.34 421.15 114.97 420.86 C 114.67 422.16 114.36 423.45 114.06 424.74 Z M 120.92 426.35 C 125.05 408.67 128.61 393.41 145.61 382.50 C 154.25 376.95 166.58 374.52 178.39 375.85 L 178.42 394.39 L 178.43 395.77 C 172.62 404.70 170.21 415.17 167.92 425.32 C 164.38 440.96 161.05 455.72 146.43 466.87 C 133.81 476.50 119.03 478.48 99.79 472.92 C 113.48 458.27 117.26 442.05 120.92 426.35 Z M 174.79 426.88 C 175.92 421.88 177.03 417.02 178.49 412.42 C 178.51 421.47 178.52 430.52 178.59 439.58 C 176.55 439.56 174.28 439.54 171.68 439.53 C 172.87 435.33 173.84 431.08 174.79 426.88 Z M 185.64 439.63 C 185.60 435.00 185.60 430.38 185.58 425.75 C 187.56 430.49 189.87 435.09 192.50 439.50 C 190.21 439.61 187.92 439.65 185.64 439.63 Z M 244.94 333.42 C 244.82 333.37 244.72 333.31 244.60 333.26 C 240.79 331.96 236.78 331.29 232.75 331.28 C 221.86 310.39 204.04 298.17 185.28 298.17 L 185.27 294.83 C 185.23 282.24 185.14 269.65 185.06 257.07 C 184.95 240.19 184.85 223.31 184.83 206.42 C 187.93 205.79 190.80 204.34 193.16 202.23 C 193.23 202.18 193.27 202.11 193.34 202.05 C 213.95 253.48 230.39 295.87 244.94 333.42 Z M 164.45 121.42 C 167.48 113.72 173.56 109.07 180.73 108.99 L 180.92 108.98 C 188.35 108.98 195.20 113.92 198.42 121.60 C 205.53 138.53 194.90 154.75 182.15 171.24 C 181.88 171.21 181.62 171.16 181.35 171.14 C 181.20 171.13 181.05 171.13 180.90 171.14 C 180.75 171.13 180.60 171.17 180.46 171.18 C 180.40 171.15 180.35 171.10 180.29 171.08 C 176.39 167.75 156.65 141.22 164.45 121.42 Z M 171.64 185.59 C 172.92 181.59 175.65 179.43 181.03 178.18 C 186.28 178.52 189.74 180.88 191.61 185.41 C 193.57 190.17 191.16 194.60 188.50 196.95 C 184.88 200.14 180.21 200.61 175.98 198.22 C 171.87 195.88 170.04 190.57 171.64 185.59 Z M 141.02 275.26 C 147.21 259.44 155.97 237.03 169.55 202.12 C 170.45 202.95 171.41 203.72 172.50 204.34 C 174.15 205.27 175.93 205.95 177.78 206.35 C 177.80 223.28 177.90 240.19 178.01 257.12 C 178.09 269.69 178.18 282.27 178.22 294.86 L 178.23 298.77 C 177.48 298.90 176.72 298.99 175.97 299.15 C 157.92 303.09 145.08 318.04 141.51 338.35 C 136.33 331.83 130.11 326.73 122.67 322.83 C 128.15 308.15 131.59 299.35 141.02 275.26 Z M 35.36 534.13 C 30.25 538.35 25.65 541.12 20.90 542.82 C 25.23 530.70 25.86 518.46 22.82 505.39 C 11.34 456.09 31.97 417.91 53.12 400.18 C 71.27 384.98 93.15 380.64 111.66 388.57 C 113.45 389.33 115.52 388.50 116.29 386.72 C 117.06 384.93 116.23 382.86 114.44 382.09 C 101.94 376.73 88.15 376.28 74.77 380.34 C 74.75 380.34 74.73 380.33 74.70 380.32 C 50.41 379.41 32.14 371.15 18.83 354.94 C 19.71 354.75 20.69 354.59 21.31 354.49 C 22.48 354.30 23.55 354.11 24.29 353.90 C 38.44 349.84 48.81 342.57 57.96 336.15 C 72.53 325.93 84.05 317.85 105.66 323.77 C 126.97 329.59 139.44 341.71 147.35 364.29 C 147.99 366.12 150.00 367.09 151.84 366.45 C 153.67 365.80 154.64 363.80 154.00 361.96 C 152.14 356.67 150.01 351.90 147.60 347.57 C 148.46 325.77 159.84 309.88 177.47 306.04 C 177.73 305.98 177.99 305.96 178.24 305.91 C 178.30 325.94 178.34 345.97 178.38 366.01 L 178.38 368.75 C 165.11 367.41 151.71 370.21 141.80 376.57 C 126.43 386.43 120.59 399.87 116.78 413.75 C 90.08 413.36 73.21 447.25 65.37 467.96 C 62.61 475.26 61.07 482.34 59.59 489.18 C 56.21 504.78 53.01 519.51 35.36 534.13 Z M 297.13 489.38 C 297.22 511.61 297.32 533.85 297.59 556.08 C 297.71 566.25 292.86 572.34 283.87 580.00 C 233.32 623.09 137.61 624.70 83.06 583.38 C 66.52 570.85 65.89 563.49 66.02 548.03 C 66.07 542.01 66.05 535.99 66.02 529.97 C 65.97 516.73 65.91 503.03 66.74 489.65 C 66.74 489.61 66.73 489.59 66.73 489.55 C 68.08 483.31 69.53 476.88 71.96 470.46 C 75.81 460.28 84.10 441.46 96.07 430.14 C 101.55 433.28 106.70 434.99 111.22 436.25 C 108.03 447.84 103.40 459.34 93.21 469.60 C 92.52 470.29 90.43 472.40 91.11 475.16 C 91.55 476.93 92.93 478.20 95.23 478.93 C 103.98 481.71 111.99 483.11 119.40 483.11 C 131.14 483.11 141.38 479.59 150.70 472.48 C 160.58 464.94 165.91 455.99 169.39 446.58 C 173.83 446.58 177.46 446.61 180.47 446.64 C 182.75 446.66 184.72 446.68 186.49 446.68 C 190.53 446.68 193.54 446.57 196.82 446.22 C 203.77 456.30 213.22 466.81 226.24 477.02 C 244.04 490.98 261.35 520.28 265.64 532.08 C 266.02 533.11 266.84 533.85 267.81 534.19 C 267.84 534.20 267.85 534.23 267.88 534.24 C 269.68 534.98 271.74 534.12 272.48 532.32 C 277.36 520.45 280.41 494.28 276.48 469.13 C 275.55 463.20 274.24 457.33 272.55 451.56 C 280.22 458.14 288.43 463.06 297.01 466.26 L 297.13 489.38 Z M 267.17 436.30 C 267.12 436.23 267.04 436.21 266.98 436.15 C 260.45 421.32 252.51 411.34 246.90 405.08 C 253.46 406.33 259.95 407.04 266.22 407.04 C 273.46 407.04 280.41 406.19 286.86 404.43 C 290.52 403.44 293.97 402.10 297.28 400.55 C 297.41 400.62 297.50 400.72 297.63 400.77 C 313.67 406.71 318.02 418.44 323.53 433.30 C 326.81 442.13 330.52 452.10 337.54 461.63 C 311.91 467.98 286.95 459.02 267.17 436.30 Z" fill="#000e3f" fill-rule="nonzero" group-id="1,29" node-id="253" stroke="none" target-height="522.9998" target-width="340.00443" target-x="5.9099474" target-y="101.697876"></path><path d="M 141.09 530.42 C 135.99 530.40 131.04 535.32 130.88 540.57 C 130.71 546.25 136.53 551.52 142.14 550.87 C 147.11 550.31 151.44 545.76 151.49 540.79 C 151.55 535.24 146.74 530.44 141.09 530.42 Z M 222.65 530.42 C 217.01 530.44 212.19 535.24 212.25 540.79 C 212.30 545.76 216.63 550.31 221.60 550.87 C 227.21 551.52 233.03 546.25 232.86 540.57 C 232.71 535.32 227.76 530.40 222.65 530.42 Z" fill="#000e3f" fill-rule="nonzero" group-id="1,30" node-id="258" stroke="none" target-height="21.117981" target-width="102.31644" target-x="130.71202" target-y="530.4"></path></g></g></svg>