<svg viewBox="0 0 1024 1024" height="1024" width="1024" version="1.1" fill="none" xmlns:xlink="http://www.w3.org/1999/xlink" xmlns="http://www.w3.org/2000/svg"><defs><clipPath id="master_svg0_36_036"><rect rx="0" height="1024" width="1024" y="0" x="0"></rect></clipPath></defs><g clip-path="url(#master_svg0_36_036)"><g><g><path style="mix-blend-mode:passthrough" fill-opacity="1" fill="#91D728" d="M968.664258178711,677.1619438476563C967.5702581787109,677.7959438476563,966.240258178711,678.0379438476563,964.6462581787109,677.7139438476562C956.902258178711,676.1439438476563,957.3682581787109,676.2919438476563,918.4002581787109,646.8719438476562C875.2822581787109,614.3219438476563,826.1662581787109,564.9419438476563,809.3862581787109,543.2519438476563C796.462258178711,526.5579438476562,784.8502581787109,509.01394384765626,774.1182581787109,490.8859438476562C766.0602581787109,477.26194384765626,765.610258178711,473.23794384765625,770.832258178711,458.25994384765625C775.710258178711,444.1359438476562,783.2522581787109,422.03794384765627,785.5982581787109,407.3259438476563C785.774258178711,406.0639438476563,784.114258178711,404.5179438476562,782.8782581787109,404.78194384765624C781.0122581787109,405.1599438476562,779.082258178711,405.38994384765624,777.2802581787109,406.04794384765626C747.710258178711,416.7779438476563,745.2762581787109,419.18994384765625,736.3841581787109,417.93994384765625C732.798158178711,417.42594384765624,729.8921581787109,415.77594384765627,728.240158178711,412.69394384765627C720.4081581787109,398.2899438476562,719.4881581787109,392.64194384765625,713.150158178711,375.55994384765626C713.030158178711,375.2299438476563,700.2781581787109,344.35994384765627,690.4781581787109,312.10594384765625C688.972158178711,307.2179438476562,663.304158178711,235.53394384765625,644.7641481787109,174.73594384765624C643.654158178711,171.08394384765626,641.106128178711,161.99394384765625,640.004135178711,152.31996384765625C639.4321131787109,147.15995384765625,641.422168178711,144.10595384765625,643.908128178711,143.10995484765624C645.026958178711,142.66435244765626,646.269028178711,142.63735984765626,647.406108178711,143.03395084765626C661.4040581787109,147.88195384765626,716.150158178711,171.91394384765624,770.7902581787109,206.99594384765624C775.672258178711,210.13594384765625,777.558258178711,214.98194384765625,776.8622581787109,220.66594384765625C770.8142581787109,268.25794384765624,770.202258178711,262.5879438476562,771.980258178711,265.83594384765627C773.9642581787109,269.4679438476562,782.0602581787109,260.2179438476562,795.5022581787109,253.85394384765624C800.1962581787109,251.62794384765624,804.8782581787109,252.17794384765625,808.8962581787109,255.70794384765625C812.114258178711,258.5689438476562,815.220258178711,261.5539438476562,818.2062581787109,264.65594384765626C868.404258178711,316.84394384765625,901.1262581787109,362.82994384765624,933.736258178711,423.0059438476562C941.8622581787109,437.98594384765624,945.970258178711,442.77594384765627,942.1962581787109,450.64594384765627C934.4262581787109,466.73594384765624,929.332258178711,476.42394384765623,920.4262581787109,495.91394384765624C919.2162581787109,498.52594384765627,920.9002581787109,500.1119438476563,924.1602581787109,499.77594384765627C932.2182581787109,498.84594384765626,940.2902581787109,497.98794384765625,948.390258178711,497.16794384765626C952.534258178711,496.78194384765624,957.344258178711,498.29994384765627,959.0782581787109,502.67594384765624C961.546258178711,508.83594384765627,962.1182581787109,538.7519438476563,962.9822581787109,543.9499438476562C967.316258178711,570.4079438476563,971.5802581787109,637.6999438476562,973.172258178711,662.5159438476562C973.538258178711,668.0899438476563,972.470258178711,675.0199438476562,968.664258178711,677.1619438476563Z"></path></g><g style="opacity:0.25;"><path style="mix-blend-mode:passthrough" fill-opacity="1" fill="#000E3F" d="M968.664258178711,677.1619853515625C967.5702581787109,677.7959853515625,966.240258178711,678.0379853515625,964.6462581787109,677.7139853515625C956.902258178711,676.1439853515625,957.3682581787109,676.2919853515625,918.4002581787109,646.8719853515624C875.2822581787109,614.3219853515625,826.1662581787109,564.9419853515625,809.3862581787109,543.2519853515626C796.462258178711,526.5579853515625,784.8502581787109,509.0139853515625,774.1182581787109,490.8859853515625C766.0602581787109,477.2619853515625,765.610258178711,473.2379853515625,770.832258178711,458.2599853515625C775.710258178711,444.1359853515625,783.2522581787109,422.0379853515625,785.5982581787109,407.3259853515625C785.774258178711,406.0639853515625,784.114258178711,404.5179853515625,782.8782581787109,404.7819853515625C781.0122581787109,405.1599853515625,779.082258178711,405.3899853515625,777.2802581787109,406.0479853515625C747.710258178711,416.7779853515625,745.2762581787109,419.1899853515625,736.3841581787109,417.9399853515625C732.798158178711,417.4259853515625,729.8921581787109,415.7759853515625,728.240158178711,412.6939853515625C720.4081581787109,398.2899853515625,719.4881581787109,392.64198535156254,713.150158178711,375.5599853515625C713.030158178711,375.2299853515625,700.2781581787109,344.3599853515625,690.4781581787109,312.1059853515625C688.972158178711,307.2179853515625,663.304158178711,235.5339853515625,644.7641481787109,174.7359853515625C643.654158178711,171.0839853515625,641.106128178711,161.99398535156251,640.004135178711,152.3199953515625C639.4321131787109,147.1599853515625,641.422168178711,144.1059873515625,643.908128178711,143.1099853515625C708.1581581787109,236.6579853515625,909.630258178711,534.6419853515624,968.664258178711,677.1619853515625Z"></path></g><g style="opacity:0.5;"><path style="mix-blend-mode:passthrough" fill-opacity="1" fill="#FFFFFF" d="M911.2721488037109,438.046375C906.6821488037109,412.880375,877.7279488037109,357.405975,836.609948803711,317.573975C823.857948803711,305.219975,799.585948803711,288.939941,789.317978803711,288.61395264C784.4119718037109,288.457947,782.629988803711,292.325955,785.095988803711,296.149965C786.7759888037109,298.753975,788.9579888037109,300.947975,791.285998803711,302.979975C878.7659488037109,379.405975,876.9379488037109,439.878375,893.054148803711,454.478375C900.818148803711,461.512375,914.7461488037109,457.102375,911.2721488037109,438.046375Z"></path></g><g><path style="mix-blend-mode:passthrough" fill-opacity="1" fill="#000E3F" d="M1023.5214769287109,772.0998896484375C1010.5614769287109,742.7638896484375,995.3594769287109,711.3858896484375,978.699476928711,678.9518896484375C982.147476928711,672.9618896484375,982.189476928711,665.3578896484375,981.967476928711,661.9298896484376L981.805476928711,659.4218896484375C980.053476928711,632.2298896484375,975.945476928711,568.5478896484375,971.661476928711,542.5198896484376C971.447476928711,541.2138896484375,971.1534769287109,536.0238896484375,970.897476928711,531.4438896484376C969.863476928711,513.0138896484375,969.091476928711,504.0118896484375,967.247476928711,499.3998896484375C964.675476928711,492.9718896484375,958.6454769287109,488.8418896484375,951.113476928711,488.3518896484375C949.9154769287109,488.2748896484375,948.7124769287109,488.2948896484375,947.517476928711,488.4118896484375C943.005476928711,488.8578896484375,938.227476928711,489.3538896484375,932.8954769287109,489.9318896484375C936.6234769287109,482.0078896484375,939.7354769287109,475.6818896484375,942.9794769287109,469.0898896484375C945.382476928711,464.2228896484375,947.764476928711,459.3458896484375,950.1254769287109,454.4578896484375C955.3314769287109,443.6538896484375,950.911476928711,435.7438896484375,944.793476928711,424.7958896484375C943.7874769287109,422.9958896484375,942.6814769287109,421.0198896484375,941.487476928711,418.8138896484375C907.3754769287109,355.8698896484375,873.5014769287109,309.4338896484375,824.559476928711,258.5358896484375C821.4074769287109,255.2658896484375,818.1264769287109,252.1208896484375,814.7254769287109,249.1098896484375C811.101476928711,245.8978896484375,806.8114769287109,244.04588964843748,802.319476928711,243.7538896484375C798.7774769287109,243.5238896484375,795.2154769287109,244.2418896484375,791.7354769287109,245.8858896484375C787.9274769287109,247.6858896484375,784.525476928711,249.6858896484375,781.583476928711,251.5618896484375C782.997476928711,241.6458896484375,784.3314769287109,231.7178896484375,785.5854769287109,221.7799896484375C786.7594769287109,212.5319896484375,783.103476928711,204.4459896484375,775.553476928711,199.5939896484375C720.0978769287109,163.9659896484375,664.3378769287109,139.5599996484375,650.301876928711,134.7019956484375C649.124276928711,134.2943726484375,647.897376928711,134.0468296484375,646.6538769287109,133.9660034484375C642.537776928711,133.6979976484375,638.5138369287109,135.2900096484375,635.6118669287109,138.3339996484375C632.1278569287109,141.9880096484375,630.583846928711,147.3039896484375,631.2598729287109,153.3099896484375C632.4398669287109,163.7959896484375,635.211896928711,173.5859896484375,636.351856928711,177.3099896484375C650.8378769287109,224.7839896484375,669.8338769287109,279.4318896484375,677.945876928711,302.7658896484375C680.0797769287109,308.9078896484375,681.7658769287109,313.7578896484375,682.0478769287109,314.6778896484375C690.777776928711,343.3418896484375,701.7218769287109,370.8118896484375,704.8658769287109,378.5498896484375L704.935876928711,378.72388964843753C706.6198769287109,383.26988964843747,707.9157769287109,386.9918896484375,709.059876928711,390.2858896484375C712.1938769287109,399.2878896484375,714.4578769287109,405.7938896484375,720.483876928711,416.8998896484375C723.397876928711,422.2698896484375,728.603876928711,425.7358896484375,735.1454769287109,426.6538896484375C736.150476928711,426.7988896484375,737.159476928711,426.9048896484375,738.171476928711,426.9738896484375C745.3694769287109,427.4418896484375,750.2214769287109,425.6018896484375,763.189476928711,420.6898896484375C767.0144769287109,419.2338896484375,770.8454769287109,417.7958896484375,774.6834769287109,416.3758896484375C771.179476928711,430.3858896484375,765.339476928711,447.1958896484375,762.5034769287109,455.3678896484375C756.463476928711,472.7558896484375,757.141476928711,479.4818896484375,766.5294769287109,495.3578896484375C778.169476928711,515.0338896484375,789.9054769287109,532.4558896484375,802.411476928711,548.6218896484374C818.9274769287109,569.9738896484375,867.8494769287109,619.7538896484375,913.1054769287109,653.9078896484375L918.515476928711,657.9918896484374C952.9074769287109,683.9578896484375,953.563476928711,684.4538896484376,962.8474769287109,686.3378896484375C963.6094769287109,686.4918896484374,964.333476928711,686.5898896484375,965.041476928711,686.6358896484375C966.679476928711,686.7418896484374,968.255476928711,686.5038896484375,969.7714769287109,686.0898896484375C985.921476928711,717.6058896484375,1000.6634769287109,748.0918896484375,1013.2714769287109,776.6278896484375C1014.522476928711,779.4588896484375,1017.8304769287109,780.7388896484375,1020.660476928711,779.4888896484375C1023.4914769287109,778.2388896484375,1024.772476928711,774.9308896484375,1023.5214769287109,772.0998896484375ZM964.639476928711,677.7178896484374C956.897476928711,676.1458896484374,957.3654769287109,676.2798896484375,918.409476928711,646.8818896484376C875.2794769287109,614.3318896484375,826.161476928711,564.9398896484374,809.3754769287109,543.2378896484374C796.473476928711,526.5578896484375,784.8374769287109,509.0118896484375,774.1094769287109,490.8758896484375C766.0574769287109,477.2638896484375,765.617476928711,473.2418896484375,770.8214769287109,458.2598896484375C775.7294769287109,444.1318896484375,783.243476928711,422.0438896484375,785.5914769287109,407.3098896484375C785.7694769287109,406.1938896484375,784.445476928711,404.8278896484375,783.261476928711,404.7518896484375C783.1294769287109,404.7418896484375,782.997476928711,404.7498896484375,782.867476928711,404.7778896484375C781.0014769287109,405.1658896484375,779.069476928711,405.3998896484375,777.2934769287109,406.0458896484375C750.511476928711,415.7638896484375,745.9754769287109,418.6598896484375,738.743476928711,418.1878896484375C737.949476928711,418.1318896484375,737.1574769287109,418.0478896484375,736.3694769287109,417.9358896484375C732.809476928711,417.4358896484375,729.889776928711,415.7758896484375,728.2217769287109,412.7018896484375C720.4057769287109,398.2998896484375,719.493776928711,392.6578896484375,713.147776928711,375.5498896484375C713.033776928711,375.24588964843747,700.291776928711,344.3658896484375,690.4677769287109,312.1138896484375C688.979876928711,307.23188964843746,663.3177769287109,235.5198896484375,644.771876928711,174.7398896484375C643.6538769287109,171.0818896484375,641.0978269287109,161.9938896484375,640.009806928711,152.3258896484375C639.2638369287109,145.7238896484375,642.715776928711,142.5379196484375,646.0818769287109,142.7579196484375C646.5338769287109,142.7879196484375,646.9818769287109,142.8779096484375,647.421876928711,143.0299196484375C661.401876928711,147.8698896484375,716.1398769287109,171.8938896484375,770.791476928711,207.00588964843752C775.661476928711,210.1358896484375,777.573476928711,214.9758896484375,776.8494769287109,220.6738896484375C770.8014769287109,268.24788964843754,770.2114769287109,262.5918896484375,771.9854769287109,265.84388964843754C772.2694769287109,266.3638896484375,772.679476928711,266.61788964843754,773.213476928711,266.65188964843753C776.3994769287109,266.8598896484375,783.9894769287109,259.2978896484375,795.497476928711,253.8538896484375C797.6054769287109,252.8578896484375,799.709476928711,252.4138896484375,801.747476928711,252.5478896484375C804.2634769287109,252.7118896484375,806.679476928711,253.7518896484375,808.8834769287109,255.7058896484375C812.1104769287109,258.5608896484375,815.2224769287109,261.54388964843747,818.2114769287109,264.6458896484375C868.3994769287109,316.8398896484375,901.127476928711,362.82788964843746,933.745476928711,423.0178896484375C941.8654769287109,438.0018896484375,945.977476928711,442.7858896484375,942.1914769287109,450.6418896484375C934.4334769287109,466.7478896484375,929.339476928711,476.4218896484375,920.4174769287109,495.9058896484375C919.391476928711,498.1438896484375,920.4754769287109,499.6458896484375,922.853476928711,499.8018896484375C923.2514769287109,499.8278896484375,923.6834769287109,499.8158896484375,924.149476928711,499.7658896484375C932.2214769287109,498.8598896484375,940.2994769287109,497.9838896484375,948.381476928711,497.1858896484375C949.0994769287109,497.1148896484375,949.822476928711,497.1028896484375,950.541476928711,497.1498896484375C954.0854769287109,497.3798896484375,957.621476928711,499.0538896484375,959.0714769287109,502.6778896484375C961.531476928711,508.8278896484375,962.1174769287109,538.7618896484375,962.973476928711,543.9578896484375C967.3254769287109,570.4038896484375,971.5774769287109,637.6978896484375,973.1814769287109,662.5058896484375C973.295476928711,664.2698896484375,973.2594769287109,666.1658896484375,973.043476928711,668.0058896484375C857.6294769287109,446.0338896484375,678.431776928711,180.1458896484375,676.3377769287109,177.04778964843752C674.605276928711,174.4835896484375,671.122076928711,173.8092896484375,668.557776928711,175.5417896484375C665.993476928711,177.2742896484375,665.3192769287109,180.7575896484375,667.051776928711,183.32178964843752C669.157776928711,186.43378964843748,850.5874769287109,455.6518896484375,965.5114769287109,677.8358896484375C965.219476928711,677.8138896484375,964.9274769287109,677.7748896484375,964.639476928711,677.7178896484374Z"></path></g><g><path style="mix-blend-mode:passthrough" fill-opacity="1" fill="#FD8A02" d="M498.4884534912109,819.5902255859374C302.4864534912109,946.1102255859375,41.526153491210934,826.6982255859375,9.446203491210937,595.1422255859375C-26.959846508789063,332.3599255859375,265.54045349121094,131.6302255859375,503.00445349121094,288.2300255859375C689.6444534912109,411.3142255859375,691.5484534912109,694.9662255859375,498.4884534912109,819.5902255859374Z"></path></g><g><path style="mix-blend-mode:passthrough" fill-opacity="1" fill="#00B0C4" d="M466.91358630371093,837.5515209960938C451.66958630371096,845.2935209960938,412.66758630371095,847.2655209960938,399.54558630371093,847.7515209960937C284.07358630371095,852.0295209960938,203.05358630371094,813.6775209960938,107.93608630371094,747.7675209960937C83.30008630371094,730.6955209960938,58.58208630371094,704.9175209960938,39.02608630371094,685.5795209960938C34.84248630371094,681.4825209960937,31.612586303710938,676.5135209960938,29.566086303710936,671.0255209960937C23.20608630371094,654.1395209960938,17.348086303710936,637.1315209960937,14.164086303710938,619.2975209960937C9.234086303710937,591.6795209960937,22.43208630371094,603.1235209960937,47.266086303710935,605.4675209960938C171.80258630371094,617.2295209960937,299.31258630371093,594.6255209960938,415.81958630371093,550.4075209960938C485.4575863037109,523.9639209960937,551.2295863037109,493.7079209960938,602.765586303711,439.5999209960938C614.505586303711,427.27396099609376,614.847586303711,419.22595099609373,619.0855863037109,429.71194099609374C685.765586303711,594.7315209960938,610.985586303711,764.3875209960938,466.91358630371093,837.5515209960938Z"></path></g><g><path style="mix-blend-mode:passthrough" fill-opacity="1" fill="#FFFFFF" d="M436.23376989746095,262.36398314921877C462.6317698974609,262.67398094921873,480.42176989746093,273.08799794921873,502.19576989746093,287.70999794921875C559.1477698974609,325.9559979492187,603.1497698974609,382.18439794921875,625.667769897461,447.06239794921873C629.321769897461,457.59039794921875,632.0837698974609,468.4283979492187,635.2237698974609,479.1323979492188C636.427769897461,483.2363979492187,635.243769897461,486.1183979492188,631.705769897461,488.95039794921877C493.79376989746095,599.4023979492188,290.215769897461,653.5403979492187,115.33976989746094,627.3203979492188C101.92976989746094,625.3103979492187,106.46776989746094,626.1503979492188,99.20376989746094,608.8803979492188C89.05976989746094,584.7663979492188,77.45976989746094,574.6383979492188,59.35173989746094,561.0723979492187C56.177737897460936,558.6943979492187,55.92573889746094,557.8623979492188,57.38773689746094,553.9703979492188C114.03176989746095,403.3203979492188,274.66176989746094,260.47201794921875,436.23376989746095,262.36398314921877ZM64.54376989746093,735.2203979492188C63.55976989746094,733.7563979492188,63.82176989746094,732.2983979492187,65.10977989746094,731.1283979492188C68.04376989746093,728.4683979492188,86.38976989746094,717.0263979492188,97.23576989746094,694.1923979492187C98.41976989746094,691.7003979492188,99.42776989746093,689.5083979492188,101.17176989746093,691.1163979492187C117.26576989746093,705.9303979492188,130.50176989746092,719.7123979492187,155.90176989746095,737.1243979492187C275.5157698974609,819.1243979492187,420.2517698974609,832.3223979492187,549.4257698974609,771.4743979492188C552.2637698974609,770.1363979492187,555.3217698974609,768.1763979492188,556.317769897461,769.1623979492188C557.5797698974609,770.4123979492188,556.103769897461,771.8703979492187,550.633769897461,777.2663979492188C400.1797698974609,925.7383979492188,165.64176989746093,885.6903979492188,64.54376989746093,735.2203979492188Z"></path></g><g><path style="mix-blend-mode:passthrough" fill-opacity="1" fill="#91D728" d="M6.662007178710938,552.7399943554688C6.600007078710938,543.5919803554688,4.844003178710937,541.8419843554688,17.46398317871094,543.5299683554688C106.70188317871094,555.4679143554688,144.25788317871093,673.5522143554688,69.41198317871094,729.8622143554687C62.49198317871094,735.0682143554687,63.15598317871094,734.3102143554688,52.55998317871094,717.0262143554687C34.797983178710936,688.0522143554688,21.31798317871094,654.2682143554688,14.266013178710939,620.5759143554687C12.708013178710939,613.1339143554687,6.902013178710938,588.2479143554688,6.662007178710938,552.7399943554688Z"></path></g><g style="opacity:0.5;"><path style="mix-blend-mode:passthrough" fill-opacity="1" fill="#FFFFFF" d="M48.845972553710936,445.574189453125C56.821972553710935,417.166189453125,96.03394255371094,356.569989453125,147.53624255371093,315.243989453125C163.50824255371094,302.427989453125,193.13224255371094,286.340026453125,204.96024255371094,287.068023653125C210.61024255371095,287.416015453125,212.24024255371094,292.050019453125,208.99824255371092,296.176029453125C206.78824255371094,298.987989453125,204.04624255371093,301.271989453125,201.15624255371094,303.355989453125C92.47794255371093,381.723989453125,88.07994255371094,451.368189453125,67.99994255371094,466.404189453125C58.32594255371094,473.64818945312504,42.80597255371094,467.08618945312503,48.845972553710936,445.574189453125Z"></path></g><g style="opacity:0.25;"><path style="mix-blend-mode:passthrough" fill-opacity="1" fill="#000E3F" d="M114.27177380371094,791.0300415039062C110.17777380371093,787.5200415039062,110.33577680371094,786.7300415039062,114.25977380371094,783.3580415039063C148.04177380371095,754.3300415039063,207.65977380371095,739.8740415039063,256.5537738037109,740.5060415039063C280.86177380371095,740.8220415039062,296.70377380371093,744.2520415039062,360.68377380371095,747.0220415039062C473.31177380371093,751.8980415039063,590.7397738037109,643.9000415039063,550.1077738037109,446.3540415039063C538.6157738037109,390.47804150390624,517.477773803711,299.84604150390624,467.02977380371095,265.23004150390625C478.7717738037109,273.2880515039063,490.8917738037109,280.67204150390626,502.96777380371094,288.21604150390624C554.921773803711,322.2480415039063,602.945773803711,379.94204150390624,625.8697738037109,447.71004150390627C731.871773803711,761.0540415039063,361.49777380371097,1003.0780415039062,114.27177380371094,791.0300415039062Z"></path></g><g><path style="mix-blend-mode:passthrough" fill-opacity="1" fill="#FC09B2" d="M288.6138698974609,544.8857446289062C272.4378498974609,544.8937446289062,264.60383989746094,534.9737446289063,267.11585989746095,524.2797446289062C274.49585989746095,492.8539446289062,335.32586989746096,478.34594462890624,336.84586989746094,508.6879446289063C337.58386989746094,523.4377446289062,314.4018698974609,544.8737446289063,288.6138698974609,544.8857446289062ZM494.4157698974609,453.00394462890625C505.21976989746094,440.96594462890624,503.06376989746093,428.50997462890626,493.4257698974609,423.23996462890625C465.10176989746094,407.75394462890625,413.691769897461,443.35794462890624,435.2657698974609,464.7459446289063C445.7537698974609,475.14394462890624,477.1897698974609,472.19394462890625,494.4157698974609,453.00394462890625Z"></path></g><g><path style="mix-blend-mode:passthrough" fill-opacity="1" fill="#000E3F" d="M267.0380669287109,472.72997353515626C261.48408692871095,463.47597353515624,267.23005692871095,448.2919735351562,277.96002692871093,443.89797353515627C288.87202692871097,439.42997353515625,301.64202692871095,443.2579735351562,307.0660269287109,455.18197353515626C311.48602692871094,464.89597353515626,307.55002692871096,479.1198735351562,295.09602692871096,484.22387353515626C284.94002692871095,488.38587353515624,271.06605692871096,483.88787353515625,267.0380669287109,472.72997353515626ZM444.43172692871093,417.40197353515623C433.77372692871097,423.15397353515624,419.93772692871096,417.13397353515626,415.48372692871095,407.29997353515625C410.21772692871093,395.67207353515624,415.28372692871096,382.70800353515625,426.28372692871096,377.75802353515627C436.97172692871095,372.94803353515624,450.07772692871094,377.71002353515627,455.15772692871093,388.40207353515626C460.39972692871095,399.43207353515623,454.1797269287109,414.11807353515627,444.43172692871093,417.40197353515623Z"></path></g><g><path style="mix-blend-mode:passthrough" fill-opacity="1" fill="#000E3F" d="M525.8904964599609,296.4779932128906C468.48049645996093,252.17599321289063,400.7504964599609,227.99797321289063,330.03249645996095,226.5599823128906C237.39649645996093,224.68397321289063,148.01249645996094,263.06799321289066,84.90599645996093,331.90229321289064C20.859996459960936,401.7542932128906,-8.529973540039062,494.90429321289065,2.1460164599609377,594.2282932128905C18.75199645996094,712.8642932128906,94.27999645996094,809.9742932128906,204.18249645996093,853.9982932128906C247.29049645996093,871.2662932128907,292.07849645996095,879.0582932128906,336.18649645996095,877.7282932128907C404.3824964599609,875.6702932128907,470.94649645996094,851.7842932128906,527.066496459961,807.3482932128907C606.094496459961,744.7722932128906,651.056496459961,650.9542932128907,650.4244964599609,549.9462932128906C649.8024964599609,449.4562932128906,604.4104964599609,357.07029321289065,525.8904964599609,296.4779932128906ZM576.6404964599609,741.3902932128906C536.436496459961,794.7062932128906,482.7884964599609,833.1302932128906,421.48449645996095,852.5102932128906C364.22049645996094,870.6202932128906,302.61249645996094,871.7942932128906,243.30449645996094,855.9142932128906C117.31249645996094,822.1722932128906,29.069996459960937,720.4182932128906,13.021996459960938,590.3662932128907C2.8060164599609374,507.60429321289064,22.79599645996094,431.7022932128906,72.42599645996094,364.7682932128906C112.25049645996094,311.0599932128906,165.80649645996093,272.2999932128906,227.30849645996093,252.67399321289062C255.09649645996095,243.80599321289063,283.92449645996095,238.92599321289063,313.0484964599609,238.04799321289062C344.11649645996096,237.10999321289063,375.51649645996093,240.72799321289062,406.3244964599609,248.9159932128906C533.392496459961,282.69399321289063,621.9764964599609,384.8282932128906,637.508496459961,515.4562932128906C647.4004964599609,598.6902932128907,626.9244964599609,674.7042932128907,576.6404964599609,741.3902932128906Z"></path></g><g><path style="mix-blend-mode:passthrough" fill-opacity="1" fill="#000E3F" d="M397.6024105224609,417.035904296875C396.24541052246093,416.526904296875,394.7414105224609,416.579904296875,393.4244105224609,417.18390429687497C390.6794105224609,418.442904296875,389.469410522461,421.684904296875,390.72041052246095,424.43390429687497C397.53241052246096,439.357904296875,396.2624105224609,460.079904296875,380.48441052246096,469.093904296875C372.33641052246094,473.737904296875,364.5824105224609,472.63790429687504,359.5124105224609,470.901904296875C349.82641052246095,467.581904296875,340.85441052246097,458.86390429687503,336.6519105224609,448.687904296875C336.09581052246097,447.33790429687497,335.0217105224609,446.26790429687503,333.66991052246095,445.715904296875C332.33631052246096,445.160904296875,330.8360105224609,445.162904296875,329.50401052246093,445.721904296875C326.71571052246094,446.878904296875,325.38871052246094,450.073904296875,326.53601052246097,452.865904296875C331.9660105224609,466.01590429687496,343.24241052246094,476.891904296875,355.96841052246094,481.251904296875C360.43241052246094,482.78190429687504,364.90241052246097,483.48390429687504,369.31241052246094,483.351904296875C370.6544105224609,483.311904296875,371.99241052246094,483.19390429687496,373.320410522461,482.999904296875C377.68241052246094,482.355904296875,381.916410522461,480.875904296875,385.9044105224609,478.595904296875C407.32441052246094,466.36190429687497,409.4964105224609,439.21990429687503,400.66841052246093,419.889904296875C400.06941052246094,418.566904296875,398.96541052246096,417.537904296875,397.6024105224609,417.035904296875ZM348.27641052246094,374.600004296875C365.26441052246093,377.53600429687503,381.28841052246094,373.874004296875,391.0784105224609,364.794004296875C401.09841052246094,355.494004296875,404.45641052246094,344.554004296875,400.5344105224609,333.984004296875C394.00441052246094,316.390004296875,367.7384105224609,302.813994296875,338.08801052246093,301.704010006875C334.97401052246096,301.622009296875,332.52801052246093,303.951994296875,332.41201052246095,306.968014296875C332.3050105224609,309.985444296875,334.6589105224609,312.520904296875,337.67601052246096,312.638004296875C362.6884105224609,313.574004296875,385.30041052246094,324.386004296875,390.2744105224609,337.790004296875C392.6264105224609,344.116004296875,390.39441052246093,350.504004296875,383.642410522461,356.772004296875C376.33841052246095,363.546004296875,363.8224105224609,366.180004296875,350.1404105224609,363.814004296875C335.5240105224609,361.292004296875,322.89201052246096,353.548004296875,317.95801052246094,344.090004296875C317.2905105224609,342.80030429687497,316.1345105224609,341.831604296875,314.74801052246096,341.400004296875C313.3655105224609,340.962604296875,311.865710522461,341.09580429687503,310.5820105224609,341.770004296875C307.90481052246093,343.170404296875,306.86611052246093,346.473404296875,308.2600105224609,349.154004296875C314.0260105224609,360.210004296875,314.27801052246093,371.584004296875,308.92601052246096,379.58200429687497C303.8120105224609,387.228004296875,294.07601052246093,390.992004296875,282.1580105224609,389.94000429687503C269.98201052246094,388.854004296875,254.09801052246092,379.360004296875,249.86201052246093,366.958004296875C248.87653052246094,364.106404296875,245.77394052246095,362.585004296875,242.91598052246093,363.552004296875C240.05854752246094,364.532304296875,238.53268452246093,367.639504296875,239.50398252246094,370.500004296875C245.38399052246095,387.686004296875,265.31401052246093,399.422004296875,281.19001052246097,400.838004296875C283.33141052246094,401.032704296875,285.48261052246096,401.098804296875,287.63191052246094,401.03600429687503C289.52391052246094,400.980004296875,291.37191052246095,400.818004296875,293.16991052246095,400.554004296875C303.9780105224609,398.96400429687503,312.57391052246095,393.81410429687503,318.02391052246094,385.664004296875C321.92201052246094,379.834004296875,323.86791052246093,372.822004296875,323.6999105224609,365.274004296875C330.7819105224609,369.826004296875,339.23041052246094,373.038104296875,348.27641052246094,374.600004296875Z"></path></g><g><path style="mix-blend-mode:passthrough" fill-opacity="1" fill="#FD8A02" d="M717.683983959961,835.6778144531249C726.803983959961,840.5958144531251,734.807683959961,844.451814453125,739.3476839599609,849.755814453125C743.851683959961,855.0178144531251,738.4056839599609,862.811814453125,732.413683959961,860.699814453125C722.6099839599609,857.249814453125,709.5719839599609,846.467814453125,707.481983959961,848.153814453125C705.4239839599609,849.813814453125,707.5239839599609,852.6818144531251,708.2259839599609,854.929814453125C712.1379839599609,867.4318144531251,715.553983959961,874.7298144531251,716.635983959961,883.377814453125C717.457983959961,889.9418144531251,707.0899839599609,892.381814453125,704.0959839599609,887.445814453125C701.207983959961,882.6818144531251,699.963983959961,876.6818144531251,690.8499839599609,850.137814453125C687.828083959961,841.341814453125,682.919983959961,850.3358144531251,675.3540839599609,859.839814453125C671.0600839599609,865.233814453125,663.4300839599609,870.487814453125,658.7860839599609,865.433814453125C654.9560839599609,861.263814453125,658.304083959961,856.867814453125,661.7200839599609,852.309814453125C679.716083959961,828.309814453125,681.722083959961,832.753814453125,645.2200839599609,834.4278144531249C638.5160939599609,834.7358144531249,630.2420499599609,834.531814453125,630.368087769961,827.611814453125C630.496078959961,820.553814453125,638.530073959961,820.861814453125,654.0840839599609,819.3838144531251C656.1280839599609,819.189814453125,658.260083959961,819.661814453125,660.2620839599609,819.311814453125C664.688083959961,818.535814453125,669.356083959961,819.435814453125,673.588083959961,817.387814453125C672.6080839599609,811.9418144531251,667.130083959961,810.657814453125,664.006083959961,807.1878144531249C658.9980839599609,801.625814453125,652.550083959961,800.367814453125,651.636083959961,792.463814453125C651.280083959961,789.385814453125,653.6280839599609,786.601814453125,656.6620839599609,786.819814453125C671.472083959961,787.889814453125,681.540083959961,808.577814453125,683.1620839599609,794.723814453125C685.2580839599609,776.819814453125,685.0840839599609,772.599814453125,687.4600839599609,765.381814453125C689.7040839599609,758.569814453125,698.622083959961,759.631814453125,699.520083959961,766.685814453125C701.0080839599609,778.3838144531251,696.2060839599609,800.591814453125,699.0120839599609,801.963814453125C701.9400839599609,803.3938144531251,715.812083959961,779.457814453125,723.3460839599609,776.703814453125C728.789983959961,774.713814453125,732.8296839599609,778.683814453125,731.567683959961,783.601814453125C729.651983959961,791.079814453125,726.5819839599609,793.407814453125,714.630083959961,809.285814453125C713.702083959961,810.519814453125,712.2200839599609,811.925814453125,713.487983959961,813.567814453125C714.621983959961,815.035814453125,716.516083959961,814.555814453125,718.0940839599609,814.2838144531249C726.0760839599609,812.905814453125,744.019683959961,809.539814453125,744.8816839599609,809.503814453125C753.0176839599609,809.173814453125,755.9076839599609,821.497814453125,747.125683959961,823.397814453125C716.598083959961,829.999814453125,707.524083959961,828.749814453125,717.8060839599609,835.453814453125L717.683983959961,835.6778144531249ZM912.095683959961,769.175814453125C921.969683959961,763.561814453125,934.411683959961,755.307814453125,938.101683959961,763.157814453125C940.673683959961,768.627814453125,935.6196839599609,771.119814453125,929.731683959961,774.343814453125C926.3576839599609,776.189814453125,916.2756839599609,780.391814453125,916.4876839599609,782.173814453125C916.779683959961,784.611814453125,918.2716839599609,783.467814453125,938.1196839599609,788.667814453125C943.9276839599609,790.189814453125,950.5496839599609,792.161814453125,948.449683959961,797.779814453125C945.5836839599609,805.445814453125,943.2136839599609,802.701814453125,910.4076839599609,795.073814453125C902.6956839599609,793.279814453125,906.9676839599609,800.8838144531251,910.409683959961,810.637814453125C912.363683959961,816.173814453125,912.7056839599609,824.051814453125,906.961683959961,825.117814453125C902.211683959961,825.999814453125,900.5516839599609,821.571814453125,898.815683959961,817.071814453125C889.623683959961,793.247814453125,893.7416839599609,793.803814453125,878.4596839599609,820.901814453125C875.6516839599609,825.877814453125,871.769683959961,831.755814453125,866.8336839599609,828.539814453125C858.3096839599609,822.987814453125,878.0516839599609,801.2358144531249,878.9776839599609,792.733814453125C874.605683959961,790.981814453125,871.2056839599609,794.353814453125,867.2896839599609,795.041814453125C861.0136839599609,796.1438144531251,857.2056839599609,800.233814453125,851.075683959961,797.317814453125C844.6896839599609,794.281814453125,850.923683959961,787.589814453125,857.5976839599609,784.903814453125C874.797683959961,777.979814453125,873.345683959961,781.257814453125,852.909683959961,764.449814453125C848.8196839599609,761.083814453125,844.0796839599609,756.5378144531251,847.4116839599609,752.477814453125C851.0016839599609,748.103814453125,856.2476839599609,751.8838144531251,861.287683959961,755.483814453125C883.6516839599609,771.459814453125,882.9496839599609,774.991814453125,872.9836839599609,745.6918144531251C868.581683959961,732.753814453125,880.139683959961,727.795814453125,886.1476839599609,744.627814453125C895.0736839599609,769.631814453125,893.5116839599609,767.619814453125,903.507683959961,742.587814453125C904.447683959961,740.233814453125,906.365683959961,731.943814453125,913.7236839599609,735.333814453125C916.433683959961,736.583814453125,917.6896839599609,739.1778144531249,916.529683959961,742.387814453125C907.5136839599609,767.373814453125,902.485683959961,773.377814453125,911.985683959961,768.9898144531251C912.0236839599609,769.049814453125,912.0596839599609,769.113814453125,912.095683959961,769.175814453125ZM782.355683959961,644.396014453125C792.6936839599609,643.684014453125,801.519683959961,642.672014453125,808.1896839599609,644.732014453125C814.807683959961,646.776014453125,814.363683959961,656.274014453125,808.1696839599609,657.688014453125C798.043683959961,660.004014453125,781.255683959961,657.854014453125,780.389683959961,660.3920144531251C779.5356839599609,662.894014453125,782.841683959961,664.199914453125,784.6376839599609,665.723914453125C794.6216839599609,674.203914453125,801.4056839599609,678.5519144531249,806.937683959961,685.285914453125C811.1376839599609,690.397814453125,803.673683959961,697.995814453125,798.5076839599609,695.419814453125C793.529683959961,692.937814453125,789.3136839599609,688.561814453125,767.3876839599609,670.949914453125C760.1376839599609,665.126014453125,760.787683959961,675.351914453125,759.4656839599609,687.425914453125C758.7156839599609,694.279814453125,755.0696839599609,702.795814453125,748.4436839599609,701.001814453125C742.9636839599609,699.515814453125,743.4636839599609,693.983814453125,743.9156839599609,688.337914453125C746.3156839599609,658.439914453125,750.3876839599609,661.123914453125,720.415983959961,682.030014453125C714.909983959961,685.870014453125,707.8079839599609,690.113814453125,704.2199839599609,684.198014453125C700.4619839599609,678.002014453125,708.0579839599609,673.714014453125,719.8798839599609,664.578014453125C721.5058839599609,663.322014453125,723.559883959961,662.582014453125,725.065883959961,661.218014453125C728.3938839599609,658.198014453125,732.8196839599609,656.468014453125,735.3056839599609,652.476014453125C731.5696839599609,648.394014453125,726.253883959961,650.234014453125,721.757883959961,648.968014453125C714.553983959961,646.9400144531251,708.429883959961,649.318014453125,703.435883959961,643.124014453125C701.4918839599609,640.712014453125,701.9898839599609,637.104014453125,704.671883959961,635.670014453125C717.753883959961,628.672014453125,737.3236839599609,640.788014453125,731.2996839599609,628.202014453125C722.0298839599609,608.850014453125,714.483883959961,597.464054453125,722.3858839599609,593.790034453125C728.411883959961,590.986024453125,732.0416839599609,597.662044453125,735.5456839599609,604.036014453125C751.123683959961,632.402014453125,748.523683959961,635.890014453125,752.9116839599609,599.624014453125C754.7816839599609,584.168034453125,769.6416839599609,583.910034453125,767.3876839599609,605.200014453125C764.105683959961,636.246014453125,763.5076839599609,633.260014453125,786.8056839599609,611.878014453125C788.3196839599609,610.488014453125,789.701683959961,608.902014453125,791.3776839599609,607.746014453125C798.0736839599609,603.123914453125,807.1116839599609,611.993914453125,800.691683959961,618.295914453125C778.495683959961,640.092014453125,769.9876839599609,643.949914453125,782.3376839599609,644.145914453125L782.355683959961,644.396014453125Z"></path></g></g></g></svg>