<?xml version="1.0" standalone="no"?><!DOCTYPE svg PUBLIC "-//W3C//DTD SVG 1.1//EN" "http://www.w3.org/Graphics/SVG/1.1/DTD/svg11.dtd"><svg height="1024" node-id="1" sillyvg="true" template-height="1024" template-width="1024" version="1.1" viewBox="0 0 1024 1024" width="1024" xmlns="http://www.w3.org/2000/svg" xmlns:xlink="http://www.w3.org/1999/xlink"><defs node-id="59"><clipPath id="master_svg0_36_225" node-id="3"><path d="M 0.00 0.00 L 1024.00 0.00 L 1024.00 1024.00 L 0.00 1024.00 Z" fill="#000000" fill-rule="nonzero" node-id="62" stroke="none" target-height="1024" target-width="1024" target-x="0" target-y="0"></path></clipPath></defs><g node-id="197"><g clip-path="url(#master_svg0_36_225)" group-id="1" id="sillyvg_g_1" node-id="68"><path d="M 865.75 722.88 C 877.85 717.71 879.55 719.85 888.94 717.31 C 915.82 710.04 959.55 696.25 985.30 679.63 C 1005.18 666.79 1020.07 649.72 1016.46 626.24 C 1014.91 616.19 886.41 226.92 886.29 226.61 C 873.03 191.99 861.54 111.36 781.62 93.30 C 718.18 78.96 633.60 107.16 601.25 165.80 C 570.72 221.15 600.50 296.55 614.01 353.96 C 620.65 382.18 688.68 670.61 694.99 700.23 C 700.70 727.05 715.99 743.65 752.61 744.64 C 785.25 745.51 809.00 737.56 821.23 735.35 C 829.11 733.93 857.35 726.48 865.75 722.88 Z" fill="#ff8ede" fill-rule="nonzero" group-id="1,2" node-id="72" stroke="none" target-height="666.5576" target-width="449.3476" target-x="570.724" target-y="78.95602"></path><path d="M 873.37 724.79 C 846.58 732.33 842.90 731.99 843.39 737.58 C 846.86 777.64 861.15 878.48 883.17 912.06 C 908.08 950.05 960.39 932.62 962.50 892.60 C 964.46 855.42 930.28 773.23 915.03 740.35 C 904.11 716.83 905.35 715.96 898.58 717.76 C 890.15 719.99 881.77 722.45 873.37 724.81 L 873.37 724.79 Z" fill="#ffcf00" fill-rule="nonzero" group-id="1,3" node-id="77" stroke="none" target-height="234.08234" target-width="121.55957" target-x="842.9041" target-y="715.964"></path><path d="M 849.07 746.43 C 846.53 746.02 845.34 746.72 844.95 748.46 C 843.13 756.59 851.03 752.61 868.02 760.53 C 909.29 779.76 943.30 847.27 924.23 927.42 C 923.83 929.09 922.89 930.98 925.24 931.85 C 949.57 940.91 950.15 762.59 849.07 746.43 Z" fill="#fd8a02" fill-rule="nonzero" group-id="1,4" node-id="82" stroke="none" target-height="194.88257" target-width="107.024414" target-x="843.12604" target-y="746.02386"></path><path d="M 852.02 784.57 C 877.75 801.50 898.56 839.19 893.19 876.66 C 890.76 893.60 885.13 900.14 882.67 905.15 C 879.97 910.63 885.18 915.50 886.86 912.99 C 924.26 857.13 883.70 789.88 851.93 775.61 C 849.84 774.67 848.33 775.59 848.48 777.72 C 848.82 782.66 849.38 782.83 852.02 784.57 Z M 921.64 761.63 C 895.02 751.38 880.95 728.80 877.86 725.59 C 875.09 722.73 868.52 725.17 871.11 729.16 C 890.83 759.56 924.24 773.51 926.88 770.37 C 927.88 769.18 926.43 763.48 921.64 761.63 Z" fill="#fd8a02" fill-rule="nonzero" group-id="1,5" node-id="87" stroke="none" target-height="192.77026" target-width="79.548096" target-x="848.3281" target-y="722.72595"></path><path d="M 717.60 736.35 C 739.08 749.01 767.65 744.67 791.11 741.74 C 815.06 738.74 839.17 729.94 862.57 723.56 C 905.93 711.72 1026.31 687.63 1016.55 626.76 C 1015.52 620.35 1014.29 614.15 1011.47 608.14 C 1010.89 606.87 996.51 560.86 994.56 556.35 C 1000.13 569.27 814.62 622.01 801.07 625.35 C 762.93 634.75 722.65 633.76 683.94 640.72 C 682.02 641.07 681.93 643.14 682.27 645.05 C 687.50 674.23 690.77 720.55 717.60 736.35 Z" fill="#91d728" fill-rule="nonzero" group-id="1,6" node-id="92" stroke="none" target-height="192.65802" target-width="344.38397" target-x="681.92584" target-y="556.35205"></path><path d="M 738.46 627.60 C 761.87 624.35 788.85 618.99 817.55 611.69 C 799.88 549.95 714.08 255.90 701.81 217.61 C 698.77 208.07 693.84 198.05 684.84 193.68 C 672.94 187.89 655.30 190.17 647.90 203.82 C 639.34 219.58 647.80 243.90 652.44 262.00 C 652.54 262.33 723.29 563.82 738.46 627.60 Z M 861.34 599.43 C 889.59 590.77 915.36 581.38 937.16 572.00 C 917.08 510.32 819.87 215.23 819.78 214.90 C 814.29 197.04 808.83 171.87 793.31 162.89 C 779.88 155.10 763.64 162.36 756.51 173.51 C 751.10 181.93 752.12 193.05 754.48 202.79 C 763.99 241.88 844.22 537.69 861.34 599.43 Z" fill="#fc09b2" fill-rule="nonzero" group-id="1,7" node-id="97" stroke="none" target-height="472.4984" target-width="297.8202" target-x="639.3376" target-y="155.10399"></path><path d="M 919.21 454.61 C 921.77 461.55 926.70 474.54 936.81 469.35 C 946.52 464.36 939.20 447.30 937.09 439.83 C 925.28 397.86 875.11 253.86 857.52 212.57 C 851.05 197.40 842.64 202.61 844.73 212.78 C 855.73 266.39 901.58 407.02 919.21 454.61 Z" fill="#ffffff" fill-opacity="0.5" fill-rule="nonzero" group-id="1,8" node-id="102" stroke="none" target-height="277.14035" target-width="103.884155" target-x="842.6398" target-y="197.40402"></path><path d="M 871.27 885.68 C 878.11 906.36 887.46 925.20 907.98 931.45 C 927.87 937.51 953.47 926.11 960.24 905.07 C 962.64 897.63 962.24 896.92 954.61 895.23 C 934.52 890.78 923.09 874.52 915.48 855.47 C 909.04 839.33 904.50 808.16 879.32 782.75 C 869.05 772.40 856.13 765.27 851.04 763.64 C 848.06 762.69 846.64 763.70 846.90 766.70 C 848.80 789.18 860.11 851.99 871.27 885.68 Z" fill="#fd8a02" fill-opacity="0.5" fill-rule="nonzero" group-id="1,9" node-id="107" stroke="none" target-height="174.82166" target-width="115.994385" target-x="846.6439" target-y="762.6858"></path><path d="M 693.31 685.02 C 790.58 682.82 920.33 643.46 991.78 605.59 C 1013.50 594.10 1010.53 601.19 995.16 556.91 C 993.73 552.77 991.08 548.40 989.95 544.41 L 989.72 544.28 C 926.63 588.62 751.41 636.23 679.98 630.97 L 679.95 630.98 C 677.58 634.28 691.47 685.06 693.31 685.02 Z" fill="#ffffff" fill-rule="nonzero" group-id="1,10" node-id="112" stroke="none" target-height="140.784" target-width="335.91772" target-x="677.5797" target-y="544.2799"></path><path d="M 865.75 722.89 C 871.17 720.57 877.01 718.89 883.09 718.53 C 888.98 718.18 941.51 702.52 969.76 688.58 C 983.32 681.89 997.03 672.80 1006.60 661.00 C 1008.93 658.12 1008.83 657.10 1005.98 654.84 C 914.77 582.53 804.32 687.42 757.44 563.72 C 664.83 319.37 678.59 228.69 599.97 185.10 C 594.34 181.98 593.43 182.32 591.76 188.47 C 579.19 234.54 597.81 277.01 607.97 327.89 C 608.03 328.20 691.55 684.34 694.31 695.03 C 694.41 695.43 695.66 715.29 708.62 728.80 C 719.36 739.98 737.47 744.23 752.60 744.64 C 785.37 745.52 809.41 737.49 821.22 735.36 C 829.09 733.93 857.38 726.47 865.75 722.89 Z" fill="#000e3f" fill-opacity="0.25" fill-rule="nonzero" group-id="1,11" node-id="117" stroke="none" target-height="563.5465" target-width="429.74567" target-x="579.18774" target-y="181.97592"></path><path d="M 1003.96 562.02 L 1003.96 562.02 C 1000.62 551.96 997.30 541.90 993.99 531.84 L 991.42 524.02 C 987.84 513.13 984.26 502.24 980.69 491.35 C 883.34 194.63 890.24 216.89 887.29 207.28 C 874.49 165.73 850.66 88.39 758.38 83.42 C 683.27 79.42 592.09 123.55 582.11 202.64 C 578.22 233.38 583.31 254.51 589.77 281.31 C 590.59 284.72 591.43 288.22 592.28 291.87 C 608.40 360.52 624.49 429.17 640.53 497.84 C 648.70 532.85 655.54 562.25 661.30 587.00 C 691.39 716.42 691.96 718.89 700.03 729.27 C 725.74 762.34 781.77 750.76 818.86 743.11 L 819.16 743.05 C 821.43 742.58 823.63 742.12 825.72 741.70 L 827.39 741.37 C 832.17 740.39 835.32 739.76 836.30 740.45 C 836.65 740.71 836.87 741.30 837.00 742.32 C 853.65 878.25 865.30 925.60 901.51 938.13 C 906.67 939.92 912.20 940.83 917.93 940.83 C 932.07 940.83 946.00 935.34 956.16 925.78 C 984.61 899.02 966.18 850.19 949.92 807.08 C 947.35 800.29 944.70 793.27 942.31 786.50 C 936.33 769.62 928.66 753.10 921.21 737.05 L 921.07 736.73 C 919.12 732.54 917.18 728.35 915.26 724.15 C 915.10 723.79 914.91 723.41 914.67 722.94 C 913.96 721.54 912.98 719.61 913.38 718.57 C 913.52 718.19 913.87 717.90 914.44 717.67 C 920.65 715.20 927.38 712.82 934.52 710.30 C 969.78 697.82 1013.66 682.29 1022.76 642.73 C 1026.00 628.61 1023.92 622.31 1003.96 562.02 Z M 903.83 724.62 C 926.00 772.04 941.78 811.74 950.72 842.63 L 951.87 846.61 C 957.59 866.18 964.71 890.52 956.32 908.13 C 952.49 916.17 944.17 923.16 933.49 927.32 C 918.91 932.99 901.83 930.16 890.95 920.28 C 871.25 902.36 861.40 840.07 857.19 813.47 L 857.13 813.10 C 854.18 794.47 851.74 775.55 849.69 759.27 C 849.58 758.50 849.43 757.44 849.24 756.20 L 849.21 755.98 C 847.41 743.92 847.08 737.38 848.24 736.57 C 851.72 734.11 881.11 726.58 892.23 723.73 C 895.80 722.81 898.17 722.21 898.72 722.03 C 899.66 721.73 900.37 721.55 900.95 721.55 C 902.18 721.55 902.78 722.39 903.83 724.62 Z M 700.88 707.44 C 692.70 672.97 594.41 261.00 591.73 235.38 C 579.20 115.16 746.16 63.42 817.96 112.06 C 848.31 132.63 863.02 168.49 874.43 201.90 C 877.52 210.93 880.39 220.04 883.23 229.16 C 883.43 229.80 1009.22 612.33 1012.02 622.20 C 1020.31 654.75 991.72 681.07 924.61 702.67 C 914.11 706.04 825.85 731.30 802.81 735.92 C 742.92 747.90 708.61 738.33 700.88 707.44 Z" fill="#000e3f" fill-rule="nonzero" group-id="1,12" node-id="122" stroke="none" target-height="877.4078" target-width="447.7799" target-x="578.22363" target-y="63.417953"></path><path d="M 544.38 677.84 C 549.60 683.94 560.37 691.51 569.78 716.51 C 570.63 718.75 571.51 721.01 572.69 723.08 C 574.34 725.97 577.84 726.15 579.78 723.38 C 584.17 717.12 584.42 707.16 599.06 689.96 C 607.65 679.86 616.01 676.68 608.83 670.58 C 590.91 655.35 584.75 632.52 581.48 626.48 C 580.08 623.87 576.73 623.67 574.90 625.96 C 572.94 628.43 571.92 631.41 570.74 634.29 C 562.02 655.64 549.98 665.39 545.07 670.14 C 543.83 671.33 542.58 675.74 544.38 677.84 Z M 433.81 769.88 C 439.82 776.91 452.22 785.60 463.07 814.43 C 464.04 817.01 465.06 819.61 466.42 822.00 C 468.32 825.32 472.35 825.53 474.59 822.34 C 479.65 815.12 479.93 803.66 496.79 783.84 C 506.68 772.22 516.32 768.56 508.04 761.52 C 487.40 743.98 480.31 717.69 476.55 710.73 C 474.92 707.73 471.07 707.49 468.96 710.14 C 466.70 712.97 465.54 716.41 464.18 719.73 C 454.11 744.36 440.20 755.62 434.60 761.02 C 433.18 762.39 431.74 767.46 433.81 769.88 Z M 408.10 595.05 C 409.36 596.51 410.63 597.98 412.03 599.30 C 431.73 617.95 436.37 639.55 440.72 647.16 C 442.61 650.48 446.65 650.69 448.88 647.50 C 450.44 645.28 451.62 642.70 452.56 640.14 C 467.22 600.07 494.71 597.21 482.33 586.68 C 461.69 569.15 454.60 542.85 450.84 535.90 C 449.22 532.89 445.37 532.66 443.26 535.30 C 441.00 538.14 439.83 541.57 438.47 544.90 C 428.40 569.53 414.49 580.78 408.90 586.18 C 407.48 587.55 406.03 592.62 408.10 595.05 Z M 8.83 599.64 C 12.93 608.97 14.51 607.58 107.26 658.04 C 112.10 660.67 114.38 662.53 114.79 664.70 C 115.26 667.20 113.23 670.11 109.80 675.03 C 92.53 699.85 30.04 779.89 67.73 810.29 C 81.07 821.04 93.71 821.47 105.40 815.64 C 138.64 799.02 163.80 731.61 173.07 706.66 C 175.28 700.73 176.59 696.29 181.65 698.58 C 184.10 699.68 248.86 734.68 273.31 748.49 C 285.17 755.21 295.85 753.58 306.09 746.47 C 320.24 736.68 326.00 722.39 325.23 705.46 C 324.68 693.29 317.22 690.33 309.71 686.25 L 54.46 547.48 C 45.72 542.73 39.59 538.53 28.65 545.22 C 7.63 558.03 0.51 580.75 8.83 599.64 Z" fill="#fd8a02" fill-rule="nonzero" group-id="1,13" node-id="127" stroke="none" target-height="292.86835" target-width="615.5082" target-x="0.50605375" target-y="532.6579"></path><path d="M 49.17 544.61 C 35.83 536.54 21.34 548.09 12.67 560.18 C 10.67 562.98 10.83 565.30 13.23 568.12 C 19.01 574.93 26.05 580.03 34.51 582.98 C 48.94 587.99 56.87 585.35 69.14 585.27 C 83.66 585.17 87.75 596.68 92.88 607.54 C 110.92 645.72 122.42 641.17 149.10 638.18 C 197.99 632.70 170.05 697.21 232.25 687.14 C 249.24 684.39 261.34 681.66 270.07 694.93 C 276.26 704.33 283.93 727.49 314.50 731.88 C 318.43 732.44 320.26 731.17 321.70 727.31 C 327.47 711.78 327.95 695.98 313.36 688.13 C 273.00 666.42 49.44 544.77 49.17 544.61 Z" fill="#ffcf00" fill-rule="nonzero" group-id="1,14" node-id="132" stroke="none" target-height="195.8977" target-width="317.28616" target-x="10.666084" target-y="536.54395"></path><path d="M 66.00 550.46 L 99.14 568.48 C 116.92 578.18 138.91 590.14 161.87 602.62 L 204.20 625.64 C 225.18 637.05 246.17 648.44 267.15 659.83 L 301.28 678.38 C 312.51 684.48 308.73 686.97 328.25 643.49 C 328.60 642.71 451.43 375.72 453.36 369.36 C 458.66 352.29 448.72 335.99 434.68 328.39 C 416.58 318.62 402.28 313.02 397.16 290.71 C 394.11 277.35 400.75 261.19 407.81 251.00 C 418.09 236.17 415.83 214.47 400.99 205.78 C 377.68 192.17 347.28 174.85 321.84 167.25 C 317.31 165.90 312.72 165.44 308.34 166.04 C 300.81 167.03 293.98 171.05 289.54 178.64 C 281.40 192.60 216.66 293.33 82.04 504.72 C 54.27 548.35 53.30 543.56 66.00 550.46 Z" fill="#00b0c4" fill-rule="nonzero" group-id="1,15" node-id="137" stroke="none" target-height="521.52423" target-width="405.3539" target-x="53.303932" target-y="165.44191"></path><path d="M 375.88 192.06 C 368.82 188.22 347.66 175.13 321.70 167.20 C 317.04 165.76 312.11 165.43 307.29 166.24 C 291.37 168.87 291.29 177.90 271.57 207.90 C 263.97 219.46 256.45 231.05 249.24 242.85 C 228.59 276.66 220.95 281.08 232.69 280.21 C 243.43 279.42 255.37 285.96 256.52 297.80 C 258.12 314.22 245.11 333.10 260.27 349.54 C 264.57 354.20 269.93 355.98 276.15 354.52 C 283.05 352.89 289.59 350.45 295.36 346.08 C 307.93 336.56 318.36 330.77 333.50 334.49 C 336.95 335.34 344.43 343.39 346.26 352.21 C 350.76 373.87 343.21 376.09 351.20 396.05 C 354.32 403.85 363.31 407.64 372.60 405.74 C 388.40 402.51 394.47 390.38 406.88 381.96 C 416.40 375.51 425.93 379.45 432.16 385.15 C 437.66 390.19 439.02 399.30 442.28 393.60 C 444.70 389.38 451.10 375.93 452.98 370.51 C 459.33 352.26 448.44 335.38 433.86 327.91 C 415.18 318.35 402.40 312.03 397.03 290.53 C 395.09 282.79 397.88 264.61 406.73 252.67 C 418.04 237.41 416.60 214.49 400.21 205.34 C 392.14 200.83 383.99 196.49 375.87 192.08 C 375.87 192.07 375.87 192.06 375.88 192.06 Z" fill="#91d728" fill-rule="nonzero" group-id="1,16" node-id="142" stroke="none" target-height="242.21463" target-width="238.37636" target-x="220.9518" target-y="165.42743"></path><path d="M 347.17 567.98 C 401.64 450.09 430.59 399.45 417.15 396.40 C 410.55 394.90 401.98 413.47 399.59 417.55 C 377.46 455.22 355.95 500.13 321.70 569.35 C 317.57 577.70 302.74 599.70 315.88 607.12 C 329.94 615.05 341.50 580.26 347.17 567.98 Z" fill="#ffffff" fill-opacity="0.75" fill-rule="nonzero" group-id="1,17" node-id="147" stroke="none" target-height="220.15585" target-width="127.85187" target-x="302.73782" target-y="394.89597"></path><path d="M 99.14 568.48 C 116.92 578.18 138.91 590.14 161.87 602.62 C 165.57 595.94 187.94 554.75 234.10 469.84 C 234.18 469.89 305.84 338.71 306.86 336.14 C 319.67 303.98 278.47 279.64 256.27 315.95 C 151.58 486.99 110.19 547.83 99.14 568.48 Z M 275.77 493.36 L 276.04 493.51 C 228.45 581.03 211.74 612.04 206.54 621.72 C 206.71 621.35 206.28 622.02 204.38 625.32 L 204.20 625.64 C 225.18 637.05 246.16 648.45 267.15 659.83 C 280.44 631.39 383.25 411.78 393.83 389.90 C 400.67 375.65 399.26 358.26 385.74 349.94 C 371.37 341.09 354.45 349.03 347.82 360.91 C 345.53 364.99 350.16 356.53 275.77 493.36 Z" fill="#000e3f" fill-opacity="0.35" fill-rule="nonzero" group-id="1,18,27" node-id="154" stroke="none" target-height="380.1841" target-width="301.536" target-x="99.13588" target-y="279.64395"></path><path d="M 67.73 810.29 C 81.07 821.04 93.71 821.47 105.40 815.64 C 98.58 809.92 85.32 798.39 94.55 759.05 C 98.94 740.35 116.70 710.36 117.67 681.70 C 117.80 676.17 117.91 670.62 115.42 665.45 C 115.29 665.15 115.07 664.88 114.79 664.70 C 115.26 667.20 113.23 670.12 109.80 675.03 C 92.53 699.85 30.04 779.89 67.73 810.29 Z M 66.00 550.46 C 104.52 571.44 265.48 658.95 301.28 678.38 C 307.54 681.78 309.15 684.04 312.68 677.93 C 325.89 562.75 102.23 587.06 226.82 395.91 C 315.96 259.14 314.03 190.54 308.34 166.04 C 300.81 167.04 293.98 171.05 289.54 178.64 C 281.40 192.60 216.66 293.34 82.04 504.72 C 54.27 548.35 53.30 543.56 66.00 550.46 Z" fill="#000e3f" fill-opacity="0.25" fill-rule="nonzero" group-id="1,19" node-id="160" stroke="none" target-height="655.42993" target-width="295.8519" target-x="30.035898" target-y="166.04398"></path><path d="M 452.74 336.26 C 447.02 328.31 438.82 323.90 430.89 319.63 C 424.96 316.44 418.84 313.14 413.84 308.40 C 403.79 298.86 400.02 284.81 404.25 272.61 C 405.98 267.60 408.49 262.83 410.92 258.22 C 415.35 249.81 419.94 241.11 419.94 230.68 C 419.94 217.59 413.79 205.87 403.89 200.12 C 374.83 183.24 348.71 168.66 323.15 161.24 C 311.42 157.83 300.59 159.88 290.99 167.33 C 286.91 170.48 208.53 293.63 135.37 408.82 C 122.66 428.83 112.54 444.77 106.91 453.58 L 98.06 467.43 C 88.25 482.76 78.48 498.10 68.74 513.47 C 66.26 517.42 63.78 521.38 61.31 525.34 C 52.87 538.87 52.86 538.87 50.98 538.14 C 50.71 538.04 50.44 537.94 50.17 537.85 C 40.06 534.61 30.67 536.32 21.48 543.08 C 7.04 553.72 -0.19 567.92 0.01 585.31 C 0.17 600.03 6.53 610.79 18.91 617.29 L 18.91 617.29 C 23.99 619.96 104.06 663.48 105.45 664.33 C 106.80 665.15 107.55 665.72 107.67 666.35 C 107.88 667.40 106.48 669.23 103.71 672.89 C 97.06 681.66 83.23 699.90 60.79 745.50 C 56.44 754.34 51.83 764.95 50.56 776.69 C 48.25 798.17 60.61 822.05 85.28 824.83 C 86.96 825.02 88.65 825.11 90.35 825.12 C 119.06 825.12 135.18 796.48 148.27 773.21 C 149.11 771.72 149.94 770.25 150.75 768.82 C 164.80 744.11 171.15 727.54 174.94 717.63 C 177.55 710.81 178.98 707.06 180.79 706.31 C 181.37 706.06 182.06 706.12 182.92 706.51 C 186.25 708.07 251.75 743.72 269.46 753.54 C 282.74 760.91 295.48 760.23 308.45 751.48 C 323.87 741.07 331.45 726.07 330.99 706.90 C 330.78 698.16 327.20 690.74 320.34 684.84 C 317.71 682.58 317.71 682.58 319.18 679.36 C 321.91 673.38 332.52 650.07 346.57 619.20 C 382.99 539.22 443.93 405.35 448.05 396.48 C 449.22 393.95 450.39 391.52 451.52 389.17 C 460.66 370.19 467.28 356.48 452.74 336.26 Z M 96.56 699.49 C 102.46 690.54 107.35 683.88 110.91 679.02 C 116.94 670.80 119.69 667.05 118.99 663.92 C 118.41 661.34 115.59 659.56 109.75 656.38 C 98.73 650.39 87.70 644.41 76.68 638.42 C 63.61 631.33 50.55 624.24 37.49 617.14 C 35.87 616.26 34.24 615.41 32.63 614.57 C 21.26 608.64 10.52 603.04 8.76 588.44 C 6.87 572.91 15.39 556.89 30.46 547.62 C 33.67 545.64 36.39 544.88 38.87 544.88 C 42.71 544.88 45.95 546.72 49.49 548.72 C 50.19 549.12 50.90 549.53 51.63 549.92 C 102.29 577.49 152.95 605.04 203.62 632.57 C 286.58 677.68 289.82 679.44 312.71 691.74 C 318.99 695.12 322.12 699.87 322.28 706.27 C 322.77 726.27 311.93 743.25 295.31 748.52 C 285.45 751.66 277.40 747.37 268.88 742.83 L 267.13 741.91 C 239.91 727.56 221.21 717.07 207.57 709.41 C 186.66 697.68 179.62 693.72 175.83 695.17 C 173.79 695.95 172.90 698.19 171.76 701.51 C 157.90 741.96 142.35 765.81 136.50 774.78 C 135.52 776.28 134.88 777.27 134.56 777.85 C 130.32 785.64 125.00 793.21 118.31 800.97 C 105.27 816.07 91.77 819.93 77.04 812.77 C 66.45 807.62 60.38 798.88 59.51 787.49 C 58.36 772.68 68.44 751.83 74.45 739.37 C 75.65 736.89 76.68 734.75 77.50 732.95 C 83.16 720.38 90.31 708.98 96.56 699.49 Z M 434.95 402.79 C 415.88 445.47 397.73 485.12 382.45 517.44 C 382.38 517.59 381.85 518.79 381.02 520.67 C 378.43 526.56 373.04 538.81 369.44 546.69 C 367.25 551.43 365.04 556.15 362.80 560.87 C 360.61 565.51 358.34 570.31 356.17 575.06 C 353.46 580.96 310.74 674.96 310.23 676.55 C 310.07 677.08 309.75 677.45 309.30 677.65 C 308.76 677.89 308.03 677.84 307.32 677.51 C 305.25 676.55 303.24 675.49 300.86 674.20 L 231.28 636.39 C 65.31 546.21 65.31 546.21 62.86 544.58 L 62.53 544.36 C 61.91 543.95 61.66 543.69 61.59 543.36 C 61.29 541.88 63.99 537.76 71.21 526.74 C 74.14 522.26 77.86 516.59 82.51 509.38 L 293.15 179.27 C 297.72 171.74 305.14 168.74 312.38 168.74 C 315.47 168.74 318.52 169.29 321.32 170.26 C 338.23 176.19 352.65 182.35 365.40 189.08 C 401.45 208.11 407.25 212.39 409.66 221.78 C 413.09 235.13 409.12 242.06 404.11 250.84 C 401.10 256.10 397.69 262.06 395.17 270.46 C 389.31 289.99 397.97 311.29 415.76 321.11 C 417.18 321.89 418.61 322.66 420.04 323.43 C 429.18 328.37 438.64 333.47 445.22 341.68 C 457.35 356.82 451.61 368.53 441.17 389.77 C 439.45 393.26 437.75 396.77 436.07 400.30 C 436.02 400.39 435.64 401.26 434.95 402.79 Z" fill="#000e3f" fill-rule="nonzero" group-id="1,20" node-id="165" stroke="none" target-height="667.2816" target-width="467.4641" target-x="-0.1880915" target-y="157.83397"></path><path d="M 492.71 240.81 C 476.25 240.45 459.77 244.02 445.46 252.31 C 439.24 255.92 433.51 260.32 428.32 265.29 C 427.11 266.47 426.05 267.80 425.18 269.25 C 424.21 270.84 425.50 272.91 427.39 272.82 C 434.03 272.53 454.10 268.25 479.55 273.22 C 485.75 274.43 497.72 278.87 509.05 271.35 C 523.97 261.44 517.08 241.33 492.71 240.81 Z" fill="#91d728" fill-rule="nonzero" group-id="1,21" node-id="170" stroke="none" target-height="38.417953" target-width="99.75601" target-x="424.21365" target-y="240.4539"></path><path d="M 494.51 261.54 C 498.66 262.70 503.85 263.32 505.61 259.47 C 509.12 251.80 498.42 248.83 493.00 247.89 C 474.74 244.73 450.76 252.14 457.41 259.78 C 460.68 263.54 475.51 256.24 494.51 261.54 Z" fill="#ffffff" fill-opacity="0.75" fill-rule="nonzero" group-id="1,22" node-id="175" stroke="none" target-height="18.807999" target-width="58.363953" target-x="450.7581" target-y="244.73198"></path><path d="M 514.15 274.55 C 490.37 291.60 478.03 268.58 425.69 279.08 C 424.05 279.41 422.29 279.71 420.66 279.49 C 417.11 279.02 415.25 275.76 416.65 272.45 C 426.08 250.06 464.52 235.12 487.70 234.99 C 524.41 234.79 526.04 266.03 514.15 274.55 Z M 488.07 243.13 C 467.56 242.42 449.26 252.31 433.21 263.75 C 431.98 264.63 430.64 265.68 430.47 267.18 C 429.81 272.99 449.26 265.78 481.59 271.05 C 491.26 272.62 501.77 274.91 509.71 267.57 C 520.41 257.68 512.06 242.27 488.07 243.13 Z" fill="#000e3f" fill-rule="nonzero" group-id="1,23" node-id="180" stroke="none" target-height="56.80995" target-width="110.78757" target-x="415.24973" target-y="234.79393"></path><path d="M 464.08 302.73 C 463.12 302.64 462.14 302.68 461.17 302.74 C 455.88 303.03 455.16 304.28 457.53 308.94 C 466.94 327.38 477.85 354.51 499.81 346.60 C 514.48 341.32 514.59 322.09 501.66 314.99 C 499.53 313.82 485.52 304.65 464.08 302.73 Z" fill="#91d728" fill-rule="nonzero" group-id="1,24" node-id="185" stroke="none" target-height="51.86798" target-width="59.430084" target-x="455.15768" target-y="302.64197"></path><path d="M 475.24 318.00 C 478.79 321.09 482.41 324.06 485.61 327.51 C 488.69 330.85 492.22 338.18 497.82 336.36 C 505.83 333.76 501.13 319.90 487.48 315.22 C 479.47 312.47 471.19 314.48 475.24 318.00 Z" fill="#ffffff" fill-opacity="0.75" fill-rule="nonzero" group-id="1,25" node-id="190" stroke="none" target-height="25.70398" target-width="34.63803" target-x="471.18802" target-y="312.472"></path><path d="M 511.41 316.03 C 520.59 327.19 516.91 344.95 503.84 350.52 C 469.92 364.95 458.37 315.58 449.24 306.59 C 437.81 295.34 470.86 297.66 474.96 298.28 C 488.59 300.33 502.72 305.46 511.41 316.03 Z M 462.16 305.40 C 459.38 305.37 458.92 306.05 460.07 308.27 C 469.90 327.31 472.41 334.27 481.66 341.62 C 487.97 346.62 498.60 346.40 503.89 341.35 C 509.65 335.84 510.30 326.95 504.92 321.08 C 495.48 310.79 476.19 305.54 462.16 305.40 Z" fill="#000e3f" fill-rule="nonzero" group-id="1,26" node-id="195" stroke="none" target-height="69.61197" target-width="82.77609" target-x="437.81198" target-y="295.338"></path></g></g></svg>