<?xml version="1.0" standalone="no"?><!DOCTYPE svg PUBLIC "-//W3C//DTD SVG 1.1//EN" "http://www.w3.org/Graphics/SVG/1.1/DTD/svg11.dtd"><svg t="1778898416152" class="icon" viewBox="0 0 1024 1024" version="1.1" xmlns="http://www.w3.org/2000/svg" p-id="9581" xmlns:xlink="http://www.w3.org/1999/xlink" width="200" height="200"><path d="M407.793274 950.945441c-6.678358 24.624607-20.241015 65.842138-7.119659 68.372265s25.77199-22.32984 30.390942-21.182457 9.179065 21.623759 18.18161 22.32984 18.858271-20.035074 23.918524-19.328992 16.122204 20.270435 24.859968 19.358412 14.062798-43.070997 3.91287-63.341431-94.144255-6.207637-94.144255-6.207637z" fill="#F4D8BC" p-id="9582"></path><path d="M497.406837 1023.966079c-6.590098 0-12.768315-6.884299-18.240449-13.003676a47.83705 47.83705 0 0 0-6.178217-6.266477 43.100417 43.100417 0 0 0-5.884016 6.354738c-5.207354 6.266477-11.09137 13.386136-17.975669 12.856574s-11.768032-9.061385-15.121921-15.857422a55.25091 55.25091 0 0 0-3.383309-6.060537 62.017528 62.017528 0 0 0-5.060253 5.354455c-6.472418 7.29618-15.298441 17.299007-25.418949 15.357281a8.826024 8.826024 0 0 1-5.884016-4.207071c-5.589815-9.090805 0-31.008764 7.737481-58.693059 0.970863-3.442149 1.912305-6.707778 2.736067-9.767467a3.500989 3.500989 0 0 1 2.765488-2.500706c8.826024-1.471004 86.848075-13.827437 97.792344 8.090522 9.090805 18.152189 6.590098 50.955578 0.176521 62.723609a9.237905 9.237905 0 0 1-7.060819 5.472135z m-24.418666-26.301552h0.764922c3.324469 0.470721 6.384157 3.912871 10.650069 8.649504s9.943987 11.20905 13.386136 10.708909a10.767749 10.767749 0 0 0 2.765488-5.001414c4.324752-11.768032 5.884016-38.540304-1.588685-53.338604-6.384157-12.797735-56.604233-9.767466-88.260239-4.707213-0.676662 2.441867-1.412164 5.001414-2.177086 7.678641-5.148514 18.29929-12.944835 45.954164-8.502403 53.162084a1.971145 1.971145 0 0 0 1.441584 1.088543c6.237057 1.206223 13.562657-7.090239 18.917111-13.150776 4.736633-5.383875 7.855161-8.826024 11.768032-8.002261s5.383875 4.736633 8.119942 10.120507c2.412447 4.707213 6.089956 11.768032 9.502686 12.121073s8.620083-6.148797 12.150493-10.385288c4.030551-5.148514 7.20792-8.943704 11.06195-8.943705z" fill="#231815" p-id="9583"></path><path d="M616.175699 950.945441c6.678358 24.624607 20.270435 65.842138 7.149079 68.372265s-25.80141-22.32984-30.390942-21.182457-9.208485 21.623759-18.18161 22.32984-18.887691-20.035074-23.947944-19.328992-16.122204 20.270435-24.859968 19.358412-14.033378-43.070997-3.91287-63.341431 94.144255-6.207637 94.144255-6.207637z" fill="#F4D8BC" p-id="9584"></path><path d="M526.562136 1023.966079h-0.970863a9.179065 9.179065 0 0 1-6.796038-5.560395c-6.442997-11.768032-8.826024-44.571421 0.1471-62.72361 10.94427-21.917959 88.966321-9.561526 97.821765-8.090522a3.500989 3.500989 0 0 1 2.765488 2.500707c0.794342 2.942008 1.735785 6.354737 2.706647 9.767466 7.825741 27.713715 13.356716 49.602254 7.737481 58.693059a8.826024 8.826024 0 0 1-5.884016 4.207071c-10.149927 2.000565-18.946531-8.061102-25.389529-15.357281a66.901261 66.901261 0 0 0-5.060253-5.354455 50.661377 50.661377 0 0 0-3.41273 6.060537c-3.500989 6.796038-7.825741 15.298441-15.0925 15.857423-6.796038 0.588402-12.768315-6.590098-18.005089-12.856575a40.65855 40.65855 0 0 0-5.884016-6.384157 50.367176 50.367176 0 0 0-6.207637 6.295897c-5.707495 6.060536-11.885712 12.944835-18.47581 12.944835z m35.745397-74.315122c-18.44639 0-33.833092 2.353606-37.186981 9.061385-7.41386 14.71004-5.884016 41.482312-1.588684 53.338604 1.588684 4.354172 2.942008 5.030834 2.942008 5.030834 3.353889 0.411881 9.296745-6.325317 13.239036-10.738329s7.35502-8.178782 10.650068-8.649503c4.148231-0.558982 7.41386 3.442149 12.003393 8.826023 3.53041 4.236491 8.826024 10.532389 12.150493 10.385289s7.060819-7.41386 9.473266-12.121073c2.765487-5.383875 4.736633-9.267325 8.119941-10.120508s6.913719 2.618387 11.768032 8.002262c5.354454 6.060536 12.650634 14.327579 18.887692 13.150776a2.059406 2.059406 0 0 0 1.471003-1.088543c4.442432-7.20792-3.353889-34.862794-8.531823-53.162084l-2.147665-7.678641a345.097534 345.097534 0 0 0-51.249779-4.236492z" fill="#231815" p-id="9585"></path><path d="M318.267972 764.039675c-22.565201 7.149079-31.302965 10.120507-29.008199 17.269587s22.977082 5.295614 22.977083 5.295614-27.801975 18.181609-22.271001 29.920221 23.712584-3.67751 23.712585-3.67751-7.619801 24.624607 5.884015 26.478072 16.122204-16.828286 16.122204-16.828286 2.530127 19.358412 13.121356 18.41697 20.594056-41.188112 17.475527-61.223186-48.01357-15.651482-48.01357-15.651482z" fill="#F4D8BC" p-id="9586"></path><path d="M348.129353 844.356492c-6.119377 0-10.208768-4.795473-12.709475-10.385288a15.739743 15.739743 0 0 1-16.239884 8.826024 11.591511 11.591511 0 0 1-8.472982-5.295614c-2.942008-4.648373-2.942008-11.414991-2.206506-16.828286-4.265912 2.383026-9.649786 4.530692-14.298159 3.50099a10.414708 10.414708 0 0 1-7.35502-6.119377c-4.501272-9.561526 6.119377-20.770576 14.71004-27.831395-6.678358-0.529561-13.856858-2.383026-15.592642-7.796321a8.826024 8.826024 0 0 1 0.411881-7.001979c2.942008-5.560395 11.503251-8.502403 30.832243-14.71004l0.706082-0.147101c4.913153-0.470721 48.219511-4.030551 51.83818 18.534651 2.794908 17.328427-3.883451 48.778492-12.738894 60.134642a11.532671 11.532671 0 0 1-7.825741 5.119094z m-12.356434-25.360108a3.442149 3.442149 0 0 1 3.41273 2.942008c0.558982 4.177651 3.471569 15.945683 9.414425 15.416121 0.558982 0 1.647524-0.706082 2.942008-2.441866 7.825741-10.032247 13.886278-39.216966 11.356151-54.780189-2.177086-13.650917-32.156147-13.886278-44.13012-12.797734-13.327296 4.207071-24.771707 7.855161-26.478071 11.06195 0 0.235361-0.323621 0.647242 0 1.735784 0.735502 2.324186 10.179348 3.73635 19.387832 2.942008a3.442149 3.442149 0 0 1 2.177086 6.325317c-10.502968 6.884299-23.947945 19.358412-21.035357 25.56605a3.58925 3.58925 0 0 0 2.588967 2.324186c4.236491 0.912022 11.915132-3.912871 15.769163-7.178499a3.471569 3.471569 0 0 1 5.884016 3.73635c-1.647524 5.383875-3.236209 15.504382-0.441301 19.887974a4.707213 4.707213 0 0 0 3.589249 2.147665c10.032247 1.382744 12.209333-13.680337 12.209333-13.827437a3.471569 3.471569 0 0 1 3.353889-3.000848z" fill="#231815" p-id="9587"></path><path d="M705.701001 764.039675c22.565201 7.149079 31.302965 10.120507 29.008199 17.269587s-22.947662 5.295614-22.947663 5.295614 27.801975 18.181609 22.271001 29.920221-23.712584-3.67751-23.712584-3.67751 7.590381 24.624607-5.884016 26.478072-16.092784-16.828286-16.092784-16.828286-2.530127 19.358412-13.121355 18.41697-20.594056-41.188112-17.504948-61.223186 47.98415-15.651482 47.98415-15.651482z" fill="#F4D8BC" p-id="9588"></path><path d="M675.986721 844.356492h-1.029703a11.503251 11.503251 0 0 1-7.884582-5.089673c-8.826024-11.356151-15.504382-42.835636-12.738894-60.134643 3.64809-22.565201 46.925027-19.005371 51.8676-18.534651l0.706082 0.147101c19.299572 6.119377 27.949076 9.031964 30.832244 14.71004a8.826024 8.826024 0 0 1 0.411881 7.001979c-1.735785 5.413295-8.826024 7.26676-15.622062 7.796321 8.620083 7.060819 19.270152 18.269869 14.710039 27.831395a10.473548 10.473548 0 0 1-7.38444 6.119377c-4.648373 1.029703-10.032247-1.117963-14.268738-3.50099 0.706082 5.413295 0.735502 12.179913-2.235926 16.828286a11.591511 11.591511 0 0 1-8.472983 5.295614 15.651482 15.651482 0 0 1-16.210464-8.826024c-2.618387 5.619235-6.796038 10.355868-12.680054 10.355868z m19.770293-77.374809c-13.768597 0-32.862229 2.412447-34.598014 13.209616-2.500707 15.563222 3.55983 44.747941 11.356151 54.780188 1.353324 1.735785 2.471287 2.412447 2.942008 2.441866 6.060536 0.411881 8.826024-12.032813 9.385006-15.416121a3.471569 3.471569 0 0 1 3.412729-2.942008 3.442149 3.442149 0 0 1 3.412729 2.942008c0 0.588402 2.235926 15.180761 12.238753 13.827437a4.648373 4.648373 0 0 0 3.55983-2.147666c2.794908-4.383592 1.235643-14.504099-0.411881-19.887973a3.412729 3.412729 0 0 1 1.382743-3.883451 3.500989 3.500989 0 0 1 4.148232 0.235361c3.85403 3.265629 11.503251 8.090522 15.769162 7.178499a3.64809 3.64809 0 0 0 2.588967-2.324186c2.942008-6.148797-10.856009-18.887691-21.064777-25.566049a3.442149 3.442149 0 0 1 2.206506-6.325318c9.208485 0.823762 18.62291-0.617822 19.387833-2.942008a2.059406 2.059406 0 0 0 0-1.735784c-1.647524-3.206789-13.091935-6.854879-26.478072-11.06195-2.530127-0.1471-5.736916-0.323621-9.385005-0.323621z" fill="#231815" p-id="9589"></path><path d="M669.573143 660.392734c26.684012 8.826024 28.096176 41.923614 28.096176 41.923614s21.535498 9.179065 14.445259 36.363218a39.305226 39.305226 0 0 1 10.385289 30.832244l-16.122204-5.884016s1.853465 13.798017-2.441867 16.887125-11.532671-8.149362-14.71004-5.530975 0 16.269304-6.590097 19.181892-10.444128-8.443563-15.063081-5.884016 3.383309 13.798017-1.971146 15.180762c-2.942008 0.764922-9.885147-7.090239-11.473831-9.355586s-8.178782-12.738894-8.178782-12.738894c9.120225 17.799148 23.006502 77.345389 17.034226 88.84864l-11.856292-5.266194s9.767466 81.964342-2.471286 77.816111a85.318231 85.318231 0 0 1-17.210747-7.35502s3.67751 30.361522-2.177086 32.568028-10.708909-11.414991-13.945118-10.238188-8.826024 20.829416-11.768032 21.035357-15.651482-15.975103-19.211312-14.71004-13.680337 19.564353-16.798865 19.564353-14.71004-18.887691-18.770011-17.946248-10.91485 16.798865-16.092783 16.798865-10.032247-15.445542-18.29929-15.210181h-3.353889c-8.267042-0.235361-13.121356 15.210181-18.29929 15.210181s-11.973972-15.886843-16.092783-16.798865-15.651482 17.946249-18.770011 17.946248-13.239036-18.41697-16.798866-19.564353-16.239884 15.063081-19.240732 14.71004-8.502403-19.887974-11.768031-21.035357-8.031682 12.415274-13.915698 10.238188-2.177086-32.568028-2.177086-32.568028a85.318231 85.318231 0 0 1-17.210747 7.35502c-12.238753 4.148231-2.471287-77.816111-2.471286-77.816111l-11.973973 5.530975c-5.884016-11.503251 7.914001-71.049492 17.034226-88.848641a126.506343 126.506343 0 0 1-7.737481 15.063081c-2.647807 3.58925-8.826024 7.796321-11.768031 7.031399-5.354454-1.382744 2.618387-12.591794-1.971146-15.180761s-8.620083 8.826024-15.063081 5.884016-3.53041-16.563505-6.590097-19.181892-10.267608 8.590663-14.71004 5.530975-2.441867-16.887126-2.441867-16.887126l-16.122204 5.884016a39.305226 39.305226 0 0 1 10.385289-30.832243c-7.090239-27.184154 14.445259-36.363218 14.445259-36.363219s1.412164-33.15643 28.096176-41.923613z" fill="#FAED00" p-id="9590"></path><path d="M567.573727 986.808518c-2.942008 0-5.148514-2.588967-10.385288-9.031964a64.429974 64.429974 0 0 0-7.972842-8.826024 60.899565 60.899565 0 0 0-4.413012 5.884016c-3.82461 5.530975-7.4727 10.738329-12.091652 10.738329-4.030551 0-6.796038-3.73635-9.738047-7.678641-2.471287-3.353889-5.560395-7.50212-8.384722-7.50212h-3.55983c-2.942008 0-6.060536 4.118811-8.561243 7.50212-2.942008 3.942291-5.707495 7.678641-9.738047 7.678641-4.648373 0-8.267042-5.207354-12.091652-10.738329a47.072127 47.072127 0 0 0-4.471852-5.884016 63.694472 63.694472 0 0 0-7.914002 8.826024c-5.236774 6.442997-7.4727 9.031964-10.385288 9.031964s-5.884016-3.442149-11.356151-11.23847a84.75925 84.75925 0 0 0-6.178216-8.090522 67.666183 67.666183 0 0 0-7.825742 6.972559c-5.560395 5.442715-8.119942 7.825741-10.944269 7.6198-3.442149-0.264781-5.177934-4.001131-8.826024-12.474114-0.970863-2.235926-2.383026-5.589815-3.44215-7.59038-0.500141 0.588402-1.029703 1.294484-1.441583 1.824045-2.942008 3.73635-7.178499 9.385005-12.944835 7.237339-5.030834-1.882885-6.707778-11.915132-5.089674-29.83196-2.942008 1.294484-6.796038 2.942008-11.973973 4.648372a5.884016 5.884016 0 0 1-5.619235-0.970862c-8.296462-6.737198-4.766053-50.367176-2.118246-74.403382l-6.384157 2.942008a3.442149 3.442149 0 0 1-4.501272-1.559264c-4.854313-9.326165 1.029703-42.247234 8.119942-67.136622a12.003393 12.003393 0 0 1-8.531823 2.147666c-5.884016-1.559264-4.530692-8.002262-3.73635-11.473831a24.153885 24.153885 0 0 0 0.647241-3.67751 27.537195 27.537195 0 0 0-2.118245 1.794625c-2.736067 2.500707-6.884299 6.266477-12.385854 3.79519s-6.325317-9.708626-6.825458-14.88656c0-1.147383-0.235361-2.647807-0.441302-3.765771-0.676662 0.470721-1.500424 1.117963-2.118245 1.588685-3.177369 2.471287-8.002262 6.178217-12.385854 2.942008-3.82461-2.736067-4.442432-9.473266-4.295331-14.71004l-11.09137 4.001131a3.412729 3.412729 0 0 1-2.942008-0.294201 3.471569 3.471569 0 0 1-1.618105-2.500707 42.247234 42.247234 0 0 1 10.032247-32.362087c-5.236774-23.359543 9.473266-34.362653 14.915981-37.569442 0.794342-7.678641 5.325034-34.803954 30.332102-43.012157a3.206789 3.206789 0 0 1 1.059123-0.17652h313.735729a3.324469 3.324469 0 0 1 1.059123 0.17652c25.007068 8.208202 29.42008 35.304096 30.332102 43.012157 5.442715 3.206789 20.152755 14.209898 14.915981 37.569442a42.247234 42.247234 0 0 1 10.032247 32.362087 3.471569 3.471569 0 0 1-1.618105 2.500707 3.412729 3.412729 0 0 1-2.942008 0.294201l-11.09137-4.001131c0.1471 5.148514-0.470721 11.915132-4.295331 14.71004-4.383592 3.118528-9.208485-0.588402-12.385854-2.942008-0.617822-0.470721-1.441584-1.117963-2.118245-1.588685-0.205941 1.117963-0.353041 2.618387-0.441302 3.765771-0.500141 5.177934-1.147383 12.327013-6.825458 14.88656s-9.649786-1.294484-12.415274-3.79519a22.653461 22.653461 0 0 0-2.088825-1.794625 24.153885 24.153885 0 0 0 0.647241 3.67751c0.794342 3.471569 2.265346 9.914567-3.73635 11.473831-2.942008 0.735502-6.207637-1.412164-9.061384-3.942291 7.3256 25.065908 13.621497 59.369721 8.649503 68.931247a3.442149 3.442149 0 0 1-4.501272 1.559264l-6.413577-2.942008c2.647807 24.036205 6.178217 67.666183-2.088826 74.403382a5.884016 5.884016 0 0 1-5.619235 0.970862c-5.207354-1.765205-9.149645-3.353889-12.003393-4.648372 1.647524 17.916829 0 27.949076-5.060254 29.83196-5.884016 2.147666-10.091087-3.500989-12.944835-7.237339-0.411881-0.529561-0.941443-1.235643-1.441584-1.824045-1.059123 2.000565-2.500707 5.354454-3.442149 7.56096-3.58925 8.502403-5.325034 12.238753-8.826024 12.503534-2.942008 0.264781-5.354454-2.177086-10.914849-7.6198a70.22573 70.22573 0 0 0-7.825741-6.972559 84.75925 84.75925 0 0 0-6.178217 8.090522c-5.530975 7.796321-8.119942 11.23847-11.356151 11.23847zM440.626083 960.271606a5.325034 5.325034 0 0 1 1.500424 0.235361c2.559547 0.823762 4.913153 3.85403 10.032248 11.06195 1.735785 2.471287 4.207071 5.884016 5.884015 7.678641 1.353324-1.382744 3.471569-3.971711 4.971994-5.884016 6.442997-7.884581 10.297028-12.327013 14.474679-11.385571 3.177369 0.706082 5.707495 4.354172 8.826024 8.826024a33.774251 33.774251 0 0 0 6.442997 7.737481 25.83083 25.83083 0 0 0 4.148232-4.736633c3.412729-4.589532 7.649221-10.297028 13.945117-10.297028h3.55983c6.325317-0.205941 10.650069 5.619235 14.121638 10.297028a25.83083 25.83083 0 0 0 4.177652 4.854313 33.774251 33.774251 0 0 0 6.442997-7.737481c3.206789-4.589532 5.884016-8.237622 8.826024-8.826024 4.177651-0.941443 8.031682 3.500989 14.474679 11.385571 1.500424 1.853465 3.61867 4.442432 4.971994 5.884016 1.559264-1.706365 4.030551-5.207354 5.884016-7.678641 5.119094-7.20792 7.4727-10.238188 10.032247-11.06195 3.76577-1.176803 7.53154 2.265346 14.445259 9.031965 1.559264 1.500424 3.67751 3.58925 5.148514 4.824893 1.029703-1.882885 2.383026-5.119094 3.383309-7.472701 3.295049-7.766901 5.001414-11.532671 7.884581-12.562374 3.73635-1.323904 6.325317 2.059406 8.826024 5.325035 0.941443 1.206223 3.64809 4.736633 4.795473 4.942573 1.676945-2.736067 1.794625-15.916263 0.205941-28.919938a3.53041 3.53041 0 0 1 1.588684-3.353889 3.442149 3.442149 0 0 1 3.70693 0 85.318231 85.318231 0 0 0 15.828003 6.796038c3.883451-5.884016 2.353606-42.276654-1.412164-73.93266a3.412729 3.412729 0 0 1 4.854313-3.53041l8.325883 3.824611c2.029985-15.357282-9.208485-65.459677-17.916829-82.376223a3.471569 3.471569 0 0 1 1.382744-4.589533 3.412729 3.412729 0 0 1 4.618953 1.176804s6.560678 10.385288 8.090521 12.591794a39.334647 39.334647 0 0 0 7.001979 7.178499 23.742004 23.742004 0 0 0-0.500141-2.441867c-0.823762-3.61867-2.059406-9.061385 2.412447-11.591511s8.002262 0.853182 10.414708 2.942008 3.79519 3.118528 4.913153 2.618387c2.029985-0.912022 2.471287-5.736916 2.794908-9.237905 0.382461-4.001131 0.676662-7.4727 2.942008-9.443845 3.55983-2.942008 7.649221 0 10.650068 2.441866a19.211312 19.211312 0 0 0 4.295332 2.794908c1.206223-1.353324 1.647524-7.796321 0.882603-13.503817a3.442149 3.442149 0 0 1 4.618952-3.67751l11.768032 4.236492a37.01046 37.01046 0 0 0-9.649786-23.536064 3.383309 3.383309 0 0 1-0.912023-3.324469c6.237057-23.830265-11.768032-31.979627-12.474113-32.362088a3.471569 3.471569 0 0 1-2.059406-2.942008c0-0.323621-1.676945-30.449782-25.242428-38.599144H356.425815c-23.536064 8.149362-25.183588 38.246104-25.213008 38.599144a3.500989 3.500989 0 0 1-2.088826 2.942008c-0.764922 0.323621-18.681751 8.472983-12.444693 32.362088a3.412729 3.412729 0 0 1-0.941443 3.353889 36.83394 36.83394 0 0 0-9.620366 23.536064l11.768032-4.236492a3.53041 3.53041 0 0 1 3.353889 0.529562 3.412729 3.412729 0 0 1 1.235643 3.147948c-0.735502 5.707495-0.294201 12.179913 0.912023 13.503817a19.887974 19.887974 0 0 0 4.295331-2.794908c2.942008-2.294766 7.090239-5.472135 10.650069-2.441866 2.294766 1.971145 2.618387 5.442715 2.942008 9.443845 0.323621 3.500989 0.764922 8.325883 2.942008 9.237905 1.147383 0.529561 2.265346-0.235361 4.883733-2.618387s6.089956-5.530975 10.414709-2.942008 3.265629 7.972842 2.441866 11.591512c-0.205941 0.882602-0.500141 2.235926-0.617821 3.118528a18.799431 18.799431 0 0 0 7.6198-5.619235 83.052885 83.052885 0 0 0 5.472135-10.267608c0.676662-1.618104 1.323904-2.942008 1.941725-4.295332a3.471569 3.471569 0 0 1 4.560113-1.559264 3.412729 3.412729 0 0 1 1.676944 4.501272c-0.205941 0.470721-1.029703 2.324186-2.118246 4.618953-8.296462 20.005654-17.652048 63.841573-15.857422 78.022051l8.325882-3.82461a3.442149 3.442149 0 0 1 3.471569 0.323621 3.471569 3.471569 0 0 1 1.382744 3.206788c-3.76577 31.656006-5.295614 68.166325-1.412164 73.93266a85.318231 85.318231 0 0 0 15.828003-6.796038 3.442149 3.442149 0 0 1 3.70693 0 3.55983 3.55983 0 0 1 1.588685 3.353889c-1.588684 12.974255-1.471004 26.183871 0.17652 28.919938 1.176803-0.205941 3.883451-3.73635 4.824893-4.942573 2.500707-3.265629 5.089674-6.648938 8.826024-5.325034 2.942008 1.029703 4.589532 4.795473 7.884581 12.562374 1.000283 2.353606 2.353606 5.589815 3.38331 7.4727 1.471004-1.235643 3.58925-3.324469 5.148513-4.854313 5.884016-6.060536 9.532106-9.443846 12.856575-9.443846z" fill="#231815" p-id="9591"></path><path d="M399.143771 3.442355c-37.128141 27.331254-65.989239 136.59743-59.25204 167.694454-9.796887 0.941443-7.35502 23.536064-0.588402 34.392073-14.121638-6.766618-0.617822 22.712302 8.590663 29.155299-19.358412-2.471287-24.859967 5.530975 0.912023 32.362088s129.448351 2.471287 137.185831-24.242146 16.269304-59.840442 0-53.721065c9.208485-15.945683 6.148797-46.336625-5.530975-34.656854C480.784492 102.970485 460.514057 38.24631 399.143771 3.442355z" fill="#FAED00" p-id="9592"></path><path d="M389.229204 281.873989c-17.652048 0-33.950772-3.412729-42.894476-12.680054-15.239601-15.769163-20.799996-26.213291-17.475527-32.832809 1.706365-3.353889 5.236774-5.207354 10.767749-5.589815-6.237057-8.384723-12.209333-21.358978-8.826024-26.978213a5.442715 5.442715 0 0 1 2.794907-2.412447c-3.58925-9.090805-5.001414-21.300138-1.618104-28.125596a10.149927 10.149927 0 0 1 4.148231-4.560112C331.330487 133.537948 358.955942 28.714204 397.084365 0.676868a3.500989 3.500989 0 0 1 3.765771-0.235361C473.194111 41.335418 482.961578 117.680525 483.84418 148.218567a7.031399 7.031399 0 0 1 5.707496 1.353324c6.354737 4.883733 6.972559 22.21216 2.088825 35.304096a7.943422 7.943422 0 0 1 3.44215 1.853465c6.972559 6.413577 3.177369 25.68373-5.884016 56.751333-4.295332 14.91598-31.420645 26.478072-55.39801 32.568028a192.0837 192.0837 0 0 1-44.571421 5.825176z m-47.307488-44.130119c-4.295332 0-6.384157 0.882602-6.884299 1.882885-0.264781 0.529561-2.147666 5.884016 16.239884 24.918807 13.444976 13.886278 51.396879 12.297593 80.99348 4.942574 27.331254-6.825458 47.601689-17.975669 50.396596-27.743135 3.206789-11.15021 12.944835-44.983302 7.737481-49.778775-0.647242-0.617822-2.441867 0-3.177369 0.23536a3.412729 3.412729 0 0 1-3.85403-1.000282 3.471569 3.471569 0 0 1-0.382461-3.942291c5.089674-8.826024 6.148797-22.977082 3.67751-29.743701a4.677793 4.677793 0 0 0-1.412164-2.383026s-0.764922 0-2.353606 1.618104a3.442149 3.442149 0 0 1-5.884016-2.471286C477.165822 130.331159 471.958468 50.014341 399.437972 7.590586c-35.039315 28.566897-62.341149 134.390924-56.162932 162.693041a3.500989 3.500989 0 0 1-0.588402 2.794908 3.412729 3.412729 0 0 1-2.471287 1.382743c-0.647242 0-1.441584 0.323621-2.177085 1.853465-2.765487 5.619235-0.617822 19.623193 4.177651 27.242994a3.471569 3.471569 0 0 1-4.413012 4.971994 6.737198 6.737198 0 0 0-1.235643-0.500142c0 4.589532 7.26676 19.476093 13.297876 23.712584a3.442149 3.442149 0 0 1-2.412447 6.237057 45.954164 45.954164 0 0 0-5.530975-0.382461z" fill="#231815" p-id="9593"></path><path d="M373.371781 262.486157c-10.444128-76.727568-6.472418-198.585538 29.42008-207.764603s71.196593 152.984414 66.901261 185.670123c-61.664487 20.270435-96.321341 22.09448-96.321341 22.09448z" fill="#F4D8BC" p-id="9594"></path><path d="M373.342361 265.928306a3.442149 3.442149 0 0 1-3.412729-2.942008c-9.326165-68.519366-9.473266-200.939144 32.038467-211.589213 5.884016-1.471004 11.591511 0.353041 17.357847 5.472135C451.217312 85.083076 476.930462 211.82478 473.164691 240.832978a3.471569 3.471569 0 0 1-2.353606 2.942008c-61.429126 20.152755-95.821199 22.18274-97.262783 22.24158z m32.362088-208.147064a8.826024 8.826024 0 0 0-2.118246 0.264781C371.900777 66.195385 366.369802 181.110216 376.343209 258.896907c9.708626-0.970863 41.335212-5.119094 90.172544-20.976517 2.147666-31.097024-22.653461-150.042406-51.77934-175.784976a13.945118 13.945118 0 0 0-8.943704-4.354172z" fill="#231815" p-id="9595"></path><path d="M389.226219 206.736191a44.953882 26.713432 83.51 1 0 53.084484-6.038828 44.953882 26.713432 83.51 1 0-53.084484 6.038828Z" fill="#FAED00" p-id="9596"></path><path d="M419.002325 251.983188c-7.590381 0-15.033661-4.354172-21.153038-12.444693a66.3717 66.3717 0 0 1-12.032812-32.362088c-2.942008-26.978213 7.678641-49.602254 24.477506-51.51456s32.362088 17.652048 35.304096 44.689101-7.56096 49.719935-24.359826 51.48514a19.446673 19.446673 0 0 1-2.235926 0.1471zM412.500487 162.399046h-1.412164c-12.532954 1.441584-20.976517 21.506078-18.41697 43.865338A59.899282 59.899282 0 0 0 403.350842 235.360843c5.207354 6.854879 11.267891 10.297028 17.093067 9.620366 12.532954-1.412164 20.976517-21.506078 18.41697-43.865338-2.441867-21.506078-14.327579-38.716825-26.360392-38.716825z" fill="#231815" p-id="9597"></path><path d="M624.854622 3.442355c37.128141 27.331254 65.989239 136.59743 59.222621 167.694454 9.826307 0.941443 7.35502 23.536064 0.617821 34.392073 14.121638-6.766618 0.617822 22.712302-8.590663 29.155299 19.328992-2.471287 24.859967 5.530975-0.912023 32.362088s-129.448351 2.471287-137.215251-24.242146-16.269304-59.840442 0-53.721065C528.886322 172.872594 531.82833 142.481652 543.596362 154.161423c-0.382461-51.190939 19.858554-115.915114 81.25826-150.719068z" fill="#FAED00" p-id="9598"></path><path d="M634.798609 281.873989a192.348481 192.348481 0 0 1-44.718521-5.884016c-23.977365-5.884016-51.102678-17.652048-55.36859-32.568028-8.826024-31.067604-12.768315-50.337756-5.884016-56.751334a8.090522 8.090522 0 0 1 3.47157-1.853465c-4.883733-13.091935-4.265912-30.420362 2.088825-35.304095a6.943139 6.943139 0 0 1 5.678076-1.353324C541.007395 117.680525 550.774862 41.335418 623.030577 0.441507a3.442149 3.442149 0 0 1 3.73635 0.235361c38.246104 28.037336 65.753878 132.86108 61.105506 168.018075a10.326448 10.326448 0 0 1 4.148231 4.560112c3.353889 6.825458 1.941725 19.034792-1.618104 28.125596a5.472135 5.472135 0 0 1 2.765487 2.412447c3.295049 5.619235-2.706647 18.59349-8.826024 26.978213 5.530975 0.382461 9.090805 2.235926 10.767749 5.589815 3.324469 6.619518-2.235926 17.063646-17.446107 32.832809-8.943704 9.267325-25.213008 12.680054-42.865056 12.680054z m-100.322472-90.319644a1.294484 1.294484 0 0 0-0.912022 0.26478c-5.177934 4.795473 4.530692 38.628565 7.737481 49.778775 2.942008 9.767466 23.065342 20.917677 50.426016 27.743135 29.42008 7.35502 67.666183 8.826024 80.96406-4.942573 18.38755-19.064212 16.534085-24.389246 16.239884-24.918808-0.647242-1.353324-4.324752-2.530127-12.385854-1.500424a3.442149 3.442149 0 0 1-2.412446-6.237057c5.884016-4.236491 13.268456-19.123052 13.268456-23.712584a6.619518 6.619518 0 0 0-1.206224 0.500142 3.442149 3.442149 0 0 1-4.413012-4.971994c4.795473-7.619801 6.913719-21.623759 4.148232-27.242994-0.735502-1.529844-1.500424-1.794625-2.177086-1.853465a3.471569 3.471569 0 0 1-2.471287-1.382743 3.61867 3.61867 0 0 1-0.588402-2.794908c6.178217-28.302117-21.123617-134.126143-56.133512-162.693041C552.039925 50.014341 546.832571 130.331159 546.979671 154.132003a3.471569 3.471569 0 0 1-5.884016 2.471287c-1.559264-1.559264-2.324186-1.588684-2.353606-1.588684s-0.764922 0.588402-1.412164 2.353606c-2.441867 6.766618-1.412164 20.947097 3.67751 29.743701a3.442149 3.442149 0 0 1-4.207071 4.942573 7.825741 7.825741 0 0 0-2.324187-0.500141z" fill="#231815" p-id="9599"></path><path d="M650.626612 262.486157c10.444128-76.727568 6.442997-198.585538-29.42008-207.764603s-71.196593 152.984414-66.901261 185.670123c61.635067 20.270435 96.321341 22.09448 96.321341 22.09448z" fill="#F4D8BC" p-id="9600"></path><path d="M650.626612 265.92830601h-0.176521c-1.441584 0-35.863077-2.08882601-97.262783-22.24158002a3.471569 3.471569 0 0 1-2.35360601-2.942008c-3.79518999-28.94935799 21.947379-155.74990199 53.83874601-183.99317799 5.884016-5.11909399 11.591511-6.943139 17.357847-5.472135 41.511732 10.650069 41.335212 143.069847 32.009046 211.58921301a3.442149 3.442149 0 0 1-3.412729 3.059688z m-93.143972-28.12559602c48.896172 15.886843 80.46391801 20.00565401 90.143124 20.97651701 9.973407-77.63958999 4.471852-192.583841-27.33125401-200.733204-3.442149-0.88260199-7.060819 0.411881-11.06194999 3.97171101-29.096459 25.77198999-53.86816601 144.687952-51.74992 175.784976z" fill="#231815" p-id="9601"></path><path d="M603.155652 248.438058a26.713432 44.953882 6.49 1 0 10.162257-89.331599 26.713432 44.953882 6.49 1 0-10.162257 89.331599Z" fill="#FAED00" p-id="9602"></path><path d="M604.996068 251.983188a18.62291 18.62291 0 0 1-2.235926-0.1471c-8.355303-0.941443-15.474962-7.060819-20.035074-17.240167a66.57764 66.57764 0 0 1-4.471852-34.274393c2.942008-26.978213 18.652331-46.601406 35.304096-44.689101 8.355303 0.941443 15.474962 7.060819 20.035074 17.240167a66.871841 66.871841 0 0 1 4.471852 34.274393 66.960101 66.960101 0 0 1-12.032813 32.362087c-5.942856 8.119942-13.474396 12.444694-21.035357 12.474114z m6.501838-89.584142c-12.062233 0-23.947945 17.210747-26.478072 38.716825a59.958122 59.958122 0 0 0 3.912871 30.655723c3.53041 7.855161 8.678924 12.532954 14.504099 13.209615s11.768032-2.736067 17.122487-9.620366a59.899282 59.899282 0 0 0 10.679488-29.008198 59.958122 59.958122 0 0 0-3.91287-30.655723c-3.53041-7.855161-8.826024-12.532954-14.504099-13.209616zM581.842466 200.733409z" fill="#231815" p-id="9603"></path><path d="M786.017819 415.470571s9.208485-42.364915-26.68401301-64.01809299c-5.530975-34.509753-39.12870601-47.072127-39.12870599-47.072128-27.625455-35.892497-49.39631399-46.54256601-70.872972-44.13011901 0 0-26.742852-29.42008-56.192352-17.94624899 0 0-44.42432-38.069583-82.641003-6.76661801-38.246104-31.302965-79.640156 5.884016-79.640156 5.884016-29.42008-11.503251-56.221772 17.946249-56.221772 17.946248-21.47665801-2.35360601-43.218097 8.29646199-70.843552 44.13012 0 0-33.627151 12.41527399-39.128706 47.072127C228.80150999 372.31131401 237.95115399 414.823329 237.95115399 414.823329S212.62046601 441.301401 228.80150999 473.663489c0 0-32.362088 91.996589 64.40055401 150.042406 0 0 32.626868 51.10267799 124.505777 55.72163101 0 0 28.566897 29.42008 87.760098 26.47807099a177.520761 177.520761 0 0 0 100.793193-25.83083c91.878909-4.589532 124.535197-55.692211 124.535197-55.69221 96.67438199-58.016397 64.42997401-150.04240599 64.429974-150.04240701 16.092784-32.185567-9.208485-58.869579-9.208484-58.86957899z" fill="#FAED00" p-id="9604"></path><path d="M513.676141 709.641948c-2.706647 0-5.442715 0-8.208202-0.205941-54.544828 2.500707-83.523606-21.388398-89.231102-26.654592-86.848075-4.795473-121.034208-50.014135-125.47664-56.545393-90.613845-54.839028-69.254868-140.33378-65.724457-152.366593-13.739177-29.243559 4.324752-54.221207 9.237905-60.222903-1.265063-8.384723-4.648373-44.806781 27.242993-65.077216 5.884016-32.067887 34.392073-45.336343 40.128989-47.719369C327.093996 267.987712 349.423836 254.072014 373.312941 255.954899c5.648655-5.678075 29.62602-27.478354 56.869014-18.269869 8.149362-6.472418 45.277503-32.832809 80.316818-6.472418 35.304096-26.478072 74.874103 0.853182 83.258825 7.26676 27.242994-9.237905 51.249779 12.591794 56.927854 18.269869 24.036205-1.882885 46.189525 12.062233 71.667314 44.924462 5.707495 2.383026 34.156712 15.651482 40.099569 47.689949 31.891366 20.270435 28.508057 56.721914 27.242994 65.106636 4.913153 5.884016 23.006502 30.979344 9.237905 60.222903 3.55983 12.032813 24.889387 97.527564-65.695038 152.366593-4.471852 6.501838-38.716825 51.8676-125.829681 56.545393a179.992047 179.992047 0 0 1-93.732374 26.036771zM505.350259 702.522288h0.17652a176.196857 176.196857 0 0 0 98.674947-25.213008 3.295049 3.295049 0 0 1 1.794625-0.617822c88.7898-4.442432 121.446089-53.632805 121.76971-54.103526a3.383309 3.383309 0 0 1 1.117963-1.117963c93.202812-55.898151 63.282591-145.070413 62.98839-145.982436a3.383309 3.383309 0 0 1 0-2.677227c14.85714-29.71428-8.384723-54.750768-8.620083-55.015549a3.471569 3.471569 0 0 1-0.853182-3.089108c0.353041-1.647524 8.178782-40.246669-25.124748-60.311163a3.471569 3.471569 0 0 1-1.618105-2.412447c-5.119094-32.038467-36.598579-44.130119-36.9222-44.27722a3.236209 3.236209 0 0 1-1.529844-1.117963c-24.683447-32.097307-45.601123-45.336343-67.666183-42.865056a3.61867 3.61867 0 0 1-2.942008-1.117963c-0.235361-0.264781-25.507209-27.537195-52.397162-17.063646a3.442149 3.442149 0 0 1-3.500989-0.588402c-1.706365-1.471004-42.688536-35.804237-78.198572-6.737198A3.383309 3.383309 0 0 1 508.292267 238.302851c-35.539456-29.096459-74.756422 5.530975-75.168304 5.884016a3.383309 3.383309 0 0 1-3.55983 0.647242c-26.860533-10.473548-52.161801 16.798865-52.397162 17.063646a3.442149 3.442149 0 0 1-2.942008 1.117963c-22.15332-2.471287-43.041577 10.797169-67.666183 42.865056a3.64809 3.64809 0 0 1-1.529844 1.147383c-0.323621 0-31.803106 12.209333-36.9222 44.13012a3.500989 3.500989 0 0 1-1.647524 2.412446c-33.30353 20.064494-25.448369 58.840159-25.095328 60.311164a3.471569 3.471569 0 0 1-0.882603 3.118528c-0.941443 1.000283-23.536064 25.389529-8.620083 54.986129a3.53041 3.53041 0 0 1 0.17652 2.677227C230.743235 478.400121 201.940977 564.865735 294.967269 620.763887a3.79519 3.79519 0 0 1 1.147383 1.117963c0.323621 0.500141 32.979909 49.661094 121.76971 54.103526a3.353889 3.353889 0 0 1 2.294766 1.059123c0.264781 0.264781 28.331537 28.155016 85.14171 25.566049z" fill="#231815" p-id="9605"></path><path d="M730.384448 449.215402c0.294201-38.040163-42.659116-50.631957-42.659116-50.631957-14.71004-43.571138-49.719935-32.214987-49.719934-32.214987-30.685143-46.366046-69.99037-6.148797-69.99037-6.148797s-1.206223-1.235643 0-21.800279c-11.356151 7.972842-32.832809 21.800279-32.832809 21.800279s-2.147666-2.765487 1.853465-21.800279a32.538608 32.538608 0 0 0-25.036487 19.652614 32.538608 32.538608 0 0 0-25.036488-19.740874c3.971711 19.034792 1.824045 21.800279 1.824045 21.800279s-21.476658-13.827437-32.832809-21.800279c1.235643 20.594056 0 21.800279 0 21.800279s-39.275806-40.217249-69.96095 6.148797c0 0-35.009895-11.356151-49.719934 32.214987 0 0-42.982736 12.591794-42.659116 50.631957 0 0-40.51145 58.016397 1.824045 112.031663a88.58386 88.58386 0 0 0 65.989239 76.109747s18.711171 25.477789 89.319362 18.74059c0 0 20.035074 15.327862 55.60395 13.503817h11.297311c35.568876 1.824045 55.603951-13.503817 55.60395-13.503817 70.608191 6.737198 89.289942-18.740591 89.289942-18.74059a88.58386 88.58386 0 0 0 65.989239-76.109747c42.364915-53.927006 1.853465-111.943403 1.853465-111.943403z" fill="#F4D8BC" p-id="9606"></path><path d="M500.260585 673.190469c-28.331537 0-45.924744-10.473548-50.455437-13.562657-63.694472 5.884016-85.965473-14.386419-90.349064-19.240732-58.163497-16.916546-66.40112-69.460808-67.342563-77.816111-39.511167-51.338039-6.972559-106.530108-1.971145-114.385269 0.411881-34.892214 35.304096-49.396314 43.424037-52.338322 13.503817-37.540022 42.158974-35.098155 50.896738-33.391791 9.326165-13.239036 20.329275-20.594056 32.744549-21.712018 15.327862-1.412164 28.743418 6.825458 35.863077 12.356433 0-2.942008 0-7.649221-0.558982-14.474679a3.471569 3.471569 0 0 1 5.442715-2.942008c7.914001 5.560395 20.917677 14.062798 27.919656 18.62291a104.970844 104.970844 0 0 0-2.294766-15.092501 3.442149 3.442149 0 0 1 4.118811-4.177651 37.216401 37.216401 0 0 1 24.359826 15.622062 37.0693 37.0693 0 0 1 24.359826-15.622062 3.412729 3.412729 0 0 1 3.118528 0.970863 3.324469 3.324469 0 0 1 0.912023 3.118528 103.646941 103.646941 0 0 0-2.265347 15.092501c6.972559-4.560112 20.005654-13.062515 27.919656-18.62291a3.442149 3.442149 0 0 1 5.413295 2.942008c-0.382461 6.825458-0.529561 11.414991-0.529562 14.504099 7.119659-5.560395 20.594056-13.798017 35.863077-12.385854 12.415274 1.176803 23.536064 8.472983 32.715129 21.712019 8.826024-1.706365 37.392921-4.148231 50.926158 33.391791 8.237622 2.942008 42.982736 17.446107 43.394617 52.338321 5.001414 7.855161 37.540022 63.017811-1.941725 114.38527-0.941443 8.355303-9.179065 60.899565-67.371982 77.816111-4.354172 4.854313-26.478072 25.036488-90.319645 19.240732-4.854313 3.295049-24.683447 15.063081-56.721913 13.415556h-11.179631c-2.088826 0.205941-4.118811 0.235361-6.089956 0.235361z m-49.513994-20.594056a3.500989 3.500989 0 0 1 2.088825 0.706082c0.205941 0.1471 19.593773 14.71004 53.309185 12.797735h11.503251c33.891932 1.735785 53.309184-12.650634 53.485705-12.797735a3.500989 3.500989 0 0 1 2.441866-0.676662c67.254302 6.413577 86.024313-17.122486 86.200834-17.357847a3.70693 3.70693 0 0 1 1.853465-1.265063 85.612432 85.612432 0 0 0 63.459112-72.991218 3.412729 3.412729 0 0 1 0.735502-1.912305c40.246669-51.338039 3.324469-105.647506 1.735784-107.942272a3.442149 3.442149 0 0 1-0.647241-2.000566c0.294201-34.951055-38.510884-46.807347-40.158409-47.307488a3.324469 3.324469 0 0 1-2.294766-2.206506c-13.415556-39.687687-44.130119-30.449782-45.395183-30.037901a3.471569 3.471569 0 0 1-3.942291-1.382744c-8.384723-12.650634-18.122769-19.593773-28.949358-20.594056-18.917111-1.765205-35.510036 14.71004-35.686557 15.004241a2.942008 2.942008 0 0 1-2.471287 1.029703 3.442149 3.442149 0 0 1-2.441866-1.000283c-0.912022-0.912022-2.029985-2.029985-1.353324-17.416687-11.591511 7.855161-26.978213 17.652048-27.184154 17.887408a3.442149 3.442149 0 0 1-4.589532-0.794342c-1.765205-2.294766-1.735785-8.826024 0-19.123052a28.096176 28.096176 0 0 0-17.299007 15.945683 3.353889 3.353889 0 0 1-3.295049 2.353607 3.471569 3.471569 0 0 1-3.265629-2.383027 27.978496 27.978496 0 0 0-17.299007-15.916263c1.853465 10.414708 1.912305 16.828286 0 19.123052a3.442149 3.442149 0 0 1-4.589532 0.794342c-0.17652 0-15.592642-10.032247-27.154733-17.887408 0.647242 15.386702-0.470721 16.504665-1.382744 17.416687a2.942008 2.942008 0 0 1-2.441867 1.000283 3.500989 3.500989 0 0 1-2.471287-1.029703c-0.1471-0.17652-16.740025-16.798865-35.657136-15.004241-10.856009 1.029703-20.594056 7.972842-28.949358 20.594056a3.500989 3.500989 0 0 1-3.971711 1.382744c-1.265063-0.411881-31.950207-9.649786-45.365763 30.037901a3.383309 3.383309 0 0 1-2.294766 2.206506c-1.647524 0.500141-40.48203 12.356433-40.187829 47.307488a3.412729 3.412729 0 0 1-0.617822 2.000566c-1.588684 2.294766-38.510884 56.604233 1.706365 107.942272a3.206789 3.206789 0 0 1 0.735502 1.882885c0.1471 2.324186 4.383592 56.427713 63.488532 73.020638a3.55983 3.55983 0 0 1 2.000565 1.471004c0 0.205941 18.946531 23.742004 86.200834 17.328427z" fill="#231815" p-id="9607"></path><path d="M474.370915 502.406906c0 39.893628-22.977082 72.226296-51.338039 72.226296s-51.338039-32.362088-51.338039-72.226296c0-24.006785 8.355303-45.277503 21.182457-58.398858a94.556136 94.556136 0 0 0 60.340583 0c12.827155 13.121356 21.153037 34.392073 21.153038 58.398858z" fill="#FFFFFF" p-id="9608"></path><path d="M422.974036 578.075351c-30.185002 0-54.780188-33.950772-54.780189-75.668445 0-23.889105 8.296462-46.630826 22.15332-60.811304a3.500989 3.500989 0 0 1 3.67751-0.853183 83.906067 83.906067 0 0 0 28.949359 4.736633 83.964907 83.964907 0 0 0 28.978778-4.736633 3.500989 3.500989 0 0 1 3.67751 0.853183c13.856858 14.180478 22.15332 36.9222 22.15332 60.811304 0.05884 41.864773-24.536346 75.668445-54.809608 75.668445z m-29.125879-130.066172c-11.768032 13.003675-18.681751 33.15643-18.681751 54.397727 0 37.922483 21.476658 68.754726 47.86647 68.754727s47.89589-30.832243 47.895889-68.754727c0-21.241298-6.943139-41.394052-18.71117-54.397727a99.351609 99.351609 0 0 1-58.369438 0z" fill="#231815" p-id="9609"></path><path d="M422.974036 452.392771A92.114269 92.114269 0 0 1 391.671071 447.185417c-11.768032-4.324752-19.328992-10.856009-21.535499-18.35813a3.471569 3.471569 0 0 1 6.648938-1.941725c1.529844 5.295614 7.855161 10.326448 17.299007 13.798017a83.906067 83.906067 0 0 0 28.890519 4.795473 83.964907 83.964907 0 0 0 28.978778-4.736633c9.443846-3.471569 15.769163-8.502403 17.299007-13.798017a3.442149 3.442149 0 1 1 6.619518 1.941725c-2.177086 7.50212-9.826307 14.033378-21.535499 18.35813A91.878909 91.878909 0 0 1 422.974036 452.392771z" fill="#231815" p-id="9610"></path><path d="M381.815344 520.323735a54.309467 40.68797 90 1 0 81.37594 0 54.309467 40.68797 90 1 0-81.37594 0Z" fill="#231815" p-id="9611"></path><path d="M422.503314 578.075351c-24.330406 0-44.130119-25.91909-44.130119-57.781036s19.799714-57.751616 44.130119-57.751617 44.130119 25.91909 44.13012 57.751617-19.799714 57.781036-44.13012 57.781036z m0-108.618934c-20.594056 0-37.245821 22.800562-37.245821 50.837898s16.710605 50.867318 37.245821 50.867318 37.216401-22.800562 37.216401-50.867318-16.710605-50.837898-37.216401-50.837898z" fill="#231815" p-id="9612"></path><path d="M405.174887 499.611999a14.85714 10.591229 90 1 0 21.182458 0 14.85714 10.591229 90 1 0-21.182458 0Z" fill="#FFFFFF" p-id="9613"></path><path d="M652.274136 502.406906c0 39.893628-22.977082 72.226296-51.338039 72.226296S549.480378 542.300534 549.480378 502.406906c0-24.006785 8.355303-45.277503 21.182457-58.398858a94.467876 94.467876 0 0 0 60.311164 0c12.944835 13.121356 21.300138 34.392073 21.300137 58.398858z" fill="#FFFFFF" p-id="9614"></path><path d="M600.936097 578.075351c-30.214422 0-54.780188-33.950772-54.780188-75.668445 0-23.889105 8.267042-46.630826 22.15332-60.811304a3.471569 3.471569 0 0 1 3.67751-0.853183 90.937466 90.937466 0 0 0 57.928137 0 3.442149 3.442149 0 0 1 3.64809 0.853183c13.886278 14.180478 22.15332 36.9222 22.15332 60.811304 0 41.864773-24.565767 75.668445-54.780189 75.668445z m-29.184719-130.066172c-11.768032 13.003675-18.711171 33.15643-18.71117 54.397727 0 37.922483 21.506078 68.754726 47.895889 68.754727s47.89589-30.832243 47.89589-68.754727c0-21.241298-6.972559-41.394052-18.711171-54.397727a99.351609 99.351609 0 0 1-58.369438 0z" fill="#231815" p-id="9615"></path><path d="M600.936097 452.392771a91.996589 91.996589 0 0 1-31.361805-5.207354c-11.768032-4.324752-19.328992-10.856009-21.535498-18.35813a3.500989 3.500989 0 0 1 2.353607-4.295332 3.442149 3.442149 0 0 1 4.265911 2.353607c1.559264 5.295614 7.855161 10.326448 17.328427 13.798017a90.937466 90.937466 0 0 0 57.928137 0c9.443846-3.471569 15.739743-8.502403 17.299007-13.798017a3.442149 3.442149 0 1 1 6.619518 1.941725c-2.206506 7.50212-9.855727 14.033378-21.535499 18.35813a91.996589 91.996589 0 0 1-31.361805 5.207354z" fill="#231815" p-id="9616"></path><path d="M559.689146 520.323735a54.309467 40.68797 90 1 0 81.37594 0 54.309467 40.68797 90 1 0-81.37594 0Z" fill="#231815" p-id="9617"></path><path d="M600.377116 578.075351c-24.330406 0-44.130119-25.91909-44.13012-57.781036s19.799714-57.751616 44.13012-57.751617 44.130119 25.91909 44.130119 57.751617-19.770294 57.781036-44.130119 57.781036z m0-108.618934c-20.594056 0-37.216401 22.800562-37.216401 50.837898s16.710605 50.867318 37.216401 50.867318 37.363501-22.800562 37.363501-50.867318-16.828286-50.837898-37.363501-50.837898z" fill="#231815" p-id="9618"></path><path d="M583.048689 499.611999a14.85714 10.591229 90 1 0 21.182457 0 14.85714 10.591229 90 1 0-21.182457 0Z" fill="#FFFFFF" p-id="9619"></path><path d="M504.879537 560.982285l-16.975386-14.298159a11.03253 11.03253 0 0 1 7.09024-19.476092H528.886322a11.03253 11.03253 0 0 1 7.11966 19.476092l-17.004806 14.298159a11.06195 11.06195 0 0 1-14.121639 0z" fill="#E6231D" p-id="9620"></path><path d="M511.999197 567.013401a14.445259 14.445259 0 0 1-9.326166-3.383309l-17.004806-14.298159a14.474679 14.474679 0 0 1 9.326166-25.654309H528.886322a14.474679 14.474679 0 0 1 9.326166 25.566049l-16.975386 14.298159a14.504099 14.504099 0 0 1-9.237905 3.471569z m-17.004806-36.363218a7.590381 7.590381 0 0 0-4.883734 13.386136l17.004806 14.298159a7.56096 7.56096 0 0 0 9.767467 0l16.975386-14.298159a7.590381 7.590381 0 0 0-4.883733-13.386136z" fill="#231815" p-id="9621"></path><path d="M712.938341 487.814547c-0.735502 4.001131-1.676945 7.943422-2.794908 11.768032a145.040993 145.040993 0 0 1-11.768032 29.067038 140.127839 140.127839 0 0 1-5.736915 9.943987 165.282008 165.282008 0 0 1-17.975669 23.536064c-2.942008 3.118528-5.884016 6.119377-8.826024 9.061385a192.0837 192.0837 0 0 1-28.566897 22.4181q-5.884016 3.70693-11.768032 7.031399a221.121319 221.121319 0 0 1-44.13012 18.44639q-8.590663 2.500707-17.504947 4.442432a242.186096 242.186096 0 0 1-48.778492 5.266195h-1.647525c-3.53041 0-7.001979 0-10.473548-0.235361a236.890481 236.890481 0 0 1-50.308336-7.50212c-2.942008-0.794342-6.060536-1.618104-9.061385-2.559547a221.150739 221.150739 0 0 1-37.951902-15.386702c-3.70693-1.941725-7.3256-3.971711-10.82659-6.119377a194.584407 194.584407 0 0 1-34.450913-26.330971c-1.235643-1.235643-2.500707-2.471287-3.67751-3.70693a167.194313 167.194313 0 0 1-24.801127-32.362087c-1.147383-2.000565-2.265346-4.001131-3.324469-5.884016a145.305773 145.305773 0 0 1-12.562374-32.362088c-0.706082-2.765487-1.323904-5.530975-1.853465-8.325883l1.853465 8.325883c-5.148514 7.23734-17.328427 27.007633-17.328427 27.007633l29.890801 5.472135 3.324469 5.884016-9.885147 34.450913 34.686274-2.235926 3.67751 3.70693v35.951337l34.450913-9.620366 10.82659 6.148797 5.383874 34.215553 32.685709-18.622911 9.061384 2.559547 23.300703 31.714846 27.007633-24.212725 12.121073 0.23536 27.478355 23.977365 21.300137-29.243559 17.504948-4.442432 34.862794 14.9454 9.237905-33.39179 11.768032-7.031399 33.009329 10.355868-4.442432-32.773969 8.826024-9.061384 25.68373 2.942008-7.708061-26.478072 5.736915-9.943987 26.831113-5.589815-15.151341-23.536064" fill="#FFFFFF" p-id="9622"></path><path d="M476.077279 656.332763h-0.353041a3.55983 3.55983 0 0 1-2.412446-1.412164l-22.594621-30.714563c-2.324186-0.617822-4.501272-1.206223-6.560678-1.853465l-31.420645 17.887409a3.53041 3.53041 0 0 1-3.206789 0 3.471569 3.471569 0 0 1-1.912305-2.588967L402.37998 605.259505c-2.706647-1.441584-5.472135-2.942008-8.178782-4.618953L361.191868 609.849037a3.412729 3.412729 0 0 1-4.383592-3.324469v-34.509753l-1.618104-1.588684-33.06817 2.118245a3.383309 3.383309 0 0 1-2.942008-1.294483 3.471569 3.471569 0 0 1-0.647241-3.118529l9.502685-33.038749c-0.647242-1.117963-1.265063-2.235926-1.882885-3.383309L298.056377 526.619632a3.442149 3.442149 0 0 1-2.324186-5.207354c0.470721-0.764922 11.03253-17.857988 16.534085-25.86025-0.529561-2.177086-1.029703-4.501272-1.529844-7.001979a3.471569 3.471569 0 0 1 2.706647-4.030551 3.412729 3.412729 0 0 1 4.059971 2.618387l1.853465 8.296462a141.216382 141.216382 0 0 0 12.238753 31.626586l3.295049 5.884016a163.134342 163.134342 0 0 0 24.242146 31.508905l3.67751 3.67751A189.318213 189.318213 0 0 0 396.495964 593.932774l10.738329 6.060537a218.179311 218.179311 0 0 0 37.422341 15.327861l8.826024 2.530127a234.772236 234.772236 0 0 0 49.513994 7.38444l12.062233 0.205941a237.272942 237.272942 0 0 0 47.95473-5.177935l17.387267-4.413011a216.561206 216.561206 0 0 0 43.276937-18.063929l11.768032-7.001979a188.023729 188.023729 0 0 0 27.949076-21.94738l8.826023-8.826024a160.280594 160.280594 0 0 0 17.652048-22.977082l5.678076-9.826306a143.452308 143.452308 0 0 0 11.38557-28.302117c1.088543-3.85403 2.029985-7.737481 2.736068-11.532671a3.442149 3.442149 0 0 1 6.796038 1.265063c-0.676662 3.53041-1.500424 7.119659-2.471286 10.650069l14.327578 22.18274A3.500989 3.500989 0 0 1 726.000856 526.619632l-25.242428 5.236774c-1.323904 2.471287-2.765487 4.942573-4.295332 7.41386l7.29618 24.948228a3.471569 3.471569 0 0 1-3.70693 4.413012l-23.918525-2.677228c-2.118246 2.294766-4.324752 4.530692-6.560678 6.707779l4.207072 31.067604a3.471569 3.471569 0 0 1-1.206224 2.942008 3.353889 3.353889 0 0 1-3.265628 0.647241L637.740617 597.492604c-2.942008 1.941725-6.148797 3.79519-9.326165 5.589815l-8.826024 32.009047a3.412729 3.412729 0 0 1-1.853465 2.177086 3.353889 3.353889 0 0 1-2.942008 0l-33.715411-14.47468c-4.942573 1.441584-10.061667 2.736067-15.239602 3.883451l-20.594055 28.184436a3.442149 3.442149 0 0 1-2.412447 1.412164 3.53041 3.53041 0 0 1-2.647807-0.853182l-26.478072-23.124183c-3.412729 0-6.560678 0-9.590946-0.17652l-25.91909 23.271283a3.412729 3.412729 0 0 1-2.118246 0.941442z m48.07241-24.212725l17.975669 15.680902 13.915698-19.093632a243.56884 243.56884 0 0 1-31.891367 3.41273zM461.220139 626.647903l15.474962 21.035357 18.005089-16.122204A243.539419 243.539419 0 0 1 461.220139 626.647903z m-51.014418-17.652048l3.530409 22.624041 21.564919-12.268173a220.444657 220.444657 0 0 1-25.183588-10.208768z m181.227691 10.532389l22.712301 9.738046 6.060537-21.829699a226.534613 226.534613 0 0 1-28.861099 12.238753z m-227.505476-41.188112v23.536064l22.535781-6.295897a195.64353 195.64353 0 0 1-22.624042-17.122487z m281.403062 14.121638l20.976516 6.590098-2.942008-20.829416a192.20138 192.20138 0 0 1-18.122769 14.356999zM333.066272 543.065456l-6.384157 22.271001 22.447521-1.441584a168.782997 168.782997 0 0 1-16.063364-20.829417z m348.804465 16.475245l13.945117 1.559264-4.177651-14.298158q-4.648373 6.531258-9.767466 12.738894zM304.293434 520.735616l18.093349 3.295049a143.775929 143.775929 0 0 1-7.678641-19.711453c-3.53041 5.354454-7.737481 12.062233-10.414708 16.416404zM711.290816 507.761361a155.10266 155.10266 0 0 1-6.501837 16.122204l14.91598-2.942008zM510.263412 936.676702A122.152171 122.152171 0 0 1 439.184499 914.964683a3.442149 3.442149 0 1 1 4.059971-5.589815c27.949076 20.329275 80.846379 32.773969 137.833074 0.941443a3.471569 3.471569 0 0 1 3.383309 6.031116 151.660511 151.660511 0 0 1-74.197441 20.329275z" fill="#231815" p-id="9623"></path><path d="M511.999197 970.480374a3.471569 3.471569 0 0 1-3.47157-3.47157v-33.891931a3.471569 3.471569 0 1 1 6.913719 0v33.891931a3.442149 3.442149 0 0 1-3.442149 3.47157zM501.819849 835.530468a3.442149 3.442149 0 0 1-3.412729-2.942008c-0.970863-7.44328-2.765487-9.473266-3.383309-9.620366s-4.001131 2.000565-5.884016 4.618953a3.500989 3.500989 0 0 1-3.854031 1.265063 3.442149 3.442149 0 0 1-2.412446-3.265629c0-2.942008 0-4.736633-0.264781-5.884015-1.088543 0.941443-2.471287 2.265346-3.76577 3.500989-2.294766 2.235926-5.207354 5.001414-8.826024 7.972842a3.442149 3.442149 0 0 1-4.442432-5.295615c3.324469-2.794908 6.119377-5.501555 8.384723-7.64922 5.060254-4.854313 8.119942-7.766901 11.768031-6.266477 2.059406 0.853182 2.942008 2.736067 3.58925 5.884016a9.385005 9.385005 0 0 1 7.35502-1.588685c4.560112 1.147383 7.35502 6.207637 8.561243 15.445542A3.471569 3.471569 0 0 1 502.408251 835.530468zM439.714061 778.896815h-0.529562a3.442149 3.442149 0 0 1-2.942008-3.942291c0.647242-4.295332 1.000283-8.178782 1.294484-11.26789 0.617822-7.001979 1.000283-11.20905 4.677793-12.415274a6.796038 6.796038 0 0 1 6.619518 2.147666 9.473266 9.473266 0 0 1 4.560112-6.148797c4.207071-2.118246 9.649786 0 16.592925 6.060537a3.442149 3.442149 0 1 1-4.589533 5.148514c-5.589815-4.971993-8.296462-5.325034-8.826024-5.030834-1.029703 0.500141-1.706365 4.148231-1.412163 7.35502a3.471569 3.471569 0 0 1-6.031117 2.588967c-1.912305-2.147666-3.206789-3.471569-4.089391-4.295332-0.205941 1.441584-0.382461 3.324469-0.529561 5.119094-0.294201 3.177369-0.647242 7.178499-1.353324 11.768032a3.471569 3.471569 0 0 1-3.442149 2.912588zM584.784474 779.014495a3.471569 3.471569 0 0 1-3.44215-2.942008c-0.941443-7.44328-2.765487-9.473266-3.383309-9.649786-1.206223-0.323621-4.207071 2.294766-5.884016 4.618953a3.442149 3.442149 0 0 1-3.85403 1.294483 3.500989 3.500989 0 0 1-2.412447-3.265629 50.926158 50.926158 0 0 0-0.26478-5.884015c-1.088543 0.941443-2.471287 2.265346-3.736351 3.500989-2.324186 2.235926-5.207354 5.001414-8.826023 7.972842a3.471569 3.471569 0 1 1-4.471853-5.295615c3.353889-2.794908 6.148797-5.501555 8.384723-7.64922 5.060254-4.854313 8.119942-7.796321 11.768032-6.295898 2.059406 0.882602 2.942008 2.765487 3.58925 5.884016a9.355585 9.355585 0 0 1 7.38444-1.588684c4.560112 1.147383 7.35502 6.207637 8.531823 15.445542a3.471569 3.471569 0 0 1-2.942008 3.88345zM489.433995 286.492942a3.442149 3.442149 0 0 1-2.412446-5.884016c1.206223-1.706365 6.943139-11.768032 11.973972-20.594056a3.500989 3.500989 0 0 1 3.147949-1.765205 3.442149 3.442149 0 0 1 2.942008 2.029986L508.527627 267.722931l4.148231-5.148514a3.295049 3.295049 0 0 1 2.706648-1.294484 3.500989 3.500989 0 0 1 2.677227 1.323904l11.20905 14.268739a3.471569 3.471569 0 0 1-0.588401 4.854313 3.412729 3.412729 0 0 1-4.824893-0.588402l-8.531823-10.856009-4.942574 6.148796a3.471569 3.471569 0 0 1-5.884016-0.764922l-2.942008-6.325317c-9.179065 16.298724-9.738046 16.534085-10.973689 17.034226a3.85403 3.85403 0 0 1-1.147384 0.117681zM383.698229 322.67964a5.030834 5.030834 0 0 1-2.942008-0.735502 4.295332 4.295332 0 0 1-2.088825-3.353889 28.390377 28.390377 0 0 1 2.000565-9.561526l-6.766618 1.059123a3.412729 3.412729 0 0 1-2.942008-0.882603 3.442149 3.442149 0 0 1-1.117963-2.765487c0-0.470721 0.912022-11.768032 16.328144-18.44639a3.471569 3.471569 0 1 1 2.765487 6.354737 22.418101 22.418101 0 0 0-10.297028 8.002262l6.854879-1.088543a3.471569 3.471569 0 0 1 3.64809 4.707212 61.076085 61.076085 0 0 0-3.353889 9.532106 123.946796 123.946796 0 0 0 18.50523-6.442997 3.442149 3.442149 0 0 1 4.530692 1.824045 3.500989 3.500989 0 0 1-1.824045 4.530692c-13.621497 5.942856-20.093914 7.26676-23.300703 7.26676zM648.361266 320.826175a3.383309 3.383309 0 0 1-2.647807-1.235644 3.442149 3.442149 0 0 1 0.411881-4.854313l10.061667-8.472983-10.355868-2.206506a3.442149 3.442149 0 0 1-2.353606-4.913153l1.294483-2.559547h-12.474114a3.442149 3.442149 0 0 1 0.941443-6.825458h17.093066a3.500989 3.500989 0 0 1 2.942008 1.618104 3.53041 3.53041 0 0 1 0.147101 3.383309l-1.794625 3.58925 12.885995 2.765487a3.412729 3.412729 0 0 1 1.500424 5.884016l-15.474962 13.033096a3.500989 3.500989 0 0 1-2.177086 0.794342z" fill="#231815" p-id="9624"></path></svg>